%TF.GenerationSoftware,KiCad,Pcbnew,9.0.6*%
%TF.CreationDate,2025-12-09T15:58:13+01:00*%
%TF.ProjectId,STR500_v1,53545235-3030-45f7-9631-2e6b69636164,rev?*%
%TF.SameCoordinates,Original*%
%TF.FileFunction,Legend,Top*%
%TF.FilePolarity,Positive*%
%FSLAX46Y46*%
G04 Gerber Fmt 4.6, Leading zero omitted, Abs format (unit mm)*
G04 Created by KiCad (PCBNEW 9.0.6) date 2025-12-09 15:58:13*
%MOMM*%
%LPD*%
G01*
G04 APERTURE LIST*
G04 Aperture macros list*
%AMRoundRect*
0 Rectangle with rounded corners*
0 $1 Rounding radius*
0 $2 $3 $4 $5 $6 $7 $8 $9 X,Y pos of 4 corners*
0 Add a 4 corners polygon primitive as box body*
4,1,4,$2,$3,$4,$5,$6,$7,$8,$9,$2,$3,0*
0 Add four circle primitives for the rounded corners*
1,1,$1+$1,$2,$3*
1,1,$1+$1,$4,$5*
1,1,$1+$1,$6,$7*
1,1,$1+$1,$8,$9*
0 Add four rect primitives between the rounded corners*
20,1,$1+$1,$2,$3,$4,$5,0*
20,1,$1+$1,$4,$5,$6,$7,0*
20,1,$1+$1,$6,$7,$8,$9,0*
20,1,$1+$1,$8,$9,$2,$3,0*%
G04 Aperture macros list end*
%ADD10C,0.150000*%
%ADD11C,0.200000*%
%ADD12C,0.127000*%
%ADD13C,0.120000*%
%ADD14C,1.600000*%
%ADD15O,1.740000X2.190000*%
%ADD16RoundRect,0.250000X-0.620000X-0.845000X0.620000X-0.845000X0.620000X0.845000X-0.620000X0.845000X0*%
%ADD17C,1.839000*%
%ADD18RoundRect,0.102000X0.817500X-0.817500X0.817500X0.817500X-0.817500X0.817500X-0.817500X-0.817500X0*%
%ADD19RoundRect,0.102000X-0.975000X-0.975000X0.975000X-0.975000X0.975000X0.975000X-0.975000X0.975000X0*%
%ADD20C,2.154000*%
%ADD21C,2.000000*%
%ADD22C,1.800000*%
%ADD23R,1.800000X1.800000*%
%ADD24R,1.700000X1.700000*%
%ADD25RoundRect,0.250000X0.350000X0.650000X-0.350000X0.650000X-0.350000X-0.650000X0.350000X-0.650000X0*%
%ADD26O,1.700000X1.700000*%
%ADD27O,1.200000X1.800000*%
%ADD28RoundRect,0.250000X0.550000X-0.550000X0.550000X0.550000X-0.550000X0.550000X-0.550000X-0.550000X0*%
%ADD29C,1.700000*%
%ADD30RoundRect,0.250000X-0.845000X0.620000X-0.845000X-0.620000X0.845000X-0.620000X0.845000X0.620000X0*%
%ADD31O,2.190000X1.740000*%
G04 APERTURE END LIST*
D10*
X105914700Y-90285832D02*
X105962319Y-90142975D01*
X105962319Y-90142975D02*
X105962319Y-89904880D01*
X105962319Y-89904880D02*
X105914700Y-89809642D01*
X105914700Y-89809642D02*
X105867080Y-89762023D01*
X105867080Y-89762023D02*
X105771842Y-89714404D01*
X105771842Y-89714404D02*
X105676604Y-89714404D01*
X105676604Y-89714404D02*
X105581366Y-89762023D01*
X105581366Y-89762023D02*
X105533747Y-89809642D01*
X105533747Y-89809642D02*
X105486128Y-89904880D01*
X105486128Y-89904880D02*
X105438509Y-90095356D01*
X105438509Y-90095356D02*
X105390890Y-90190594D01*
X105390890Y-90190594D02*
X105343271Y-90238213D01*
X105343271Y-90238213D02*
X105248033Y-90285832D01*
X105248033Y-90285832D02*
X105152795Y-90285832D01*
X105152795Y-90285832D02*
X105057557Y-90238213D01*
X105057557Y-90238213D02*
X105009938Y-90190594D01*
X105009938Y-90190594D02*
X104962319Y-90095356D01*
X104962319Y-90095356D02*
X104962319Y-89857261D01*
X104962319Y-89857261D02*
X105009938Y-89714404D01*
X104962319Y-89381070D02*
X105962319Y-89142975D01*
X105962319Y-89142975D02*
X105248033Y-88952499D01*
X105248033Y-88952499D02*
X105962319Y-88762023D01*
X105962319Y-88762023D02*
X104962319Y-88523928D01*
X105962319Y-87619166D02*
X105962319Y-88190594D01*
X105962319Y-87904880D02*
X104962319Y-87904880D01*
X104962319Y-87904880D02*
X105105176Y-88000118D01*
X105105176Y-88000118D02*
X105200414Y-88095356D01*
X105200414Y-88095356D02*
X105248033Y-88190594D01*
X112947319Y-84610356D02*
X111947319Y-84610356D01*
X111947319Y-84610356D02*
X111947319Y-84229404D01*
X111947319Y-84229404D02*
X111994938Y-84134166D01*
X111994938Y-84134166D02*
X112042557Y-84086547D01*
X112042557Y-84086547D02*
X112137795Y-84038928D01*
X112137795Y-84038928D02*
X112280652Y-84038928D01*
X112280652Y-84038928D02*
X112375890Y-84086547D01*
X112375890Y-84086547D02*
X112423509Y-84134166D01*
X112423509Y-84134166D02*
X112471128Y-84229404D01*
X112471128Y-84229404D02*
X112471128Y-84610356D01*
X112947319Y-83610356D02*
X112280652Y-83610356D01*
X111947319Y-83610356D02*
X111994938Y-83657975D01*
X111994938Y-83657975D02*
X112042557Y-83610356D01*
X112042557Y-83610356D02*
X111994938Y-83562737D01*
X111994938Y-83562737D02*
X111947319Y-83610356D01*
X111947319Y-83610356D02*
X112042557Y-83610356D01*
X112280652Y-83277023D02*
X112280652Y-82896071D01*
X111947319Y-83134166D02*
X112804461Y-83134166D01*
X112804461Y-83134166D02*
X112899700Y-83086547D01*
X112899700Y-83086547D02*
X112947319Y-82991309D01*
X112947319Y-82991309D02*
X112947319Y-82896071D01*
X112899700Y-82134166D02*
X112947319Y-82229404D01*
X112947319Y-82229404D02*
X112947319Y-82419880D01*
X112947319Y-82419880D02*
X112899700Y-82515118D01*
X112899700Y-82515118D02*
X112852080Y-82562737D01*
X112852080Y-82562737D02*
X112756842Y-82610356D01*
X112756842Y-82610356D02*
X112471128Y-82610356D01*
X112471128Y-82610356D02*
X112375890Y-82562737D01*
X112375890Y-82562737D02*
X112328271Y-82515118D01*
X112328271Y-82515118D02*
X112280652Y-82419880D01*
X112280652Y-82419880D02*
X112280652Y-82229404D01*
X112280652Y-82229404D02*
X112328271Y-82134166D01*
X112947319Y-81705594D02*
X111947319Y-81705594D01*
X112947319Y-81277023D02*
X112423509Y-81277023D01*
X112423509Y-81277023D02*
X112328271Y-81324642D01*
X112328271Y-81324642D02*
X112280652Y-81419880D01*
X112280652Y-81419880D02*
X112280652Y-81562737D01*
X112280652Y-81562737D02*
X112328271Y-81657975D01*
X112328271Y-81657975D02*
X112375890Y-81705594D01*
X111947319Y-80610356D02*
X111947319Y-80419880D01*
X111947319Y-80419880D02*
X111994938Y-80324642D01*
X111994938Y-80324642D02*
X112090176Y-80229404D01*
X112090176Y-80229404D02*
X112280652Y-80181785D01*
X112280652Y-80181785D02*
X112613985Y-80181785D01*
X112613985Y-80181785D02*
X112804461Y-80229404D01*
X112804461Y-80229404D02*
X112899700Y-80324642D01*
X112899700Y-80324642D02*
X112947319Y-80419880D01*
X112947319Y-80419880D02*
X112947319Y-80610356D01*
X112947319Y-80610356D02*
X112899700Y-80705594D01*
X112899700Y-80705594D02*
X112804461Y-80800832D01*
X112804461Y-80800832D02*
X112613985Y-80848451D01*
X112613985Y-80848451D02*
X112280652Y-80848451D01*
X112280652Y-80848451D02*
X112090176Y-80800832D01*
X112090176Y-80800832D02*
X111994938Y-80705594D01*
X111994938Y-80705594D02*
X111947319Y-80610356D01*
X112280652Y-79753213D02*
X112947319Y-79753213D01*
X112375890Y-79753213D02*
X112328271Y-79705594D01*
X112328271Y-79705594D02*
X112280652Y-79610356D01*
X112280652Y-79610356D02*
X112280652Y-79467499D01*
X112280652Y-79467499D02*
X112328271Y-79372261D01*
X112328271Y-79372261D02*
X112423509Y-79324642D01*
X112423509Y-79324642D02*
X112947319Y-79324642D01*
X158914700Y-46980832D02*
X158962319Y-46837975D01*
X158962319Y-46837975D02*
X158962319Y-46599880D01*
X158962319Y-46599880D02*
X158914700Y-46504642D01*
X158914700Y-46504642D02*
X158867080Y-46457023D01*
X158867080Y-46457023D02*
X158771842Y-46409404D01*
X158771842Y-46409404D02*
X158676604Y-46409404D01*
X158676604Y-46409404D02*
X158581366Y-46457023D01*
X158581366Y-46457023D02*
X158533747Y-46504642D01*
X158533747Y-46504642D02*
X158486128Y-46599880D01*
X158486128Y-46599880D02*
X158438509Y-46790356D01*
X158438509Y-46790356D02*
X158390890Y-46885594D01*
X158390890Y-46885594D02*
X158343271Y-46933213D01*
X158343271Y-46933213D02*
X158248033Y-46980832D01*
X158248033Y-46980832D02*
X158152795Y-46980832D01*
X158152795Y-46980832D02*
X158057557Y-46933213D01*
X158057557Y-46933213D02*
X158009938Y-46885594D01*
X158009938Y-46885594D02*
X157962319Y-46790356D01*
X157962319Y-46790356D02*
X157962319Y-46552261D01*
X157962319Y-46552261D02*
X158009938Y-46409404D01*
X157962319Y-46076070D02*
X158962319Y-45837975D01*
X158962319Y-45837975D02*
X158248033Y-45647499D01*
X158248033Y-45647499D02*
X158962319Y-45457023D01*
X158962319Y-45457023D02*
X157962319Y-45218928D01*
X158057557Y-44885594D02*
X158009938Y-44837975D01*
X158009938Y-44837975D02*
X157962319Y-44742737D01*
X157962319Y-44742737D02*
X157962319Y-44504642D01*
X157962319Y-44504642D02*
X158009938Y-44409404D01*
X158009938Y-44409404D02*
X158057557Y-44361785D01*
X158057557Y-44361785D02*
X158152795Y-44314166D01*
X158152795Y-44314166D02*
X158248033Y-44314166D01*
X158248033Y-44314166D02*
X158390890Y-44361785D01*
X158390890Y-44361785D02*
X158962319Y-44933213D01*
X158962319Y-44933213D02*
X158962319Y-44314166D01*
X166454819Y-49075952D02*
X165454819Y-49075952D01*
X165454819Y-49075952D02*
X165454819Y-48695000D01*
X165454819Y-48695000D02*
X165502438Y-48599762D01*
X165502438Y-48599762D02*
X165550057Y-48552143D01*
X165550057Y-48552143D02*
X165645295Y-48504524D01*
X165645295Y-48504524D02*
X165788152Y-48504524D01*
X165788152Y-48504524D02*
X165883390Y-48552143D01*
X165883390Y-48552143D02*
X165931009Y-48599762D01*
X165931009Y-48599762D02*
X165978628Y-48695000D01*
X165978628Y-48695000D02*
X165978628Y-49075952D01*
X166454819Y-47933095D02*
X166407200Y-48028333D01*
X166407200Y-48028333D02*
X166359580Y-48075952D01*
X166359580Y-48075952D02*
X166264342Y-48123571D01*
X166264342Y-48123571D02*
X165978628Y-48123571D01*
X165978628Y-48123571D02*
X165883390Y-48075952D01*
X165883390Y-48075952D02*
X165835771Y-48028333D01*
X165835771Y-48028333D02*
X165788152Y-47933095D01*
X165788152Y-47933095D02*
X165788152Y-47790238D01*
X165788152Y-47790238D02*
X165835771Y-47695000D01*
X165835771Y-47695000D02*
X165883390Y-47647381D01*
X165883390Y-47647381D02*
X165978628Y-47599762D01*
X165978628Y-47599762D02*
X166264342Y-47599762D01*
X166264342Y-47599762D02*
X166359580Y-47647381D01*
X166359580Y-47647381D02*
X166407200Y-47695000D01*
X166407200Y-47695000D02*
X166454819Y-47790238D01*
X166454819Y-47790238D02*
X166454819Y-47933095D01*
X165788152Y-47266428D02*
X166454819Y-47075952D01*
X166454819Y-47075952D02*
X165978628Y-46885476D01*
X165978628Y-46885476D02*
X166454819Y-46695000D01*
X166454819Y-46695000D02*
X165788152Y-46504524D01*
X166407200Y-45742619D02*
X166454819Y-45837857D01*
X166454819Y-45837857D02*
X166454819Y-46028333D01*
X166454819Y-46028333D02*
X166407200Y-46123571D01*
X166407200Y-46123571D02*
X166311961Y-46171190D01*
X166311961Y-46171190D02*
X165931009Y-46171190D01*
X165931009Y-46171190D02*
X165835771Y-46123571D01*
X165835771Y-46123571D02*
X165788152Y-46028333D01*
X165788152Y-46028333D02*
X165788152Y-45837857D01*
X165788152Y-45837857D02*
X165835771Y-45742619D01*
X165835771Y-45742619D02*
X165931009Y-45695000D01*
X165931009Y-45695000D02*
X166026247Y-45695000D01*
X166026247Y-45695000D02*
X166121485Y-46171190D01*
X166454819Y-45266428D02*
X165788152Y-45266428D01*
X165978628Y-45266428D02*
X165883390Y-45218809D01*
X165883390Y-45218809D02*
X165835771Y-45171190D01*
X165835771Y-45171190D02*
X165788152Y-45075952D01*
X165788152Y-45075952D02*
X165788152Y-44980714D01*
X166407200Y-44694999D02*
X166454819Y-44552142D01*
X166454819Y-44552142D02*
X166454819Y-44314047D01*
X166454819Y-44314047D02*
X166407200Y-44218809D01*
X166407200Y-44218809D02*
X166359580Y-44171190D01*
X166359580Y-44171190D02*
X166264342Y-44123571D01*
X166264342Y-44123571D02*
X166169104Y-44123571D01*
X166169104Y-44123571D02*
X166073866Y-44171190D01*
X166073866Y-44171190D02*
X166026247Y-44218809D01*
X166026247Y-44218809D02*
X165978628Y-44314047D01*
X165978628Y-44314047D02*
X165931009Y-44504523D01*
X165931009Y-44504523D02*
X165883390Y-44599761D01*
X165883390Y-44599761D02*
X165835771Y-44647380D01*
X165835771Y-44647380D02*
X165740533Y-44694999D01*
X165740533Y-44694999D02*
X165645295Y-44694999D01*
X165645295Y-44694999D02*
X165550057Y-44647380D01*
X165550057Y-44647380D02*
X165502438Y-44599761D01*
X165502438Y-44599761D02*
X165454819Y-44504523D01*
X165454819Y-44504523D02*
X165454819Y-44266428D01*
X165454819Y-44266428D02*
X165502438Y-44123571D01*
X165788152Y-43790237D02*
X166454819Y-43599761D01*
X166454819Y-43599761D02*
X165978628Y-43409285D01*
X165978628Y-43409285D02*
X166454819Y-43218809D01*
X166454819Y-43218809D02*
X165788152Y-43028333D01*
X166454819Y-42647380D02*
X165788152Y-42647380D01*
X165454819Y-42647380D02*
X165502438Y-42694999D01*
X165502438Y-42694999D02*
X165550057Y-42647380D01*
X165550057Y-42647380D02*
X165502438Y-42599761D01*
X165502438Y-42599761D02*
X165454819Y-42647380D01*
X165454819Y-42647380D02*
X165550057Y-42647380D01*
X165788152Y-42314047D02*
X165788152Y-41933095D01*
X165454819Y-42171190D02*
X166311961Y-42171190D01*
X166311961Y-42171190D02*
X166407200Y-42123571D01*
X166407200Y-42123571D02*
X166454819Y-42028333D01*
X166454819Y-42028333D02*
X166454819Y-41933095D01*
X166407200Y-41171190D02*
X166454819Y-41266428D01*
X166454819Y-41266428D02*
X166454819Y-41456904D01*
X166454819Y-41456904D02*
X166407200Y-41552142D01*
X166407200Y-41552142D02*
X166359580Y-41599761D01*
X166359580Y-41599761D02*
X166264342Y-41647380D01*
X166264342Y-41647380D02*
X165978628Y-41647380D01*
X165978628Y-41647380D02*
X165883390Y-41599761D01*
X165883390Y-41599761D02*
X165835771Y-41552142D01*
X165835771Y-41552142D02*
X165788152Y-41456904D01*
X165788152Y-41456904D02*
X165788152Y-41266428D01*
X165788152Y-41266428D02*
X165835771Y-41171190D01*
X166454819Y-40742618D02*
X165454819Y-40742618D01*
X166454819Y-40314047D02*
X165931009Y-40314047D01*
X165931009Y-40314047D02*
X165835771Y-40361666D01*
X165835771Y-40361666D02*
X165788152Y-40456904D01*
X165788152Y-40456904D02*
X165788152Y-40599761D01*
X165788152Y-40599761D02*
X165835771Y-40694999D01*
X165835771Y-40694999D02*
X165883390Y-40742618D01*
X81914700Y-121285832D02*
X81962319Y-121142975D01*
X81962319Y-121142975D02*
X81962319Y-120904880D01*
X81962319Y-120904880D02*
X81914700Y-120809642D01*
X81914700Y-120809642D02*
X81867080Y-120762023D01*
X81867080Y-120762023D02*
X81771842Y-120714404D01*
X81771842Y-120714404D02*
X81676604Y-120714404D01*
X81676604Y-120714404D02*
X81581366Y-120762023D01*
X81581366Y-120762023D02*
X81533747Y-120809642D01*
X81533747Y-120809642D02*
X81486128Y-120904880D01*
X81486128Y-120904880D02*
X81438509Y-121095356D01*
X81438509Y-121095356D02*
X81390890Y-121190594D01*
X81390890Y-121190594D02*
X81343271Y-121238213D01*
X81343271Y-121238213D02*
X81248033Y-121285832D01*
X81248033Y-121285832D02*
X81152795Y-121285832D01*
X81152795Y-121285832D02*
X81057557Y-121238213D01*
X81057557Y-121238213D02*
X81009938Y-121190594D01*
X81009938Y-121190594D02*
X80962319Y-121095356D01*
X80962319Y-121095356D02*
X80962319Y-120857261D01*
X80962319Y-120857261D02*
X81009938Y-120714404D01*
X80962319Y-120381070D02*
X81962319Y-120142975D01*
X81962319Y-120142975D02*
X81248033Y-119952499D01*
X81248033Y-119952499D02*
X81962319Y-119762023D01*
X81962319Y-119762023D02*
X80962319Y-119523928D01*
X80962319Y-119238213D02*
X80962319Y-118619166D01*
X80962319Y-118619166D02*
X81343271Y-118952499D01*
X81343271Y-118952499D02*
X81343271Y-118809642D01*
X81343271Y-118809642D02*
X81390890Y-118714404D01*
X81390890Y-118714404D02*
X81438509Y-118666785D01*
X81438509Y-118666785D02*
X81533747Y-118619166D01*
X81533747Y-118619166D02*
X81771842Y-118619166D01*
X81771842Y-118619166D02*
X81867080Y-118666785D01*
X81867080Y-118666785D02*
X81914700Y-118714404D01*
X81914700Y-118714404D02*
X81962319Y-118809642D01*
X81962319Y-118809642D02*
X81962319Y-119095356D01*
X81962319Y-119095356D02*
X81914700Y-119190594D01*
X81914700Y-119190594D02*
X81867080Y-119238213D01*
X88423509Y-115324643D02*
X88423509Y-115657976D01*
X88947319Y-115657976D02*
X87947319Y-115657976D01*
X87947319Y-115657976D02*
X87947319Y-115181786D01*
X88947319Y-114800833D02*
X88280652Y-114800833D01*
X87947319Y-114800833D02*
X87994938Y-114848452D01*
X87994938Y-114848452D02*
X88042557Y-114800833D01*
X88042557Y-114800833D02*
X87994938Y-114753214D01*
X87994938Y-114753214D02*
X87947319Y-114800833D01*
X87947319Y-114800833D02*
X88042557Y-114800833D01*
X88947319Y-114181786D02*
X88899700Y-114277024D01*
X88899700Y-114277024D02*
X88804461Y-114324643D01*
X88804461Y-114324643D02*
X87947319Y-114324643D01*
X88280652Y-113943690D02*
X88280652Y-113562738D01*
X87947319Y-113800833D02*
X88804461Y-113800833D01*
X88804461Y-113800833D02*
X88899700Y-113753214D01*
X88899700Y-113753214D02*
X88947319Y-113657976D01*
X88947319Y-113657976D02*
X88947319Y-113562738D01*
X88899700Y-112848452D02*
X88947319Y-112943690D01*
X88947319Y-112943690D02*
X88947319Y-113134166D01*
X88947319Y-113134166D02*
X88899700Y-113229404D01*
X88899700Y-113229404D02*
X88804461Y-113277023D01*
X88804461Y-113277023D02*
X88423509Y-113277023D01*
X88423509Y-113277023D02*
X88328271Y-113229404D01*
X88328271Y-113229404D02*
X88280652Y-113134166D01*
X88280652Y-113134166D02*
X88280652Y-112943690D01*
X88280652Y-112943690D02*
X88328271Y-112848452D01*
X88328271Y-112848452D02*
X88423509Y-112800833D01*
X88423509Y-112800833D02*
X88518747Y-112800833D01*
X88518747Y-112800833D02*
X88613985Y-113277023D01*
X88947319Y-112372261D02*
X88280652Y-112372261D01*
X88471128Y-112372261D02*
X88375890Y-112324642D01*
X88375890Y-112324642D02*
X88328271Y-112277023D01*
X88328271Y-112277023D02*
X88280652Y-112181785D01*
X88280652Y-112181785D02*
X88280652Y-112086547D01*
X87947319Y-111562737D02*
X87947319Y-111372261D01*
X87947319Y-111372261D02*
X87994938Y-111277023D01*
X87994938Y-111277023D02*
X88090176Y-111181785D01*
X88090176Y-111181785D02*
X88280652Y-111134166D01*
X88280652Y-111134166D02*
X88613985Y-111134166D01*
X88613985Y-111134166D02*
X88804461Y-111181785D01*
X88804461Y-111181785D02*
X88899700Y-111277023D01*
X88899700Y-111277023D02*
X88947319Y-111372261D01*
X88947319Y-111372261D02*
X88947319Y-111562737D01*
X88947319Y-111562737D02*
X88899700Y-111657975D01*
X88899700Y-111657975D02*
X88804461Y-111753213D01*
X88804461Y-111753213D02*
X88613985Y-111800832D01*
X88613985Y-111800832D02*
X88280652Y-111800832D01*
X88280652Y-111800832D02*
X88090176Y-111753213D01*
X88090176Y-111753213D02*
X87994938Y-111657975D01*
X87994938Y-111657975D02*
X87947319Y-111562737D01*
X88280652Y-110705594D02*
X88947319Y-110705594D01*
X88375890Y-110705594D02*
X88328271Y-110657975D01*
X88328271Y-110657975D02*
X88280652Y-110562737D01*
X88280652Y-110562737D02*
X88280652Y-110419880D01*
X88280652Y-110419880D02*
X88328271Y-110324642D01*
X88328271Y-110324642D02*
X88423509Y-110277023D01*
X88423509Y-110277023D02*
X88947319Y-110277023D01*
X142914285Y-96546009D02*
X143057142Y-96593628D01*
X143057142Y-96593628D02*
X143104761Y-96641247D01*
X143104761Y-96641247D02*
X143152380Y-96736485D01*
X143152380Y-96736485D02*
X143152380Y-96879342D01*
X143152380Y-96879342D02*
X143104761Y-96974580D01*
X143104761Y-96974580D02*
X143057142Y-97022200D01*
X143057142Y-97022200D02*
X142961904Y-97069819D01*
X142961904Y-97069819D02*
X142580952Y-97069819D01*
X142580952Y-97069819D02*
X142580952Y-96069819D01*
X142580952Y-96069819D02*
X142914285Y-96069819D01*
X142914285Y-96069819D02*
X143009523Y-96117438D01*
X143009523Y-96117438D02*
X143057142Y-96165057D01*
X143057142Y-96165057D02*
X143104761Y-96260295D01*
X143104761Y-96260295D02*
X143104761Y-96355533D01*
X143104761Y-96355533D02*
X143057142Y-96450771D01*
X143057142Y-96450771D02*
X143009523Y-96498390D01*
X143009523Y-96498390D02*
X142914285Y-96546009D01*
X142914285Y-96546009D02*
X142580952Y-96546009D01*
X143438095Y-96069819D02*
X144009523Y-96069819D01*
X143723809Y-97069819D02*
X143723809Y-96069819D01*
X144771428Y-96403152D02*
X144771428Y-97069819D01*
X144533333Y-96022200D02*
X144295238Y-96736485D01*
X144295238Y-96736485D02*
X144914285Y-96736485D01*
X154407857Y-112839819D02*
X154407857Y-111839819D01*
X154407857Y-111839819D02*
X154788809Y-111839819D01*
X154788809Y-111839819D02*
X154884047Y-111887438D01*
X154884047Y-111887438D02*
X154931666Y-111935057D01*
X154931666Y-111935057D02*
X154979285Y-112030295D01*
X154979285Y-112030295D02*
X154979285Y-112173152D01*
X154979285Y-112173152D02*
X154931666Y-112268390D01*
X154931666Y-112268390D02*
X154884047Y-112316009D01*
X154884047Y-112316009D02*
X154788809Y-112363628D01*
X154788809Y-112363628D02*
X154407857Y-112363628D01*
X155550714Y-112839819D02*
X155455476Y-112792200D01*
X155455476Y-112792200D02*
X155407857Y-112696961D01*
X155407857Y-112696961D02*
X155407857Y-111839819D01*
X156360238Y-112839819D02*
X156360238Y-112316009D01*
X156360238Y-112316009D02*
X156312619Y-112220771D01*
X156312619Y-112220771D02*
X156217381Y-112173152D01*
X156217381Y-112173152D02*
X156026905Y-112173152D01*
X156026905Y-112173152D02*
X155931667Y-112220771D01*
X156360238Y-112792200D02*
X156265000Y-112839819D01*
X156265000Y-112839819D02*
X156026905Y-112839819D01*
X156026905Y-112839819D02*
X155931667Y-112792200D01*
X155931667Y-112792200D02*
X155884048Y-112696961D01*
X155884048Y-112696961D02*
X155884048Y-112601723D01*
X155884048Y-112601723D02*
X155931667Y-112506485D01*
X155931667Y-112506485D02*
X156026905Y-112458866D01*
X156026905Y-112458866D02*
X156265000Y-112458866D01*
X156265000Y-112458866D02*
X156360238Y-112411247D01*
X156741191Y-112173152D02*
X156979286Y-112839819D01*
X157217381Y-112173152D02*
X156979286Y-112839819D01*
X156979286Y-112839819D02*
X156884048Y-113077914D01*
X156884048Y-113077914D02*
X156836429Y-113125533D01*
X156836429Y-113125533D02*
X156741191Y-113173152D01*
X142914285Y-64046009D02*
X143057142Y-64093628D01*
X143057142Y-64093628D02*
X143104761Y-64141247D01*
X143104761Y-64141247D02*
X143152380Y-64236485D01*
X143152380Y-64236485D02*
X143152380Y-64379342D01*
X143152380Y-64379342D02*
X143104761Y-64474580D01*
X143104761Y-64474580D02*
X143057142Y-64522200D01*
X143057142Y-64522200D02*
X142961904Y-64569819D01*
X142961904Y-64569819D02*
X142580952Y-64569819D01*
X142580952Y-64569819D02*
X142580952Y-63569819D01*
X142580952Y-63569819D02*
X142914285Y-63569819D01*
X142914285Y-63569819D02*
X143009523Y-63617438D01*
X143009523Y-63617438D02*
X143057142Y-63665057D01*
X143057142Y-63665057D02*
X143104761Y-63760295D01*
X143104761Y-63760295D02*
X143104761Y-63855533D01*
X143104761Y-63855533D02*
X143057142Y-63950771D01*
X143057142Y-63950771D02*
X143009523Y-63998390D01*
X143009523Y-63998390D02*
X142914285Y-64046009D01*
X142914285Y-64046009D02*
X142580952Y-64046009D01*
X143438095Y-63569819D02*
X144009523Y-63569819D01*
X143723809Y-64569819D02*
X143723809Y-63569819D01*
X144295238Y-63665057D02*
X144342857Y-63617438D01*
X144342857Y-63617438D02*
X144438095Y-63569819D01*
X144438095Y-63569819D02*
X144676190Y-63569819D01*
X144676190Y-63569819D02*
X144771428Y-63617438D01*
X144771428Y-63617438D02*
X144819047Y-63665057D01*
X144819047Y-63665057D02*
X144866666Y-63760295D01*
X144866666Y-63760295D02*
X144866666Y-63855533D01*
X144866666Y-63855533D02*
X144819047Y-63998390D01*
X144819047Y-63998390D02*
X144247619Y-64569819D01*
X144247619Y-64569819D02*
X144866666Y-64569819D01*
X154003094Y-80339819D02*
X153669761Y-79863628D01*
X153431666Y-80339819D02*
X153431666Y-79339819D01*
X153431666Y-79339819D02*
X153812618Y-79339819D01*
X153812618Y-79339819D02*
X153907856Y-79387438D01*
X153907856Y-79387438D02*
X153955475Y-79435057D01*
X153955475Y-79435057D02*
X154003094Y-79530295D01*
X154003094Y-79530295D02*
X154003094Y-79673152D01*
X154003094Y-79673152D02*
X153955475Y-79768390D01*
X153955475Y-79768390D02*
X153907856Y-79816009D01*
X153907856Y-79816009D02*
X153812618Y-79863628D01*
X153812618Y-79863628D02*
X153431666Y-79863628D01*
X154812618Y-80292200D02*
X154717380Y-80339819D01*
X154717380Y-80339819D02*
X154526904Y-80339819D01*
X154526904Y-80339819D02*
X154431666Y-80292200D01*
X154431666Y-80292200D02*
X154384047Y-80196961D01*
X154384047Y-80196961D02*
X154384047Y-79816009D01*
X154384047Y-79816009D02*
X154431666Y-79720771D01*
X154431666Y-79720771D02*
X154526904Y-79673152D01*
X154526904Y-79673152D02*
X154717380Y-79673152D01*
X154717380Y-79673152D02*
X154812618Y-79720771D01*
X154812618Y-79720771D02*
X154860237Y-79816009D01*
X154860237Y-79816009D02*
X154860237Y-79911247D01*
X154860237Y-79911247D02*
X154384047Y-80006485D01*
X155717380Y-80292200D02*
X155622142Y-80339819D01*
X155622142Y-80339819D02*
X155431666Y-80339819D01*
X155431666Y-80339819D02*
X155336428Y-80292200D01*
X155336428Y-80292200D02*
X155288809Y-80244580D01*
X155288809Y-80244580D02*
X155241190Y-80149342D01*
X155241190Y-80149342D02*
X155241190Y-79863628D01*
X155241190Y-79863628D02*
X155288809Y-79768390D01*
X155288809Y-79768390D02*
X155336428Y-79720771D01*
X155336428Y-79720771D02*
X155431666Y-79673152D01*
X155431666Y-79673152D02*
X155622142Y-79673152D01*
X155622142Y-79673152D02*
X155717380Y-79720771D01*
X156288809Y-80339819D02*
X156193571Y-80292200D01*
X156193571Y-80292200D02*
X156145952Y-80244580D01*
X156145952Y-80244580D02*
X156098333Y-80149342D01*
X156098333Y-80149342D02*
X156098333Y-79863628D01*
X156098333Y-79863628D02*
X156145952Y-79768390D01*
X156145952Y-79768390D02*
X156193571Y-79720771D01*
X156193571Y-79720771D02*
X156288809Y-79673152D01*
X156288809Y-79673152D02*
X156431666Y-79673152D01*
X156431666Y-79673152D02*
X156526904Y-79720771D01*
X156526904Y-79720771D02*
X156574523Y-79768390D01*
X156574523Y-79768390D02*
X156622142Y-79863628D01*
X156622142Y-79863628D02*
X156622142Y-80149342D01*
X156622142Y-80149342D02*
X156574523Y-80244580D01*
X156574523Y-80244580D02*
X156526904Y-80292200D01*
X156526904Y-80292200D02*
X156431666Y-80339819D01*
X156431666Y-80339819D02*
X156288809Y-80339819D01*
X157050714Y-80339819D02*
X157050714Y-79673152D01*
X157050714Y-79863628D02*
X157098333Y-79768390D01*
X157098333Y-79768390D02*
X157145952Y-79720771D01*
X157145952Y-79720771D02*
X157241190Y-79673152D01*
X157241190Y-79673152D02*
X157336428Y-79673152D01*
X158098333Y-80339819D02*
X158098333Y-79339819D01*
X158098333Y-80292200D02*
X158003095Y-80339819D01*
X158003095Y-80339819D02*
X157812619Y-80339819D01*
X157812619Y-80339819D02*
X157717381Y-80292200D01*
X157717381Y-80292200D02*
X157669762Y-80244580D01*
X157669762Y-80244580D02*
X157622143Y-80149342D01*
X157622143Y-80149342D02*
X157622143Y-79863628D01*
X157622143Y-79863628D02*
X157669762Y-79768390D01*
X157669762Y-79768390D02*
X157717381Y-79720771D01*
X157717381Y-79720771D02*
X157812619Y-79673152D01*
X157812619Y-79673152D02*
X158003095Y-79673152D01*
X158003095Y-79673152D02*
X158098333Y-79720771D01*
X93464285Y-49431009D02*
X93607142Y-49478628D01*
X93607142Y-49478628D02*
X93654761Y-49526247D01*
X93654761Y-49526247D02*
X93702380Y-49621485D01*
X93702380Y-49621485D02*
X93702380Y-49764342D01*
X93702380Y-49764342D02*
X93654761Y-49859580D01*
X93654761Y-49859580D02*
X93607142Y-49907200D01*
X93607142Y-49907200D02*
X93511904Y-49954819D01*
X93511904Y-49954819D02*
X93130952Y-49954819D01*
X93130952Y-49954819D02*
X93130952Y-48954819D01*
X93130952Y-48954819D02*
X93464285Y-48954819D01*
X93464285Y-48954819D02*
X93559523Y-49002438D01*
X93559523Y-49002438D02*
X93607142Y-49050057D01*
X93607142Y-49050057D02*
X93654761Y-49145295D01*
X93654761Y-49145295D02*
X93654761Y-49240533D01*
X93654761Y-49240533D02*
X93607142Y-49335771D01*
X93607142Y-49335771D02*
X93559523Y-49383390D01*
X93559523Y-49383390D02*
X93464285Y-49431009D01*
X93464285Y-49431009D02*
X93130952Y-49431009D01*
X93988095Y-48954819D02*
X94559523Y-48954819D01*
X94273809Y-49954819D02*
X94273809Y-48954819D01*
X94797619Y-48954819D02*
X95416666Y-48954819D01*
X95416666Y-48954819D02*
X95083333Y-49335771D01*
X95083333Y-49335771D02*
X95226190Y-49335771D01*
X95226190Y-49335771D02*
X95321428Y-49383390D01*
X95321428Y-49383390D02*
X95369047Y-49431009D01*
X95369047Y-49431009D02*
X95416666Y-49526247D01*
X95416666Y-49526247D02*
X95416666Y-49764342D01*
X95416666Y-49764342D02*
X95369047Y-49859580D01*
X95369047Y-49859580D02*
X95321428Y-49907200D01*
X95321428Y-49907200D02*
X95226190Y-49954819D01*
X95226190Y-49954819D02*
X94940476Y-49954819D01*
X94940476Y-49954819D02*
X94845238Y-49907200D01*
X94845238Y-49907200D02*
X94797619Y-49859580D01*
X92392857Y-58607200D02*
X92488095Y-58654819D01*
X92488095Y-58654819D02*
X92678571Y-58654819D01*
X92678571Y-58654819D02*
X92773809Y-58607200D01*
X92773809Y-58607200D02*
X92821428Y-58511961D01*
X92821428Y-58511961D02*
X92821428Y-58464342D01*
X92821428Y-58464342D02*
X92773809Y-58369104D01*
X92773809Y-58369104D02*
X92678571Y-58321485D01*
X92678571Y-58321485D02*
X92535714Y-58321485D01*
X92535714Y-58321485D02*
X92440476Y-58273866D01*
X92440476Y-58273866D02*
X92392857Y-58178628D01*
X92392857Y-58178628D02*
X92392857Y-58131009D01*
X92392857Y-58131009D02*
X92440476Y-58035771D01*
X92440476Y-58035771D02*
X92535714Y-57988152D01*
X92535714Y-57988152D02*
X92678571Y-57988152D01*
X92678571Y-57988152D02*
X92773809Y-58035771D01*
X93630952Y-58607200D02*
X93535714Y-58654819D01*
X93535714Y-58654819D02*
X93345238Y-58654819D01*
X93345238Y-58654819D02*
X93250000Y-58607200D01*
X93250000Y-58607200D02*
X93202381Y-58511961D01*
X93202381Y-58511961D02*
X93202381Y-58131009D01*
X93202381Y-58131009D02*
X93250000Y-58035771D01*
X93250000Y-58035771D02*
X93345238Y-57988152D01*
X93345238Y-57988152D02*
X93535714Y-57988152D01*
X93535714Y-57988152D02*
X93630952Y-58035771D01*
X93630952Y-58035771D02*
X93678571Y-58131009D01*
X93678571Y-58131009D02*
X93678571Y-58226247D01*
X93678571Y-58226247D02*
X93202381Y-58321485D01*
X93964286Y-57988152D02*
X94345238Y-57988152D01*
X94107143Y-57654819D02*
X94107143Y-58511961D01*
X94107143Y-58511961D02*
X94154762Y-58607200D01*
X94154762Y-58607200D02*
X94250000Y-58654819D01*
X94250000Y-58654819D02*
X94345238Y-58654819D01*
X94678572Y-58654819D02*
X94678572Y-57654819D01*
X94678572Y-57654819D02*
X95011905Y-58369104D01*
X95011905Y-58369104D02*
X95345238Y-57654819D01*
X95345238Y-57654819D02*
X95345238Y-58654819D01*
X96250000Y-58654819D02*
X96250000Y-58131009D01*
X96250000Y-58131009D02*
X96202381Y-58035771D01*
X96202381Y-58035771D02*
X96107143Y-57988152D01*
X96107143Y-57988152D02*
X95916667Y-57988152D01*
X95916667Y-57988152D02*
X95821429Y-58035771D01*
X96250000Y-58607200D02*
X96154762Y-58654819D01*
X96154762Y-58654819D02*
X95916667Y-58654819D01*
X95916667Y-58654819D02*
X95821429Y-58607200D01*
X95821429Y-58607200D02*
X95773810Y-58511961D01*
X95773810Y-58511961D02*
X95773810Y-58416723D01*
X95773810Y-58416723D02*
X95821429Y-58321485D01*
X95821429Y-58321485D02*
X95916667Y-58273866D01*
X95916667Y-58273866D02*
X96154762Y-58273866D01*
X96154762Y-58273866D02*
X96250000Y-58226247D01*
X96630953Y-58654819D02*
X97154762Y-57988152D01*
X96630953Y-57988152D02*
X97154762Y-58654819D01*
X73464285Y-49431009D02*
X73607142Y-49478628D01*
X73607142Y-49478628D02*
X73654761Y-49526247D01*
X73654761Y-49526247D02*
X73702380Y-49621485D01*
X73702380Y-49621485D02*
X73702380Y-49764342D01*
X73702380Y-49764342D02*
X73654761Y-49859580D01*
X73654761Y-49859580D02*
X73607142Y-49907200D01*
X73607142Y-49907200D02*
X73511904Y-49954819D01*
X73511904Y-49954819D02*
X73130952Y-49954819D01*
X73130952Y-49954819D02*
X73130952Y-48954819D01*
X73130952Y-48954819D02*
X73464285Y-48954819D01*
X73464285Y-48954819D02*
X73559523Y-49002438D01*
X73559523Y-49002438D02*
X73607142Y-49050057D01*
X73607142Y-49050057D02*
X73654761Y-49145295D01*
X73654761Y-49145295D02*
X73654761Y-49240533D01*
X73654761Y-49240533D02*
X73607142Y-49335771D01*
X73607142Y-49335771D02*
X73559523Y-49383390D01*
X73559523Y-49383390D02*
X73464285Y-49431009D01*
X73464285Y-49431009D02*
X73130952Y-49431009D01*
X73988095Y-48954819D02*
X74559523Y-48954819D01*
X74273809Y-49954819D02*
X74273809Y-48954819D01*
X75416666Y-49954819D02*
X74845238Y-49954819D01*
X75130952Y-49954819D02*
X75130952Y-48954819D01*
X75130952Y-48954819D02*
X75035714Y-49097676D01*
X75035714Y-49097676D02*
X74940476Y-49192914D01*
X74940476Y-49192914D02*
X74845238Y-49240533D01*
X72559524Y-58607200D02*
X72654762Y-58654819D01*
X72654762Y-58654819D02*
X72845238Y-58654819D01*
X72845238Y-58654819D02*
X72940476Y-58607200D01*
X72940476Y-58607200D02*
X72988095Y-58511961D01*
X72988095Y-58511961D02*
X72988095Y-58464342D01*
X72988095Y-58464342D02*
X72940476Y-58369104D01*
X72940476Y-58369104D02*
X72845238Y-58321485D01*
X72845238Y-58321485D02*
X72702381Y-58321485D01*
X72702381Y-58321485D02*
X72607143Y-58273866D01*
X72607143Y-58273866D02*
X72559524Y-58178628D01*
X72559524Y-58178628D02*
X72559524Y-58131009D01*
X72559524Y-58131009D02*
X72607143Y-58035771D01*
X72607143Y-58035771D02*
X72702381Y-57988152D01*
X72702381Y-57988152D02*
X72845238Y-57988152D01*
X72845238Y-57988152D02*
X72940476Y-58035771D01*
X73797619Y-58607200D02*
X73702381Y-58654819D01*
X73702381Y-58654819D02*
X73511905Y-58654819D01*
X73511905Y-58654819D02*
X73416667Y-58607200D01*
X73416667Y-58607200D02*
X73369048Y-58511961D01*
X73369048Y-58511961D02*
X73369048Y-58131009D01*
X73369048Y-58131009D02*
X73416667Y-58035771D01*
X73416667Y-58035771D02*
X73511905Y-57988152D01*
X73511905Y-57988152D02*
X73702381Y-57988152D01*
X73702381Y-57988152D02*
X73797619Y-58035771D01*
X73797619Y-58035771D02*
X73845238Y-58131009D01*
X73845238Y-58131009D02*
X73845238Y-58226247D01*
X73845238Y-58226247D02*
X73369048Y-58321485D01*
X74130953Y-57988152D02*
X74511905Y-57988152D01*
X74273810Y-57654819D02*
X74273810Y-58511961D01*
X74273810Y-58511961D02*
X74321429Y-58607200D01*
X74321429Y-58607200D02*
X74416667Y-58654819D01*
X74416667Y-58654819D02*
X74511905Y-58654819D01*
X74845239Y-58654819D02*
X74845239Y-57654819D01*
X74845239Y-57654819D02*
X75178572Y-58369104D01*
X75178572Y-58369104D02*
X75511905Y-57654819D01*
X75511905Y-57654819D02*
X75511905Y-58654819D01*
X75988096Y-58654819D02*
X75988096Y-57988152D01*
X75988096Y-57654819D02*
X75940477Y-57702438D01*
X75940477Y-57702438D02*
X75988096Y-57750057D01*
X75988096Y-57750057D02*
X76035715Y-57702438D01*
X76035715Y-57702438D02*
X75988096Y-57654819D01*
X75988096Y-57654819D02*
X75988096Y-57750057D01*
X76464286Y-57988152D02*
X76464286Y-58654819D01*
X76464286Y-58083390D02*
X76511905Y-58035771D01*
X76511905Y-58035771D02*
X76607143Y-57988152D01*
X76607143Y-57988152D02*
X76750000Y-57988152D01*
X76750000Y-57988152D02*
X76845238Y-58035771D01*
X76845238Y-58035771D02*
X76892857Y-58131009D01*
X76892857Y-58131009D02*
X76892857Y-58654819D01*
X152150952Y-41494819D02*
X151674762Y-41494819D01*
X151674762Y-41494819D02*
X151674762Y-40494819D01*
X152484286Y-40971009D02*
X152817619Y-40971009D01*
X152960476Y-41494819D02*
X152484286Y-41494819D01*
X152484286Y-41494819D02*
X152484286Y-40494819D01*
X152484286Y-40494819D02*
X152960476Y-40494819D01*
X153389048Y-41494819D02*
X153389048Y-40494819D01*
X153389048Y-40494819D02*
X153627143Y-40494819D01*
X153627143Y-40494819D02*
X153770000Y-40542438D01*
X153770000Y-40542438D02*
X153865238Y-40637676D01*
X153865238Y-40637676D02*
X153912857Y-40732914D01*
X153912857Y-40732914D02*
X153960476Y-40923390D01*
X153960476Y-40923390D02*
X153960476Y-41066247D01*
X153960476Y-41066247D02*
X153912857Y-41256723D01*
X153912857Y-41256723D02*
X153865238Y-41351961D01*
X153865238Y-41351961D02*
X153770000Y-41447200D01*
X153770000Y-41447200D02*
X153627143Y-41494819D01*
X153627143Y-41494819D02*
X153389048Y-41494819D01*
X154912857Y-41494819D02*
X154341429Y-41494819D01*
X154627143Y-41494819D02*
X154627143Y-40494819D01*
X154627143Y-40494819D02*
X154531905Y-40637676D01*
X154531905Y-40637676D02*
X154436667Y-40732914D01*
X154436667Y-40732914D02*
X154341429Y-40780533D01*
D11*
%TO.C,SW1*%
X109100000Y-92750000D02*
G75*
G02*
X108900000Y-92750000I-100000J0D01*
G01*
X108900000Y-92750000D02*
G75*
G02*
X109100000Y-92750000I100000J0D01*
G01*
D12*
X111540000Y-83935000D02*
X106460000Y-83935000D01*
X106460000Y-83935000D02*
X106460000Y-92065000D01*
X111540000Y-92065000D02*
X111540000Y-83935000D01*
X106460000Y-92065000D02*
X111540000Y-92065000D01*
D11*
%TO.C,SW2*%
X162100000Y-49445000D02*
G75*
G02*
X161900000Y-49445000I-100000J0D01*
G01*
X161900000Y-49445000D02*
G75*
G02*
X162100000Y-49445000I100000J0D01*
G01*
D12*
X164540000Y-40630000D02*
X159460000Y-40630000D01*
X159460000Y-40630000D02*
X159460000Y-48760000D01*
X164540000Y-48760000D02*
X164540000Y-40630000D01*
X159460000Y-48760000D02*
X164540000Y-48760000D01*
D11*
%TO.C,SW3*%
X85100000Y-123750000D02*
G75*
G02*
X84900000Y-123750000I-100000J0D01*
G01*
X84900000Y-123750000D02*
G75*
G02*
X85100000Y-123750000I100000J0D01*
G01*
D12*
X87540000Y-114935000D02*
X82460000Y-114935000D01*
X82460000Y-114935000D02*
X82460000Y-123065000D01*
X87540000Y-123065000D02*
X87540000Y-114935000D01*
X82460000Y-123065000D02*
X87540000Y-123065000D01*
%TO.C,BT4*%
X142000000Y-98500000D02*
X154000000Y-98500000D01*
X142000000Y-100705000D02*
X142000000Y-98500000D01*
X142000000Y-103295000D02*
X142000000Y-105705000D01*
X142000000Y-110500000D02*
X142000000Y-108295000D01*
X154000000Y-98500000D02*
X154000000Y-100705000D01*
X154000000Y-103295000D02*
X154000000Y-105705000D01*
X154000000Y-110500000D02*
X142000000Y-110500000D01*
X154000000Y-110500000D02*
X154000000Y-108295000D01*
D11*
X139875000Y-102000000D02*
G75*
G02*
X139675000Y-102000000I-100000J0D01*
G01*
X139675000Y-102000000D02*
G75*
G02*
X139875000Y-102000000I100000J0D01*
G01*
D12*
%TO.C,BT2*%
X142000000Y-66000000D02*
X154000000Y-66000000D01*
X142000000Y-68205000D02*
X142000000Y-66000000D01*
X142000000Y-70795000D02*
X142000000Y-73205000D01*
X142000000Y-78000000D02*
X142000000Y-75795000D01*
X154000000Y-66000000D02*
X154000000Y-68205000D01*
X154000000Y-70795000D02*
X154000000Y-73205000D01*
X154000000Y-78000000D02*
X142000000Y-78000000D01*
X154000000Y-78000000D02*
X154000000Y-75795000D01*
D11*
X139875000Y-69500000D02*
G75*
G02*
X139675000Y-69500000I-100000J0D01*
G01*
X139675000Y-69500000D02*
G75*
G02*
X139875000Y-69500000I100000J0D01*
G01*
D13*
%TO.C,BT3*%
X90750000Y-53000000D02*
X90750000Y-54500000D01*
X92000000Y-57000000D02*
X96500000Y-57000000D01*
X96500000Y-50500000D02*
X92000000Y-50500000D01*
X97750000Y-54500000D02*
X97750000Y-53000000D01*
%TO.C,BT1*%
X70750000Y-53000000D02*
X70750000Y-54500000D01*
X72000000Y-57000000D02*
X76500000Y-57000000D01*
X76500000Y-50500000D02*
X72000000Y-50500000D01*
X77750000Y-54500000D02*
X77750000Y-53000000D01*
%TO.C,LED1*%
X155770000Y-45000000D02*
G75*
G02*
X150770000Y-45000000I-2500000J0D01*
G01*
X150770000Y-45000000D02*
G75*
G02*
X155770000Y-45000000I2500000J0D01*
G01*
X156260000Y-45000000D02*
G75*
G02*
X150710000Y-46544830I-2990000J0D01*
G01*
X150710000Y-43455170D02*
G75*
G02*
X156260000Y-45000000I2560000J-1544830D01*
G01*
X150710000Y-43455000D02*
X150710000Y-46545000D01*
%TO.C,*%
X155750000Y-42000000D02*
X156250000Y-42000000D01*
X156000000Y-41750000D02*
X156000000Y-42250000D01*
%TD*%
%LPC*%
D14*
%TO.C,C2*%
X107500000Y-62000000D03*
X112500000Y-62000000D03*
%TD*%
D15*
%TO.C,J8*%
X153000000Y-128000000D03*
X145380000Y-128000000D03*
X150460000Y-128000000D03*
X142840000Y-128000000D03*
X147920000Y-128000000D03*
D16*
X140300000Y-128000000D03*
%TD*%
D15*
%TO.C,J10*%
X131620000Y-128000000D03*
X124000000Y-128000000D03*
X129080000Y-128000000D03*
X121460000Y-128000000D03*
X126540000Y-128000000D03*
D16*
X118920000Y-128000000D03*
%TD*%
D17*
%TO.C,SW1*%
X109000000Y-85460000D03*
X109000000Y-88000000D03*
D18*
X109000000Y-90540000D03*
%TD*%
D17*
%TO.C,SW2*%
X162000000Y-42155000D03*
X162000000Y-44695000D03*
D18*
X162000000Y-47235000D03*
%TD*%
D17*
%TO.C,SW3*%
X85000000Y-116460000D03*
X85000000Y-119000000D03*
D18*
X85000000Y-121540000D03*
%TD*%
D19*
%TO.C,BT4*%
X141750000Y-102000000D03*
D20*
X154250000Y-102000000D03*
X141750000Y-107000000D03*
X154250000Y-107000000D03*
%TD*%
D19*
%TO.C,BT2*%
X141750000Y-69500000D03*
D20*
X154250000Y-69500000D03*
X141750000Y-74500000D03*
X154250000Y-74500000D03*
%TD*%
D21*
%TO.C,BT3*%
X91000000Y-51500000D03*
X97500000Y-51500000D03*
X91000000Y-56000000D03*
X97500000Y-56000000D03*
%TD*%
%TO.C,BT1*%
X71000000Y-51500000D03*
X77500000Y-51500000D03*
X71000000Y-56000000D03*
X77500000Y-56000000D03*
%TD*%
D22*
%TO.C,LED1*%
X154540000Y-45000000D03*
D23*
X152000000Y-45000000D03*
%TD*%
D24*
%TO.C,GameTrak1*%
X109080000Y-128000000D03*
D25*
X108000000Y-119000000D03*
D26*
X106540000Y-128000000D03*
D27*
X106000000Y-119000000D03*
X104000000Y-119000000D03*
D26*
X104000000Y-128000000D03*
D27*
X102000000Y-119000000D03*
D26*
X101460000Y-128000000D03*
D27*
X100000000Y-119000000D03*
D26*
X98920000Y-128000000D03*
%TD*%
D14*
%TO.C,C1*%
X109000000Y-68000000D03*
D28*
X109000000Y-70000000D03*
%TD*%
D14*
%TO.C,R1*%
X148000000Y-51190000D03*
X148000000Y-58810000D03*
%TD*%
D24*
%TO.C,A1*%
X134240000Y-64740000D03*
D29*
X134240000Y-67280000D03*
X134240000Y-69820000D03*
X134240000Y-72360000D03*
X134240000Y-74900000D03*
X134240000Y-77440000D03*
X134240000Y-79980000D03*
X134240000Y-82520000D03*
X134240000Y-85060000D03*
X134240000Y-87600000D03*
X134240000Y-90140000D03*
X134240000Y-92680000D03*
X134240000Y-95220000D03*
X134240000Y-97760000D03*
X134240000Y-100300000D03*
X134240000Y-102840000D03*
X134240000Y-105380000D03*
X134240000Y-107920000D03*
X134240000Y-110460000D03*
X134240000Y-113000000D03*
X119000000Y-113000000D03*
X119000000Y-110460000D03*
X119000000Y-107920000D03*
X119000000Y-105380000D03*
X119000000Y-102840000D03*
X119000000Y-100300000D03*
X119000000Y-97760000D03*
X119000000Y-95220000D03*
X119000000Y-92680000D03*
X119000000Y-90140000D03*
X119000000Y-87600000D03*
X119000000Y-85060000D03*
X119000000Y-82520000D03*
X119000000Y-79980000D03*
X119000000Y-77440000D03*
X119000000Y-74900000D03*
X119000000Y-72360000D03*
X119000000Y-69820000D03*
X119000000Y-67280000D03*
X119000000Y-64740000D03*
%TD*%
D16*
%TO.C,J1*%
X160460000Y-57000000D03*
D15*
X163000000Y-57000000D03*
%TD*%
D14*
%TO.C,D1*%
X118971384Y-53296032D03*
X118971384Y-45676032D03*
%TD*%
D30*
%TO.C,J9*%
X149000000Y-82000000D03*
D31*
X149000000Y-89620000D03*
X149000000Y-84540000D03*
X149000000Y-92160000D03*
X149000000Y-87080000D03*
X149000000Y-94700000D03*
%TD*%
%LPD*%
M02*
