%TF.GenerationSoftware,KiCad,Pcbnew,9.0.6*%
%TF.CreationDate,2025-12-09T15:58:13+01:00*%
%TF.ProjectId,STR500_v1,53545235-3030-45f7-9631-2e6b69636164,rev?*%
%TF.SameCoordinates,Original*%
%TF.FileFunction,Copper,L4,Bot*%
%TF.FilePolarity,Positive*%
%FSLAX46Y46*%
G04 Gerber Fmt 4.6, Leading zero omitted, Abs format (unit mm)*
G04 Created by KiCad (PCBNEW 9.0.6) date 2025-12-09 15:58:13*
%MOMM*%
%LPD*%
G01*
G04 APERTURE LIST*
G04 Aperture macros list*
%AMRoundRect*
0 Rectangle with rounded corners*
0 $1 Rounding radius*
0 $2 $3 $4 $5 $6 $7 $8 $9 X,Y pos of 4 corners*
0 Add a 4 corners polygon primitive as box body*
4,1,4,$2,$3,$4,$5,$6,$7,$8,$9,$2,$3,0*
0 Add four circle primitives for the rounded corners*
1,1,$1+$1,$2,$3*
1,1,$1+$1,$4,$5*
1,1,$1+$1,$6,$7*
1,1,$1+$1,$8,$9*
0 Add four rect primitives between the rounded corners*
20,1,$1+$1,$2,$3,$4,$5,0*
20,1,$1+$1,$4,$5,$6,$7,0*
20,1,$1+$1,$6,$7,$8,$9,0*
20,1,$1+$1,$8,$9,$2,$3,0*%
G04 Aperture macros list end*
%TA.AperFunction,ComponentPad*%
%ADD10C,1.600000*%
%TD*%
%TA.AperFunction,ComponentPad*%
%ADD11O,1.740000X2.190000*%
%TD*%
%TA.AperFunction,ComponentPad*%
%ADD12RoundRect,0.250000X-0.620000X-0.845000X0.620000X-0.845000X0.620000X0.845000X-0.620000X0.845000X0*%
%TD*%
%TA.AperFunction,ComponentPad*%
%ADD13C,1.635000*%
%TD*%
%TA.AperFunction,ComponentPad*%
%ADD14R,1.635000X1.635000*%
%TD*%
%TA.AperFunction,ComponentPad*%
%ADD15R,1.950000X1.950000*%
%TD*%
%TA.AperFunction,ComponentPad*%
%ADD16C,1.950000*%
%TD*%
%TA.AperFunction,ComponentPad*%
%ADD17C,2.000000*%
%TD*%
%TA.AperFunction,ComponentPad*%
%ADD18C,1.800000*%
%TD*%
%TA.AperFunction,ComponentPad*%
%ADD19R,1.800000X1.800000*%
%TD*%
%TA.AperFunction,ComponentPad*%
%ADD20R,1.700000X1.700000*%
%TD*%
%TA.AperFunction,ComponentPad*%
%ADD21RoundRect,0.250000X0.350000X0.650000X-0.350000X0.650000X-0.350000X-0.650000X0.350000X-0.650000X0*%
%TD*%
%TA.AperFunction,ComponentPad*%
%ADD22O,1.700000X1.700000*%
%TD*%
%TA.AperFunction,ComponentPad*%
%ADD23O,1.200000X1.800000*%
%TD*%
%TA.AperFunction,ComponentPad*%
%ADD24RoundRect,0.250000X0.550000X-0.550000X0.550000X0.550000X-0.550000X0.550000X-0.550000X-0.550000X0*%
%TD*%
%TA.AperFunction,ComponentPad*%
%ADD25C,1.700000*%
%TD*%
%TA.AperFunction,ComponentPad*%
%ADD26RoundRect,0.250000X-0.845000X0.620000X-0.845000X-0.620000X0.845000X-0.620000X0.845000X0.620000X0*%
%TD*%
%TA.AperFunction,ComponentPad*%
%ADD27O,2.190000X1.740000*%
%TD*%
%TA.AperFunction,Conductor*%
%ADD28C,0.200000*%
%TD*%
G04 APERTURE END LIST*
D10*
%TO.P,C2,1*%
%TO.N,+5V*%
X107500000Y-62000000D03*
%TO.P,C2,2*%
%TO.N,GND*%
X112500000Y-62000000D03*
%TD*%
D11*
%TO.P,J8,TN2*%
%TO.N,/inL*%
X153000000Y-128000000D03*
%TO.P,J8,TN1*%
%TO.N,unconnected-(J8-PadTN1)*%
X145380000Y-128000000D03*
%TO.P,J8,T2*%
%TO.N,/inR*%
X150460000Y-128000000D03*
%TO.P,J8,T1*%
%TO.N,/inL*%
X142840000Y-128000000D03*
%TO.P,J8,S2*%
%TO.N,GND*%
X147920000Y-128000000D03*
D12*
%TO.P,J8,S1*%
X140300000Y-128000000D03*
%TD*%
D11*
%TO.P,J10,TN2*%
%TO.N,/outL*%
X131620000Y-128000000D03*
%TO.P,J10,TN1*%
%TO.N,unconnected-(J10-PadTN1)*%
X124000000Y-128000000D03*
%TO.P,J10,T2*%
%TO.N,/outR*%
X129080000Y-128000000D03*
%TO.P,J10,T1*%
%TO.N,/outL*%
X121460000Y-128000000D03*
%TO.P,J10,S2*%
%TO.N,GND*%
X126540000Y-128000000D03*
D12*
%TO.P,J10,S1*%
X118920000Y-128000000D03*
%TD*%
D13*
%TO.P,SW1,3*%
%TO.N,N/C*%
X109000000Y-85460000D03*
%TO.P,SW1,2,B*%
%TO.N,/Sw1*%
X109000000Y-88000000D03*
D14*
%TO.P,SW1,1,A*%
%TO.N,GND*%
X109000000Y-90540000D03*
%TD*%
D13*
%TO.P,SW2,3*%
%TO.N,N/C*%
X162000000Y-42155000D03*
%TO.P,SW2,2,B*%
%TO.N,Net-(D1-A)*%
X162000000Y-44695000D03*
D14*
%TO.P,SW2,1,A*%
%TO.N,Net-(SW2-A)*%
X162000000Y-47235000D03*
%TD*%
D13*
%TO.P,SW3,3*%
%TO.N,N/C*%
X85000000Y-116460000D03*
%TO.P,SW3,2,B*%
%TO.N,/Sw2*%
X85000000Y-119000000D03*
D14*
%TO.P,SW3,1,A*%
%TO.N,GND*%
X85000000Y-121540000D03*
%TD*%
D15*
%TO.P,BT4,1,A*%
%TO.N,GND*%
X141750000Y-102000000D03*
D16*
X154250000Y-102000000D03*
%TO.P,BT4,2,B*%
%TO.N,Net-(BT4-B)*%
X141750000Y-107000000D03*
X154250000Y-107000000D03*
%TD*%
D15*
%TO.P,BT2,1,A*%
%TO.N,GND*%
X141750000Y-69500000D03*
D16*
X154250000Y-69500000D03*
%TO.P,BT2,2,B*%
%TO.N,Net-(BT2-B)*%
X141750000Y-74500000D03*
X154250000Y-74500000D03*
%TD*%
D17*
%TO.P,BT3,1,A*%
%TO.N,GND*%
X91000000Y-51500000D03*
X97500000Y-51500000D03*
%TO.P,BT3,2,B*%
%TO.N,/BT2*%
X91000000Y-56000000D03*
X97500000Y-56000000D03*
%TD*%
%TO.P,BT1,1,A*%
%TO.N,GND*%
X71000000Y-51500000D03*
X77500000Y-51500000D03*
%TO.P,BT1,2,B*%
%TO.N,/BT1*%
X71000000Y-56000000D03*
X77500000Y-56000000D03*
%TD*%
D18*
%TO.P,LED1,2,A*%
%TO.N,Net-(LED1-A)*%
X154540000Y-45000000D03*
D19*
%TO.P,LED1,1,K*%
%TO.N,GND*%
X152000000Y-45000000D03*
%TD*%
D20*
%TO.P,GameTrak1,1,1*%
%TO.N,GND*%
X109080000Y-128000000D03*
D21*
X108000000Y-119000000D03*
D22*
%TO.P,GameTrak1,2,2*%
%TO.N,/Pot0*%
X106540000Y-128000000D03*
D23*
X106000000Y-119000000D03*
%TO.P,GameTrak1,3,3*%
%TO.N,/Pot1*%
X104000000Y-119000000D03*
D22*
X104000000Y-128000000D03*
D23*
%TO.P,GameTrak1,4,4*%
%TO.N,/Pot2*%
X102000000Y-119000000D03*
D22*
X101460000Y-128000000D03*
D23*
%TO.P,GameTrak1,5,5*%
%TO.N,+3.3V*%
X100000000Y-119000000D03*
D22*
X98920000Y-128000000D03*
%TD*%
D10*
%TO.P,C1,2*%
%TO.N,GND*%
X109000000Y-68000000D03*
D24*
%TO.P,C1,1*%
%TO.N,+5V*%
X109000000Y-70000000D03*
%TD*%
D10*
%TO.P,R1,1*%
%TO.N,Net-(LED1-A)*%
X148000000Y-51190000D03*
%TO.P,R1,2*%
%TO.N,/LED*%
X148000000Y-58810000D03*
%TD*%
D20*
%TO.P,A1,1,USB_ID*%
%TO.N,unconnected-(A1-USB_ID-Pad1)*%
X134240000Y-64740000D03*
D25*
%TO.P,A1,2,SD_DATA_3*%
%TO.N,/Sw1*%
X134240000Y-67280000D03*
%TO.P,A1,3,SD_DATA_2*%
%TO.N,/Sw2*%
X134240000Y-69820000D03*
%TO.P,A1,4,SD_DATA_1*%
%TO.N,/BT1*%
X134240000Y-72360000D03*
%TO.P,A1,5,SD_DATA_0*%
%TO.N,/BT2*%
X134240000Y-74900000D03*
%TO.P,A1,6,SD_CMD*%
%TO.N,/BT3*%
X134240000Y-77440000D03*
%TO.P,A1,7,SD_CLK*%
%TO.N,/BT4*%
X134240000Y-79980000D03*
%TO.P,A1,8,SPI1_CS*%
%TO.N,unconnected-(A1-SPI1_CS-Pad8)*%
X134240000Y-82520000D03*
%TO.P,A1,9,SPI1_SCK*%
%TO.N,unconnected-(A1-SPI1_SCK-Pad9)*%
X134240000Y-85060000D03*
%TO.P,A1,10,SPI1_POCI*%
%TO.N,unconnected-(A1-SPI1_POCI-Pad10)*%
X134240000Y-87600000D03*
%TO.P,A1,11,SPI1_PICO*%
%TO.N,unconnected-(A1-SPI1_PICO-Pad11)*%
X134240000Y-90140000D03*
%TO.P,A1,12,I2C1_SCL*%
%TO.N,/LED*%
X134240000Y-92680000D03*
%TO.P,A1,13,I2C1_SDA*%
%TO.N,unconnected-(A1-I2C1_SDA-Pad13)*%
X134240000Y-95220000D03*
%TO.P,A1,14,USART1_TX*%
%TO.N,unconnected-(A1-USART1_TX-Pad14)*%
X134240000Y-97760000D03*
%TO.P,A1,15,USART1_RX*%
%TO.N,unconnected-(A1-USART1_RX-Pad15)*%
X134240000Y-100300000D03*
%TO.P,A1,16,AUDIO_IN_1*%
%TO.N,/inL*%
X134240000Y-102840000D03*
%TO.P,A1,17,AUDIO_IN_2*%
%TO.N,/inR*%
X134240000Y-105380000D03*
%TO.P,A1,18,AUDIO_OUT_1*%
%TO.N,/outL*%
X134240000Y-107920000D03*
%TO.P,A1,19,AUDIO_OUT_2*%
%TO.N,/outR*%
X134240000Y-110460000D03*
%TO.P,A1,20,AGND*%
%TO.N,GND*%
X134240000Y-113000000D03*
%TO.P,A1,21,3V3_A*%
%TO.N,+3.3V*%
X119000000Y-113000000D03*
%TO.P,A1,22,ADC_0*%
%TO.N,/Pot0*%
X119000000Y-110460000D03*
%TO.P,A1,23,ADC_1*%
%TO.N,/Pot1*%
X119000000Y-107920000D03*
%TO.P,A1,24,ADC_2*%
%TO.N,/Pot2*%
X119000000Y-105380000D03*
%TO.P,A1,25,ADC_3*%
%TO.N,unconnected-(A1-ADC_3-Pad25)*%
X119000000Y-102840000D03*
%TO.P,A1,26,ADC_4*%
%TO.N,unconnected-(A1-ADC_4-Pad26)*%
X119000000Y-100300000D03*
%TO.P,A1,27,ADC_5*%
%TO.N,unconnected-(A1-ADC_5-Pad27)*%
X119000000Y-97760000D03*
%TO.P,A1,28,ADC_6*%
%TO.N,unconnected-(A1-ADC_6-Pad28)*%
X119000000Y-95220000D03*
%TO.P,A1,29,DAC_OUT2*%
%TO.N,unconnected-(A1-DAC_OUT2-Pad29)*%
X119000000Y-92680000D03*
%TO.P,A1,30,DAC_OUT1*%
%TO.N,unconnected-(A1-DAC_OUT1-Pad30)*%
X119000000Y-90140000D03*
%TO.P,A1,31,SAI2_MCLK*%
%TO.N,unconnected-(A1-SAI2_MCLK-Pad31)*%
X119000000Y-87600000D03*
%TO.P,A1,32,SAI2_SD_B*%
%TO.N,unconnected-(A1-SAI2_SD_B-Pad32)*%
X119000000Y-85060000D03*
%TO.P,A1,33,SAI2_SD_A*%
%TO.N,unconnected-(A1-SAI2_SD_A-Pad33)*%
X119000000Y-82520000D03*
%TO.P,A1,34,SAI2_FS*%
%TO.N,unconnected-(A1-SAI2_FS-Pad34)*%
X119000000Y-79980000D03*
%TO.P,A1,35,SAI2_SCK*%
%TO.N,unconnected-(A1-SAI2_SCK-Pad35)*%
X119000000Y-77440000D03*
%TO.P,A1,36,USB_D_-*%
%TO.N,unconnected-(A1-USB_D_--Pad36)*%
X119000000Y-74900000D03*
%TO.P,A1,37,USB_D_+*%
%TO.N,unconnected-(A1-USB_D_+-Pad37)*%
X119000000Y-72360000D03*
%TO.P,A1,38,3V3_D*%
%TO.N,unconnected-(A1-3V3_D-Pad38)*%
X119000000Y-69820000D03*
%TO.P,A1,39,VIN*%
%TO.N,+5V*%
X119000000Y-67280000D03*
%TO.P,A1,40,DGND*%
%TO.N,GND*%
X119000000Y-64740000D03*
%TD*%
D12*
%TO.P,J1,1*%
%TO.N,Net-(SW2-A)*%
X160460000Y-57000000D03*
D11*
%TO.P,J1,2*%
%TO.N,GND*%
X163000000Y-57000000D03*
%TD*%
D10*
%TO.P,D1,1,K*%
%TO.N,+5V*%
X118971384Y-53296032D03*
%TO.P,D1,2,A*%
%TO.N,Net-(D1-A)*%
X118971384Y-45676032D03*
%TD*%
D26*
%TO.P,J9,S1*%
%TO.N,GND*%
X149000000Y-82000000D03*
D27*
%TO.P,J9,S2*%
X149000000Y-89620000D03*
%TO.P,J9,T1*%
%TO.N,/BT3*%
X149000000Y-84540000D03*
%TO.P,J9,T2*%
%TO.N,/BT4*%
X149000000Y-92160000D03*
%TO.P,J9,TN1*%
%TO.N,Net-(BT2-B)*%
X149000000Y-87080000D03*
%TO.P,J9,TN2*%
%TO.N,Net-(BT4-B)*%
X149000000Y-94700000D03*
%TD*%
D28*
%TO.N,+5V*%
X107500000Y-62000000D02*
X112780000Y-67280000D01*
X112780000Y-67280000D02*
X119000000Y-67280000D01*
%TO.N,Net-(D1-A)*%
X118971384Y-45676032D02*
X120848416Y-43799000D01*
X120848416Y-43799000D02*
X161104000Y-43799000D01*
X161104000Y-43799000D02*
X162000000Y-44695000D01*
%TO.N,+5V*%
X118971384Y-53296032D02*
X117849000Y-54418416D01*
X117849000Y-54418416D02*
X117849000Y-66129000D01*
X117849000Y-66129000D02*
X119000000Y-67280000D01*
%TO.N,Net-(SW2-A)*%
X162000000Y-47235000D02*
X162000000Y-55460000D01*
X162000000Y-55460000D02*
X160460000Y-57000000D01*
%TO.N,+3.3V*%
X100000000Y-119000000D02*
X100000000Y-126920000D01*
X100000000Y-126920000D02*
X98920000Y-128000000D01*
X100000000Y-119000000D02*
X106000000Y-113000000D01*
X106000000Y-113000000D02*
X119000000Y-113000000D01*
%TO.N,+5V*%
X119000000Y-67280000D02*
X116280000Y-70000000D01*
X116280000Y-70000000D02*
X109000000Y-70000000D01*
%TO.N,/LED*%
X148000000Y-58810000D02*
X148000000Y-78920000D01*
X148000000Y-78920000D02*
X134240000Y-92680000D01*
%TO.N,Net-(LED1-A)*%
X154540000Y-45000000D02*
X148350000Y-51190000D01*
X148350000Y-51190000D02*
X148000000Y-51190000D01*
%TD*%
M02*
