%TF.GenerationSoftware,KiCad,Pcbnew,9.0.6*%
%TF.CreationDate,2026-01-05T15:37:48+01:00*%
%TF.ProjectId,STR500_v1.1,53545235-3030-45f7-9631-2e312e6b6963,rev?*%
%TF.SameCoordinates,Original*%
%TF.FileFunction,Legend,Top*%
%TF.FilePolarity,Positive*%
%FSLAX46Y46*%
G04 Gerber Fmt 4.6, Leading zero omitted, Abs format (unit mm)*
G04 Created by KiCad (PCBNEW 9.0.6) date 2026-01-05 15:37:48*
%MOMM*%
%LPD*%
G01*
G04 APERTURE LIST*
G04 Aperture macros list*
%AMRoundRect*
0 Rectangle with rounded corners*
0 $1 Rounding radius*
0 $2 $3 $4 $5 $6 $7 $8 $9 X,Y pos of 4 corners*
0 Add a 4 corners polygon primitive as box body*
4,1,4,$2,$3,$4,$5,$6,$7,$8,$9,$2,$3,0*
0 Add four circle primitives for the rounded corners*
1,1,$1+$1,$2,$3*
1,1,$1+$1,$4,$5*
1,1,$1+$1,$6,$7*
1,1,$1+$1,$8,$9*
0 Add four rect primitives between the rounded corners*
20,1,$1+$1,$2,$3,$4,$5,0*
20,1,$1+$1,$4,$5,$6,$7,0*
20,1,$1+$1,$6,$7,$8,$9,0*
20,1,$1+$1,$8,$9,$2,$3,0*%
G04 Aperture macros list end*
%ADD10C,0.150000*%
%ADD11C,0.120000*%
%ADD12C,0.200000*%
%ADD13C,0.127000*%
%ADD14C,1.800000*%
%ADD15R,1.800000X1.800000*%
%ADD16C,1.839000*%
%ADD17RoundRect,0.102000X0.817500X-0.817500X0.817500X0.817500X-0.817500X0.817500X-0.817500X-0.817500X0*%
%ADD18R,1.700000X1.700000*%
%ADD19RoundRect,0.250000X0.650000X-0.350000X0.650000X0.350000X-0.650000X0.350000X-0.650000X-0.350000X0*%
%ADD20O,1.700000X1.700000*%
%ADD21O,1.800000X1.200000*%
%ADD22RoundRect,0.102000X-0.975000X-0.975000X0.975000X-0.975000X0.975000X0.975000X-0.975000X0.975000X0*%
%ADD23C,2.154000*%
%ADD24C,2.000000*%
%ADD25C,1.600000*%
%ADD26RoundRect,0.250000X-0.620000X-0.845000X0.620000X-0.845000X0.620000X0.845000X-0.620000X0.845000X0*%
%ADD27O,1.740000X2.190000*%
%ADD28C,1.700000*%
%ADD29RoundRect,0.250000X0.550000X-0.550000X0.550000X0.550000X-0.550000X0.550000X-0.550000X-0.550000X0*%
%ADD30RoundRect,0.250000X-0.845000X0.620000X-0.845000X-0.620000X0.845000X-0.620000X0.845000X0.620000X0*%
%ADD31O,2.190000X1.740000*%
G04 APERTURE END LIST*
D10*
X152150952Y-41494819D02*
X151674762Y-41494819D01*
X151674762Y-41494819D02*
X151674762Y-40494819D01*
X152484286Y-40971009D02*
X152817619Y-40971009D01*
X152960476Y-41494819D02*
X152484286Y-41494819D01*
X152484286Y-41494819D02*
X152484286Y-40494819D01*
X152484286Y-40494819D02*
X152960476Y-40494819D01*
X153389048Y-41494819D02*
X153389048Y-40494819D01*
X153389048Y-40494819D02*
X153627143Y-40494819D01*
X153627143Y-40494819D02*
X153770000Y-40542438D01*
X153770000Y-40542438D02*
X153865238Y-40637676D01*
X153865238Y-40637676D02*
X153912857Y-40732914D01*
X153912857Y-40732914D02*
X153960476Y-40923390D01*
X153960476Y-40923390D02*
X153960476Y-41066247D01*
X153960476Y-41066247D02*
X153912857Y-41256723D01*
X153912857Y-41256723D02*
X153865238Y-41351961D01*
X153865238Y-41351961D02*
X153770000Y-41447200D01*
X153770000Y-41447200D02*
X153627143Y-41494819D01*
X153627143Y-41494819D02*
X153389048Y-41494819D01*
X154912857Y-41494819D02*
X154341429Y-41494819D01*
X154627143Y-41494819D02*
X154627143Y-40494819D01*
X154627143Y-40494819D02*
X154531905Y-40637676D01*
X154531905Y-40637676D02*
X154436667Y-40732914D01*
X154436667Y-40732914D02*
X154341429Y-40780533D01*
X158914700Y-47285832D02*
X158962319Y-47142975D01*
X158962319Y-47142975D02*
X158962319Y-46904880D01*
X158962319Y-46904880D02*
X158914700Y-46809642D01*
X158914700Y-46809642D02*
X158867080Y-46762023D01*
X158867080Y-46762023D02*
X158771842Y-46714404D01*
X158771842Y-46714404D02*
X158676604Y-46714404D01*
X158676604Y-46714404D02*
X158581366Y-46762023D01*
X158581366Y-46762023D02*
X158533747Y-46809642D01*
X158533747Y-46809642D02*
X158486128Y-46904880D01*
X158486128Y-46904880D02*
X158438509Y-47095356D01*
X158438509Y-47095356D02*
X158390890Y-47190594D01*
X158390890Y-47190594D02*
X158343271Y-47238213D01*
X158343271Y-47238213D02*
X158248033Y-47285832D01*
X158248033Y-47285832D02*
X158152795Y-47285832D01*
X158152795Y-47285832D02*
X158057557Y-47238213D01*
X158057557Y-47238213D02*
X158009938Y-47190594D01*
X158009938Y-47190594D02*
X157962319Y-47095356D01*
X157962319Y-47095356D02*
X157962319Y-46857261D01*
X157962319Y-46857261D02*
X158009938Y-46714404D01*
X157962319Y-46381070D02*
X158962319Y-46142975D01*
X158962319Y-46142975D02*
X158248033Y-45952499D01*
X158248033Y-45952499D02*
X158962319Y-45762023D01*
X158962319Y-45762023D02*
X157962319Y-45523928D01*
X158057557Y-45190594D02*
X158009938Y-45142975D01*
X158009938Y-45142975D02*
X157962319Y-45047737D01*
X157962319Y-45047737D02*
X157962319Y-44809642D01*
X157962319Y-44809642D02*
X158009938Y-44714404D01*
X158009938Y-44714404D02*
X158057557Y-44666785D01*
X158057557Y-44666785D02*
X158152795Y-44619166D01*
X158152795Y-44619166D02*
X158248033Y-44619166D01*
X158248033Y-44619166D02*
X158390890Y-44666785D01*
X158390890Y-44666785D02*
X158962319Y-45238213D01*
X158962319Y-45238213D02*
X158962319Y-44619166D01*
X166454819Y-49380952D02*
X165454819Y-49380952D01*
X165454819Y-49380952D02*
X165454819Y-49000000D01*
X165454819Y-49000000D02*
X165502438Y-48904762D01*
X165502438Y-48904762D02*
X165550057Y-48857143D01*
X165550057Y-48857143D02*
X165645295Y-48809524D01*
X165645295Y-48809524D02*
X165788152Y-48809524D01*
X165788152Y-48809524D02*
X165883390Y-48857143D01*
X165883390Y-48857143D02*
X165931009Y-48904762D01*
X165931009Y-48904762D02*
X165978628Y-49000000D01*
X165978628Y-49000000D02*
X165978628Y-49380952D01*
X166454819Y-48238095D02*
X166407200Y-48333333D01*
X166407200Y-48333333D02*
X166359580Y-48380952D01*
X166359580Y-48380952D02*
X166264342Y-48428571D01*
X166264342Y-48428571D02*
X165978628Y-48428571D01*
X165978628Y-48428571D02*
X165883390Y-48380952D01*
X165883390Y-48380952D02*
X165835771Y-48333333D01*
X165835771Y-48333333D02*
X165788152Y-48238095D01*
X165788152Y-48238095D02*
X165788152Y-48095238D01*
X165788152Y-48095238D02*
X165835771Y-48000000D01*
X165835771Y-48000000D02*
X165883390Y-47952381D01*
X165883390Y-47952381D02*
X165978628Y-47904762D01*
X165978628Y-47904762D02*
X166264342Y-47904762D01*
X166264342Y-47904762D02*
X166359580Y-47952381D01*
X166359580Y-47952381D02*
X166407200Y-48000000D01*
X166407200Y-48000000D02*
X166454819Y-48095238D01*
X166454819Y-48095238D02*
X166454819Y-48238095D01*
X165788152Y-47571428D02*
X166454819Y-47380952D01*
X166454819Y-47380952D02*
X165978628Y-47190476D01*
X165978628Y-47190476D02*
X166454819Y-47000000D01*
X166454819Y-47000000D02*
X165788152Y-46809524D01*
X166407200Y-46047619D02*
X166454819Y-46142857D01*
X166454819Y-46142857D02*
X166454819Y-46333333D01*
X166454819Y-46333333D02*
X166407200Y-46428571D01*
X166407200Y-46428571D02*
X166311961Y-46476190D01*
X166311961Y-46476190D02*
X165931009Y-46476190D01*
X165931009Y-46476190D02*
X165835771Y-46428571D01*
X165835771Y-46428571D02*
X165788152Y-46333333D01*
X165788152Y-46333333D02*
X165788152Y-46142857D01*
X165788152Y-46142857D02*
X165835771Y-46047619D01*
X165835771Y-46047619D02*
X165931009Y-46000000D01*
X165931009Y-46000000D02*
X166026247Y-46000000D01*
X166026247Y-46000000D02*
X166121485Y-46476190D01*
X166454819Y-45571428D02*
X165788152Y-45571428D01*
X165978628Y-45571428D02*
X165883390Y-45523809D01*
X165883390Y-45523809D02*
X165835771Y-45476190D01*
X165835771Y-45476190D02*
X165788152Y-45380952D01*
X165788152Y-45380952D02*
X165788152Y-45285714D01*
X166407200Y-44999999D02*
X166454819Y-44857142D01*
X166454819Y-44857142D02*
X166454819Y-44619047D01*
X166454819Y-44619047D02*
X166407200Y-44523809D01*
X166407200Y-44523809D02*
X166359580Y-44476190D01*
X166359580Y-44476190D02*
X166264342Y-44428571D01*
X166264342Y-44428571D02*
X166169104Y-44428571D01*
X166169104Y-44428571D02*
X166073866Y-44476190D01*
X166073866Y-44476190D02*
X166026247Y-44523809D01*
X166026247Y-44523809D02*
X165978628Y-44619047D01*
X165978628Y-44619047D02*
X165931009Y-44809523D01*
X165931009Y-44809523D02*
X165883390Y-44904761D01*
X165883390Y-44904761D02*
X165835771Y-44952380D01*
X165835771Y-44952380D02*
X165740533Y-44999999D01*
X165740533Y-44999999D02*
X165645295Y-44999999D01*
X165645295Y-44999999D02*
X165550057Y-44952380D01*
X165550057Y-44952380D02*
X165502438Y-44904761D01*
X165502438Y-44904761D02*
X165454819Y-44809523D01*
X165454819Y-44809523D02*
X165454819Y-44571428D01*
X165454819Y-44571428D02*
X165502438Y-44428571D01*
X165788152Y-44095237D02*
X166454819Y-43904761D01*
X166454819Y-43904761D02*
X165978628Y-43714285D01*
X165978628Y-43714285D02*
X166454819Y-43523809D01*
X166454819Y-43523809D02*
X165788152Y-43333333D01*
X166454819Y-42952380D02*
X165788152Y-42952380D01*
X165454819Y-42952380D02*
X165502438Y-42999999D01*
X165502438Y-42999999D02*
X165550057Y-42952380D01*
X165550057Y-42952380D02*
X165502438Y-42904761D01*
X165502438Y-42904761D02*
X165454819Y-42952380D01*
X165454819Y-42952380D02*
X165550057Y-42952380D01*
X165788152Y-42619047D02*
X165788152Y-42238095D01*
X165454819Y-42476190D02*
X166311961Y-42476190D01*
X166311961Y-42476190D02*
X166407200Y-42428571D01*
X166407200Y-42428571D02*
X166454819Y-42333333D01*
X166454819Y-42333333D02*
X166454819Y-42238095D01*
X166407200Y-41476190D02*
X166454819Y-41571428D01*
X166454819Y-41571428D02*
X166454819Y-41761904D01*
X166454819Y-41761904D02*
X166407200Y-41857142D01*
X166407200Y-41857142D02*
X166359580Y-41904761D01*
X166359580Y-41904761D02*
X166264342Y-41952380D01*
X166264342Y-41952380D02*
X165978628Y-41952380D01*
X165978628Y-41952380D02*
X165883390Y-41904761D01*
X165883390Y-41904761D02*
X165835771Y-41857142D01*
X165835771Y-41857142D02*
X165788152Y-41761904D01*
X165788152Y-41761904D02*
X165788152Y-41571428D01*
X165788152Y-41571428D02*
X165835771Y-41476190D01*
X166454819Y-41047618D02*
X165454819Y-41047618D01*
X166454819Y-40619047D02*
X165931009Y-40619047D01*
X165931009Y-40619047D02*
X165835771Y-40666666D01*
X165835771Y-40666666D02*
X165788152Y-40761904D01*
X165788152Y-40761904D02*
X165788152Y-40904761D01*
X165788152Y-40904761D02*
X165835771Y-40999999D01*
X165835771Y-40999999D02*
X165883390Y-41047618D01*
X142914285Y-96546009D02*
X143057142Y-96593628D01*
X143057142Y-96593628D02*
X143104761Y-96641247D01*
X143104761Y-96641247D02*
X143152380Y-96736485D01*
X143152380Y-96736485D02*
X143152380Y-96879342D01*
X143152380Y-96879342D02*
X143104761Y-96974580D01*
X143104761Y-96974580D02*
X143057142Y-97022200D01*
X143057142Y-97022200D02*
X142961904Y-97069819D01*
X142961904Y-97069819D02*
X142580952Y-97069819D01*
X142580952Y-97069819D02*
X142580952Y-96069819D01*
X142580952Y-96069819D02*
X142914285Y-96069819D01*
X142914285Y-96069819D02*
X143009523Y-96117438D01*
X143009523Y-96117438D02*
X143057142Y-96165057D01*
X143057142Y-96165057D02*
X143104761Y-96260295D01*
X143104761Y-96260295D02*
X143104761Y-96355533D01*
X143104761Y-96355533D02*
X143057142Y-96450771D01*
X143057142Y-96450771D02*
X143009523Y-96498390D01*
X143009523Y-96498390D02*
X142914285Y-96546009D01*
X142914285Y-96546009D02*
X142580952Y-96546009D01*
X143438095Y-96069819D02*
X144009523Y-96069819D01*
X143723809Y-97069819D02*
X143723809Y-96069819D01*
X144771428Y-96403152D02*
X144771428Y-97069819D01*
X144533333Y-96022200D02*
X144295238Y-96736485D01*
X144295238Y-96736485D02*
X144914285Y-96736485D01*
X154407857Y-112839819D02*
X154407857Y-111839819D01*
X154407857Y-111839819D02*
X154788809Y-111839819D01*
X154788809Y-111839819D02*
X154884047Y-111887438D01*
X154884047Y-111887438D02*
X154931666Y-111935057D01*
X154931666Y-111935057D02*
X154979285Y-112030295D01*
X154979285Y-112030295D02*
X154979285Y-112173152D01*
X154979285Y-112173152D02*
X154931666Y-112268390D01*
X154931666Y-112268390D02*
X154884047Y-112316009D01*
X154884047Y-112316009D02*
X154788809Y-112363628D01*
X154788809Y-112363628D02*
X154407857Y-112363628D01*
X155550714Y-112839819D02*
X155455476Y-112792200D01*
X155455476Y-112792200D02*
X155407857Y-112696961D01*
X155407857Y-112696961D02*
X155407857Y-111839819D01*
X156360238Y-112839819D02*
X156360238Y-112316009D01*
X156360238Y-112316009D02*
X156312619Y-112220771D01*
X156312619Y-112220771D02*
X156217381Y-112173152D01*
X156217381Y-112173152D02*
X156026905Y-112173152D01*
X156026905Y-112173152D02*
X155931667Y-112220771D01*
X156360238Y-112792200D02*
X156265000Y-112839819D01*
X156265000Y-112839819D02*
X156026905Y-112839819D01*
X156026905Y-112839819D02*
X155931667Y-112792200D01*
X155931667Y-112792200D02*
X155884048Y-112696961D01*
X155884048Y-112696961D02*
X155884048Y-112601723D01*
X155884048Y-112601723D02*
X155931667Y-112506485D01*
X155931667Y-112506485D02*
X156026905Y-112458866D01*
X156026905Y-112458866D02*
X156265000Y-112458866D01*
X156265000Y-112458866D02*
X156360238Y-112411247D01*
X156741191Y-112173152D02*
X156979286Y-112839819D01*
X157217381Y-112173152D02*
X156979286Y-112839819D01*
X156979286Y-112839819D02*
X156884048Y-113077914D01*
X156884048Y-113077914D02*
X156836429Y-113125533D01*
X156836429Y-113125533D02*
X156741191Y-113173152D01*
X109214285Y-46681009D02*
X109357142Y-46728628D01*
X109357142Y-46728628D02*
X109404761Y-46776247D01*
X109404761Y-46776247D02*
X109452380Y-46871485D01*
X109452380Y-46871485D02*
X109452380Y-47014342D01*
X109452380Y-47014342D02*
X109404761Y-47109580D01*
X109404761Y-47109580D02*
X109357142Y-47157200D01*
X109357142Y-47157200D02*
X109261904Y-47204819D01*
X109261904Y-47204819D02*
X108880952Y-47204819D01*
X108880952Y-47204819D02*
X108880952Y-46204819D01*
X108880952Y-46204819D02*
X109214285Y-46204819D01*
X109214285Y-46204819D02*
X109309523Y-46252438D01*
X109309523Y-46252438D02*
X109357142Y-46300057D01*
X109357142Y-46300057D02*
X109404761Y-46395295D01*
X109404761Y-46395295D02*
X109404761Y-46490533D01*
X109404761Y-46490533D02*
X109357142Y-46585771D01*
X109357142Y-46585771D02*
X109309523Y-46633390D01*
X109309523Y-46633390D02*
X109214285Y-46681009D01*
X109214285Y-46681009D02*
X108880952Y-46681009D01*
X109738095Y-46204819D02*
X110309523Y-46204819D01*
X110023809Y-47204819D02*
X110023809Y-46204819D01*
X111166666Y-47204819D02*
X110595238Y-47204819D01*
X110880952Y-47204819D02*
X110880952Y-46204819D01*
X110880952Y-46204819D02*
X110785714Y-46347676D01*
X110785714Y-46347676D02*
X110690476Y-46442914D01*
X110690476Y-46442914D02*
X110595238Y-46490533D01*
X108309524Y-55857200D02*
X108404762Y-55904819D01*
X108404762Y-55904819D02*
X108595238Y-55904819D01*
X108595238Y-55904819D02*
X108690476Y-55857200D01*
X108690476Y-55857200D02*
X108738095Y-55761961D01*
X108738095Y-55761961D02*
X108738095Y-55714342D01*
X108738095Y-55714342D02*
X108690476Y-55619104D01*
X108690476Y-55619104D02*
X108595238Y-55571485D01*
X108595238Y-55571485D02*
X108452381Y-55571485D01*
X108452381Y-55571485D02*
X108357143Y-55523866D01*
X108357143Y-55523866D02*
X108309524Y-55428628D01*
X108309524Y-55428628D02*
X108309524Y-55381009D01*
X108309524Y-55381009D02*
X108357143Y-55285771D01*
X108357143Y-55285771D02*
X108452381Y-55238152D01*
X108452381Y-55238152D02*
X108595238Y-55238152D01*
X108595238Y-55238152D02*
X108690476Y-55285771D01*
X109547619Y-55857200D02*
X109452381Y-55904819D01*
X109452381Y-55904819D02*
X109261905Y-55904819D01*
X109261905Y-55904819D02*
X109166667Y-55857200D01*
X109166667Y-55857200D02*
X109119048Y-55761961D01*
X109119048Y-55761961D02*
X109119048Y-55381009D01*
X109119048Y-55381009D02*
X109166667Y-55285771D01*
X109166667Y-55285771D02*
X109261905Y-55238152D01*
X109261905Y-55238152D02*
X109452381Y-55238152D01*
X109452381Y-55238152D02*
X109547619Y-55285771D01*
X109547619Y-55285771D02*
X109595238Y-55381009D01*
X109595238Y-55381009D02*
X109595238Y-55476247D01*
X109595238Y-55476247D02*
X109119048Y-55571485D01*
X109880953Y-55238152D02*
X110261905Y-55238152D01*
X110023810Y-54904819D02*
X110023810Y-55761961D01*
X110023810Y-55761961D02*
X110071429Y-55857200D01*
X110071429Y-55857200D02*
X110166667Y-55904819D01*
X110166667Y-55904819D02*
X110261905Y-55904819D01*
X110595239Y-55904819D02*
X110595239Y-54904819D01*
X110595239Y-54904819D02*
X110928572Y-55619104D01*
X110928572Y-55619104D02*
X111261905Y-54904819D01*
X111261905Y-54904819D02*
X111261905Y-55904819D01*
X111738096Y-55904819D02*
X111738096Y-55238152D01*
X111738096Y-54904819D02*
X111690477Y-54952438D01*
X111690477Y-54952438D02*
X111738096Y-55000057D01*
X111738096Y-55000057D02*
X111785715Y-54952438D01*
X111785715Y-54952438D02*
X111738096Y-54904819D01*
X111738096Y-54904819D02*
X111738096Y-55000057D01*
X112214286Y-55238152D02*
X112214286Y-55904819D01*
X112214286Y-55333390D02*
X112261905Y-55285771D01*
X112261905Y-55285771D02*
X112357143Y-55238152D01*
X112357143Y-55238152D02*
X112500000Y-55238152D01*
X112500000Y-55238152D02*
X112595238Y-55285771D01*
X112595238Y-55285771D02*
X112642857Y-55381009D01*
X112642857Y-55381009D02*
X112642857Y-55904819D01*
X142914285Y-64046009D02*
X143057142Y-64093628D01*
X143057142Y-64093628D02*
X143104761Y-64141247D01*
X143104761Y-64141247D02*
X143152380Y-64236485D01*
X143152380Y-64236485D02*
X143152380Y-64379342D01*
X143152380Y-64379342D02*
X143104761Y-64474580D01*
X143104761Y-64474580D02*
X143057142Y-64522200D01*
X143057142Y-64522200D02*
X142961904Y-64569819D01*
X142961904Y-64569819D02*
X142580952Y-64569819D01*
X142580952Y-64569819D02*
X142580952Y-63569819D01*
X142580952Y-63569819D02*
X142914285Y-63569819D01*
X142914285Y-63569819D02*
X143009523Y-63617438D01*
X143009523Y-63617438D02*
X143057142Y-63665057D01*
X143057142Y-63665057D02*
X143104761Y-63760295D01*
X143104761Y-63760295D02*
X143104761Y-63855533D01*
X143104761Y-63855533D02*
X143057142Y-63950771D01*
X143057142Y-63950771D02*
X143009523Y-63998390D01*
X143009523Y-63998390D02*
X142914285Y-64046009D01*
X142914285Y-64046009D02*
X142580952Y-64046009D01*
X143438095Y-63569819D02*
X144009523Y-63569819D01*
X143723809Y-64569819D02*
X143723809Y-63569819D01*
X144295238Y-63665057D02*
X144342857Y-63617438D01*
X144342857Y-63617438D02*
X144438095Y-63569819D01*
X144438095Y-63569819D02*
X144676190Y-63569819D01*
X144676190Y-63569819D02*
X144771428Y-63617438D01*
X144771428Y-63617438D02*
X144819047Y-63665057D01*
X144819047Y-63665057D02*
X144866666Y-63760295D01*
X144866666Y-63760295D02*
X144866666Y-63855533D01*
X144866666Y-63855533D02*
X144819047Y-63998390D01*
X144819047Y-63998390D02*
X144247619Y-64569819D01*
X144247619Y-64569819D02*
X144866666Y-64569819D01*
X154003094Y-80339819D02*
X153669761Y-79863628D01*
X153431666Y-80339819D02*
X153431666Y-79339819D01*
X153431666Y-79339819D02*
X153812618Y-79339819D01*
X153812618Y-79339819D02*
X153907856Y-79387438D01*
X153907856Y-79387438D02*
X153955475Y-79435057D01*
X153955475Y-79435057D02*
X154003094Y-79530295D01*
X154003094Y-79530295D02*
X154003094Y-79673152D01*
X154003094Y-79673152D02*
X153955475Y-79768390D01*
X153955475Y-79768390D02*
X153907856Y-79816009D01*
X153907856Y-79816009D02*
X153812618Y-79863628D01*
X153812618Y-79863628D02*
X153431666Y-79863628D01*
X154812618Y-80292200D02*
X154717380Y-80339819D01*
X154717380Y-80339819D02*
X154526904Y-80339819D01*
X154526904Y-80339819D02*
X154431666Y-80292200D01*
X154431666Y-80292200D02*
X154384047Y-80196961D01*
X154384047Y-80196961D02*
X154384047Y-79816009D01*
X154384047Y-79816009D02*
X154431666Y-79720771D01*
X154431666Y-79720771D02*
X154526904Y-79673152D01*
X154526904Y-79673152D02*
X154717380Y-79673152D01*
X154717380Y-79673152D02*
X154812618Y-79720771D01*
X154812618Y-79720771D02*
X154860237Y-79816009D01*
X154860237Y-79816009D02*
X154860237Y-79911247D01*
X154860237Y-79911247D02*
X154384047Y-80006485D01*
X155717380Y-80292200D02*
X155622142Y-80339819D01*
X155622142Y-80339819D02*
X155431666Y-80339819D01*
X155431666Y-80339819D02*
X155336428Y-80292200D01*
X155336428Y-80292200D02*
X155288809Y-80244580D01*
X155288809Y-80244580D02*
X155241190Y-80149342D01*
X155241190Y-80149342D02*
X155241190Y-79863628D01*
X155241190Y-79863628D02*
X155288809Y-79768390D01*
X155288809Y-79768390D02*
X155336428Y-79720771D01*
X155336428Y-79720771D02*
X155431666Y-79673152D01*
X155431666Y-79673152D02*
X155622142Y-79673152D01*
X155622142Y-79673152D02*
X155717380Y-79720771D01*
X156288809Y-80339819D02*
X156193571Y-80292200D01*
X156193571Y-80292200D02*
X156145952Y-80244580D01*
X156145952Y-80244580D02*
X156098333Y-80149342D01*
X156098333Y-80149342D02*
X156098333Y-79863628D01*
X156098333Y-79863628D02*
X156145952Y-79768390D01*
X156145952Y-79768390D02*
X156193571Y-79720771D01*
X156193571Y-79720771D02*
X156288809Y-79673152D01*
X156288809Y-79673152D02*
X156431666Y-79673152D01*
X156431666Y-79673152D02*
X156526904Y-79720771D01*
X156526904Y-79720771D02*
X156574523Y-79768390D01*
X156574523Y-79768390D02*
X156622142Y-79863628D01*
X156622142Y-79863628D02*
X156622142Y-80149342D01*
X156622142Y-80149342D02*
X156574523Y-80244580D01*
X156574523Y-80244580D02*
X156526904Y-80292200D01*
X156526904Y-80292200D02*
X156431666Y-80339819D01*
X156431666Y-80339819D02*
X156288809Y-80339819D01*
X157050714Y-80339819D02*
X157050714Y-79673152D01*
X157050714Y-79863628D02*
X157098333Y-79768390D01*
X157098333Y-79768390D02*
X157145952Y-79720771D01*
X157145952Y-79720771D02*
X157241190Y-79673152D01*
X157241190Y-79673152D02*
X157336428Y-79673152D01*
X158098333Y-80339819D02*
X158098333Y-79339819D01*
X158098333Y-80292200D02*
X158003095Y-80339819D01*
X158003095Y-80339819D02*
X157812619Y-80339819D01*
X157812619Y-80339819D02*
X157717381Y-80292200D01*
X157717381Y-80292200D02*
X157669762Y-80244580D01*
X157669762Y-80244580D02*
X157622143Y-80149342D01*
X157622143Y-80149342D02*
X157622143Y-79863628D01*
X157622143Y-79863628D02*
X157669762Y-79768390D01*
X157669762Y-79768390D02*
X157717381Y-79720771D01*
X157717381Y-79720771D02*
X157812619Y-79673152D01*
X157812619Y-79673152D02*
X158003095Y-79673152D01*
X158003095Y-79673152D02*
X158098333Y-79720771D01*
X109914700Y-127285832D02*
X109962319Y-127142975D01*
X109962319Y-127142975D02*
X109962319Y-126904880D01*
X109962319Y-126904880D02*
X109914700Y-126809642D01*
X109914700Y-126809642D02*
X109867080Y-126762023D01*
X109867080Y-126762023D02*
X109771842Y-126714404D01*
X109771842Y-126714404D02*
X109676604Y-126714404D01*
X109676604Y-126714404D02*
X109581366Y-126762023D01*
X109581366Y-126762023D02*
X109533747Y-126809642D01*
X109533747Y-126809642D02*
X109486128Y-126904880D01*
X109486128Y-126904880D02*
X109438509Y-127095356D01*
X109438509Y-127095356D02*
X109390890Y-127190594D01*
X109390890Y-127190594D02*
X109343271Y-127238213D01*
X109343271Y-127238213D02*
X109248033Y-127285832D01*
X109248033Y-127285832D02*
X109152795Y-127285832D01*
X109152795Y-127285832D02*
X109057557Y-127238213D01*
X109057557Y-127238213D02*
X109009938Y-127190594D01*
X109009938Y-127190594D02*
X108962319Y-127095356D01*
X108962319Y-127095356D02*
X108962319Y-126857261D01*
X108962319Y-126857261D02*
X109009938Y-126714404D01*
X108962319Y-126381070D02*
X109962319Y-126142975D01*
X109962319Y-126142975D02*
X109248033Y-125952499D01*
X109248033Y-125952499D02*
X109962319Y-125762023D01*
X109962319Y-125762023D02*
X108962319Y-125523928D01*
X108962319Y-125238213D02*
X108962319Y-124619166D01*
X108962319Y-124619166D02*
X109343271Y-124952499D01*
X109343271Y-124952499D02*
X109343271Y-124809642D01*
X109343271Y-124809642D02*
X109390890Y-124714404D01*
X109390890Y-124714404D02*
X109438509Y-124666785D01*
X109438509Y-124666785D02*
X109533747Y-124619166D01*
X109533747Y-124619166D02*
X109771842Y-124619166D01*
X109771842Y-124619166D02*
X109867080Y-124666785D01*
X109867080Y-124666785D02*
X109914700Y-124714404D01*
X109914700Y-124714404D02*
X109962319Y-124809642D01*
X109962319Y-124809642D02*
X109962319Y-125095356D01*
X109962319Y-125095356D02*
X109914700Y-125190594D01*
X109914700Y-125190594D02*
X109867080Y-125238213D01*
X116423509Y-121324643D02*
X116423509Y-121657976D01*
X116947319Y-121657976D02*
X115947319Y-121657976D01*
X115947319Y-121657976D02*
X115947319Y-121181786D01*
X116947319Y-120800833D02*
X116280652Y-120800833D01*
X115947319Y-120800833D02*
X115994938Y-120848452D01*
X115994938Y-120848452D02*
X116042557Y-120800833D01*
X116042557Y-120800833D02*
X115994938Y-120753214D01*
X115994938Y-120753214D02*
X115947319Y-120800833D01*
X115947319Y-120800833D02*
X116042557Y-120800833D01*
X116947319Y-120181786D02*
X116899700Y-120277024D01*
X116899700Y-120277024D02*
X116804461Y-120324643D01*
X116804461Y-120324643D02*
X115947319Y-120324643D01*
X116280652Y-119943690D02*
X116280652Y-119562738D01*
X115947319Y-119800833D02*
X116804461Y-119800833D01*
X116804461Y-119800833D02*
X116899700Y-119753214D01*
X116899700Y-119753214D02*
X116947319Y-119657976D01*
X116947319Y-119657976D02*
X116947319Y-119562738D01*
X116899700Y-118848452D02*
X116947319Y-118943690D01*
X116947319Y-118943690D02*
X116947319Y-119134166D01*
X116947319Y-119134166D02*
X116899700Y-119229404D01*
X116899700Y-119229404D02*
X116804461Y-119277023D01*
X116804461Y-119277023D02*
X116423509Y-119277023D01*
X116423509Y-119277023D02*
X116328271Y-119229404D01*
X116328271Y-119229404D02*
X116280652Y-119134166D01*
X116280652Y-119134166D02*
X116280652Y-118943690D01*
X116280652Y-118943690D02*
X116328271Y-118848452D01*
X116328271Y-118848452D02*
X116423509Y-118800833D01*
X116423509Y-118800833D02*
X116518747Y-118800833D01*
X116518747Y-118800833D02*
X116613985Y-119277023D01*
X116947319Y-118372261D02*
X116280652Y-118372261D01*
X116471128Y-118372261D02*
X116375890Y-118324642D01*
X116375890Y-118324642D02*
X116328271Y-118277023D01*
X116328271Y-118277023D02*
X116280652Y-118181785D01*
X116280652Y-118181785D02*
X116280652Y-118086547D01*
X115947319Y-117562737D02*
X115947319Y-117372261D01*
X115947319Y-117372261D02*
X115994938Y-117277023D01*
X115994938Y-117277023D02*
X116090176Y-117181785D01*
X116090176Y-117181785D02*
X116280652Y-117134166D01*
X116280652Y-117134166D02*
X116613985Y-117134166D01*
X116613985Y-117134166D02*
X116804461Y-117181785D01*
X116804461Y-117181785D02*
X116899700Y-117277023D01*
X116899700Y-117277023D02*
X116947319Y-117372261D01*
X116947319Y-117372261D02*
X116947319Y-117562737D01*
X116947319Y-117562737D02*
X116899700Y-117657975D01*
X116899700Y-117657975D02*
X116804461Y-117753213D01*
X116804461Y-117753213D02*
X116613985Y-117800832D01*
X116613985Y-117800832D02*
X116280652Y-117800832D01*
X116280652Y-117800832D02*
X116090176Y-117753213D01*
X116090176Y-117753213D02*
X115994938Y-117657975D01*
X115994938Y-117657975D02*
X115947319Y-117562737D01*
X116280652Y-116705594D02*
X116947319Y-116705594D01*
X116375890Y-116705594D02*
X116328271Y-116657975D01*
X116328271Y-116657975D02*
X116280652Y-116562737D01*
X116280652Y-116562737D02*
X116280652Y-116419880D01*
X116280652Y-116419880D02*
X116328271Y-116324642D01*
X116328271Y-116324642D02*
X116423509Y-116277023D01*
X116423509Y-116277023D02*
X116947319Y-116277023D01*
X109914700Y-90285832D02*
X109962319Y-90142975D01*
X109962319Y-90142975D02*
X109962319Y-89904880D01*
X109962319Y-89904880D02*
X109914700Y-89809642D01*
X109914700Y-89809642D02*
X109867080Y-89762023D01*
X109867080Y-89762023D02*
X109771842Y-89714404D01*
X109771842Y-89714404D02*
X109676604Y-89714404D01*
X109676604Y-89714404D02*
X109581366Y-89762023D01*
X109581366Y-89762023D02*
X109533747Y-89809642D01*
X109533747Y-89809642D02*
X109486128Y-89904880D01*
X109486128Y-89904880D02*
X109438509Y-90095356D01*
X109438509Y-90095356D02*
X109390890Y-90190594D01*
X109390890Y-90190594D02*
X109343271Y-90238213D01*
X109343271Y-90238213D02*
X109248033Y-90285832D01*
X109248033Y-90285832D02*
X109152795Y-90285832D01*
X109152795Y-90285832D02*
X109057557Y-90238213D01*
X109057557Y-90238213D02*
X109009938Y-90190594D01*
X109009938Y-90190594D02*
X108962319Y-90095356D01*
X108962319Y-90095356D02*
X108962319Y-89857261D01*
X108962319Y-89857261D02*
X109009938Y-89714404D01*
X108962319Y-89381070D02*
X109962319Y-89142975D01*
X109962319Y-89142975D02*
X109248033Y-88952499D01*
X109248033Y-88952499D02*
X109962319Y-88762023D01*
X109962319Y-88762023D02*
X108962319Y-88523928D01*
X109962319Y-87619166D02*
X109962319Y-88190594D01*
X109962319Y-87904880D02*
X108962319Y-87904880D01*
X108962319Y-87904880D02*
X109105176Y-88000118D01*
X109105176Y-88000118D02*
X109200414Y-88095356D01*
X109200414Y-88095356D02*
X109248033Y-88190594D01*
X116947319Y-84610356D02*
X115947319Y-84610356D01*
X115947319Y-84610356D02*
X115947319Y-84229404D01*
X115947319Y-84229404D02*
X115994938Y-84134166D01*
X115994938Y-84134166D02*
X116042557Y-84086547D01*
X116042557Y-84086547D02*
X116137795Y-84038928D01*
X116137795Y-84038928D02*
X116280652Y-84038928D01*
X116280652Y-84038928D02*
X116375890Y-84086547D01*
X116375890Y-84086547D02*
X116423509Y-84134166D01*
X116423509Y-84134166D02*
X116471128Y-84229404D01*
X116471128Y-84229404D02*
X116471128Y-84610356D01*
X116947319Y-83610356D02*
X116280652Y-83610356D01*
X115947319Y-83610356D02*
X115994938Y-83657975D01*
X115994938Y-83657975D02*
X116042557Y-83610356D01*
X116042557Y-83610356D02*
X115994938Y-83562737D01*
X115994938Y-83562737D02*
X115947319Y-83610356D01*
X115947319Y-83610356D02*
X116042557Y-83610356D01*
X116280652Y-83277023D02*
X116280652Y-82896071D01*
X115947319Y-83134166D02*
X116804461Y-83134166D01*
X116804461Y-83134166D02*
X116899700Y-83086547D01*
X116899700Y-83086547D02*
X116947319Y-82991309D01*
X116947319Y-82991309D02*
X116947319Y-82896071D01*
X116899700Y-82134166D02*
X116947319Y-82229404D01*
X116947319Y-82229404D02*
X116947319Y-82419880D01*
X116947319Y-82419880D02*
X116899700Y-82515118D01*
X116899700Y-82515118D02*
X116852080Y-82562737D01*
X116852080Y-82562737D02*
X116756842Y-82610356D01*
X116756842Y-82610356D02*
X116471128Y-82610356D01*
X116471128Y-82610356D02*
X116375890Y-82562737D01*
X116375890Y-82562737D02*
X116328271Y-82515118D01*
X116328271Y-82515118D02*
X116280652Y-82419880D01*
X116280652Y-82419880D02*
X116280652Y-82229404D01*
X116280652Y-82229404D02*
X116328271Y-82134166D01*
X116947319Y-81705594D02*
X115947319Y-81705594D01*
X116947319Y-81277023D02*
X116423509Y-81277023D01*
X116423509Y-81277023D02*
X116328271Y-81324642D01*
X116328271Y-81324642D02*
X116280652Y-81419880D01*
X116280652Y-81419880D02*
X116280652Y-81562737D01*
X116280652Y-81562737D02*
X116328271Y-81657975D01*
X116328271Y-81657975D02*
X116375890Y-81705594D01*
X115947319Y-80610356D02*
X115947319Y-80419880D01*
X115947319Y-80419880D02*
X115994938Y-80324642D01*
X115994938Y-80324642D02*
X116090176Y-80229404D01*
X116090176Y-80229404D02*
X116280652Y-80181785D01*
X116280652Y-80181785D02*
X116613985Y-80181785D01*
X116613985Y-80181785D02*
X116804461Y-80229404D01*
X116804461Y-80229404D02*
X116899700Y-80324642D01*
X116899700Y-80324642D02*
X116947319Y-80419880D01*
X116947319Y-80419880D02*
X116947319Y-80610356D01*
X116947319Y-80610356D02*
X116899700Y-80705594D01*
X116899700Y-80705594D02*
X116804461Y-80800832D01*
X116804461Y-80800832D02*
X116613985Y-80848451D01*
X116613985Y-80848451D02*
X116280652Y-80848451D01*
X116280652Y-80848451D02*
X116090176Y-80800832D01*
X116090176Y-80800832D02*
X115994938Y-80705594D01*
X115994938Y-80705594D02*
X115947319Y-80610356D01*
X116280652Y-79753213D02*
X116947319Y-79753213D01*
X116375890Y-79753213D02*
X116328271Y-79705594D01*
X116328271Y-79705594D02*
X116280652Y-79610356D01*
X116280652Y-79610356D02*
X116280652Y-79467499D01*
X116280652Y-79467499D02*
X116328271Y-79372261D01*
X116328271Y-79372261D02*
X116423509Y-79324642D01*
X116423509Y-79324642D02*
X116947319Y-79324642D01*
X129214285Y-46681009D02*
X129357142Y-46728628D01*
X129357142Y-46728628D02*
X129404761Y-46776247D01*
X129404761Y-46776247D02*
X129452380Y-46871485D01*
X129452380Y-46871485D02*
X129452380Y-47014342D01*
X129452380Y-47014342D02*
X129404761Y-47109580D01*
X129404761Y-47109580D02*
X129357142Y-47157200D01*
X129357142Y-47157200D02*
X129261904Y-47204819D01*
X129261904Y-47204819D02*
X128880952Y-47204819D01*
X128880952Y-47204819D02*
X128880952Y-46204819D01*
X128880952Y-46204819D02*
X129214285Y-46204819D01*
X129214285Y-46204819D02*
X129309523Y-46252438D01*
X129309523Y-46252438D02*
X129357142Y-46300057D01*
X129357142Y-46300057D02*
X129404761Y-46395295D01*
X129404761Y-46395295D02*
X129404761Y-46490533D01*
X129404761Y-46490533D02*
X129357142Y-46585771D01*
X129357142Y-46585771D02*
X129309523Y-46633390D01*
X129309523Y-46633390D02*
X129214285Y-46681009D01*
X129214285Y-46681009D02*
X128880952Y-46681009D01*
X129738095Y-46204819D02*
X130309523Y-46204819D01*
X130023809Y-47204819D02*
X130023809Y-46204819D01*
X130547619Y-46204819D02*
X131166666Y-46204819D01*
X131166666Y-46204819D02*
X130833333Y-46585771D01*
X130833333Y-46585771D02*
X130976190Y-46585771D01*
X130976190Y-46585771D02*
X131071428Y-46633390D01*
X131071428Y-46633390D02*
X131119047Y-46681009D01*
X131119047Y-46681009D02*
X131166666Y-46776247D01*
X131166666Y-46776247D02*
X131166666Y-47014342D01*
X131166666Y-47014342D02*
X131119047Y-47109580D01*
X131119047Y-47109580D02*
X131071428Y-47157200D01*
X131071428Y-47157200D02*
X130976190Y-47204819D01*
X130976190Y-47204819D02*
X130690476Y-47204819D01*
X130690476Y-47204819D02*
X130595238Y-47157200D01*
X130595238Y-47157200D02*
X130547619Y-47109580D01*
X128142857Y-55857200D02*
X128238095Y-55904819D01*
X128238095Y-55904819D02*
X128428571Y-55904819D01*
X128428571Y-55904819D02*
X128523809Y-55857200D01*
X128523809Y-55857200D02*
X128571428Y-55761961D01*
X128571428Y-55761961D02*
X128571428Y-55714342D01*
X128571428Y-55714342D02*
X128523809Y-55619104D01*
X128523809Y-55619104D02*
X128428571Y-55571485D01*
X128428571Y-55571485D02*
X128285714Y-55571485D01*
X128285714Y-55571485D02*
X128190476Y-55523866D01*
X128190476Y-55523866D02*
X128142857Y-55428628D01*
X128142857Y-55428628D02*
X128142857Y-55381009D01*
X128142857Y-55381009D02*
X128190476Y-55285771D01*
X128190476Y-55285771D02*
X128285714Y-55238152D01*
X128285714Y-55238152D02*
X128428571Y-55238152D01*
X128428571Y-55238152D02*
X128523809Y-55285771D01*
X129380952Y-55857200D02*
X129285714Y-55904819D01*
X129285714Y-55904819D02*
X129095238Y-55904819D01*
X129095238Y-55904819D02*
X129000000Y-55857200D01*
X129000000Y-55857200D02*
X128952381Y-55761961D01*
X128952381Y-55761961D02*
X128952381Y-55381009D01*
X128952381Y-55381009D02*
X129000000Y-55285771D01*
X129000000Y-55285771D02*
X129095238Y-55238152D01*
X129095238Y-55238152D02*
X129285714Y-55238152D01*
X129285714Y-55238152D02*
X129380952Y-55285771D01*
X129380952Y-55285771D02*
X129428571Y-55381009D01*
X129428571Y-55381009D02*
X129428571Y-55476247D01*
X129428571Y-55476247D02*
X128952381Y-55571485D01*
X129714286Y-55238152D02*
X130095238Y-55238152D01*
X129857143Y-54904819D02*
X129857143Y-55761961D01*
X129857143Y-55761961D02*
X129904762Y-55857200D01*
X129904762Y-55857200D02*
X130000000Y-55904819D01*
X130000000Y-55904819D02*
X130095238Y-55904819D01*
X130428572Y-55904819D02*
X130428572Y-54904819D01*
X130428572Y-54904819D02*
X130761905Y-55619104D01*
X130761905Y-55619104D02*
X131095238Y-54904819D01*
X131095238Y-54904819D02*
X131095238Y-55904819D01*
X132000000Y-55904819D02*
X132000000Y-55381009D01*
X132000000Y-55381009D02*
X131952381Y-55285771D01*
X131952381Y-55285771D02*
X131857143Y-55238152D01*
X131857143Y-55238152D02*
X131666667Y-55238152D01*
X131666667Y-55238152D02*
X131571429Y-55285771D01*
X132000000Y-55857200D02*
X131904762Y-55904819D01*
X131904762Y-55904819D02*
X131666667Y-55904819D01*
X131666667Y-55904819D02*
X131571429Y-55857200D01*
X131571429Y-55857200D02*
X131523810Y-55761961D01*
X131523810Y-55761961D02*
X131523810Y-55666723D01*
X131523810Y-55666723D02*
X131571429Y-55571485D01*
X131571429Y-55571485D02*
X131666667Y-55523866D01*
X131666667Y-55523866D02*
X131904762Y-55523866D01*
X131904762Y-55523866D02*
X132000000Y-55476247D01*
X132380953Y-55904819D02*
X132904762Y-55238152D01*
X132380953Y-55238152D02*
X132904762Y-55904819D01*
D11*
%TO.C,LED1*%
X155770000Y-45000000D02*
G75*
G02*
X150770000Y-45000000I-2500000J0D01*
G01*
X150770000Y-45000000D02*
G75*
G02*
X155770000Y-45000000I2500000J0D01*
G01*
X156260000Y-45000000D02*
G75*
G02*
X150710000Y-46544830I-2990000J0D01*
G01*
X150710000Y-43455170D02*
G75*
G02*
X156260000Y-45000000I2560000J-1544830D01*
G01*
X150710000Y-43455000D02*
X150710000Y-46545000D01*
D12*
%TO.C,SW2*%
X162100000Y-49750000D02*
G75*
G02*
X161900000Y-49750000I-100000J0D01*
G01*
X161900000Y-49750000D02*
G75*
G02*
X162100000Y-49750000I100000J0D01*
G01*
D13*
X164540000Y-49065000D02*
X164540000Y-40935000D01*
X164540000Y-40935000D02*
X159460000Y-40935000D01*
X159460000Y-49065000D02*
X164540000Y-49065000D01*
X159460000Y-40935000D02*
X159460000Y-49065000D01*
%TO.C,BT4*%
X142000000Y-98500000D02*
X154000000Y-98500000D01*
X142000000Y-100705000D02*
X142000000Y-98500000D01*
X142000000Y-103295000D02*
X142000000Y-105705000D01*
X142000000Y-110500000D02*
X142000000Y-108295000D01*
X154000000Y-98500000D02*
X154000000Y-100705000D01*
X154000000Y-103295000D02*
X154000000Y-105705000D01*
X154000000Y-110500000D02*
X142000000Y-110500000D01*
X154000000Y-110500000D02*
X154000000Y-108295000D01*
D12*
X139875000Y-102000000D02*
G75*
G02*
X139675000Y-102000000I-100000J0D01*
G01*
X139675000Y-102000000D02*
G75*
G02*
X139875000Y-102000000I100000J0D01*
G01*
D11*
%TO.C,BT1*%
X106500000Y-50250000D02*
X106500000Y-51750000D01*
X107750000Y-54250000D02*
X112250000Y-54250000D01*
X112250000Y-47750000D02*
X107750000Y-47750000D01*
X113500000Y-51750000D02*
X113500000Y-50250000D01*
D13*
%TO.C,BT2*%
X142000000Y-66000000D02*
X154000000Y-66000000D01*
X142000000Y-68205000D02*
X142000000Y-66000000D01*
X142000000Y-70795000D02*
X142000000Y-73205000D01*
X142000000Y-78000000D02*
X142000000Y-75795000D01*
X154000000Y-66000000D02*
X154000000Y-68205000D01*
X154000000Y-70795000D02*
X154000000Y-73205000D01*
X154000000Y-78000000D02*
X142000000Y-78000000D01*
X154000000Y-78000000D02*
X154000000Y-75795000D01*
D12*
X139875000Y-69500000D02*
G75*
G02*
X139675000Y-69500000I-100000J0D01*
G01*
X139675000Y-69500000D02*
G75*
G02*
X139875000Y-69500000I100000J0D01*
G01*
D13*
%TO.C,SW3*%
X110460000Y-120935000D02*
X110460000Y-129065000D01*
X110460000Y-129065000D02*
X115540000Y-129065000D01*
X115540000Y-120935000D02*
X110460000Y-120935000D01*
X115540000Y-129065000D02*
X115540000Y-120935000D01*
D12*
X113100000Y-129750000D02*
G75*
G02*
X112900000Y-129750000I-100000J0D01*
G01*
X112900000Y-129750000D02*
G75*
G02*
X113100000Y-129750000I100000J0D01*
G01*
D13*
%TO.C,SW1*%
X110460000Y-83935000D02*
X110460000Y-92065000D01*
X110460000Y-92065000D02*
X115540000Y-92065000D01*
X115540000Y-83935000D02*
X110460000Y-83935000D01*
X115540000Y-92065000D02*
X115540000Y-83935000D01*
D12*
X113100000Y-92750000D02*
G75*
G02*
X112900000Y-92750000I-100000J0D01*
G01*
X112900000Y-92750000D02*
G75*
G02*
X113100000Y-92750000I100000J0D01*
G01*
D11*
%TO.C,BT3*%
X126500000Y-50250000D02*
X126500000Y-51750000D01*
X127750000Y-54250000D02*
X132250000Y-54250000D01*
X132250000Y-47750000D02*
X127750000Y-47750000D01*
X133500000Y-51750000D02*
X133500000Y-50250000D01*
%TO.C,*%
X155750000Y-42000000D02*
X156250000Y-42000000D01*
X156000000Y-41750000D02*
X156000000Y-42250000D01*
%TD*%
%LPC*%
D14*
%TO.C,LED1*%
X154540000Y-45000000D03*
D15*
X152000000Y-45000000D03*
%TD*%
D16*
%TO.C,SW2*%
X162000000Y-42460000D03*
X162000000Y-45000000D03*
D17*
X162000000Y-47540000D03*
%TD*%
D18*
%TO.C,GameTrak1*%
X106650000Y-113075000D03*
D19*
X113150000Y-111995000D03*
D20*
X106650000Y-110535000D03*
D21*
X113150000Y-109995000D03*
D20*
X106650000Y-107995000D03*
D21*
X113150000Y-107995000D03*
X113150000Y-105995000D03*
D20*
X106650000Y-105455000D03*
D21*
X113150000Y-103995000D03*
D20*
X106650000Y-102915000D03*
%TD*%
D22*
%TO.C,BT4*%
X141750000Y-102000000D03*
D23*
X154250000Y-102000000D03*
X141750000Y-107000000D03*
X154250000Y-107000000D03*
%TD*%
D24*
%TO.C,BT1*%
X106750000Y-48750000D03*
X113250000Y-48750000D03*
X106750000Y-53250000D03*
X113250000Y-53250000D03*
%TD*%
D22*
%TO.C,BT2*%
X141750000Y-69500000D03*
D23*
X154250000Y-69500000D03*
X141750000Y-74500000D03*
X154250000Y-74500000D03*
%TD*%
D17*
%TO.C,SW3*%
X113000000Y-127540000D03*
D16*
X113000000Y-125000000D03*
X113000000Y-122460000D03*
%TD*%
D17*
%TO.C,SW1*%
X113000000Y-90540000D03*
D16*
X113000000Y-88000000D03*
X113000000Y-85460000D03*
%TD*%
D24*
%TO.C,BT3*%
X126750000Y-48750000D03*
X133250000Y-48750000D03*
X126750000Y-53250000D03*
X133250000Y-53250000D03*
%TD*%
D25*
%TO.C,C2*%
X107500000Y-62000000D03*
X112500000Y-62000000D03*
%TD*%
D26*
%TO.C,J10*%
X118920000Y-128000000D03*
D27*
X126540000Y-128000000D03*
X121460000Y-128000000D03*
X129080000Y-128000000D03*
X124000000Y-128000000D03*
X131620000Y-128000000D03*
%TD*%
D25*
%TO.C,R1*%
X148000000Y-51190000D03*
X148000000Y-58810000D03*
%TD*%
D18*
%TO.C,A1*%
X134240000Y-64740000D03*
D28*
X134240000Y-67280000D03*
X134240000Y-69820000D03*
X134240000Y-72360000D03*
X134240000Y-74900000D03*
X134240000Y-77440000D03*
X134240000Y-79980000D03*
X134240000Y-82520000D03*
X134240000Y-85060000D03*
X134240000Y-87600000D03*
X134240000Y-90140000D03*
X134240000Y-92680000D03*
X134240000Y-95220000D03*
X134240000Y-97760000D03*
X134240000Y-100300000D03*
X134240000Y-102840000D03*
X134240000Y-105380000D03*
X134240000Y-107920000D03*
X134240000Y-110460000D03*
X134240000Y-113000000D03*
X119000000Y-113000000D03*
X119000000Y-110460000D03*
X119000000Y-107920000D03*
X119000000Y-105380000D03*
X119000000Y-102840000D03*
X119000000Y-100300000D03*
X119000000Y-97760000D03*
X119000000Y-95220000D03*
X119000000Y-92680000D03*
X119000000Y-90140000D03*
X119000000Y-87600000D03*
X119000000Y-85060000D03*
X119000000Y-82520000D03*
X119000000Y-79980000D03*
X119000000Y-77440000D03*
X119000000Y-74900000D03*
X119000000Y-72360000D03*
X119000000Y-69820000D03*
X119000000Y-67280000D03*
X119000000Y-64740000D03*
%TD*%
D29*
%TO.C,C1*%
X109000000Y-70000000D03*
D25*
X109000000Y-68000000D03*
%TD*%
D30*
%TO.C,J9*%
X149000000Y-82000000D03*
D31*
X149000000Y-89620000D03*
X149000000Y-84540000D03*
X149000000Y-92160000D03*
X149000000Y-87080000D03*
X149000000Y-94700000D03*
%TD*%
D26*
%TO.C,J1*%
X160460000Y-57000000D03*
D27*
X163000000Y-57000000D03*
%TD*%
D25*
%TO.C,D1*%
X139000000Y-58810000D03*
X139000000Y-51190000D03*
%TD*%
D26*
%TO.C,J8*%
X140300000Y-128000000D03*
D27*
X147920000Y-128000000D03*
X142840000Y-128000000D03*
X150460000Y-128000000D03*
X145380000Y-128000000D03*
X153000000Y-128000000D03*
%TD*%
%LPD*%
M02*
