%TF.GenerationSoftware,KiCad,Pcbnew,9.0.6*%
%TF.CreationDate,2026-01-05T15:37:48+01:00*%
%TF.ProjectId,STR500_v1.1,53545235-3030-45f7-9631-2e312e6b6963,rev?*%
%TF.SameCoordinates,Original*%
%TF.FileFunction,Legend,Bot*%
%TF.FilePolarity,Positive*%
%FSLAX46Y46*%
G04 Gerber Fmt 4.6, Leading zero omitted, Abs format (unit mm)*
G04 Created by KiCad (PCBNEW 9.0.6) date 2026-01-05 15:37:48*
%MOMM*%
%LPD*%
G01*
G04 APERTURE LIST*
G04 Aperture macros list*
%AMRoundRect*
0 Rectangle with rounded corners*
0 $1 Rounding radius*
0 $2 $3 $4 $5 $6 $7 $8 $9 X,Y pos of 4 corners*
0 Add a 4 corners polygon primitive as box body*
4,1,4,$2,$3,$4,$5,$6,$7,$8,$9,$2,$3,0*
0 Add four circle primitives for the rounded corners*
1,1,$1+$1,$2,$3*
1,1,$1+$1,$4,$5*
1,1,$1+$1,$6,$7*
1,1,$1+$1,$8,$9*
0 Add four rect primitives between the rounded corners*
20,1,$1+$1,$2,$3,$4,$5,0*
20,1,$1+$1,$4,$5,$6,$7,0*
20,1,$1+$1,$6,$7,$8,$9,0*
20,1,$1+$1,$8,$9,$2,$3,0*%
G04 Aperture macros list end*
%ADD10C,0.200000*%
%ADD11C,0.150000*%
%ADD12C,0.100000*%
%ADD13C,0.120000*%
%ADD14C,1.800000*%
%ADD15R,1.800000X1.800000*%
%ADD16C,1.839000*%
%ADD17RoundRect,0.102000X0.817500X-0.817500X0.817500X0.817500X-0.817500X0.817500X-0.817500X-0.817500X0*%
%ADD18R,1.700000X1.700000*%
%ADD19RoundRect,0.250000X0.650000X-0.350000X0.650000X0.350000X-0.650000X0.350000X-0.650000X-0.350000X0*%
%ADD20O,1.700000X1.700000*%
%ADD21O,1.800000X1.200000*%
%ADD22RoundRect,0.102000X-0.975000X-0.975000X0.975000X-0.975000X0.975000X0.975000X-0.975000X0.975000X0*%
%ADD23C,2.154000*%
%ADD24C,2.000000*%
%ADD25C,1.600000*%
%ADD26RoundRect,0.250000X-0.620000X-0.845000X0.620000X-0.845000X0.620000X0.845000X-0.620000X0.845000X0*%
%ADD27O,1.740000X2.190000*%
%ADD28C,1.700000*%
%ADD29RoundRect,0.250000X0.550000X-0.550000X0.550000X0.550000X-0.550000X0.550000X-0.550000X-0.550000X0*%
%ADD30RoundRect,0.250000X-0.845000X0.620000X-0.845000X-0.620000X0.845000X-0.620000X0.845000X0.620000X0*%
%ADD31O,2.190000X1.740000*%
G04 APERTURE END LIST*
D10*
X138028616Y-55513968D02*
X140028616Y-55513968D01*
X140028616Y-57513968D01*
X138028616Y-57513968D01*
X138028616Y-55513968D01*
G36*
X138028616Y-55513968D02*
G01*
X140028616Y-55513968D01*
X140028616Y-57513968D01*
X138028616Y-57513968D01*
X138028616Y-55513968D01*
G37*
D11*
G36*
X116455478Y-46374476D02*
G01*
X116465736Y-46279466D01*
X116488328Y-46183234D01*
X116510793Y-46143558D01*
X116543039Y-46120341D01*
X116582684Y-46108149D01*
X116626570Y-46103977D01*
X117777564Y-46103977D01*
X117868557Y-46095302D01*
X117969173Y-46067707D01*
X118065135Y-46023053D01*
X118149790Y-45961828D01*
X118232602Y-45873517D01*
X118294870Y-45769853D01*
X118333379Y-45653006D01*
X118346894Y-45515108D01*
X118338431Y-45404691D01*
X118314309Y-45309231D01*
X118275621Y-45226195D01*
X118222330Y-45153628D01*
X118155597Y-45093667D01*
X118078877Y-45050810D01*
X117990196Y-45024308D01*
X117886741Y-45015020D01*
X117798694Y-45027180D01*
X117722732Y-45062770D01*
X117683107Y-45099457D01*
X117659558Y-45144976D01*
X117651290Y-45202233D01*
X117663426Y-45277731D01*
X117697575Y-45334002D01*
X117750307Y-45371100D01*
X117819696Y-45383949D01*
X117863498Y-45379573D01*
X117908112Y-45366120D01*
X117986758Y-45326552D01*
X118061252Y-45280024D01*
X118138555Y-45243143D01*
X118180014Y-45278381D01*
X118218667Y-45332658D01*
X118243611Y-45399820D01*
X118253105Y-45495935D01*
X118240878Y-45589043D01*
X118207065Y-45659089D01*
X118153632Y-45714327D01*
X118083967Y-45754099D01*
X118007696Y-45778994D01*
X117907868Y-45797086D01*
X117800312Y-45806708D01*
X117674127Y-45810153D01*
X116641102Y-45810153D01*
X116595440Y-45805911D01*
X116560746Y-45794399D01*
X116531897Y-45772177D01*
X116503593Y-45729553D01*
X116484877Y-45683987D01*
X116470010Y-45623674D01*
X116455478Y-45519138D01*
X116361688Y-45519138D01*
X116361688Y-46374476D01*
X116455478Y-46374476D01*
G37*
G36*
X118097977Y-46568581D02*
G01*
X118178149Y-46601159D01*
X118245778Y-46654867D01*
X118297012Y-46724886D01*
X118328181Y-46806872D01*
X118339078Y-46904239D01*
X118325218Y-47040803D01*
X118286688Y-47149459D01*
X118224082Y-47246323D01*
X118135868Y-47340090D01*
X118135868Y-47348272D01*
X118221801Y-47378404D01*
X118281437Y-47429483D01*
X118317901Y-47500802D01*
X118331263Y-47599598D01*
X118327665Y-47659294D01*
X118317585Y-47709630D01*
X118281803Y-47822348D01*
X118198394Y-47822348D01*
X118197051Y-47731489D01*
X118192280Y-47690378D01*
X118183251Y-47666521D01*
X118158229Y-47632582D01*
X118129640Y-47609856D01*
X118094630Y-47596498D01*
X118044399Y-47591416D01*
X117712229Y-47595446D01*
X117363572Y-47599598D01*
X117233097Y-47589614D01*
X117138747Y-47563328D01*
X117059745Y-47518214D01*
X117000505Y-47457571D01*
X116957350Y-47383895D01*
X116945613Y-47345464D01*
X117557501Y-47345464D01*
X118031332Y-47337281D01*
X118091079Y-47281432D01*
X118143196Y-47212962D01*
X118178433Y-47134472D01*
X118190579Y-47042236D01*
X118176737Y-46957364D01*
X118137090Y-46891172D01*
X118097376Y-46859696D01*
X118043115Y-46839365D01*
X117969539Y-46831821D01*
X117886130Y-46842107D01*
X117817742Y-46871388D01*
X117758821Y-46917594D01*
X117707222Y-46979344D01*
X117662075Y-47057157D01*
X117624790Y-47141887D01*
X117557501Y-47345464D01*
X116945613Y-47345464D01*
X116932484Y-47302477D01*
X116920876Y-47213445D01*
X116916608Y-47102320D01*
X116923086Y-47018855D01*
X116943108Y-46931472D01*
X116973498Y-46848269D01*
X117007711Y-46782606D01*
X117056559Y-46717118D01*
X117109682Y-46667079D01*
X117169182Y-46633429D01*
X117229239Y-46622749D01*
X117286393Y-46630843D01*
X117337316Y-46654867D01*
X117372953Y-46694911D01*
X117385554Y-46755251D01*
X117375068Y-46825568D01*
X117346475Y-46874808D01*
X117304067Y-46907725D01*
X117260013Y-46917916D01*
X117162805Y-46904849D01*
X117083060Y-46891905D01*
X117062378Y-46918810D01*
X117039218Y-46967742D01*
X117023568Y-47023345D01*
X117018213Y-47084490D01*
X117028526Y-47169195D01*
X117055582Y-47225907D01*
X117096528Y-47270614D01*
X117143021Y-47303210D01*
X117189223Y-47323495D01*
X117238032Y-47335205D01*
X117305931Y-47342777D01*
X117440265Y-47342777D01*
X117477043Y-47261180D01*
X117539061Y-47089253D01*
X117625523Y-46840003D01*
X117676936Y-46734734D01*
X117712276Y-46683172D01*
X117750331Y-46644609D01*
X117802921Y-46606326D01*
X117861584Y-46579030D01*
X117925828Y-46562884D01*
X118001535Y-46557170D01*
X118097977Y-46568581D01*
G37*
G36*
X118300000Y-49444853D02*
G01*
X118300000Y-48784909D01*
X118206210Y-48784909D01*
X118200837Y-48853785D01*
X118189846Y-48916067D01*
X118172731Y-48949771D01*
X118147103Y-48972732D01*
X118113496Y-48986183D01*
X118067602Y-48991172D01*
X117378471Y-48991172D01*
X117285570Y-48982691D01*
X117213730Y-48959513D01*
X117158286Y-48923517D01*
X117114625Y-48874339D01*
X117089302Y-48820155D01*
X117080739Y-48758897D01*
X117086521Y-48688663D01*
X117103210Y-48626395D01*
X117128542Y-48568920D01*
X117158164Y-48519905D01*
X117191486Y-48478532D01*
X117225453Y-48448220D01*
X117283217Y-48409263D01*
X118053925Y-48409263D01*
X118097413Y-48414357D01*
X118130129Y-48428314D01*
X118156174Y-48451688D01*
X118176290Y-48485711D01*
X118196685Y-48547871D01*
X118206210Y-48616870D01*
X118300000Y-48616870D01*
X118300000Y-47957048D01*
X118206210Y-47957048D01*
X118200837Y-48021894D01*
X118189968Y-48080024D01*
X118172972Y-48113735D01*
X118147470Y-48136688D01*
X118114101Y-48150138D01*
X118068457Y-48155129D01*
X117246092Y-48155129D01*
X117201734Y-48150081D01*
X117161706Y-48135223D01*
X117126659Y-48111476D01*
X117098813Y-48079902D01*
X117075244Y-48018475D01*
X117065108Y-47941905D01*
X116971318Y-47941905D01*
X116940055Y-48390090D01*
X116958862Y-48409263D01*
X117146074Y-48409263D01*
X117146074Y-48416102D01*
X117067550Y-48498046D01*
X116993056Y-48590980D01*
X116963717Y-48644827D01*
X116938468Y-48711147D01*
X116922324Y-48783522D01*
X116916608Y-48868318D01*
X116925092Y-48964152D01*
X116948710Y-49041745D01*
X116985967Y-49104772D01*
X117037142Y-49155792D01*
X117122204Y-49206045D01*
X117227390Y-49237968D01*
X117357833Y-49249459D01*
X118056367Y-49249459D01*
X118101267Y-49253934D01*
X118133426Y-49265823D01*
X118158686Y-49287202D01*
X118178977Y-49321877D01*
X118198028Y-49378541D01*
X118206210Y-49444853D01*
X118300000Y-49444853D01*
G37*
G36*
X118276552Y-51054169D02*
G01*
X118307815Y-50615631D01*
X118288642Y-50595115D01*
X118117916Y-50595115D01*
X118117916Y-50586933D01*
X118190945Y-50513049D01*
X118261287Y-50418893D01*
X118318562Y-50299947D01*
X118333178Y-50236505D01*
X118339078Y-50137404D01*
X118325082Y-50023678D01*
X118285995Y-49934799D01*
X118222452Y-49864829D01*
X118139495Y-49815606D01*
X118029166Y-49783273D01*
X117883565Y-49771284D01*
X117239741Y-49771284D01*
X117193240Y-49766374D01*
X117157187Y-49752843D01*
X117126395Y-49730537D01*
X117099180Y-49698866D01*
X117075366Y-49637438D01*
X117065108Y-49559525D01*
X116971318Y-49559525D01*
X116940055Y-50008932D01*
X116959228Y-50029448D01*
X117896388Y-50029448D01*
X117991960Y-50037859D01*
X118063533Y-50060491D01*
X118116695Y-50095027D01*
X118158399Y-50142619D01*
X118182478Y-50194341D01*
X118190579Y-50252076D01*
X118184521Y-50324648D01*
X118167376Y-50386043D01*
X118141338Y-50441403D01*
X118112787Y-50484351D01*
X118052215Y-50549197D01*
X117992742Y-50592306D01*
X117230216Y-50592306D01*
X117187094Y-50587362D01*
X117150348Y-50573133D01*
X117118323Y-50550488D01*
X117090997Y-50519888D01*
X117078543Y-50491739D01*
X117071214Y-50446737D01*
X117065108Y-50338171D01*
X116971318Y-50338171D01*
X116940055Y-50827267D01*
X116959106Y-50847784D01*
X118022540Y-50847784D01*
X118066309Y-50852791D01*
X118101308Y-50866835D01*
X118131236Y-50889479D01*
X118156995Y-50920202D01*
X118176657Y-50978942D01*
X118182763Y-51054169D01*
X118276552Y-51054169D01*
G37*
G36*
X118097977Y-51242413D02*
G01*
X118178149Y-51274990D01*
X118245778Y-51328698D01*
X118297012Y-51398717D01*
X118328181Y-51480703D01*
X118339078Y-51578070D01*
X118325218Y-51714634D01*
X118286688Y-51823290D01*
X118224082Y-51920154D01*
X118135868Y-52013921D01*
X118135868Y-52022103D01*
X118221801Y-52052236D01*
X118281437Y-52103314D01*
X118317901Y-52174633D01*
X118331263Y-52273429D01*
X118327665Y-52333125D01*
X118317585Y-52383461D01*
X118281803Y-52496179D01*
X118198394Y-52496179D01*
X118197051Y-52405321D01*
X118192280Y-52364209D01*
X118183251Y-52340352D01*
X118158229Y-52306413D01*
X118129640Y-52283688D01*
X118094630Y-52270329D01*
X118044399Y-52265247D01*
X117712229Y-52269277D01*
X117363572Y-52273429D01*
X117233097Y-52263445D01*
X117138747Y-52237159D01*
X117059745Y-52192045D01*
X117000505Y-52131402D01*
X116957350Y-52057726D01*
X116945613Y-52019295D01*
X117557501Y-52019295D01*
X118031332Y-52011113D01*
X118091079Y-51955263D01*
X118143196Y-51886793D01*
X118178433Y-51808303D01*
X118190579Y-51716067D01*
X118176737Y-51631195D01*
X118137090Y-51565003D01*
X118097376Y-51533527D01*
X118043115Y-51513196D01*
X117969539Y-51505652D01*
X117886130Y-51515938D01*
X117817742Y-51545219D01*
X117758821Y-51591425D01*
X117707222Y-51653175D01*
X117662075Y-51730988D01*
X117624790Y-51815718D01*
X117557501Y-52019295D01*
X116945613Y-52019295D01*
X116932484Y-51976308D01*
X116920876Y-51887276D01*
X116916608Y-51776151D01*
X116923086Y-51692686D01*
X116943108Y-51605303D01*
X116973498Y-51522100D01*
X117007711Y-51456437D01*
X117056559Y-51390949D01*
X117109682Y-51340910D01*
X117169182Y-51307260D01*
X117229239Y-51296580D01*
X117286393Y-51304674D01*
X117337316Y-51328698D01*
X117372953Y-51368742D01*
X117385554Y-51429082D01*
X117375068Y-51499399D01*
X117346475Y-51548639D01*
X117304067Y-51581556D01*
X117260013Y-51591748D01*
X117162805Y-51578681D01*
X117083060Y-51565736D01*
X117062378Y-51592641D01*
X117039218Y-51641573D01*
X117023568Y-51697177D01*
X117018213Y-51758321D01*
X117028526Y-51843026D01*
X117055582Y-51899738D01*
X117096528Y-51944445D01*
X117143021Y-51977041D01*
X117189223Y-51997326D01*
X117238032Y-52009036D01*
X117305931Y-52016608D01*
X117440265Y-52016608D01*
X117477043Y-51935012D01*
X117539061Y-51763084D01*
X117625523Y-51513834D01*
X117676936Y-51408565D01*
X117712276Y-51357004D01*
X117750331Y-51318440D01*
X117802921Y-51280157D01*
X117861584Y-51252861D01*
X117925828Y-51236716D01*
X118001535Y-51231001D01*
X118097977Y-51242413D01*
G37*
G36*
X117122383Y-53662316D02*
G01*
X117188617Y-53653585D01*
X117245725Y-53628122D01*
X117275408Y-53601602D01*
X117293238Y-53567401D01*
X117299581Y-53522976D01*
X117288736Y-53453204D01*
X117259403Y-53406106D01*
X117216107Y-53375468D01*
X117170498Y-53365806D01*
X117115055Y-53370568D01*
X117065108Y-53379483D01*
X117076890Y-53314292D01*
X117118475Y-53229152D01*
X117181763Y-53150834D01*
X117270027Y-53083094D01*
X118053314Y-53083094D01*
X118098262Y-53088076D01*
X118131228Y-53101535D01*
X118156888Y-53124573D01*
X118176168Y-53159542D01*
X118196685Y-53247714D01*
X118206210Y-53341259D01*
X118300000Y-53341259D01*
X118300000Y-52630879D01*
X118206210Y-52630879D01*
X118200837Y-52695725D01*
X118189968Y-52753855D01*
X118172972Y-52787566D01*
X118147470Y-52810519D01*
X118114101Y-52823970D01*
X118068457Y-52828960D01*
X117246092Y-52828960D01*
X117204921Y-52824075D01*
X117163660Y-52809054D01*
X117126989Y-52785172D01*
X117098813Y-52753733D01*
X117075244Y-52692306D01*
X117065108Y-52615736D01*
X116971318Y-52615736D01*
X116940055Y-53063921D01*
X116958618Y-53083094D01*
X117142655Y-53083094D01*
X117142655Y-53089933D01*
X117043317Y-53181267D01*
X116974127Y-53278367D01*
X116929813Y-53381790D01*
X116916608Y-53468387D01*
X116923117Y-53523323D01*
X116941749Y-53569287D01*
X116972540Y-53608339D01*
X117012740Y-53637662D01*
X117061853Y-53655846D01*
X117122383Y-53662316D01*
G37*
G36*
X118743300Y-53675261D02*
G01*
X118680072Y-53685072D01*
X118632048Y-53712752D01*
X118599851Y-53755082D01*
X118589183Y-53806420D01*
X118593465Y-53848064D01*
X118605425Y-53881524D01*
X118647435Y-53937578D01*
X118702878Y-53981297D01*
X118761130Y-54018178D01*
X118730306Y-54059134D01*
X118669767Y-54112394D01*
X118566468Y-54181454D01*
X118412011Y-54266677D01*
X118290474Y-54318841D01*
X117715526Y-54083757D01*
X117190771Y-53863817D01*
X117135490Y-53829149D01*
X117093684Y-53776256D01*
X117064947Y-53713869D01*
X117049476Y-53653401D01*
X116955687Y-53653401D01*
X116955687Y-54268283D01*
X117055216Y-54268283D01*
X117072191Y-54169853D01*
X117091752Y-54122623D01*
X117107972Y-54112456D01*
X117134961Y-54118562D01*
X117174162Y-54132972D01*
X117559455Y-54291486D01*
X117962334Y-54456838D01*
X117663503Y-54584577D01*
X117298482Y-54732833D01*
X117227651Y-54760066D01*
X117183570Y-54773896D01*
X117149860Y-54777896D01*
X117118938Y-54765205D01*
X117084036Y-54715736D01*
X117058948Y-54653569D01*
X117046667Y-54597522D01*
X116955687Y-54597522D01*
X116955687Y-55097609D01*
X117043736Y-55097609D01*
X117057015Y-55054543D01*
X117090753Y-54989654D01*
X117138948Y-54931448D01*
X117204326Y-54889881D01*
X117887718Y-54600942D01*
X118341399Y-54408967D01*
X118522233Y-54322644D01*
X118641939Y-54255216D01*
X118742466Y-54185397D01*
X118811933Y-54123447D01*
X118862464Y-54060135D01*
X118889602Y-54009263D01*
X118904628Y-53957181D01*
X118909630Y-53903384D01*
X118903377Y-53834057D01*
X118886146Y-53779323D01*
X118859193Y-53736078D01*
X118803554Y-53689716D01*
X118743300Y-53675261D01*
G37*
G36*
X118300000Y-57161461D02*
G01*
X118300000Y-55881385D01*
X118113886Y-55881385D01*
X118018265Y-55983845D01*
X117903349Y-56139549D01*
X117822138Y-56270708D01*
X117725785Y-56444242D01*
X117623935Y-56610205D01*
X117575361Y-56665115D01*
X117515247Y-56716085D01*
X117468754Y-56743734D01*
X117408513Y-56766643D01*
X117337681Y-56780278D01*
X117226186Y-56785816D01*
X117115346Y-56774207D01*
X117033609Y-56742880D01*
X116973761Y-56694225D01*
X116929810Y-56629127D01*
X116902712Y-56551891D01*
X116893161Y-56459263D01*
X116901915Y-56372604D01*
X116927965Y-56291224D01*
X116970457Y-56220624D01*
X117024197Y-56172400D01*
X117128000Y-56196214D01*
X117245359Y-56210624D01*
X117293587Y-56200205D01*
X117337561Y-56167515D01*
X117366706Y-56117158D01*
X117377739Y-56039898D01*
X117365585Y-55978434D01*
X117330844Y-55934630D01*
X117278215Y-55907648D01*
X117205059Y-55897749D01*
X117132812Y-55907619D01*
X117057658Y-55938660D01*
X116987745Y-55987450D01*
X116921004Y-56056263D01*
X116866806Y-56138045D01*
X116821842Y-56242009D01*
X116793479Y-56355834D01*
X116783740Y-56481123D01*
X116792655Y-56622164D01*
X116817667Y-56741060D01*
X116856877Y-56841330D01*
X116909403Y-56925889D01*
X116978237Y-56998567D01*
X117055747Y-57049195D01*
X117143703Y-57079880D01*
X117244993Y-57090509D01*
X117342334Y-57082901D01*
X117427686Y-57061078D01*
X117504838Y-57022939D01*
X117573133Y-56966189D01*
X117637562Y-56888449D01*
X117693300Y-56796685D01*
X117832519Y-56500296D01*
X117944504Y-56278890D01*
X118004319Y-56182120D01*
X118057711Y-56110851D01*
X118057711Y-57161461D01*
X118300000Y-57161461D01*
G37*
G36*
X117727268Y-57446253D02*
G01*
X117874651Y-57479221D01*
X118010261Y-57535694D01*
X118125610Y-57613921D01*
X118188471Y-57675889D01*
X118242490Y-57750031D01*
X118287787Y-57837892D01*
X118319961Y-57931618D01*
X118339951Y-58035809D01*
X118346894Y-58152110D01*
X118333758Y-58308375D01*
X118296092Y-58444591D01*
X118232666Y-58567069D01*
X118144783Y-58671371D01*
X118037005Y-58752889D01*
X117899441Y-58817428D01*
X117745423Y-58856866D01*
X117564584Y-58870795D01*
X117411724Y-58859903D01*
X117266974Y-58827686D01*
X117132603Y-58772955D01*
X117018824Y-58697260D01*
X116951926Y-58633547D01*
X116894765Y-58559650D01*
X116846999Y-58474511D01*
X116812927Y-58383174D01*
X116791365Y-58277068D01*
X116783823Y-58154919D01*
X116877529Y-58154919D01*
X116888697Y-58245233D01*
X116921292Y-58324093D01*
X116976273Y-58394393D01*
X117057536Y-58457536D01*
X117148058Y-58502853D01*
X117259869Y-58537779D01*
X117397124Y-58560626D01*
X117564584Y-58568911D01*
X117769650Y-58555322D01*
X117933633Y-58518059D01*
X118064183Y-58460956D01*
X118149271Y-58398903D01*
X118206916Y-58328082D01*
X118241256Y-58246969D01*
X118253105Y-58152233D01*
X118241243Y-58057439D01*
X118206888Y-57976424D01*
X118149247Y-57905828D01*
X118064183Y-57844120D01*
X117933685Y-57787421D01*
X117769701Y-57750401D01*
X117564584Y-57736898D01*
X117397164Y-57745224D01*
X117259921Y-57768188D01*
X117148097Y-57803302D01*
X117057536Y-57848883D01*
X116976446Y-57912365D01*
X116921440Y-57983315D01*
X116888750Y-58063184D01*
X116877529Y-58154919D01*
X116783823Y-58154919D01*
X116783740Y-58153576D01*
X116791016Y-58036414D01*
X116811953Y-57931773D01*
X116845655Y-57837892D01*
X116892748Y-57750179D01*
X116949010Y-57675492D01*
X117014672Y-57612456D01*
X117132581Y-57533076D01*
X117263555Y-57477878D01*
X117405206Y-57445978D01*
X117564584Y-57434891D01*
X117727268Y-57446253D01*
G37*
G36*
X118300000Y-60442131D02*
G01*
X118300000Y-59162055D01*
X118113886Y-59162055D01*
X118018265Y-59264515D01*
X117903349Y-59420219D01*
X117822138Y-59551378D01*
X117725785Y-59724912D01*
X117623935Y-59890875D01*
X117575361Y-59945785D01*
X117515247Y-59996755D01*
X117468754Y-60024403D01*
X117408513Y-60047313D01*
X117337681Y-60060948D01*
X117226186Y-60066486D01*
X117115346Y-60054877D01*
X117033609Y-60023550D01*
X116973761Y-59974895D01*
X116929810Y-59909797D01*
X116902712Y-59832561D01*
X116893161Y-59739933D01*
X116901915Y-59653274D01*
X116927965Y-59571894D01*
X116970457Y-59501294D01*
X117024197Y-59453070D01*
X117128000Y-59476884D01*
X117245359Y-59491294D01*
X117293587Y-59480875D01*
X117337561Y-59448185D01*
X117366706Y-59397828D01*
X117377739Y-59320568D01*
X117365585Y-59259104D01*
X117330844Y-59215300D01*
X117278215Y-59188318D01*
X117205059Y-59178419D01*
X117132812Y-59188289D01*
X117057658Y-59219330D01*
X116987745Y-59268120D01*
X116921004Y-59336933D01*
X116866806Y-59418715D01*
X116821842Y-59522679D01*
X116793479Y-59636504D01*
X116783740Y-59761793D01*
X116792655Y-59902834D01*
X116817667Y-60021730D01*
X116856877Y-60122000D01*
X116909403Y-60206559D01*
X116978237Y-60279237D01*
X117055747Y-60329865D01*
X117143703Y-60360550D01*
X117244993Y-60371179D01*
X117342334Y-60363571D01*
X117427686Y-60341748D01*
X117504838Y-60303609D01*
X117573133Y-60246859D01*
X117637562Y-60169119D01*
X117693300Y-60077355D01*
X117832519Y-59780966D01*
X117944504Y-59559560D01*
X118004319Y-59462790D01*
X118057711Y-59391521D01*
X118057711Y-60442131D01*
X118300000Y-60442131D01*
G37*
G36*
X117721797Y-60728020D02*
G01*
X117877826Y-60763311D01*
X118019025Y-60822345D01*
X118132205Y-60898621D01*
X118223067Y-60993821D01*
X118290840Y-61107693D01*
X118332479Y-61235892D01*
X118346894Y-61382344D01*
X118334931Y-61511075D01*
X118299145Y-61634403D01*
X118239177Y-61748931D01*
X118151866Y-61855076D01*
X118056627Y-61931675D01*
X117940596Y-61992341D01*
X117812870Y-62030641D01*
X117674616Y-62043632D01*
X117546646Y-62032978D01*
X117433116Y-62002208D01*
X117331421Y-61952031D01*
X117239619Y-61881699D01*
X117162045Y-61794964D01*
X117108262Y-61702219D01*
X117076071Y-61601888D01*
X117065108Y-61491643D01*
X117075281Y-61372819D01*
X117221423Y-61372819D01*
X117230063Y-61455151D01*
X117254996Y-61526584D01*
X117296121Y-61589476D01*
X117355146Y-61645272D01*
X117449270Y-61699888D01*
X117565576Y-61734618D01*
X117709665Y-61747121D01*
X117870742Y-61734557D01*
X117997264Y-61700207D01*
X118096301Y-61647348D01*
X118159476Y-61592035D01*
X118202751Y-61530877D01*
X118228603Y-61462623D01*
X118237473Y-61385031D01*
X118226699Y-61305583D01*
X118194789Y-61234682D01*
X118139839Y-61169766D01*
X118056856Y-61109769D01*
X117966279Y-61067171D01*
X117855376Y-61034374D01*
X117720349Y-61012972D01*
X117556891Y-61005233D01*
X117463468Y-61007920D01*
X117387752Y-61012072D01*
X117308793Y-61098122D01*
X117259647Y-61182065D01*
X117231132Y-61273080D01*
X117221423Y-61372819D01*
X117075281Y-61372819D01*
X117075767Y-61367141D01*
X117107362Y-61249842D01*
X117162407Y-61137981D01*
X117251953Y-61017568D01*
X117065013Y-61063435D01*
X116902291Y-61133502D01*
X116760293Y-61227250D01*
X116668182Y-61313777D01*
X116587750Y-61417518D01*
X116518774Y-61540549D01*
X116461706Y-61685572D01*
X116439846Y-61808548D01*
X116314794Y-61784002D01*
X116353869Y-61591140D01*
X116413930Y-61419293D01*
X116494203Y-61265783D01*
X116594844Y-61128470D01*
X116716939Y-61005844D01*
X116855691Y-60902211D01*
X117005565Y-60821768D01*
X117168145Y-60763627D01*
X117345488Y-60727872D01*
X117540038Y-60715561D01*
X117721797Y-60728020D01*
G37*
G36*
X119815478Y-46795184D02*
G01*
X119834040Y-46721423D01*
X119867623Y-46649005D01*
X119918304Y-46576587D01*
X120011482Y-46502826D01*
X120163894Y-46399980D01*
X120317274Y-46306088D01*
X120710750Y-46080652D01*
X120795199Y-46036149D01*
X120851922Y-46013729D01*
X120911436Y-46002117D01*
X121006772Y-45997365D01*
X121378387Y-45997365D01*
X121425427Y-46002530D01*
X121464117Y-46017149D01*
X121495903Y-46042906D01*
X121522369Y-46084804D01*
X121549113Y-46187264D01*
X121566210Y-46306088D01*
X121660000Y-46306088D01*
X121660000Y-45398970D01*
X121566210Y-45398970D01*
X121555952Y-45513642D01*
X121536046Y-45620254D01*
X121510703Y-45663013D01*
X121479870Y-45687909D01*
X121441554Y-45701426D01*
X121392065Y-45706350D01*
X120919089Y-45706350D01*
X120838855Y-45679727D01*
X120709284Y-45616224D01*
X120365268Y-45434508D01*
X120048485Y-45260973D01*
X119930638Y-45180983D01*
X119860662Y-45101116D01*
X119829155Y-45022592D01*
X119815478Y-44939916D01*
X119721688Y-44939916D01*
X119721688Y-45766434D01*
X119815478Y-45766434D01*
X119822769Y-45637362D01*
X119834773Y-45569696D01*
X119857102Y-45523998D01*
X119881545Y-45512421D01*
X119910366Y-45520603D01*
X119962512Y-45543806D01*
X120043967Y-45586060D01*
X120132260Y-45632588D01*
X120375404Y-45763747D01*
X120690966Y-45938625D01*
X120150334Y-46265788D01*
X119972299Y-46361066D01*
X119918060Y-46378506D01*
X119889588Y-46372641D01*
X119867501Y-46355303D01*
X119837337Y-46293876D01*
X119823049Y-46207658D01*
X119815478Y-46121685D01*
X119721688Y-46121685D01*
X119721688Y-46795184D01*
X119815478Y-46795184D01*
G37*
G36*
X121457977Y-46842133D02*
G01*
X121538149Y-46874710D01*
X121605778Y-46928419D01*
X121657012Y-46998438D01*
X121688181Y-47080424D01*
X121699078Y-47177791D01*
X121685218Y-47314355D01*
X121646688Y-47423011D01*
X121584082Y-47519875D01*
X121495868Y-47613642D01*
X121495868Y-47621824D01*
X121581801Y-47651956D01*
X121641437Y-47703035D01*
X121677901Y-47774354D01*
X121691263Y-47873150D01*
X121687665Y-47932846D01*
X121677585Y-47983182D01*
X121641803Y-48095900D01*
X121558394Y-48095900D01*
X121557051Y-48005041D01*
X121552280Y-47963930D01*
X121543251Y-47940073D01*
X121518229Y-47906134D01*
X121489640Y-47883408D01*
X121454630Y-47870050D01*
X121404399Y-47864968D01*
X121072229Y-47868998D01*
X120723572Y-47873150D01*
X120593097Y-47863166D01*
X120498747Y-47836880D01*
X120419745Y-47791766D01*
X120360505Y-47731123D01*
X120317350Y-47657447D01*
X120305613Y-47619016D01*
X120917501Y-47619016D01*
X121391332Y-47610833D01*
X121451079Y-47554984D01*
X121503196Y-47486514D01*
X121538433Y-47408024D01*
X121550579Y-47315788D01*
X121536737Y-47230916D01*
X121497090Y-47164724D01*
X121457376Y-47133248D01*
X121403115Y-47112917D01*
X121329539Y-47105373D01*
X121246130Y-47115659D01*
X121177742Y-47144940D01*
X121118821Y-47191146D01*
X121067222Y-47252896D01*
X121022075Y-47330709D01*
X120984790Y-47415439D01*
X120917501Y-47619016D01*
X120305613Y-47619016D01*
X120292484Y-47576029D01*
X120280876Y-47486997D01*
X120276608Y-47375872D01*
X120283086Y-47292407D01*
X120303108Y-47205024D01*
X120333498Y-47121821D01*
X120367711Y-47056158D01*
X120416559Y-46990670D01*
X120469682Y-46940631D01*
X120529182Y-46906981D01*
X120589239Y-46896301D01*
X120646393Y-46904395D01*
X120697316Y-46928419D01*
X120732953Y-46968463D01*
X120745554Y-47028803D01*
X120735068Y-47099120D01*
X120706475Y-47148360D01*
X120664067Y-47181277D01*
X120620013Y-47191468D01*
X120522805Y-47178401D01*
X120443060Y-47165457D01*
X120422378Y-47192362D01*
X120399218Y-47241294D01*
X120383568Y-47296897D01*
X120378213Y-47358042D01*
X120388526Y-47442747D01*
X120415582Y-47499459D01*
X120456528Y-47544166D01*
X120503021Y-47576762D01*
X120549223Y-47597047D01*
X120598032Y-47608757D01*
X120665931Y-47616329D01*
X120800265Y-47616329D01*
X120837043Y-47534732D01*
X120899061Y-47362805D01*
X120985523Y-47113555D01*
X121036936Y-47008286D01*
X121072276Y-46956724D01*
X121110331Y-46918161D01*
X121162921Y-46879878D01*
X121221584Y-46852581D01*
X121285828Y-46836436D01*
X121361535Y-46830722D01*
X121457977Y-46842133D01*
G37*
G36*
X121660000Y-49718405D02*
G01*
X121660000Y-49058461D01*
X121566210Y-49058461D01*
X121560837Y-49127337D01*
X121549846Y-49189619D01*
X121532731Y-49223323D01*
X121507103Y-49246284D01*
X121473496Y-49259735D01*
X121427602Y-49264724D01*
X120738471Y-49264724D01*
X120645570Y-49256243D01*
X120573730Y-49233065D01*
X120518286Y-49197069D01*
X120474625Y-49147891D01*
X120449302Y-49093707D01*
X120440739Y-49032449D01*
X120446521Y-48962215D01*
X120463210Y-48899947D01*
X120488542Y-48842472D01*
X120518164Y-48793457D01*
X120551486Y-48752084D01*
X120585453Y-48721772D01*
X120643217Y-48682815D01*
X121413925Y-48682815D01*
X121457413Y-48687909D01*
X121490129Y-48701866D01*
X121516174Y-48725240D01*
X121536290Y-48759263D01*
X121556685Y-48821423D01*
X121566210Y-48890422D01*
X121660000Y-48890422D01*
X121660000Y-48230600D01*
X121566210Y-48230600D01*
X121560837Y-48295446D01*
X121549968Y-48353576D01*
X121532972Y-48387287D01*
X121507470Y-48410240D01*
X121474101Y-48423690D01*
X121428457Y-48428681D01*
X120606092Y-48428681D01*
X120561734Y-48423633D01*
X120521706Y-48408775D01*
X120486659Y-48385028D01*
X120458813Y-48353454D01*
X120435244Y-48292027D01*
X120425108Y-48215457D01*
X120331318Y-48215457D01*
X120300055Y-48663642D01*
X120318862Y-48682815D01*
X120506074Y-48682815D01*
X120506074Y-48689654D01*
X120427550Y-48771598D01*
X120353056Y-48864532D01*
X120323717Y-48918379D01*
X120298468Y-48984699D01*
X120282324Y-49057074D01*
X120276608Y-49141870D01*
X120285092Y-49237704D01*
X120308710Y-49315297D01*
X120345967Y-49378324D01*
X120397142Y-49429344D01*
X120482204Y-49479597D01*
X120587390Y-49511520D01*
X120717833Y-49523011D01*
X121416367Y-49523011D01*
X121461267Y-49527486D01*
X121493426Y-49539375D01*
X121518686Y-49560754D01*
X121538977Y-49595429D01*
X121558028Y-49652093D01*
X121566210Y-49718405D01*
X121660000Y-49718405D01*
G37*
G36*
X121660000Y-51371441D02*
G01*
X121660000Y-50711496D01*
X121566210Y-50711496D01*
X121560837Y-50780373D01*
X121549846Y-50842655D01*
X121532731Y-50876359D01*
X121507103Y-50899319D01*
X121473496Y-50912770D01*
X121427602Y-50917759D01*
X120738471Y-50917759D01*
X120645570Y-50909278D01*
X120573730Y-50886100D01*
X120518286Y-50850104D01*
X120474625Y-50800926D01*
X120449302Y-50746743D01*
X120440739Y-50685484D01*
X120446521Y-50615250D01*
X120463210Y-50552983D01*
X120488542Y-50495508D01*
X120518164Y-50446493D01*
X120551486Y-50405120D01*
X120585453Y-50374808D01*
X120643217Y-50335851D01*
X121413925Y-50335851D01*
X121457413Y-50340944D01*
X121490129Y-50354902D01*
X121516174Y-50378275D01*
X121536290Y-50412299D01*
X121556685Y-50474459D01*
X121566210Y-50543457D01*
X121660000Y-50543457D01*
X121660000Y-49883635D01*
X121566210Y-49883635D01*
X121560837Y-49948482D01*
X121549968Y-50006612D01*
X121532972Y-50040323D01*
X121507470Y-50063276D01*
X121474101Y-50076726D01*
X121428457Y-50081716D01*
X120606092Y-50081716D01*
X120561734Y-50076668D01*
X120521706Y-50061810D01*
X120486659Y-50038064D01*
X120458813Y-50006489D01*
X120435244Y-49945062D01*
X120425108Y-49868492D01*
X120331318Y-49868492D01*
X120300055Y-50316678D01*
X120318862Y-50335851D01*
X120506074Y-50335851D01*
X120506074Y-50342690D01*
X120427550Y-50424633D01*
X120353056Y-50517568D01*
X120323717Y-50571415D01*
X120298468Y-50637735D01*
X120282324Y-50710110D01*
X120276608Y-50794905D01*
X120285092Y-50890740D01*
X120308710Y-50968333D01*
X120345967Y-51031360D01*
X120397142Y-51082379D01*
X120482204Y-51132633D01*
X120587390Y-51164555D01*
X120717833Y-51176046D01*
X121416367Y-51176046D01*
X121461267Y-51180522D01*
X121493426Y-51192411D01*
X121518686Y-51213790D01*
X121538977Y-51248464D01*
X121558028Y-51305129D01*
X121566210Y-51371441D01*
X121660000Y-51371441D01*
G37*
G36*
X120773276Y-53452634D02*
G01*
X120845718Y-53506359D01*
X120923607Y-53543370D01*
X121009298Y-53565020D01*
X121113750Y-53572801D01*
X121238948Y-53560571D01*
X121349797Y-53525088D01*
X121449301Y-53466526D01*
X121539466Y-53382903D01*
X121611958Y-53283509D01*
X121663895Y-53173297D01*
X121695827Y-53050200D01*
X121706894Y-52911514D01*
X121695874Y-52782685D01*
X121662198Y-52652006D01*
X121612958Y-52527881D01*
X121560226Y-52427913D01*
X121660000Y-52369173D01*
X121660000Y-52259874D01*
X120995659Y-52240823D01*
X120995659Y-52351465D01*
X121115530Y-52389354D01*
X121218775Y-52431332D01*
X121314532Y-52484157D01*
X121404766Y-52552355D01*
X121477604Y-52629430D01*
X121533848Y-52718318D01*
X121569340Y-52818705D01*
X121581842Y-52938991D01*
X121575265Y-53029757D01*
X121557051Y-53103611D01*
X121526386Y-53168503D01*
X121486953Y-53217672D01*
X121437756Y-53255640D01*
X121380341Y-53282519D01*
X121316276Y-53298173D01*
X121239291Y-53303768D01*
X121163202Y-53296509D01*
X121090919Y-53274852D01*
X121021182Y-53238189D01*
X120960424Y-53188582D01*
X120909381Y-53124260D01*
X120867798Y-53042794D01*
X120790006Y-52839218D01*
X120709406Y-52641137D01*
X120653211Y-52536911D01*
X120588766Y-52452839D01*
X120516088Y-52386270D01*
X120431878Y-52337365D01*
X120329271Y-52306469D01*
X120203702Y-52295411D01*
X120096241Y-52306803D01*
X119997438Y-52340474D01*
X119907445Y-52394657D01*
X119826468Y-52468946D01*
X119763626Y-52554474D01*
X119715094Y-52656158D01*
X119684916Y-52766232D01*
X119674794Y-52881594D01*
X119685876Y-53010827D01*
X119717414Y-53121318D01*
X119763581Y-53223810D01*
X119814623Y-53314637D01*
X119721688Y-53370690D01*
X119721688Y-53479989D01*
X120362581Y-53490858D01*
X120362581Y-53380216D01*
X120152899Y-53312561D01*
X120056897Y-53269053D01*
X119971671Y-53214863D01*
X119901012Y-53149502D01*
X119846496Y-53071371D01*
X119812236Y-52980331D01*
X119799846Y-52863764D01*
X119809320Y-52780430D01*
X119836875Y-52707439D01*
X119882889Y-52642358D01*
X119943085Y-52591055D01*
X120009822Y-52561073D01*
X120085610Y-52550889D01*
X120167317Y-52557949D01*
X120235672Y-52577858D01*
X120293217Y-52609630D01*
X120366476Y-52679515D01*
X120428649Y-52780478D01*
X120511814Y-52976482D01*
X120586552Y-53162962D01*
X120667519Y-53320743D01*
X120717055Y-53392187D01*
X120773276Y-53452634D01*
G37*
G36*
X121121977Y-53789693D02*
G01*
X121255900Y-53818754D01*
X121380113Y-53868361D01*
X121485732Y-53936967D01*
X121573290Y-54026049D01*
X121641681Y-54138346D01*
X121672823Y-54221763D01*
X121692277Y-54316113D01*
X121699078Y-54423255D01*
X121688045Y-54543203D01*
X121655882Y-54651196D01*
X121602725Y-54749685D01*
X121531815Y-54837394D01*
X121446131Y-54912827D01*
X121344071Y-54976587D01*
X121284842Y-54880966D01*
X121381640Y-54820707D01*
X121448874Y-54764162D01*
X121492815Y-54710851D01*
X121524365Y-54649806D01*
X121543806Y-54580527D01*
X121550579Y-54501168D01*
X121538549Y-54387873D01*
X121504783Y-54296127D01*
X121450452Y-54218149D01*
X121379609Y-54156786D01*
X121292431Y-54110111D01*
X121189466Y-54076919D01*
X121078007Y-54058252D01*
X120948764Y-54051639D01*
X120948764Y-54943736D01*
X120858272Y-54943736D01*
X120739001Y-54935818D01*
X120631981Y-54912962D01*
X120533554Y-54873729D01*
X120450875Y-54819417D01*
X120379276Y-54744967D01*
X120323258Y-54648569D01*
X120289025Y-54536838D01*
X120276608Y-54395900D01*
X120276804Y-54393213D01*
X120378213Y-54393213D01*
X120388761Y-54473514D01*
X120417903Y-54533775D01*
X120463162Y-54582465D01*
X120520607Y-54619993D01*
X120583869Y-54643832D01*
X120667274Y-54661514D01*
X120831528Y-54674581D01*
X120831528Y-54051639D01*
X120692055Y-54068299D01*
X120582992Y-54103500D01*
X120498136Y-54154710D01*
X120430505Y-54224847D01*
X120391443Y-54303242D01*
X120378213Y-54393213D01*
X120276804Y-54393213D01*
X120283459Y-54301785D01*
X120303415Y-54215941D01*
X120336081Y-54137002D01*
X120405382Y-54030485D01*
X120492763Y-53943684D01*
X120599823Y-53873042D01*
X120720397Y-53821441D01*
X120848346Y-53790174D01*
X120978318Y-53779797D01*
X121121977Y-53789693D01*
G37*
G36*
X121660000Y-56198900D02*
G01*
X121660000Y-55108600D01*
X121593565Y-55108600D01*
X120417292Y-55871004D01*
X120417292Y-55682449D01*
X120421566Y-55496580D01*
X120430832Y-55431674D01*
X120449654Y-55373726D01*
X120475694Y-55339930D01*
X120538436Y-55301919D01*
X120617786Y-55272246D01*
X120729923Y-55243911D01*
X120729923Y-55160502D01*
X120315687Y-55160502D01*
X120315687Y-56190718D01*
X120367100Y-56190718D01*
X121558394Y-55416102D01*
X121560471Y-55524057D01*
X121561081Y-55651064D01*
X121559738Y-55765125D01*
X121552777Y-55917533D01*
X121541408Y-55966539D01*
X121514919Y-56000087D01*
X121477555Y-56024774D01*
X121434808Y-56043196D01*
X121322334Y-56079344D01*
X121183237Y-56116957D01*
X121183237Y-56198900D01*
X121660000Y-56198900D01*
G37*
G36*
X121660000Y-57862438D02*
G01*
X121660000Y-57202494D01*
X121566210Y-57202494D01*
X121560837Y-57271371D01*
X121549846Y-57333653D01*
X121532731Y-57367356D01*
X121507103Y-57390317D01*
X121473496Y-57403768D01*
X121427602Y-57408757D01*
X120738471Y-57408757D01*
X120645570Y-57400276D01*
X120573730Y-57377098D01*
X120518286Y-57341102D01*
X120474625Y-57291924D01*
X120449302Y-57237741D01*
X120440739Y-57176482D01*
X120446521Y-57106248D01*
X120463210Y-57043981D01*
X120488542Y-56986505D01*
X120518164Y-56937491D01*
X120551486Y-56896118D01*
X120585453Y-56865806D01*
X120643217Y-56826849D01*
X121413925Y-56826849D01*
X121457413Y-56831942D01*
X121490129Y-56845900D01*
X121516174Y-56869273D01*
X121536290Y-56903297D01*
X121556685Y-56965457D01*
X121566210Y-57034455D01*
X121660000Y-57034455D01*
X121660000Y-56374633D01*
X121566210Y-56374633D01*
X121560837Y-56439480D01*
X121549968Y-56497609D01*
X121532972Y-56531321D01*
X121507470Y-56554274D01*
X121474101Y-56567724D01*
X121428457Y-56572714D01*
X120606092Y-56572714D01*
X120561734Y-56567666D01*
X120521706Y-56552808D01*
X120486659Y-56529062D01*
X120458813Y-56497487D01*
X120435244Y-56436060D01*
X120425108Y-56359490D01*
X120331318Y-56359490D01*
X120300055Y-56807676D01*
X120318862Y-56826849D01*
X120506074Y-56826849D01*
X120506074Y-56833688D01*
X120427550Y-56915631D01*
X120353056Y-57008565D01*
X120323717Y-57062413D01*
X120298468Y-57128733D01*
X120282324Y-57201108D01*
X120276608Y-57285903D01*
X120285092Y-57381738D01*
X120308710Y-57459331D01*
X120345967Y-57522358D01*
X120397142Y-57573377D01*
X120482204Y-57623631D01*
X120587390Y-57655553D01*
X120717833Y-57667044D01*
X121416367Y-57667044D01*
X121461267Y-57671520D01*
X121493426Y-57683408D01*
X121518686Y-57704788D01*
X121538977Y-57739462D01*
X121558028Y-57796127D01*
X121566210Y-57862438D01*
X121660000Y-57862438D01*
G37*
G36*
X121121977Y-58037565D02*
G01*
X121255900Y-58066625D01*
X121380113Y-58116232D01*
X121485732Y-58184839D01*
X121573290Y-58273920D01*
X121641681Y-58386217D01*
X121672823Y-58469635D01*
X121692277Y-58563984D01*
X121699078Y-58671127D01*
X121688045Y-58791075D01*
X121655882Y-58899068D01*
X121602725Y-58997557D01*
X121531815Y-59085265D01*
X121446131Y-59160699D01*
X121344071Y-59224459D01*
X121284842Y-59128838D01*
X121381640Y-59068579D01*
X121448874Y-59012034D01*
X121492815Y-58958722D01*
X121524365Y-58897678D01*
X121543806Y-58828398D01*
X121550579Y-58749040D01*
X121538549Y-58635744D01*
X121504783Y-58543998D01*
X121450452Y-58466021D01*
X121379609Y-58404658D01*
X121292431Y-58357983D01*
X121189466Y-58324790D01*
X121078007Y-58306124D01*
X120948764Y-58299511D01*
X120948764Y-59191608D01*
X120858272Y-59191608D01*
X120739001Y-59183690D01*
X120631981Y-59160833D01*
X120533554Y-59121600D01*
X120450875Y-59067288D01*
X120379276Y-58992838D01*
X120323258Y-58896441D01*
X120289025Y-58784709D01*
X120276608Y-58643771D01*
X120276804Y-58641085D01*
X120378213Y-58641085D01*
X120388761Y-58721385D01*
X120417903Y-58781646D01*
X120463162Y-58830337D01*
X120520607Y-58867864D01*
X120583869Y-58891703D01*
X120667274Y-58909385D01*
X120831528Y-58922452D01*
X120831528Y-58299511D01*
X120692055Y-58316170D01*
X120582992Y-58351371D01*
X120498136Y-58402581D01*
X120430505Y-58472718D01*
X120391443Y-58551114D01*
X120378213Y-58641085D01*
X120276804Y-58641085D01*
X120283459Y-58549657D01*
X120303415Y-58463813D01*
X120336081Y-58384874D01*
X120405382Y-58278357D01*
X120492763Y-58191556D01*
X120599823Y-58120913D01*
X120720397Y-58069312D01*
X120848346Y-58038046D01*
X120978318Y-58027669D01*
X121121977Y-58037565D01*
G37*
G36*
X121699078Y-60002739D02*
G01*
X121685984Y-59859462D01*
X121648772Y-59738022D01*
X121588775Y-59634183D01*
X121504905Y-59545027D01*
X121403999Y-59475231D01*
X121285794Y-59423802D01*
X121147045Y-59391311D01*
X120983691Y-59379797D01*
X120844864Y-59391090D01*
X120717711Y-59424127D01*
X120599596Y-59478633D01*
X120492763Y-59553332D01*
X120405648Y-59643309D01*
X120336081Y-59755443D01*
X120303242Y-59838307D01*
X120283367Y-59926306D01*
X120276608Y-60020568D01*
X120288042Y-60149589D01*
X120320064Y-60255533D01*
X120370886Y-60342969D01*
X120441396Y-60412068D01*
X120525585Y-60453041D01*
X120627951Y-60467288D01*
X120692654Y-60458880D01*
X120748119Y-60434438D01*
X120776472Y-60408720D01*
X120793922Y-60373787D01*
X120800265Y-60326482D01*
X120789309Y-60252552D01*
X120759598Y-60201430D01*
X120715369Y-60167658D01*
X120668618Y-60157100D01*
X120607360Y-60161106D01*
X120543077Y-60173464D01*
X120448799Y-60192637D01*
X120413786Y-60162272D01*
X120392501Y-60119609D01*
X120378213Y-60015073D01*
X120385230Y-59951042D01*
X120406301Y-59890020D01*
X120443851Y-59834119D01*
X120509860Y-59774616D01*
X120586168Y-59730717D01*
X120694996Y-59692550D01*
X120817456Y-59669631D01*
X120973311Y-59661165D01*
X121140006Y-59674918D01*
X121276829Y-59713326D01*
X121389501Y-59773883D01*
X121461723Y-59836540D01*
X121511078Y-59905607D01*
X121540499Y-59982475D01*
X121550579Y-60069661D01*
X121542910Y-60155940D01*
X121521133Y-60229112D01*
X121486099Y-60291678D01*
X121409325Y-60374616D01*
X121292658Y-60457641D01*
X121349933Y-60545080D01*
X121450804Y-60477824D01*
X121535343Y-60398806D01*
X121605045Y-60307309D01*
X121658154Y-60205804D01*
X121688941Y-60104843D01*
X121699078Y-60002739D01*
G37*
D10*
G36*
X142639323Y-42572065D02*
G01*
X142899870Y-42554691D01*
X143136296Y-42504288D01*
X143356012Y-42428255D01*
X143526657Y-42346568D01*
X143668073Y-42490000D01*
X143842280Y-42490000D01*
X143868841Y-41434870D01*
X143692620Y-41434870D01*
X143626719Y-41585749D01*
X143541128Y-41751775D01*
X143440836Y-41910877D01*
X143327904Y-42050179D01*
X143194572Y-42175925D01*
X143048185Y-42274577D01*
X142941870Y-42321709D01*
X142822155Y-42350883D01*
X142686400Y-42361039D01*
X142505475Y-42343784D01*
X142366155Y-42296616D01*
X142259036Y-42223103D01*
X142176463Y-42123122D01*
X142127383Y-42008848D01*
X142110476Y-41875607D01*
X142124653Y-41766385D01*
X142166129Y-41671187D01*
X142236505Y-41586362D01*
X142326534Y-41517716D01*
X142453556Y-41450141D01*
X142626866Y-41384678D01*
X142943588Y-41281913D01*
X143215064Y-41185010D01*
X143399670Y-41092682D01*
X143542748Y-40981898D01*
X143650671Y-40852534D01*
X143729610Y-40703103D01*
X143776926Y-40543075D01*
X143793004Y-40369300D01*
X143774681Y-40203721D01*
X143719364Y-40043968D01*
X143629787Y-39897313D01*
X143504125Y-39763517D01*
X143354801Y-39660782D01*
X143157728Y-39573923D01*
X142940390Y-39519304D01*
X142698674Y-39500467D01*
X142462199Y-39518002D01*
X142245847Y-39569160D01*
X142047173Y-39641733D01*
X141913738Y-39705448D01*
X141788808Y-39582533D01*
X141610389Y-39582533D01*
X141594085Y-40579043D01*
X141770307Y-40579043D01*
X141914837Y-40251147D01*
X142003107Y-40092936D01*
X142089959Y-39972527D01*
X142198662Y-39864853D01*
X142321502Y-39782384D01*
X142460714Y-39729965D01*
X142628881Y-39711493D01*
X142771695Y-39726262D01*
X142890601Y-39768143D01*
X142990666Y-39836057D01*
X143069264Y-39926670D01*
X143115297Y-40028104D01*
X143130983Y-40144352D01*
X143117008Y-40254720D01*
X143076679Y-40347991D01*
X143009167Y-40428285D01*
X142922286Y-40492957D01*
X142798714Y-40557908D01*
X142629064Y-40622274D01*
X142319670Y-40725040D01*
X142038668Y-40823592D01*
X141849670Y-40913923D01*
X141701150Y-41019866D01*
X141586941Y-41141046D01*
X141502577Y-41283136D01*
X141450452Y-41448642D01*
X141432152Y-41643332D01*
X141453944Y-41828327D01*
X141520263Y-42009146D01*
X141624303Y-42171565D01*
X141758033Y-42302971D01*
X141932950Y-42416438D01*
X142137220Y-42502090D01*
X142362562Y-42553477D01*
X142639323Y-42572065D01*
G37*
G36*
X138432728Y-40414912D02*
G01*
X138590448Y-40414912D01*
X138669733Y-40230039D01*
X138794330Y-40018323D01*
X138898170Y-39885418D01*
X138982718Y-39816357D01*
X139053532Y-39790444D01*
X139215465Y-39776339D01*
X139381428Y-39770111D01*
X139477782Y-39770111D01*
X139477782Y-42042119D01*
X139470863Y-42112617D01*
X139451221Y-42171812D01*
X139413778Y-42220215D01*
X139346624Y-42260472D01*
X139200078Y-42298391D01*
X139031001Y-42325868D01*
X139031001Y-42490000D01*
X140652163Y-42490000D01*
X140652163Y-42325868D01*
X140485284Y-42308649D01*
X140338555Y-42280989D01*
X140269638Y-42240757D01*
X140232126Y-42193244D01*
X140212429Y-42134716D01*
X140205382Y-42062452D01*
X140205382Y-39770111D01*
X140301735Y-39770111D01*
X140467698Y-39776339D01*
X140629631Y-39790444D01*
X140700446Y-39816357D01*
X140784994Y-39885418D01*
X140888834Y-40018323D01*
X141013431Y-40230039D01*
X141092716Y-40414912D01*
X141250619Y-40414912D01*
X141250619Y-39582533D01*
X138432728Y-39582533D01*
X138432728Y-40414912D01*
G37*
G36*
X138263468Y-39746664D02*
G01*
X138123150Y-39773225D01*
X137968361Y-39818105D01*
X137894225Y-39861188D01*
X137859734Y-39904017D01*
X137843299Y-39956609D01*
X137837203Y-40026383D01*
X137837203Y-42070512D01*
X137844445Y-42143854D01*
X137863948Y-42198190D01*
X137900612Y-42241698D01*
X137968361Y-42280989D01*
X138106847Y-42308649D01*
X138263468Y-42325868D01*
X138263468Y-42490000D01*
X136712098Y-42490000D01*
X136712098Y-42325868D01*
X136854431Y-42302604D01*
X136976430Y-42269265D01*
X137044408Y-42228606D01*
X137081943Y-42184269D01*
X137102269Y-42129964D01*
X137109603Y-42060804D01*
X137109603Y-41188674D01*
X136996946Y-41188674D01*
X136520490Y-41790610D01*
X136040003Y-42490000D01*
X134925157Y-42490000D01*
X134925157Y-42325868D01*
X135028654Y-42313961D01*
X135148456Y-42289781D01*
X135231454Y-42247250D01*
X135342262Y-42150563D01*
X135515369Y-41959321D01*
X135901700Y-41476453D01*
X136226482Y-41060812D01*
X135994195Y-40975560D01*
X135819949Y-40877713D01*
X135692690Y-40769187D01*
X135597333Y-40635268D01*
X135538317Y-40473242D01*
X135523216Y-40330465D01*
X136320638Y-40330465D01*
X136332981Y-40503668D01*
X136366712Y-40640372D01*
X136418350Y-40747716D01*
X136486601Y-40831285D01*
X136606394Y-40916126D01*
X136759015Y-40969890D01*
X136953899Y-40989371D01*
X137109603Y-40989371D01*
X137109603Y-39770111D01*
X136947670Y-39770111D01*
X136751020Y-39787106D01*
X136599675Y-39833341D01*
X136483670Y-39904567D01*
X136396744Y-40005498D01*
X136341176Y-40143358D01*
X136320638Y-40330465D01*
X135523216Y-40330465D01*
X135517384Y-40275327D01*
X135536098Y-40108049D01*
X135589304Y-39969261D01*
X135676307Y-39852637D01*
X135801317Y-39754724D01*
X135943342Y-39685566D01*
X136123614Y-39631489D01*
X136350185Y-39595657D01*
X136632231Y-39582533D01*
X138263468Y-39582533D01*
X138263468Y-39746664D01*
G37*
G36*
X133641599Y-41599002D02*
G01*
X134883574Y-41599002D01*
X134883574Y-41141779D01*
X133641599Y-41141779D01*
X133641599Y-41599002D01*
G37*
G36*
X131490675Y-41520416D02*
G01*
X131350758Y-41639351D01*
X131232571Y-41796838D01*
X131176212Y-41916738D01*
X131140615Y-42058565D01*
X131127974Y-42226950D01*
X131142402Y-42403756D01*
X131184343Y-42563244D01*
X131253127Y-42708563D01*
X131349887Y-42842109D01*
X131477486Y-42965357D01*
X131658772Y-43087799D01*
X131864761Y-43176959D01*
X132099895Y-43232563D01*
X132369766Y-43252037D01*
X132580634Y-43239672D01*
X132765440Y-43204423D01*
X132927803Y-43148319D01*
X133070804Y-43072336D01*
X133201794Y-42970620D01*
X133287077Y-42867292D01*
X133335476Y-42760726D01*
X133351439Y-42647536D01*
X133340764Y-42554618D01*
X133309806Y-42473930D01*
X133258199Y-42402622D01*
X133190314Y-42347670D01*
X133108694Y-42314203D01*
X133009255Y-42302421D01*
X132904431Y-42312765D01*
X132817161Y-42342034D01*
X132743824Y-42389249D01*
X132686567Y-42453234D01*
X132652282Y-42529265D01*
X132640326Y-42621158D01*
X132648613Y-42724856D01*
X132675314Y-42843724D01*
X132732650Y-43027639D01*
X132617794Y-43055300D01*
X132494879Y-43064459D01*
X132379929Y-43051513D01*
X132265352Y-43011885D01*
X132161266Y-42947556D01*
X132072644Y-42858379D01*
X131992699Y-42734214D01*
X131933426Y-42585254D01*
X131898575Y-42421397D01*
X131886165Y-42227500D01*
X131904603Y-42039352D01*
X131956788Y-41882490D01*
X132040954Y-41750493D01*
X132154867Y-41646386D01*
X132286412Y-41584975D01*
X132441573Y-41563831D01*
X132621657Y-41584429D01*
X132761409Y-41641500D01*
X132882792Y-41730224D01*
X132992951Y-41845198D01*
X133152686Y-41791892D01*
X132953934Y-40285952D01*
X131222313Y-40285952D01*
X131222313Y-40848688D01*
X132806472Y-40848688D01*
X132890369Y-41525729D01*
X132770389Y-41460888D01*
X132605521Y-41392922D01*
X132422256Y-41346240D01*
X132195743Y-41329357D01*
X132014499Y-41339395D01*
X131835973Y-41369474D01*
X131663155Y-41426233D01*
X131490675Y-41520416D01*
G37*
G36*
X129686045Y-40227154D02*
G01*
X129868818Y-40260217D01*
X130031446Y-40313063D01*
X130185477Y-40387200D01*
X130316441Y-40473774D01*
X130426936Y-40572632D01*
X130566844Y-40749688D01*
X130663790Y-40943942D01*
X130720918Y-41155192D01*
X130740544Y-41389075D01*
X130719972Y-41625249D01*
X130659577Y-41842451D01*
X130559548Y-42040416D01*
X130422906Y-42209548D01*
X130311436Y-42306088D01*
X130180688Y-42390955D01*
X130028332Y-42463988D01*
X129867798Y-42516194D01*
X129686817Y-42548905D01*
X129482266Y-42560341D01*
X129288080Y-42550571D01*
X129116200Y-42522664D01*
X128963860Y-42478276D01*
X128751257Y-42377191D01*
X128568187Y-42240322D01*
X128468716Y-42134192D01*
X128383762Y-42012735D01*
X128313014Y-41874324D01*
X128262049Y-41727300D01*
X128230619Y-41566296D01*
X128219774Y-41389075D01*
X128219867Y-41387976D01*
X128992437Y-41387976D01*
X128999439Y-41619191D01*
X129018082Y-41795922D01*
X129052855Y-41958386D01*
X129103079Y-42100188D01*
X129169871Y-42214616D01*
X129254754Y-42299490D01*
X129358660Y-42354073D01*
X129482266Y-42372763D01*
X129614152Y-42351831D01*
X129720036Y-42291430D01*
X129803906Y-42198790D01*
X129867498Y-42077657D01*
X129915817Y-41928560D01*
X129946449Y-41772658D01*
X129962039Y-41605545D01*
X129967882Y-41387976D01*
X129961465Y-41176791D01*
X129943335Y-40992302D01*
X129910068Y-40820283D01*
X129865483Y-40688037D01*
X129795189Y-40564413D01*
X129711793Y-40477561D01*
X129608395Y-40422492D01*
X129478053Y-40403189D01*
X129349713Y-40422634D01*
X129246693Y-40478476D01*
X129163642Y-40566610D01*
X129094836Y-40692067D01*
X129048420Y-40832413D01*
X129016067Y-40999446D01*
X128998679Y-41177618D01*
X128992437Y-41387976D01*
X128219867Y-41387976D01*
X128238554Y-41166956D01*
X128294696Y-40953101D01*
X128389486Y-40754658D01*
X128525139Y-40578677D01*
X128634312Y-40479681D01*
X128764568Y-40392120D01*
X128918614Y-40316177D01*
X129081455Y-40261857D01*
X129267382Y-40227637D01*
X129480068Y-40215610D01*
X129686045Y-40227154D01*
G37*
G36*
X126743407Y-40227154D02*
G01*
X126926180Y-40260217D01*
X127088808Y-40313063D01*
X127242839Y-40387200D01*
X127373803Y-40473774D01*
X127484298Y-40572632D01*
X127624207Y-40749688D01*
X127721153Y-40943942D01*
X127778280Y-41155192D01*
X127797906Y-41389075D01*
X127777335Y-41625249D01*
X127716939Y-41842451D01*
X127616910Y-42040416D01*
X127480268Y-42209548D01*
X127368799Y-42306088D01*
X127238050Y-42390955D01*
X127085694Y-42463988D01*
X126925160Y-42516194D01*
X126744179Y-42548905D01*
X126539628Y-42560341D01*
X126345442Y-42550571D01*
X126173562Y-42522664D01*
X126021222Y-42478276D01*
X125808619Y-42377191D01*
X125625549Y-42240322D01*
X125526078Y-42134192D01*
X125441124Y-42012735D01*
X125370376Y-41874324D01*
X125319412Y-41727300D01*
X125287981Y-41566296D01*
X125277137Y-41389075D01*
X125277230Y-41387976D01*
X126049799Y-41387976D01*
X126056801Y-41619191D01*
X126075444Y-41795922D01*
X126110217Y-41958386D01*
X126160441Y-42100188D01*
X126227234Y-42214616D01*
X126312116Y-42299490D01*
X126416022Y-42354073D01*
X126539628Y-42372763D01*
X126671514Y-42351831D01*
X126777398Y-42291430D01*
X126861268Y-42198790D01*
X126924860Y-42077657D01*
X126973179Y-41928560D01*
X127003811Y-41772658D01*
X127019402Y-41605545D01*
X127025244Y-41387976D01*
X127018827Y-41176791D01*
X127000697Y-40992302D01*
X126967430Y-40820283D01*
X126922845Y-40688037D01*
X126852551Y-40564413D01*
X126769155Y-40477561D01*
X126665758Y-40422492D01*
X126535415Y-40403189D01*
X126407075Y-40422634D01*
X126304056Y-40478476D01*
X126221004Y-40566610D01*
X126152198Y-40692067D01*
X126105782Y-40832413D01*
X126073429Y-40999446D01*
X126056041Y-41177618D01*
X126049799Y-41387976D01*
X125277230Y-41387976D01*
X125295916Y-41166956D01*
X125352058Y-40953101D01*
X125446848Y-40754658D01*
X125582501Y-40578677D01*
X125691674Y-40479681D01*
X125821930Y-40392120D01*
X125975976Y-40316177D01*
X126138817Y-40261857D01*
X126324744Y-40227637D01*
X126537430Y-40215610D01*
X126743407Y-40227154D01*
G37*
G36*
X121547182Y-40614214D02*
G01*
X121637119Y-40638334D01*
X121726700Y-40683824D01*
X121804148Y-40751816D01*
X121871048Y-40855648D01*
X122152782Y-41458501D01*
X122424441Y-42046882D01*
X122517681Y-42267983D01*
X122604692Y-42513447D01*
X122981864Y-42513447D01*
X123384682Y-41606878D01*
X123738040Y-40833117D01*
X123793035Y-40747314D01*
X123872313Y-40681809D01*
X123965471Y-40636781D01*
X124057693Y-40614214D01*
X124057693Y-40461807D01*
X122795385Y-40461807D01*
X122795385Y-40614214D01*
X122867410Y-40622220D01*
X122959333Y-40644989D01*
X123035080Y-40682001D01*
X123053489Y-40718628D01*
X123045429Y-40755448D01*
X123024912Y-40810769D01*
X122827259Y-41258100D01*
X122547356Y-41872676D01*
X122351718Y-41436702D01*
X122121092Y-40892468D01*
X122099659Y-40812784D01*
X122096545Y-40771751D01*
X122105029Y-40738120D01*
X122132449Y-40707271D01*
X122217445Y-40659277D01*
X122315814Y-40628503D01*
X122393667Y-40614214D01*
X122393667Y-40461807D01*
X121547182Y-40461807D01*
X121547182Y-40614214D01*
G37*
G36*
X119683853Y-42490000D02*
G01*
X121374441Y-42490000D01*
X121374441Y-42337592D01*
X121178803Y-42316892D01*
X120995437Y-42283920D01*
X120940159Y-42255681D01*
X120899084Y-42213578D01*
X120873816Y-42157820D01*
X120864279Y-42077107D01*
X120864279Y-40766622D01*
X121382684Y-40766622D01*
X121382684Y-40579043D01*
X121270027Y-40579043D01*
X121098211Y-40568532D01*
X120961549Y-40539842D01*
X120838387Y-40494701D01*
X120745394Y-40444771D01*
X120662935Y-40384205D01*
X120600863Y-40325153D01*
X120511653Y-40215610D01*
X120150968Y-40215610D01*
X120163424Y-40528485D01*
X120169469Y-40849603D01*
X120169469Y-42055675D01*
X120161228Y-42126105D01*
X120137779Y-42184269D01*
X120099276Y-42232179D01*
X120046554Y-42267616D01*
X119983855Y-42289116D01*
X119868318Y-42313046D01*
X119683853Y-42337592D01*
X119683853Y-42490000D01*
G37*
G36*
X118473569Y-42157890D02*
G01*
X118486875Y-42261679D01*
X118526231Y-42354935D01*
X118593553Y-42440724D01*
X118679334Y-42507774D01*
X118772886Y-42547044D01*
X118877302Y-42560341D01*
X118983115Y-42547079D01*
X119077380Y-42508035D01*
X119163250Y-42441639D01*
X119230312Y-42356503D01*
X119269683Y-42262983D01*
X119283051Y-42157890D01*
X119269725Y-42052730D01*
X119230381Y-41958508D01*
X119163250Y-41872126D01*
X119077238Y-41804520D01*
X118982983Y-41764861D01*
X118877302Y-41751409D01*
X118773030Y-41764911D01*
X118679490Y-41804850D01*
X118593553Y-41873225D01*
X118526169Y-41960149D01*
X118486837Y-42054039D01*
X118473569Y-42157890D01*
G37*
G36*
X116251753Y-42490000D02*
G01*
X117942341Y-42490000D01*
X117942341Y-42337592D01*
X117746702Y-42316892D01*
X117563337Y-42283920D01*
X117508059Y-42255681D01*
X117466983Y-42213578D01*
X117441715Y-42157820D01*
X117432178Y-42077107D01*
X117432178Y-40766622D01*
X117950584Y-40766622D01*
X117950584Y-40579043D01*
X117837927Y-40579043D01*
X117666111Y-40568532D01*
X117529448Y-40539842D01*
X117406286Y-40494701D01*
X117313293Y-40444771D01*
X117230835Y-40384205D01*
X117168763Y-40325153D01*
X117079553Y-40215610D01*
X116718867Y-40215610D01*
X116731324Y-40528485D01*
X116737369Y-40849603D01*
X116737369Y-42055675D01*
X116729127Y-42126105D01*
X116705678Y-42184269D01*
X116667176Y-42232179D01*
X116614453Y-42267616D01*
X116551755Y-42289116D01*
X116436217Y-42313046D01*
X116251753Y-42337592D01*
X116251753Y-42490000D01*
G37*
D11*
X108252438Y-104690475D02*
X108204819Y-104595237D01*
X108204819Y-104595237D02*
X108204819Y-104452380D01*
X108204819Y-104452380D02*
X108252438Y-104309523D01*
X108252438Y-104309523D02*
X108347676Y-104214285D01*
X108347676Y-104214285D02*
X108442914Y-104166666D01*
X108442914Y-104166666D02*
X108633390Y-104119047D01*
X108633390Y-104119047D02*
X108776247Y-104119047D01*
X108776247Y-104119047D02*
X108966723Y-104166666D01*
X108966723Y-104166666D02*
X109061961Y-104214285D01*
X109061961Y-104214285D02*
X109157200Y-104309523D01*
X109157200Y-104309523D02*
X109204819Y-104452380D01*
X109204819Y-104452380D02*
X109204819Y-104547618D01*
X109204819Y-104547618D02*
X109157200Y-104690475D01*
X109157200Y-104690475D02*
X109109580Y-104738094D01*
X109109580Y-104738094D02*
X108776247Y-104738094D01*
X108776247Y-104738094D02*
X108776247Y-104547618D01*
X109204819Y-105595237D02*
X108681009Y-105595237D01*
X108681009Y-105595237D02*
X108585771Y-105547618D01*
X108585771Y-105547618D02*
X108538152Y-105452380D01*
X108538152Y-105452380D02*
X108538152Y-105261904D01*
X108538152Y-105261904D02*
X108585771Y-105166666D01*
X109157200Y-105595237D02*
X109204819Y-105499999D01*
X109204819Y-105499999D02*
X109204819Y-105261904D01*
X109204819Y-105261904D02*
X109157200Y-105166666D01*
X109157200Y-105166666D02*
X109061961Y-105119047D01*
X109061961Y-105119047D02*
X108966723Y-105119047D01*
X108966723Y-105119047D02*
X108871485Y-105166666D01*
X108871485Y-105166666D02*
X108823866Y-105261904D01*
X108823866Y-105261904D02*
X108823866Y-105499999D01*
X108823866Y-105499999D02*
X108776247Y-105595237D01*
X109204819Y-106071428D02*
X108538152Y-106071428D01*
X108633390Y-106071428D02*
X108585771Y-106119047D01*
X108585771Y-106119047D02*
X108538152Y-106214285D01*
X108538152Y-106214285D02*
X108538152Y-106357142D01*
X108538152Y-106357142D02*
X108585771Y-106452380D01*
X108585771Y-106452380D02*
X108681009Y-106499999D01*
X108681009Y-106499999D02*
X109204819Y-106499999D01*
X108681009Y-106499999D02*
X108585771Y-106547618D01*
X108585771Y-106547618D02*
X108538152Y-106642856D01*
X108538152Y-106642856D02*
X108538152Y-106785713D01*
X108538152Y-106785713D02*
X108585771Y-106880952D01*
X108585771Y-106880952D02*
X108681009Y-106928571D01*
X108681009Y-106928571D02*
X109204819Y-106928571D01*
X109157200Y-107785713D02*
X109204819Y-107690475D01*
X109204819Y-107690475D02*
X109204819Y-107499999D01*
X109204819Y-107499999D02*
X109157200Y-107404761D01*
X109157200Y-107404761D02*
X109061961Y-107357142D01*
X109061961Y-107357142D02*
X108681009Y-107357142D01*
X108681009Y-107357142D02*
X108585771Y-107404761D01*
X108585771Y-107404761D02*
X108538152Y-107499999D01*
X108538152Y-107499999D02*
X108538152Y-107690475D01*
X108538152Y-107690475D02*
X108585771Y-107785713D01*
X108585771Y-107785713D02*
X108681009Y-107833332D01*
X108681009Y-107833332D02*
X108776247Y-107833332D01*
X108776247Y-107833332D02*
X108871485Y-107357142D01*
X108204819Y-108119047D02*
X108204819Y-108690475D01*
X109204819Y-108404761D02*
X108204819Y-108404761D01*
X109204819Y-109023809D02*
X108538152Y-109023809D01*
X108728628Y-109023809D02*
X108633390Y-109071428D01*
X108633390Y-109071428D02*
X108585771Y-109119047D01*
X108585771Y-109119047D02*
X108538152Y-109214285D01*
X108538152Y-109214285D02*
X108538152Y-109309523D01*
X109204819Y-110071428D02*
X108681009Y-110071428D01*
X108681009Y-110071428D02*
X108585771Y-110023809D01*
X108585771Y-110023809D02*
X108538152Y-109928571D01*
X108538152Y-109928571D02*
X108538152Y-109738095D01*
X108538152Y-109738095D02*
X108585771Y-109642857D01*
X109157200Y-110071428D02*
X109204819Y-109976190D01*
X109204819Y-109976190D02*
X109204819Y-109738095D01*
X109204819Y-109738095D02*
X109157200Y-109642857D01*
X109157200Y-109642857D02*
X109061961Y-109595238D01*
X109061961Y-109595238D02*
X108966723Y-109595238D01*
X108966723Y-109595238D02*
X108871485Y-109642857D01*
X108871485Y-109642857D02*
X108823866Y-109738095D01*
X108823866Y-109738095D02*
X108823866Y-109976190D01*
X108823866Y-109976190D02*
X108776247Y-110071428D01*
X109204819Y-110547619D02*
X108204819Y-110547619D01*
X108823866Y-110642857D02*
X109204819Y-110928571D01*
X108538152Y-110928571D02*
X108919104Y-110547619D01*
X109204819Y-111880952D02*
X109204819Y-111309524D01*
X109204819Y-111595238D02*
X108204819Y-111595238D01*
X108204819Y-111595238D02*
X108347676Y-111500000D01*
X108347676Y-111500000D02*
X108442914Y-111404762D01*
X108442914Y-111404762D02*
X108490533Y-111309524D01*
X110166666Y-64859580D02*
X110214285Y-64907200D01*
X110214285Y-64907200D02*
X110357142Y-64954819D01*
X110357142Y-64954819D02*
X110452380Y-64954819D01*
X110452380Y-64954819D02*
X110595237Y-64907200D01*
X110595237Y-64907200D02*
X110690475Y-64811961D01*
X110690475Y-64811961D02*
X110738094Y-64716723D01*
X110738094Y-64716723D02*
X110785713Y-64526247D01*
X110785713Y-64526247D02*
X110785713Y-64383390D01*
X110785713Y-64383390D02*
X110738094Y-64192914D01*
X110738094Y-64192914D02*
X110690475Y-64097676D01*
X110690475Y-64097676D02*
X110595237Y-64002438D01*
X110595237Y-64002438D02*
X110452380Y-63954819D01*
X110452380Y-63954819D02*
X110357142Y-63954819D01*
X110357142Y-63954819D02*
X110214285Y-64002438D01*
X110214285Y-64002438D02*
X110166666Y-64050057D01*
X109785713Y-64050057D02*
X109738094Y-64002438D01*
X109738094Y-64002438D02*
X109642856Y-63954819D01*
X109642856Y-63954819D02*
X109404761Y-63954819D01*
X109404761Y-63954819D02*
X109309523Y-64002438D01*
X109309523Y-64002438D02*
X109261904Y-64050057D01*
X109261904Y-64050057D02*
X109214285Y-64145295D01*
X109214285Y-64145295D02*
X109214285Y-64240533D01*
X109214285Y-64240533D02*
X109261904Y-64383390D01*
X109261904Y-64383390D02*
X109833332Y-64954819D01*
X109833332Y-64954819D02*
X109214285Y-64954819D01*
X111404762Y-59954819D02*
X111976190Y-59954819D01*
X111690476Y-59954819D02*
X111690476Y-58954819D01*
X111690476Y-58954819D02*
X111785714Y-59097676D01*
X111785714Y-59097676D02*
X111880952Y-59192914D01*
X111880952Y-59192914D02*
X111976190Y-59240533D01*
X110785714Y-58954819D02*
X110690476Y-58954819D01*
X110690476Y-58954819D02*
X110595238Y-59002438D01*
X110595238Y-59002438D02*
X110547619Y-59050057D01*
X110547619Y-59050057D02*
X110500000Y-59145295D01*
X110500000Y-59145295D02*
X110452381Y-59335771D01*
X110452381Y-59335771D02*
X110452381Y-59573866D01*
X110452381Y-59573866D02*
X110500000Y-59764342D01*
X110500000Y-59764342D02*
X110547619Y-59859580D01*
X110547619Y-59859580D02*
X110595238Y-59907200D01*
X110595238Y-59907200D02*
X110690476Y-59954819D01*
X110690476Y-59954819D02*
X110785714Y-59954819D01*
X110785714Y-59954819D02*
X110880952Y-59907200D01*
X110880952Y-59907200D02*
X110928571Y-59859580D01*
X110928571Y-59859580D02*
X110976190Y-59764342D01*
X110976190Y-59764342D02*
X111023809Y-59573866D01*
X111023809Y-59573866D02*
X111023809Y-59335771D01*
X111023809Y-59335771D02*
X110976190Y-59145295D01*
X110976190Y-59145295D02*
X110928571Y-59050057D01*
X110928571Y-59050057D02*
X110880952Y-59002438D01*
X110880952Y-59002438D02*
X110785714Y-58954819D01*
X109833333Y-58954819D02*
X109738095Y-58954819D01*
X109738095Y-58954819D02*
X109642857Y-59002438D01*
X109642857Y-59002438D02*
X109595238Y-59050057D01*
X109595238Y-59050057D02*
X109547619Y-59145295D01*
X109547619Y-59145295D02*
X109500000Y-59335771D01*
X109500000Y-59335771D02*
X109500000Y-59573866D01*
X109500000Y-59573866D02*
X109547619Y-59764342D01*
X109547619Y-59764342D02*
X109595238Y-59859580D01*
X109595238Y-59859580D02*
X109642857Y-59907200D01*
X109642857Y-59907200D02*
X109738095Y-59954819D01*
X109738095Y-59954819D02*
X109833333Y-59954819D01*
X109833333Y-59954819D02*
X109928571Y-59907200D01*
X109928571Y-59907200D02*
X109976190Y-59859580D01*
X109976190Y-59859580D02*
X110023809Y-59764342D01*
X110023809Y-59764342D02*
X110071428Y-59573866D01*
X110071428Y-59573866D02*
X110071428Y-59335771D01*
X110071428Y-59335771D02*
X110023809Y-59145295D01*
X110023809Y-59145295D02*
X109976190Y-59050057D01*
X109976190Y-59050057D02*
X109928571Y-59002438D01*
X109928571Y-59002438D02*
X109833333Y-58954819D01*
X109071428Y-59288152D02*
X109071428Y-59954819D01*
X109071428Y-59383390D02*
X109023809Y-59335771D01*
X109023809Y-59335771D02*
X108928571Y-59288152D01*
X108928571Y-59288152D02*
X108785714Y-59288152D01*
X108785714Y-59288152D02*
X108690476Y-59335771D01*
X108690476Y-59335771D02*
X108642857Y-59431009D01*
X108642857Y-59431009D02*
X108642857Y-59954819D01*
X108309523Y-59288152D02*
X107928571Y-59288152D01*
X108166666Y-59954819D02*
X108166666Y-59097676D01*
X108166666Y-59097676D02*
X108119047Y-59002438D01*
X108119047Y-59002438D02*
X108023809Y-58954819D01*
X108023809Y-58954819D02*
X107928571Y-58954819D01*
D12*
X124650476Y-133542580D02*
X124650476Y-132828295D01*
X124650476Y-132828295D02*
X124602857Y-132685438D01*
X124602857Y-132685438D02*
X124507619Y-132590200D01*
X124507619Y-132590200D02*
X124364762Y-132542580D01*
X124364762Y-132542580D02*
X124269524Y-132542580D01*
X125650476Y-132542580D02*
X125079048Y-132542580D01*
X125364762Y-132542580D02*
X125364762Y-133542580D01*
X125364762Y-133542580D02*
X125269524Y-133399723D01*
X125269524Y-133399723D02*
X125174286Y-133304485D01*
X125174286Y-133304485D02*
X125079048Y-133256866D01*
X126269524Y-133542580D02*
X126364762Y-133542580D01*
X126364762Y-133542580D02*
X126460000Y-133494961D01*
X126460000Y-133494961D02*
X126507619Y-133447342D01*
X126507619Y-133447342D02*
X126555238Y-133352104D01*
X126555238Y-133352104D02*
X126602857Y-133161628D01*
X126602857Y-133161628D02*
X126602857Y-132923533D01*
X126602857Y-132923533D02*
X126555238Y-132733057D01*
X126555238Y-132733057D02*
X126507619Y-132637819D01*
X126507619Y-132637819D02*
X126460000Y-132590200D01*
X126460000Y-132590200D02*
X126364762Y-132542580D01*
X126364762Y-132542580D02*
X126269524Y-132542580D01*
X126269524Y-132542580D02*
X126174286Y-132590200D01*
X126174286Y-132590200D02*
X126126667Y-132637819D01*
X126126667Y-132637819D02*
X126079048Y-132733057D01*
X126079048Y-132733057D02*
X126031429Y-132923533D01*
X126031429Y-132923533D02*
X126031429Y-133161628D01*
X126031429Y-133161628D02*
X126079048Y-133352104D01*
X126079048Y-133352104D02*
X126126667Y-133447342D01*
X126126667Y-133447342D02*
X126174286Y-133494961D01*
X126174286Y-133494961D02*
X126269524Y-133542580D01*
D11*
X131404762Y-123169104D02*
X130928572Y-123169104D01*
X131500000Y-123454819D02*
X131166667Y-122454819D01*
X131166667Y-122454819D02*
X130833334Y-123454819D01*
X130071429Y-122788152D02*
X130071429Y-123454819D01*
X130500000Y-122788152D02*
X130500000Y-123311961D01*
X130500000Y-123311961D02*
X130452381Y-123407200D01*
X130452381Y-123407200D02*
X130357143Y-123454819D01*
X130357143Y-123454819D02*
X130214286Y-123454819D01*
X130214286Y-123454819D02*
X130119048Y-123407200D01*
X130119048Y-123407200D02*
X130071429Y-123359580D01*
X129166667Y-123454819D02*
X129166667Y-122454819D01*
X129166667Y-123407200D02*
X129261905Y-123454819D01*
X129261905Y-123454819D02*
X129452381Y-123454819D01*
X129452381Y-123454819D02*
X129547619Y-123407200D01*
X129547619Y-123407200D02*
X129595238Y-123359580D01*
X129595238Y-123359580D02*
X129642857Y-123264342D01*
X129642857Y-123264342D02*
X129642857Y-122978628D01*
X129642857Y-122978628D02*
X129595238Y-122883390D01*
X129595238Y-122883390D02*
X129547619Y-122835771D01*
X129547619Y-122835771D02*
X129452381Y-122788152D01*
X129452381Y-122788152D02*
X129261905Y-122788152D01*
X129261905Y-122788152D02*
X129166667Y-122835771D01*
X128690476Y-123454819D02*
X128690476Y-122788152D01*
X128690476Y-122454819D02*
X128738095Y-122502438D01*
X128738095Y-122502438D02*
X128690476Y-122550057D01*
X128690476Y-122550057D02*
X128642857Y-122502438D01*
X128642857Y-122502438D02*
X128690476Y-122454819D01*
X128690476Y-122454819D02*
X128690476Y-122550057D01*
X128071429Y-123454819D02*
X128166667Y-123407200D01*
X128166667Y-123407200D02*
X128214286Y-123359580D01*
X128214286Y-123359580D02*
X128261905Y-123264342D01*
X128261905Y-123264342D02*
X128261905Y-122978628D01*
X128261905Y-122978628D02*
X128214286Y-122883390D01*
X128214286Y-122883390D02*
X128166667Y-122835771D01*
X128166667Y-122835771D02*
X128071429Y-122788152D01*
X128071429Y-122788152D02*
X127928572Y-122788152D01*
X127928572Y-122788152D02*
X127833334Y-122835771D01*
X127833334Y-122835771D02*
X127785715Y-122883390D01*
X127785715Y-122883390D02*
X127738096Y-122978628D01*
X127738096Y-122978628D02*
X127738096Y-123264342D01*
X127738096Y-123264342D02*
X127785715Y-123359580D01*
X127785715Y-123359580D02*
X127833334Y-123407200D01*
X127833334Y-123407200D02*
X127928572Y-123454819D01*
X127928572Y-123454819D02*
X128071429Y-123454819D01*
X127119048Y-122454819D02*
X126928572Y-122454819D01*
X126928572Y-122454819D02*
X126833334Y-122502438D01*
X126833334Y-122502438D02*
X126738096Y-122597676D01*
X126738096Y-122597676D02*
X126690477Y-122788152D01*
X126690477Y-122788152D02*
X126690477Y-123121485D01*
X126690477Y-123121485D02*
X126738096Y-123311961D01*
X126738096Y-123311961D02*
X126833334Y-123407200D01*
X126833334Y-123407200D02*
X126928572Y-123454819D01*
X126928572Y-123454819D02*
X127119048Y-123454819D01*
X127119048Y-123454819D02*
X127214286Y-123407200D01*
X127214286Y-123407200D02*
X127309524Y-123311961D01*
X127309524Y-123311961D02*
X127357143Y-123121485D01*
X127357143Y-123121485D02*
X127357143Y-122788152D01*
X127357143Y-122788152D02*
X127309524Y-122597676D01*
X127309524Y-122597676D02*
X127214286Y-122502438D01*
X127214286Y-122502438D02*
X127119048Y-122454819D01*
X125833334Y-122788152D02*
X125833334Y-123454819D01*
X126261905Y-122788152D02*
X126261905Y-123311961D01*
X126261905Y-123311961D02*
X126214286Y-123407200D01*
X126214286Y-123407200D02*
X126119048Y-123454819D01*
X126119048Y-123454819D02*
X125976191Y-123454819D01*
X125976191Y-123454819D02*
X125880953Y-123407200D01*
X125880953Y-123407200D02*
X125833334Y-123359580D01*
X125500000Y-122788152D02*
X125119048Y-122788152D01*
X125357143Y-122454819D02*
X125357143Y-123311961D01*
X125357143Y-123311961D02*
X125309524Y-123407200D01*
X125309524Y-123407200D02*
X125214286Y-123454819D01*
X125214286Y-123454819D02*
X125119048Y-123454819D01*
X124785714Y-122788152D02*
X124785714Y-123788152D01*
X124785714Y-122835771D02*
X124690476Y-122788152D01*
X124690476Y-122788152D02*
X124500000Y-122788152D01*
X124500000Y-122788152D02*
X124404762Y-122835771D01*
X124404762Y-122835771D02*
X124357143Y-122883390D01*
X124357143Y-122883390D02*
X124309524Y-122978628D01*
X124309524Y-122978628D02*
X124309524Y-123264342D01*
X124309524Y-123264342D02*
X124357143Y-123359580D01*
X124357143Y-123359580D02*
X124404762Y-123407200D01*
X124404762Y-123407200D02*
X124500000Y-123454819D01*
X124500000Y-123454819D02*
X124690476Y-123454819D01*
X124690476Y-123454819D02*
X124785714Y-123407200D01*
X123452381Y-122788152D02*
X123452381Y-123454819D01*
X123880952Y-122788152D02*
X123880952Y-123311961D01*
X123880952Y-123311961D02*
X123833333Y-123407200D01*
X123833333Y-123407200D02*
X123738095Y-123454819D01*
X123738095Y-123454819D02*
X123595238Y-123454819D01*
X123595238Y-123454819D02*
X123500000Y-123407200D01*
X123500000Y-123407200D02*
X123452381Y-123359580D01*
X123119047Y-122788152D02*
X122738095Y-122788152D01*
X122976190Y-122454819D02*
X122976190Y-123311961D01*
X122976190Y-123311961D02*
X122928571Y-123407200D01*
X122928571Y-123407200D02*
X122833333Y-123454819D01*
X122833333Y-123454819D02*
X122738095Y-123454819D01*
X122404761Y-123454819D02*
X122404761Y-122454819D01*
X122404761Y-122454819D02*
X122071428Y-123169104D01*
X122071428Y-123169104D02*
X121738095Y-122454819D01*
X121738095Y-122454819D02*
X121738095Y-123454819D01*
X121119047Y-123454819D02*
X121214285Y-123407200D01*
X121214285Y-123407200D02*
X121261904Y-123359580D01*
X121261904Y-123359580D02*
X121309523Y-123264342D01*
X121309523Y-123264342D02*
X121309523Y-122978628D01*
X121309523Y-122978628D02*
X121261904Y-122883390D01*
X121261904Y-122883390D02*
X121214285Y-122835771D01*
X121214285Y-122835771D02*
X121119047Y-122788152D01*
X121119047Y-122788152D02*
X120976190Y-122788152D01*
X120976190Y-122788152D02*
X120880952Y-122835771D01*
X120880952Y-122835771D02*
X120833333Y-122883390D01*
X120833333Y-122883390D02*
X120785714Y-122978628D01*
X120785714Y-122978628D02*
X120785714Y-123264342D01*
X120785714Y-123264342D02*
X120833333Y-123359580D01*
X120833333Y-123359580D02*
X120880952Y-123407200D01*
X120880952Y-123407200D02*
X120976190Y-123454819D01*
X120976190Y-123454819D02*
X121119047Y-123454819D01*
X120214285Y-123454819D02*
X120309523Y-123407200D01*
X120309523Y-123407200D02*
X120357142Y-123311961D01*
X120357142Y-123311961D02*
X120357142Y-122454819D01*
X119452380Y-123407200D02*
X119547618Y-123454819D01*
X119547618Y-123454819D02*
X119738094Y-123454819D01*
X119738094Y-123454819D02*
X119833332Y-123407200D01*
X119833332Y-123407200D02*
X119880951Y-123311961D01*
X119880951Y-123311961D02*
X119880951Y-122931009D01*
X119880951Y-122931009D02*
X119833332Y-122835771D01*
X119833332Y-122835771D02*
X119738094Y-122788152D01*
X119738094Y-122788152D02*
X119547618Y-122788152D01*
X119547618Y-122788152D02*
X119452380Y-122835771D01*
X119452380Y-122835771D02*
X119404761Y-122931009D01*
X119404761Y-122931009D02*
X119404761Y-123026247D01*
X119404761Y-123026247D02*
X119880951Y-123121485D01*
X119071427Y-123454819D02*
X118547618Y-122788152D01*
X119071427Y-122788152D02*
X118547618Y-123454819D01*
X146084819Y-54833333D02*
X145608628Y-54500000D01*
X146084819Y-54261905D02*
X145084819Y-54261905D01*
X145084819Y-54261905D02*
X145084819Y-54642857D01*
X145084819Y-54642857D02*
X145132438Y-54738095D01*
X145132438Y-54738095D02*
X145180057Y-54785714D01*
X145180057Y-54785714D02*
X145275295Y-54833333D01*
X145275295Y-54833333D02*
X145418152Y-54833333D01*
X145418152Y-54833333D02*
X145513390Y-54785714D01*
X145513390Y-54785714D02*
X145561009Y-54738095D01*
X145561009Y-54738095D02*
X145608628Y-54642857D01*
X145608628Y-54642857D02*
X145608628Y-54261905D01*
X146084819Y-55785714D02*
X146084819Y-55214286D01*
X146084819Y-55500000D02*
X145084819Y-55500000D01*
X145084819Y-55500000D02*
X145227676Y-55404762D01*
X145227676Y-55404762D02*
X145322914Y-55309524D01*
X145322914Y-55309524D02*
X145370533Y-55214286D01*
X149920057Y-53261905D02*
X149872438Y-53309524D01*
X149872438Y-53309524D02*
X149824819Y-53404762D01*
X149824819Y-53404762D02*
X149824819Y-53642857D01*
X149824819Y-53642857D02*
X149872438Y-53738095D01*
X149872438Y-53738095D02*
X149920057Y-53785714D01*
X149920057Y-53785714D02*
X150015295Y-53833333D01*
X150015295Y-53833333D02*
X150110533Y-53833333D01*
X150110533Y-53833333D02*
X150253390Y-53785714D01*
X150253390Y-53785714D02*
X150824819Y-53214286D01*
X150824819Y-53214286D02*
X150824819Y-53833333D01*
X149920057Y-54214286D02*
X149872438Y-54261905D01*
X149872438Y-54261905D02*
X149824819Y-54357143D01*
X149824819Y-54357143D02*
X149824819Y-54595238D01*
X149824819Y-54595238D02*
X149872438Y-54690476D01*
X149872438Y-54690476D02*
X149920057Y-54738095D01*
X149920057Y-54738095D02*
X150015295Y-54785714D01*
X150015295Y-54785714D02*
X150110533Y-54785714D01*
X150110533Y-54785714D02*
X150253390Y-54738095D01*
X150253390Y-54738095D02*
X150824819Y-54166667D01*
X150824819Y-54166667D02*
X150824819Y-54785714D01*
X149824819Y-55404762D02*
X149824819Y-55500000D01*
X149824819Y-55500000D02*
X149872438Y-55595238D01*
X149872438Y-55595238D02*
X149920057Y-55642857D01*
X149920057Y-55642857D02*
X150015295Y-55690476D01*
X150015295Y-55690476D02*
X150205771Y-55738095D01*
X150205771Y-55738095D02*
X150443866Y-55738095D01*
X150443866Y-55738095D02*
X150634342Y-55690476D01*
X150634342Y-55690476D02*
X150729580Y-55642857D01*
X150729580Y-55642857D02*
X150777200Y-55595238D01*
X150777200Y-55595238D02*
X150824819Y-55500000D01*
X150824819Y-55500000D02*
X150824819Y-55404762D01*
X150824819Y-55404762D02*
X150777200Y-55309524D01*
X150777200Y-55309524D02*
X150729580Y-55261905D01*
X150729580Y-55261905D02*
X150634342Y-55214286D01*
X150634342Y-55214286D02*
X150443866Y-55166667D01*
X150443866Y-55166667D02*
X150205771Y-55166667D01*
X150205771Y-55166667D02*
X150015295Y-55214286D01*
X150015295Y-55214286D02*
X149920057Y-55261905D01*
X149920057Y-55261905D02*
X149872438Y-55309524D01*
X149872438Y-55309524D02*
X149824819Y-55404762D01*
X150824819Y-56738095D02*
X150348628Y-56404762D01*
X150824819Y-56166667D02*
X149824819Y-56166667D01*
X149824819Y-56166667D02*
X149824819Y-56547619D01*
X149824819Y-56547619D02*
X149872438Y-56642857D01*
X149872438Y-56642857D02*
X149920057Y-56690476D01*
X149920057Y-56690476D02*
X150015295Y-56738095D01*
X150015295Y-56738095D02*
X150158152Y-56738095D01*
X150158152Y-56738095D02*
X150253390Y-56690476D01*
X150253390Y-56690476D02*
X150301009Y-56642857D01*
X150301009Y-56642857D02*
X150348628Y-56547619D01*
X150348628Y-56547619D02*
X150348628Y-56166667D01*
X148454819Y-54833333D02*
X147978628Y-54500000D01*
X148454819Y-54261905D02*
X147454819Y-54261905D01*
X147454819Y-54261905D02*
X147454819Y-54642857D01*
X147454819Y-54642857D02*
X147502438Y-54738095D01*
X147502438Y-54738095D02*
X147550057Y-54785714D01*
X147550057Y-54785714D02*
X147645295Y-54833333D01*
X147645295Y-54833333D02*
X147788152Y-54833333D01*
X147788152Y-54833333D02*
X147883390Y-54785714D01*
X147883390Y-54785714D02*
X147931009Y-54738095D01*
X147931009Y-54738095D02*
X147978628Y-54642857D01*
X147978628Y-54642857D02*
X147978628Y-54261905D01*
X148454819Y-55785714D02*
X148454819Y-55214286D01*
X148454819Y-55500000D02*
X147454819Y-55500000D01*
X147454819Y-55500000D02*
X147597676Y-55404762D01*
X147597676Y-55404762D02*
X147692914Y-55309524D01*
X147692914Y-55309524D02*
X147740533Y-55214286D01*
X127334285Y-61309104D02*
X126858095Y-61309104D01*
X127429523Y-61594819D02*
X127096190Y-60594819D01*
X127096190Y-60594819D02*
X126762857Y-61594819D01*
X125905714Y-61594819D02*
X126477142Y-61594819D01*
X126191428Y-61594819D02*
X126191428Y-60594819D01*
X126191428Y-60594819D02*
X126286666Y-60737676D01*
X126286666Y-60737676D02*
X126381904Y-60832914D01*
X126381904Y-60832914D02*
X126477142Y-60880533D01*
X113109580Y-68833333D02*
X113157200Y-68785714D01*
X113157200Y-68785714D02*
X113204819Y-68642857D01*
X113204819Y-68642857D02*
X113204819Y-68547619D01*
X113204819Y-68547619D02*
X113157200Y-68404762D01*
X113157200Y-68404762D02*
X113061961Y-68309524D01*
X113061961Y-68309524D02*
X112966723Y-68261905D01*
X112966723Y-68261905D02*
X112776247Y-68214286D01*
X112776247Y-68214286D02*
X112633390Y-68214286D01*
X112633390Y-68214286D02*
X112442914Y-68261905D01*
X112442914Y-68261905D02*
X112347676Y-68309524D01*
X112347676Y-68309524D02*
X112252438Y-68404762D01*
X112252438Y-68404762D02*
X112204819Y-68547619D01*
X112204819Y-68547619D02*
X112204819Y-68642857D01*
X112204819Y-68642857D02*
X112252438Y-68785714D01*
X112252438Y-68785714D02*
X112300057Y-68833333D01*
X113204819Y-69785714D02*
X113204819Y-69214286D01*
X113204819Y-69500000D02*
X112204819Y-69500000D01*
X112204819Y-69500000D02*
X112347676Y-69404762D01*
X112347676Y-69404762D02*
X112442914Y-69309524D01*
X112442914Y-69309524D02*
X112490533Y-69214286D01*
X114454819Y-67119047D02*
X114454819Y-66547619D01*
X114454819Y-66833333D02*
X113454819Y-66833333D01*
X113454819Y-66833333D02*
X113597676Y-66738095D01*
X113597676Y-66738095D02*
X113692914Y-66642857D01*
X113692914Y-66642857D02*
X113740533Y-66547619D01*
X113454819Y-67738095D02*
X113454819Y-67833333D01*
X113454819Y-67833333D02*
X113502438Y-67928571D01*
X113502438Y-67928571D02*
X113550057Y-67976190D01*
X113550057Y-67976190D02*
X113645295Y-68023809D01*
X113645295Y-68023809D02*
X113835771Y-68071428D01*
X113835771Y-68071428D02*
X114073866Y-68071428D01*
X114073866Y-68071428D02*
X114264342Y-68023809D01*
X114264342Y-68023809D02*
X114359580Y-67976190D01*
X114359580Y-67976190D02*
X114407200Y-67928571D01*
X114407200Y-67928571D02*
X114454819Y-67833333D01*
X114454819Y-67833333D02*
X114454819Y-67738095D01*
X114454819Y-67738095D02*
X114407200Y-67642857D01*
X114407200Y-67642857D02*
X114359580Y-67595238D01*
X114359580Y-67595238D02*
X114264342Y-67547619D01*
X114264342Y-67547619D02*
X114073866Y-67500000D01*
X114073866Y-67500000D02*
X113835771Y-67500000D01*
X113835771Y-67500000D02*
X113645295Y-67547619D01*
X113645295Y-67547619D02*
X113550057Y-67595238D01*
X113550057Y-67595238D02*
X113502438Y-67642857D01*
X113502438Y-67642857D02*
X113454819Y-67738095D01*
X113454819Y-68690476D02*
X113454819Y-68785714D01*
X113454819Y-68785714D02*
X113502438Y-68880952D01*
X113502438Y-68880952D02*
X113550057Y-68928571D01*
X113550057Y-68928571D02*
X113645295Y-68976190D01*
X113645295Y-68976190D02*
X113835771Y-69023809D01*
X113835771Y-69023809D02*
X114073866Y-69023809D01*
X114073866Y-69023809D02*
X114264342Y-68976190D01*
X114264342Y-68976190D02*
X114359580Y-68928571D01*
X114359580Y-68928571D02*
X114407200Y-68880952D01*
X114407200Y-68880952D02*
X114454819Y-68785714D01*
X114454819Y-68785714D02*
X114454819Y-68690476D01*
X114454819Y-68690476D02*
X114407200Y-68595238D01*
X114407200Y-68595238D02*
X114359580Y-68547619D01*
X114359580Y-68547619D02*
X114264342Y-68500000D01*
X114264342Y-68500000D02*
X114073866Y-68452381D01*
X114073866Y-68452381D02*
X113835771Y-68452381D01*
X113835771Y-68452381D02*
X113645295Y-68500000D01*
X113645295Y-68500000D02*
X113550057Y-68547619D01*
X113550057Y-68547619D02*
X113502438Y-68595238D01*
X113502438Y-68595238D02*
X113454819Y-68690476D01*
X113454819Y-69642857D02*
X113454819Y-69738095D01*
X113454819Y-69738095D02*
X113502438Y-69833333D01*
X113502438Y-69833333D02*
X113550057Y-69880952D01*
X113550057Y-69880952D02*
X113645295Y-69928571D01*
X113645295Y-69928571D02*
X113835771Y-69976190D01*
X113835771Y-69976190D02*
X114073866Y-69976190D01*
X114073866Y-69976190D02*
X114264342Y-69928571D01*
X114264342Y-69928571D02*
X114359580Y-69880952D01*
X114359580Y-69880952D02*
X114407200Y-69833333D01*
X114407200Y-69833333D02*
X114454819Y-69738095D01*
X114454819Y-69738095D02*
X114454819Y-69642857D01*
X114454819Y-69642857D02*
X114407200Y-69547619D01*
X114407200Y-69547619D02*
X114359580Y-69500000D01*
X114359580Y-69500000D02*
X114264342Y-69452381D01*
X114264342Y-69452381D02*
X114073866Y-69404762D01*
X114073866Y-69404762D02*
X113835771Y-69404762D01*
X113835771Y-69404762D02*
X113645295Y-69452381D01*
X113645295Y-69452381D02*
X113550057Y-69500000D01*
X113550057Y-69500000D02*
X113502438Y-69547619D01*
X113502438Y-69547619D02*
X113454819Y-69642857D01*
X113788152Y-70833333D02*
X114454819Y-70833333D01*
X113788152Y-70404762D02*
X114311961Y-70404762D01*
X114311961Y-70404762D02*
X114407200Y-70452381D01*
X114407200Y-70452381D02*
X114454819Y-70547619D01*
X114454819Y-70547619D02*
X114454819Y-70690476D01*
X114454819Y-70690476D02*
X114407200Y-70785714D01*
X114407200Y-70785714D02*
X114359580Y-70833333D01*
X113788152Y-71166667D02*
X113788152Y-71547619D01*
X114454819Y-71309524D02*
X113597676Y-71309524D01*
X113597676Y-71309524D02*
X113502438Y-71357143D01*
X113502438Y-71357143D02*
X113454819Y-71452381D01*
X113454819Y-71452381D02*
X113454819Y-71547619D01*
D12*
X144457419Y-88666666D02*
X145171704Y-88666666D01*
X145171704Y-88666666D02*
X145314561Y-88619047D01*
X145314561Y-88619047D02*
X145409800Y-88523809D01*
X145409800Y-88523809D02*
X145457419Y-88380952D01*
X145457419Y-88380952D02*
X145457419Y-88285714D01*
X145457419Y-89190476D02*
X145457419Y-89380952D01*
X145457419Y-89380952D02*
X145409800Y-89476190D01*
X145409800Y-89476190D02*
X145362180Y-89523809D01*
X145362180Y-89523809D02*
X145219323Y-89619047D01*
X145219323Y-89619047D02*
X145028847Y-89666666D01*
X145028847Y-89666666D02*
X144647895Y-89666666D01*
X144647895Y-89666666D02*
X144552657Y-89619047D01*
X144552657Y-89619047D02*
X144505038Y-89571428D01*
X144505038Y-89571428D02*
X144457419Y-89476190D01*
X144457419Y-89476190D02*
X144457419Y-89285714D01*
X144457419Y-89285714D02*
X144505038Y-89190476D01*
X144505038Y-89190476D02*
X144552657Y-89142857D01*
X144552657Y-89142857D02*
X144647895Y-89095238D01*
X144647895Y-89095238D02*
X144885990Y-89095238D01*
X144885990Y-89095238D02*
X144981228Y-89142857D01*
X144981228Y-89142857D02*
X145028847Y-89190476D01*
X145028847Y-89190476D02*
X145076466Y-89285714D01*
X145076466Y-89285714D02*
X145076466Y-89476190D01*
X145076466Y-89476190D02*
X145028847Y-89571428D01*
X145028847Y-89571428D02*
X144981228Y-89619047D01*
X144981228Y-89619047D02*
X144885990Y-89666666D01*
D11*
X154068990Y-94040000D02*
X154068990Y-94373333D01*
X153545180Y-94373333D02*
X154545180Y-94373333D01*
X154545180Y-94373333D02*
X154545180Y-93897143D01*
X153545180Y-93373333D02*
X153592800Y-93468571D01*
X153592800Y-93468571D02*
X153640419Y-93516190D01*
X153640419Y-93516190D02*
X153735657Y-93563809D01*
X153735657Y-93563809D02*
X154021371Y-93563809D01*
X154021371Y-93563809D02*
X154116609Y-93516190D01*
X154116609Y-93516190D02*
X154164228Y-93468571D01*
X154164228Y-93468571D02*
X154211847Y-93373333D01*
X154211847Y-93373333D02*
X154211847Y-93230476D01*
X154211847Y-93230476D02*
X154164228Y-93135238D01*
X154164228Y-93135238D02*
X154116609Y-93087619D01*
X154116609Y-93087619D02*
X154021371Y-93040000D01*
X154021371Y-93040000D02*
X153735657Y-93040000D01*
X153735657Y-93040000D02*
X153640419Y-93087619D01*
X153640419Y-93087619D02*
X153592800Y-93135238D01*
X153592800Y-93135238D02*
X153545180Y-93230476D01*
X153545180Y-93230476D02*
X153545180Y-93373333D01*
X153545180Y-92468571D02*
X153592800Y-92563809D01*
X153592800Y-92563809D02*
X153640419Y-92611428D01*
X153640419Y-92611428D02*
X153735657Y-92659047D01*
X153735657Y-92659047D02*
X154021371Y-92659047D01*
X154021371Y-92659047D02*
X154116609Y-92611428D01*
X154116609Y-92611428D02*
X154164228Y-92563809D01*
X154164228Y-92563809D02*
X154211847Y-92468571D01*
X154211847Y-92468571D02*
X154211847Y-92325714D01*
X154211847Y-92325714D02*
X154164228Y-92230476D01*
X154164228Y-92230476D02*
X154116609Y-92182857D01*
X154116609Y-92182857D02*
X154021371Y-92135238D01*
X154021371Y-92135238D02*
X153735657Y-92135238D01*
X153735657Y-92135238D02*
X153640419Y-92182857D01*
X153640419Y-92182857D02*
X153592800Y-92230476D01*
X153592800Y-92230476D02*
X153545180Y-92325714D01*
X153545180Y-92325714D02*
X153545180Y-92468571D01*
X154211847Y-91849523D02*
X154211847Y-91468571D01*
X154545180Y-91706666D02*
X153688038Y-91706666D01*
X153688038Y-91706666D02*
X153592800Y-91659047D01*
X153592800Y-91659047D02*
X153545180Y-91563809D01*
X153545180Y-91563809D02*
X153545180Y-91468571D01*
X153592800Y-91182856D02*
X153545180Y-91087618D01*
X153545180Y-91087618D02*
X153545180Y-90897142D01*
X153545180Y-90897142D02*
X153592800Y-90801904D01*
X153592800Y-90801904D02*
X153688038Y-90754285D01*
X153688038Y-90754285D02*
X153735657Y-90754285D01*
X153735657Y-90754285D02*
X153830895Y-90801904D01*
X153830895Y-90801904D02*
X153878514Y-90897142D01*
X153878514Y-90897142D02*
X153878514Y-91039999D01*
X153878514Y-91039999D02*
X153926133Y-91135237D01*
X153926133Y-91135237D02*
X154021371Y-91182856D01*
X154021371Y-91182856D02*
X154068990Y-91182856D01*
X154068990Y-91182856D02*
X154164228Y-91135237D01*
X154164228Y-91135237D02*
X154211847Y-91039999D01*
X154211847Y-91039999D02*
X154211847Y-90897142D01*
X154211847Y-90897142D02*
X154164228Y-90801904D01*
X154211847Y-90420951D02*
X153545180Y-90230475D01*
X153545180Y-90230475D02*
X154021371Y-90039999D01*
X154021371Y-90039999D02*
X153545180Y-89849523D01*
X153545180Y-89849523D02*
X154211847Y-89659047D01*
X153545180Y-89278094D02*
X154211847Y-89278094D01*
X154545180Y-89278094D02*
X154497561Y-89325713D01*
X154497561Y-89325713D02*
X154449942Y-89278094D01*
X154449942Y-89278094D02*
X154497561Y-89230475D01*
X154497561Y-89230475D02*
X154545180Y-89278094D01*
X154545180Y-89278094D02*
X154449942Y-89278094D01*
X154211847Y-88944761D02*
X154211847Y-88563809D01*
X154545180Y-88801904D02*
X153688038Y-88801904D01*
X153688038Y-88801904D02*
X153592800Y-88754285D01*
X153592800Y-88754285D02*
X153545180Y-88659047D01*
X153545180Y-88659047D02*
X153545180Y-88563809D01*
X153592800Y-87801904D02*
X153545180Y-87897142D01*
X153545180Y-87897142D02*
X153545180Y-88087618D01*
X153545180Y-88087618D02*
X153592800Y-88182856D01*
X153592800Y-88182856D02*
X153640419Y-88230475D01*
X153640419Y-88230475D02*
X153735657Y-88278094D01*
X153735657Y-88278094D02*
X154021371Y-88278094D01*
X154021371Y-88278094D02*
X154116609Y-88230475D01*
X154116609Y-88230475D02*
X154164228Y-88182856D01*
X154164228Y-88182856D02*
X154211847Y-88087618D01*
X154211847Y-88087618D02*
X154211847Y-87897142D01*
X154211847Y-87897142D02*
X154164228Y-87801904D01*
X153545180Y-87373332D02*
X154545180Y-87373332D01*
X153545180Y-86944761D02*
X154068990Y-86944761D01*
X154068990Y-86944761D02*
X154164228Y-86992380D01*
X154164228Y-86992380D02*
X154211847Y-87087618D01*
X154211847Y-87087618D02*
X154211847Y-87230475D01*
X154211847Y-87230475D02*
X154164228Y-87325713D01*
X154164228Y-87325713D02*
X154116609Y-87373332D01*
X153545180Y-86468570D02*
X154545180Y-86468570D01*
X154545180Y-86468570D02*
X153830895Y-86135237D01*
X153830895Y-86135237D02*
X154545180Y-85801904D01*
X154545180Y-85801904D02*
X153545180Y-85801904D01*
X153545180Y-85182856D02*
X153592800Y-85278094D01*
X153592800Y-85278094D02*
X153640419Y-85325713D01*
X153640419Y-85325713D02*
X153735657Y-85373332D01*
X153735657Y-85373332D02*
X154021371Y-85373332D01*
X154021371Y-85373332D02*
X154116609Y-85325713D01*
X154116609Y-85325713D02*
X154164228Y-85278094D01*
X154164228Y-85278094D02*
X154211847Y-85182856D01*
X154211847Y-85182856D02*
X154211847Y-85039999D01*
X154211847Y-85039999D02*
X154164228Y-84944761D01*
X154164228Y-84944761D02*
X154116609Y-84897142D01*
X154116609Y-84897142D02*
X154021371Y-84849523D01*
X154021371Y-84849523D02*
X153735657Y-84849523D01*
X153735657Y-84849523D02*
X153640419Y-84897142D01*
X153640419Y-84897142D02*
X153592800Y-84944761D01*
X153592800Y-84944761D02*
X153545180Y-85039999D01*
X153545180Y-85039999D02*
X153545180Y-85182856D01*
X153545180Y-84278094D02*
X153592800Y-84373332D01*
X153592800Y-84373332D02*
X153688038Y-84420951D01*
X153688038Y-84420951D02*
X154545180Y-84420951D01*
X153592800Y-83516189D02*
X153545180Y-83611427D01*
X153545180Y-83611427D02*
X153545180Y-83801903D01*
X153545180Y-83801903D02*
X153592800Y-83897141D01*
X153592800Y-83897141D02*
X153688038Y-83944760D01*
X153688038Y-83944760D02*
X154068990Y-83944760D01*
X154068990Y-83944760D02*
X154164228Y-83897141D01*
X154164228Y-83897141D02*
X154211847Y-83801903D01*
X154211847Y-83801903D02*
X154211847Y-83611427D01*
X154211847Y-83611427D02*
X154164228Y-83516189D01*
X154164228Y-83516189D02*
X154068990Y-83468570D01*
X154068990Y-83468570D02*
X153973752Y-83468570D01*
X153973752Y-83468570D02*
X153878514Y-83944760D01*
X153545180Y-83135236D02*
X154211847Y-82611427D01*
X154211847Y-83135236D02*
X153545180Y-82611427D01*
X162063333Y-60574819D02*
X162063333Y-61289104D01*
X162063333Y-61289104D02*
X162110952Y-61431961D01*
X162110952Y-61431961D02*
X162206190Y-61527200D01*
X162206190Y-61527200D02*
X162349047Y-61574819D01*
X162349047Y-61574819D02*
X162444285Y-61574819D01*
X161063333Y-61574819D02*
X161634761Y-61574819D01*
X161349047Y-61574819D02*
X161349047Y-60574819D01*
X161349047Y-60574819D02*
X161444285Y-60717676D01*
X161444285Y-60717676D02*
X161539523Y-60812914D01*
X161539523Y-60812914D02*
X161634761Y-60860533D01*
X165468096Y-52851009D02*
X165325239Y-52898628D01*
X165325239Y-52898628D02*
X165277620Y-52946247D01*
X165277620Y-52946247D02*
X165230001Y-53041485D01*
X165230001Y-53041485D02*
X165230001Y-53184342D01*
X165230001Y-53184342D02*
X165277620Y-53279580D01*
X165277620Y-53279580D02*
X165325239Y-53327200D01*
X165325239Y-53327200D02*
X165420477Y-53374819D01*
X165420477Y-53374819D02*
X165801429Y-53374819D01*
X165801429Y-53374819D02*
X165801429Y-52374819D01*
X165801429Y-52374819D02*
X165468096Y-52374819D01*
X165468096Y-52374819D02*
X165372858Y-52422438D01*
X165372858Y-52422438D02*
X165325239Y-52470057D01*
X165325239Y-52470057D02*
X165277620Y-52565295D01*
X165277620Y-52565295D02*
X165277620Y-52660533D01*
X165277620Y-52660533D02*
X165325239Y-52755771D01*
X165325239Y-52755771D02*
X165372858Y-52803390D01*
X165372858Y-52803390D02*
X165468096Y-52851009D01*
X165468096Y-52851009D02*
X165801429Y-52851009D01*
X164372858Y-53374819D02*
X164372858Y-52851009D01*
X164372858Y-52851009D02*
X164420477Y-52755771D01*
X164420477Y-52755771D02*
X164515715Y-52708152D01*
X164515715Y-52708152D02*
X164706191Y-52708152D01*
X164706191Y-52708152D02*
X164801429Y-52755771D01*
X164372858Y-53327200D02*
X164468096Y-53374819D01*
X164468096Y-53374819D02*
X164706191Y-53374819D01*
X164706191Y-53374819D02*
X164801429Y-53327200D01*
X164801429Y-53327200D02*
X164849048Y-53231961D01*
X164849048Y-53231961D02*
X164849048Y-53136723D01*
X164849048Y-53136723D02*
X164801429Y-53041485D01*
X164801429Y-53041485D02*
X164706191Y-52993866D01*
X164706191Y-52993866D02*
X164468096Y-52993866D01*
X164468096Y-52993866D02*
X164372858Y-52946247D01*
X163896667Y-53374819D02*
X163896667Y-52708152D01*
X163896667Y-52898628D02*
X163849048Y-52803390D01*
X163849048Y-52803390D02*
X163801429Y-52755771D01*
X163801429Y-52755771D02*
X163706191Y-52708152D01*
X163706191Y-52708152D02*
X163610953Y-52708152D01*
X163277619Y-53374819D02*
X163277619Y-52708152D01*
X163277619Y-52898628D02*
X163230000Y-52803390D01*
X163230000Y-52803390D02*
X163182381Y-52755771D01*
X163182381Y-52755771D02*
X163087143Y-52708152D01*
X163087143Y-52708152D02*
X162991905Y-52708152D01*
X162277619Y-53327200D02*
X162372857Y-53374819D01*
X162372857Y-53374819D02*
X162563333Y-53374819D01*
X162563333Y-53374819D02*
X162658571Y-53327200D01*
X162658571Y-53327200D02*
X162706190Y-53231961D01*
X162706190Y-53231961D02*
X162706190Y-52851009D01*
X162706190Y-52851009D02*
X162658571Y-52755771D01*
X162658571Y-52755771D02*
X162563333Y-52708152D01*
X162563333Y-52708152D02*
X162372857Y-52708152D01*
X162372857Y-52708152D02*
X162277619Y-52755771D01*
X162277619Y-52755771D02*
X162230000Y-52851009D01*
X162230000Y-52851009D02*
X162230000Y-52946247D01*
X162230000Y-52946247D02*
X162706190Y-53041485D01*
X161658571Y-53374819D02*
X161753809Y-53327200D01*
X161753809Y-53327200D02*
X161801428Y-53231961D01*
X161801428Y-53231961D02*
X161801428Y-52374819D01*
X161515714Y-53470057D02*
X160753809Y-53470057D01*
X160229999Y-52374819D02*
X160229999Y-53089104D01*
X160229999Y-53089104D02*
X160277618Y-53231961D01*
X160277618Y-53231961D02*
X160372856Y-53327200D01*
X160372856Y-53327200D02*
X160515713Y-53374819D01*
X160515713Y-53374819D02*
X160610951Y-53374819D01*
X159325237Y-53374819D02*
X159325237Y-52851009D01*
X159325237Y-52851009D02*
X159372856Y-52755771D01*
X159372856Y-52755771D02*
X159468094Y-52708152D01*
X159468094Y-52708152D02*
X159658570Y-52708152D01*
X159658570Y-52708152D02*
X159753808Y-52755771D01*
X159325237Y-53327200D02*
X159420475Y-53374819D01*
X159420475Y-53374819D02*
X159658570Y-53374819D01*
X159658570Y-53374819D02*
X159753808Y-53327200D01*
X159753808Y-53327200D02*
X159801427Y-53231961D01*
X159801427Y-53231961D02*
X159801427Y-53136723D01*
X159801427Y-53136723D02*
X159753808Y-53041485D01*
X159753808Y-53041485D02*
X159658570Y-52993866D01*
X159658570Y-52993866D02*
X159420475Y-52993866D01*
X159420475Y-52993866D02*
X159325237Y-52946247D01*
X158420475Y-53327200D02*
X158515713Y-53374819D01*
X158515713Y-53374819D02*
X158706189Y-53374819D01*
X158706189Y-53374819D02*
X158801427Y-53327200D01*
X158801427Y-53327200D02*
X158849046Y-53279580D01*
X158849046Y-53279580D02*
X158896665Y-53184342D01*
X158896665Y-53184342D02*
X158896665Y-52898628D01*
X158896665Y-52898628D02*
X158849046Y-52803390D01*
X158849046Y-52803390D02*
X158801427Y-52755771D01*
X158801427Y-52755771D02*
X158706189Y-52708152D01*
X158706189Y-52708152D02*
X158515713Y-52708152D01*
X158515713Y-52708152D02*
X158420475Y-52755771D01*
X157991903Y-53374819D02*
X157991903Y-52374819D01*
X157896665Y-52993866D02*
X157610951Y-53374819D01*
X157610951Y-52708152D02*
X157991903Y-53089104D01*
X142454819Y-54071905D02*
X141454819Y-54071905D01*
X141454819Y-54071905D02*
X141454819Y-54310000D01*
X141454819Y-54310000D02*
X141502438Y-54452857D01*
X141502438Y-54452857D02*
X141597676Y-54548095D01*
X141597676Y-54548095D02*
X141692914Y-54595714D01*
X141692914Y-54595714D02*
X141883390Y-54643333D01*
X141883390Y-54643333D02*
X142026247Y-54643333D01*
X142026247Y-54643333D02*
X142216723Y-54595714D01*
X142216723Y-54595714D02*
X142311961Y-54548095D01*
X142311961Y-54548095D02*
X142407200Y-54452857D01*
X142407200Y-54452857D02*
X142454819Y-54310000D01*
X142454819Y-54310000D02*
X142454819Y-54071905D01*
X142454819Y-55595714D02*
X142454819Y-55024286D01*
X142454819Y-55310000D02*
X141454819Y-55310000D01*
X141454819Y-55310000D02*
X141597676Y-55214762D01*
X141597676Y-55214762D02*
X141692914Y-55119524D01*
X141692914Y-55119524D02*
X141740533Y-55024286D01*
D12*
X145666666Y-135542580D02*
X145666666Y-134828295D01*
X145666666Y-134828295D02*
X145619047Y-134685438D01*
X145619047Y-134685438D02*
X145523809Y-134590200D01*
X145523809Y-134590200D02*
X145380952Y-134542580D01*
X145380952Y-134542580D02*
X145285714Y-134542580D01*
X146285714Y-135114009D02*
X146190476Y-135161628D01*
X146190476Y-135161628D02*
X146142857Y-135209247D01*
X146142857Y-135209247D02*
X146095238Y-135304485D01*
X146095238Y-135304485D02*
X146095238Y-135352104D01*
X146095238Y-135352104D02*
X146142857Y-135447342D01*
X146142857Y-135447342D02*
X146190476Y-135494961D01*
X146190476Y-135494961D02*
X146285714Y-135542580D01*
X146285714Y-135542580D02*
X146476190Y-135542580D01*
X146476190Y-135542580D02*
X146571428Y-135494961D01*
X146571428Y-135494961D02*
X146619047Y-135447342D01*
X146619047Y-135447342D02*
X146666666Y-135352104D01*
X146666666Y-135352104D02*
X146666666Y-135304485D01*
X146666666Y-135304485D02*
X146619047Y-135209247D01*
X146619047Y-135209247D02*
X146571428Y-135161628D01*
X146571428Y-135161628D02*
X146476190Y-135114009D01*
X146476190Y-135114009D02*
X146285714Y-135114009D01*
X146285714Y-135114009D02*
X146190476Y-135066390D01*
X146190476Y-135066390D02*
X146142857Y-135018771D01*
X146142857Y-135018771D02*
X146095238Y-134923533D01*
X146095238Y-134923533D02*
X146095238Y-134733057D01*
X146095238Y-134733057D02*
X146142857Y-134637819D01*
X146142857Y-134637819D02*
X146190476Y-134590200D01*
X146190476Y-134590200D02*
X146285714Y-134542580D01*
X146285714Y-134542580D02*
X146476190Y-134542580D01*
X146476190Y-134542580D02*
X146571428Y-134590200D01*
X146571428Y-134590200D02*
X146619047Y-134637819D01*
X146619047Y-134637819D02*
X146666666Y-134733057D01*
X146666666Y-134733057D02*
X146666666Y-134923533D01*
X146666666Y-134923533D02*
X146619047Y-135018771D01*
X146619047Y-135018771D02*
X146571428Y-135066390D01*
X146571428Y-135066390D02*
X146476190Y-135114009D01*
D11*
X151833333Y-123169104D02*
X151357143Y-123169104D01*
X151928571Y-123454819D02*
X151595238Y-122454819D01*
X151595238Y-122454819D02*
X151261905Y-123454819D01*
X150500000Y-122788152D02*
X150500000Y-123454819D01*
X150928571Y-122788152D02*
X150928571Y-123311961D01*
X150928571Y-123311961D02*
X150880952Y-123407200D01*
X150880952Y-123407200D02*
X150785714Y-123454819D01*
X150785714Y-123454819D02*
X150642857Y-123454819D01*
X150642857Y-123454819D02*
X150547619Y-123407200D01*
X150547619Y-123407200D02*
X150500000Y-123359580D01*
X149595238Y-123454819D02*
X149595238Y-122454819D01*
X149595238Y-123407200D02*
X149690476Y-123454819D01*
X149690476Y-123454819D02*
X149880952Y-123454819D01*
X149880952Y-123454819D02*
X149976190Y-123407200D01*
X149976190Y-123407200D02*
X150023809Y-123359580D01*
X150023809Y-123359580D02*
X150071428Y-123264342D01*
X150071428Y-123264342D02*
X150071428Y-122978628D01*
X150071428Y-122978628D02*
X150023809Y-122883390D01*
X150023809Y-122883390D02*
X149976190Y-122835771D01*
X149976190Y-122835771D02*
X149880952Y-122788152D01*
X149880952Y-122788152D02*
X149690476Y-122788152D01*
X149690476Y-122788152D02*
X149595238Y-122835771D01*
X149119047Y-123454819D02*
X149119047Y-122788152D01*
X149119047Y-122454819D02*
X149166666Y-122502438D01*
X149166666Y-122502438D02*
X149119047Y-122550057D01*
X149119047Y-122550057D02*
X149071428Y-122502438D01*
X149071428Y-122502438D02*
X149119047Y-122454819D01*
X149119047Y-122454819D02*
X149119047Y-122550057D01*
X148500000Y-123454819D02*
X148595238Y-123407200D01*
X148595238Y-123407200D02*
X148642857Y-123359580D01*
X148642857Y-123359580D02*
X148690476Y-123264342D01*
X148690476Y-123264342D02*
X148690476Y-122978628D01*
X148690476Y-122978628D02*
X148642857Y-122883390D01*
X148642857Y-122883390D02*
X148595238Y-122835771D01*
X148595238Y-122835771D02*
X148500000Y-122788152D01*
X148500000Y-122788152D02*
X148357143Y-122788152D01*
X148357143Y-122788152D02*
X148261905Y-122835771D01*
X148261905Y-122835771D02*
X148214286Y-122883390D01*
X148214286Y-122883390D02*
X148166667Y-122978628D01*
X148166667Y-122978628D02*
X148166667Y-123264342D01*
X148166667Y-123264342D02*
X148214286Y-123359580D01*
X148214286Y-123359580D02*
X148261905Y-123407200D01*
X148261905Y-123407200D02*
X148357143Y-123454819D01*
X148357143Y-123454819D02*
X148500000Y-123454819D01*
X147738095Y-123454819D02*
X147738095Y-122454819D01*
X147261905Y-122788152D02*
X147261905Y-123454819D01*
X147261905Y-122883390D02*
X147214286Y-122835771D01*
X147214286Y-122835771D02*
X147119048Y-122788152D01*
X147119048Y-122788152D02*
X146976191Y-122788152D01*
X146976191Y-122788152D02*
X146880953Y-122835771D01*
X146880953Y-122835771D02*
X146833334Y-122931009D01*
X146833334Y-122931009D02*
X146833334Y-123454819D01*
X146357143Y-122788152D02*
X146357143Y-123788152D01*
X146357143Y-122835771D02*
X146261905Y-122788152D01*
X146261905Y-122788152D02*
X146071429Y-122788152D01*
X146071429Y-122788152D02*
X145976191Y-122835771D01*
X145976191Y-122835771D02*
X145928572Y-122883390D01*
X145928572Y-122883390D02*
X145880953Y-122978628D01*
X145880953Y-122978628D02*
X145880953Y-123264342D01*
X145880953Y-123264342D02*
X145928572Y-123359580D01*
X145928572Y-123359580D02*
X145976191Y-123407200D01*
X145976191Y-123407200D02*
X146071429Y-123454819D01*
X146071429Y-123454819D02*
X146261905Y-123454819D01*
X146261905Y-123454819D02*
X146357143Y-123407200D01*
X145023810Y-122788152D02*
X145023810Y-123454819D01*
X145452381Y-122788152D02*
X145452381Y-123311961D01*
X145452381Y-123311961D02*
X145404762Y-123407200D01*
X145404762Y-123407200D02*
X145309524Y-123454819D01*
X145309524Y-123454819D02*
X145166667Y-123454819D01*
X145166667Y-123454819D02*
X145071429Y-123407200D01*
X145071429Y-123407200D02*
X145023810Y-123359580D01*
X144690476Y-122788152D02*
X144309524Y-122788152D01*
X144547619Y-122454819D02*
X144547619Y-123311961D01*
X144547619Y-123311961D02*
X144500000Y-123407200D01*
X144500000Y-123407200D02*
X144404762Y-123454819D01*
X144404762Y-123454819D02*
X144309524Y-123454819D01*
X143976190Y-123454819D02*
X143976190Y-122454819D01*
X143976190Y-122454819D02*
X143642857Y-123169104D01*
X143642857Y-123169104D02*
X143309524Y-122454819D01*
X143309524Y-122454819D02*
X143309524Y-123454819D01*
X142690476Y-123454819D02*
X142785714Y-123407200D01*
X142785714Y-123407200D02*
X142833333Y-123359580D01*
X142833333Y-123359580D02*
X142880952Y-123264342D01*
X142880952Y-123264342D02*
X142880952Y-122978628D01*
X142880952Y-122978628D02*
X142833333Y-122883390D01*
X142833333Y-122883390D02*
X142785714Y-122835771D01*
X142785714Y-122835771D02*
X142690476Y-122788152D01*
X142690476Y-122788152D02*
X142547619Y-122788152D01*
X142547619Y-122788152D02*
X142452381Y-122835771D01*
X142452381Y-122835771D02*
X142404762Y-122883390D01*
X142404762Y-122883390D02*
X142357143Y-122978628D01*
X142357143Y-122978628D02*
X142357143Y-123264342D01*
X142357143Y-123264342D02*
X142404762Y-123359580D01*
X142404762Y-123359580D02*
X142452381Y-123407200D01*
X142452381Y-123407200D02*
X142547619Y-123454819D01*
X142547619Y-123454819D02*
X142690476Y-123454819D01*
X141785714Y-123454819D02*
X141880952Y-123407200D01*
X141880952Y-123407200D02*
X141928571Y-123311961D01*
X141928571Y-123311961D02*
X141928571Y-122454819D01*
X141023809Y-123407200D02*
X141119047Y-123454819D01*
X141119047Y-123454819D02*
X141309523Y-123454819D01*
X141309523Y-123454819D02*
X141404761Y-123407200D01*
X141404761Y-123407200D02*
X141452380Y-123311961D01*
X141452380Y-123311961D02*
X141452380Y-122931009D01*
X141452380Y-122931009D02*
X141404761Y-122835771D01*
X141404761Y-122835771D02*
X141309523Y-122788152D01*
X141309523Y-122788152D02*
X141119047Y-122788152D01*
X141119047Y-122788152D02*
X141023809Y-122835771D01*
X141023809Y-122835771D02*
X140976190Y-122931009D01*
X140976190Y-122931009D02*
X140976190Y-123026247D01*
X140976190Y-123026247D02*
X141452380Y-123121485D01*
X140642856Y-123454819D02*
X140119047Y-122788152D01*
X140642856Y-122788152D02*
X140119047Y-123454819D01*
D13*
%TO.C,GameTrak1*%
X107950000Y-114405000D02*
X107980000Y-101585000D01*
X105320000Y-101585000D02*
X107980000Y-101585000D01*
X114760000Y-101885000D02*
X114760000Y-114105000D01*
X112350000Y-101885000D02*
X112350000Y-102285000D01*
X110890000Y-101885000D02*
X114760000Y-101885000D01*
X114360000Y-102285000D02*
X113150000Y-102285000D01*
X113150000Y-102285000D02*
X113150000Y-102685000D01*
X112750000Y-102285000D02*
X110890000Y-102285000D01*
X113150000Y-102685000D02*
X112750000Y-102685000D01*
X112750000Y-102685000D02*
X112750000Y-102285000D01*
X114360000Y-107995000D02*
X114360000Y-102285000D01*
X114360000Y-107995000D02*
X114360000Y-113705000D01*
X115060000Y-112105000D02*
X115060000Y-114405000D01*
X113150000Y-113305000D02*
X112750000Y-113305000D01*
X112750000Y-113305000D02*
X112750000Y-113705000D01*
X114360000Y-113705000D02*
X113150000Y-113705000D01*
X113150000Y-113705000D02*
X113150000Y-113305000D01*
X112750000Y-113705000D02*
X110890000Y-113705000D01*
X114760000Y-114105000D02*
X110890000Y-114105000D01*
X112350000Y-114105000D02*
X112350000Y-113705000D01*
X110890000Y-114105000D02*
X110890000Y-101885000D01*
X115060000Y-114405000D02*
X112760000Y-114405000D01*
X105320000Y-114405000D02*
X105320000Y-101585000D01*
X105320000Y-114405000D02*
X107950000Y-114405000D01*
%TO.C,*%
X99750000Y-44000000D02*
X100250000Y-44000000D01*
X100000000Y-44250000D02*
X100000000Y-43750000D01*
%TO.C,C2*%
X107380000Y-60630000D02*
X107380000Y-60967000D01*
X107380000Y-63033000D02*
X107380000Y-63370000D01*
X107380000Y-63370000D02*
X112620000Y-63370000D01*
X112620000Y-60630000D02*
X107380000Y-60630000D01*
X112620000Y-60967000D02*
X112620000Y-60630000D01*
X112620000Y-63370000D02*
X112620000Y-63033000D01*
%TO.C,J10*%
X117250000Y-130000000D02*
X117250000Y-126000000D01*
X117540000Y-125010000D02*
X133000000Y-125010000D01*
X117540000Y-131030000D02*
X117540000Y-125010000D01*
X118120000Y-130430000D02*
X119720000Y-130430000D01*
X118120000Y-131030000D02*
X118120000Y-130430000D01*
X118920000Y-125010000D02*
X118920000Y-126010000D01*
X118920000Y-126010000D02*
X119170000Y-126540000D01*
X118920000Y-126010000D02*
X131620000Y-126010000D01*
X119170000Y-125010000D02*
X119170000Y-126010000D01*
X119170000Y-126540000D02*
X131370000Y-126540000D01*
X119720000Y-130430000D02*
X119720000Y-131030000D01*
X120660000Y-130430000D02*
X122260000Y-130430000D01*
X120660000Y-131030000D02*
X120660000Y-130430000D01*
X122260000Y-130430000D02*
X122260000Y-131030000D01*
X123200000Y-130430000D02*
X124800000Y-130430000D01*
X123200000Y-131030000D02*
X123200000Y-130430000D01*
X124800000Y-130430000D02*
X124800000Y-131030000D01*
X125740000Y-130430000D02*
X127340000Y-130430000D01*
X125740000Y-131030000D02*
X125740000Y-130430000D01*
X127340000Y-130430000D02*
X127340000Y-131030000D01*
X128280000Y-130430000D02*
X129880000Y-130430000D01*
X128280000Y-131030000D02*
X128280000Y-130430000D01*
X129880000Y-130430000D02*
X129880000Y-131030000D01*
X130820000Y-130430000D02*
X132420000Y-130430000D01*
X130820000Y-131030000D02*
X130820000Y-130430000D01*
X131370000Y-125010000D02*
X131370000Y-126010000D01*
X131370000Y-126540000D02*
X131620000Y-126010000D01*
X131620000Y-126010000D02*
X131620000Y-125010000D01*
X132420000Y-130430000D02*
X132420000Y-131030000D01*
X133000000Y-125010000D02*
X133000000Y-131030000D01*
X133000000Y-131030000D02*
X117540000Y-131030000D01*
%TO.C,R1*%
X146630000Y-51730000D02*
X146630000Y-58270000D01*
X146630000Y-58270000D02*
X146960000Y-58270000D01*
X146960000Y-51730000D02*
X146630000Y-51730000D01*
X149040000Y-51730000D02*
X149370000Y-51730000D01*
X149370000Y-51730000D02*
X149370000Y-58270000D01*
X149370000Y-58270000D02*
X149040000Y-58270000D01*
%TO.C,A1*%
X117720000Y-63340000D02*
X117720000Y-114340000D01*
X117720000Y-114340000D02*
X135520000Y-114340000D01*
X120240000Y-63340000D02*
X120240000Y-114340000D01*
X122620000Y-62140000D02*
X122620000Y-63340000D01*
X130620000Y-62140000D02*
X122620000Y-62140000D01*
X130620000Y-63340000D02*
X130620000Y-62140000D01*
X133040000Y-63340000D02*
X133040000Y-114340000D01*
X133520000Y-63040000D02*
X135820000Y-63040000D01*
X135520000Y-63340000D02*
X117720000Y-63340000D01*
X135520000Y-114340000D02*
X135520000Y-63340000D01*
X135820000Y-63040000D02*
X135820000Y-65440000D01*
%TO.C,C1*%
X107960000Y-67000000D02*
X107348000Y-67000000D01*
X107960000Y-67040000D02*
X107301000Y-67040000D01*
X107960000Y-67080000D02*
X107257000Y-67080000D01*
X107960000Y-67120000D02*
X107215000Y-67120000D01*
X107960000Y-67160000D02*
X107175000Y-67160000D01*
X107960000Y-67200000D02*
X107136000Y-67200000D01*
X107960000Y-67240000D02*
X107099000Y-67240000D01*
X107960000Y-67280000D02*
X107064000Y-67280000D01*
X107960000Y-67320000D02*
X107030000Y-67320000D01*
X107960000Y-67360000D02*
X106997000Y-67360000D01*
X107960000Y-67400000D02*
X106965000Y-67400000D01*
X107960000Y-67440000D02*
X106935000Y-67440000D01*
X107960000Y-67480000D02*
X106906000Y-67480000D01*
X107960000Y-67520000D02*
X106878000Y-67520000D01*
X107960000Y-67560000D02*
X106851000Y-67560000D01*
X107960000Y-67600000D02*
X106825000Y-67600000D01*
X107960000Y-67640000D02*
X106801000Y-67640000D01*
X107960000Y-67680000D02*
X106777000Y-67680000D01*
X107960000Y-67720000D02*
X106754000Y-67720000D01*
X107960000Y-67760000D02*
X106732000Y-67760000D01*
X107960000Y-67800000D02*
X106711000Y-67800000D01*
X107960000Y-67840000D02*
X106691000Y-67840000D01*
X107960000Y-67880000D02*
X106671000Y-67880000D01*
X107960000Y-67920000D02*
X106653000Y-67920000D01*
X107960000Y-67960000D02*
X106635000Y-67960000D01*
X107960000Y-68000000D02*
X106618000Y-68000000D01*
X107960000Y-68040000D02*
X106602000Y-68040000D01*
X107960000Y-68080000D02*
X106587000Y-68080000D01*
X107960000Y-68120000D02*
X106572000Y-68120000D01*
X107960000Y-68160000D02*
X106558000Y-68160000D01*
X107960000Y-68200000D02*
X106545000Y-68200000D01*
X107960000Y-68240000D02*
X106533000Y-68240000D01*
X107960000Y-68280000D02*
X106521000Y-68280000D01*
X107960000Y-68320000D02*
X106510000Y-68320000D01*
X107960000Y-68360000D02*
X106499000Y-68360000D01*
X107960000Y-68400000D02*
X106490000Y-68400000D01*
X107960000Y-68440000D02*
X106481000Y-68440000D01*
X107960000Y-68480000D02*
X106472000Y-68480000D01*
X107960000Y-68520000D02*
X106464000Y-68520000D01*
X107960000Y-68560000D02*
X106457000Y-68560000D01*
X107960000Y-68600000D02*
X106451000Y-68600000D01*
X107960000Y-68640000D02*
X106445000Y-68640000D01*
X107960000Y-68680000D02*
X106440000Y-68680000D01*
X107960000Y-68720000D02*
X106435000Y-68720000D01*
X107960000Y-68760000D02*
X106431000Y-68760000D01*
X107960000Y-68800000D02*
X106428000Y-68800000D01*
X107960000Y-68840000D02*
X106425000Y-68840000D01*
X107960000Y-68880000D02*
X106423000Y-68880000D01*
X107960000Y-68920000D02*
X106421000Y-68920000D01*
X107960000Y-68960000D02*
X106420000Y-68960000D01*
X107960000Y-69000000D02*
X106420000Y-69000000D01*
X109283000Y-66400000D02*
X108717000Y-66400000D01*
X109517000Y-66440000D02*
X108483000Y-66440000D01*
X109677000Y-66480000D02*
X108323000Y-66480000D01*
X109805000Y-66520000D02*
X108195000Y-66520000D01*
X109914000Y-66560000D02*
X108086000Y-66560000D01*
X110011000Y-66600000D02*
X107989000Y-66600000D01*
X110098000Y-66640000D02*
X107902000Y-66640000D01*
X110177000Y-66680000D02*
X107823000Y-66680000D01*
X110251000Y-66720000D02*
X107749000Y-66720000D01*
X110319000Y-66760000D02*
X107681000Y-66760000D01*
X110383000Y-66800000D02*
X107617000Y-66800000D01*
X110443000Y-66840000D02*
X107557000Y-66840000D01*
X110475000Y-71804775D02*
X110475000Y-71304775D01*
X110499000Y-66880000D02*
X107501000Y-66880000D01*
X110553000Y-66920000D02*
X107447000Y-66920000D01*
X110604000Y-66960000D02*
X107396000Y-66960000D01*
X110652000Y-67000000D02*
X110040000Y-67000000D01*
X110699000Y-67040000D02*
X110040000Y-67040000D01*
X110725000Y-71554775D02*
X110225000Y-71554775D01*
X110743000Y-67080000D02*
X110040000Y-67080000D01*
X110785000Y-67120000D02*
X110040000Y-67120000D01*
X110825000Y-67160000D02*
X110040000Y-67160000D01*
X110864000Y-67200000D02*
X110040000Y-67200000D01*
X110901000Y-67240000D02*
X110040000Y-67240000D01*
X110936000Y-67280000D02*
X110040000Y-67280000D01*
X110970000Y-67320000D02*
X110040000Y-67320000D01*
X111003000Y-67360000D02*
X110040000Y-67360000D01*
X111035000Y-67400000D02*
X110040000Y-67400000D01*
X111065000Y-67440000D02*
X110040000Y-67440000D01*
X111094000Y-67480000D02*
X110040000Y-67480000D01*
X111122000Y-67520000D02*
X110040000Y-67520000D01*
X111149000Y-67560000D02*
X110040000Y-67560000D01*
X111175000Y-67600000D02*
X110040000Y-67600000D01*
X111199000Y-67640000D02*
X110040000Y-67640000D01*
X111223000Y-67680000D02*
X110040000Y-67680000D01*
X111246000Y-67720000D02*
X110040000Y-67720000D01*
X111268000Y-67760000D02*
X110040000Y-67760000D01*
X111289000Y-67800000D02*
X110040000Y-67800000D01*
X111309000Y-67840000D02*
X110040000Y-67840000D01*
X111329000Y-67880000D02*
X110040000Y-67880000D01*
X111347000Y-67920000D02*
X110040000Y-67920000D01*
X111365000Y-67960000D02*
X110040000Y-67960000D01*
X111382000Y-68000000D02*
X110040000Y-68000000D01*
X111398000Y-68040000D02*
X110040000Y-68040000D01*
X111413000Y-68080000D02*
X110040000Y-68080000D01*
X111428000Y-68120000D02*
X110040000Y-68120000D01*
X111442000Y-68160000D02*
X110040000Y-68160000D01*
X111455000Y-68200000D02*
X110040000Y-68200000D01*
X111467000Y-68240000D02*
X110040000Y-68240000D01*
X111479000Y-68280000D02*
X110040000Y-68280000D01*
X111490000Y-68320000D02*
X110040000Y-68320000D01*
X111501000Y-68360000D02*
X110040000Y-68360000D01*
X111510000Y-68400000D02*
X110040000Y-68400000D01*
X111519000Y-68440000D02*
X110040000Y-68440000D01*
X111528000Y-68480000D02*
X110040000Y-68480000D01*
X111536000Y-68520000D02*
X110040000Y-68520000D01*
X111543000Y-68560000D02*
X110040000Y-68560000D01*
X111549000Y-68600000D02*
X110040000Y-68600000D01*
X111555000Y-68640000D02*
X110040000Y-68640000D01*
X111560000Y-68680000D02*
X110040000Y-68680000D01*
X111565000Y-68720000D02*
X110040000Y-68720000D01*
X111569000Y-68760000D02*
X110040000Y-68760000D01*
X111572000Y-68800000D02*
X110040000Y-68800000D01*
X111575000Y-68840000D02*
X110040000Y-68840000D01*
X111577000Y-68880000D02*
X110040000Y-68880000D01*
X111579000Y-68920000D02*
X110040000Y-68920000D01*
X111580000Y-68960000D02*
X110040000Y-68960000D01*
X111580000Y-69000000D02*
X110040000Y-69000000D01*
X111620000Y-69000000D02*
G75*
G02*
X106380000Y-69000000I-2620000J0D01*
G01*
X106380000Y-69000000D02*
G75*
G02*
X111620000Y-69000000I2620000J0D01*
G01*
%TO.C,J9*%
X145970000Y-80620000D02*
X151990000Y-80620000D01*
X145970000Y-81200000D02*
X146570000Y-81200000D01*
X145970000Y-83740000D02*
X146570000Y-83740000D01*
X145970000Y-86280000D02*
X146570000Y-86280000D01*
X145970000Y-88820000D02*
X146570000Y-88820000D01*
X145970000Y-91360000D02*
X146570000Y-91360000D01*
X145970000Y-93900000D02*
X146570000Y-93900000D01*
X145970000Y-96080000D02*
X145970000Y-80620000D01*
X146570000Y-81200000D02*
X146570000Y-82800000D01*
X146570000Y-82800000D02*
X145970000Y-82800000D01*
X146570000Y-83740000D02*
X146570000Y-85340000D01*
X146570000Y-85340000D02*
X145970000Y-85340000D01*
X146570000Y-86280000D02*
X146570000Y-87880000D01*
X146570000Y-87880000D02*
X145970000Y-87880000D01*
X146570000Y-88820000D02*
X146570000Y-90420000D01*
X146570000Y-90420000D02*
X145970000Y-90420000D01*
X146570000Y-91360000D02*
X146570000Y-92960000D01*
X146570000Y-92960000D02*
X145970000Y-92960000D01*
X146570000Y-93900000D02*
X146570000Y-95500000D01*
X146570000Y-95500000D02*
X145970000Y-95500000D01*
X147000000Y-80330000D02*
X151000000Y-80330000D01*
X150460000Y-82250000D02*
X150460000Y-94450000D01*
X150460000Y-94450000D02*
X150990000Y-94700000D01*
X150990000Y-82000000D02*
X150460000Y-82250000D01*
X150990000Y-82000000D02*
X150990000Y-94700000D01*
X150990000Y-94700000D02*
X151990000Y-94700000D01*
X151990000Y-80620000D02*
X151990000Y-96080000D01*
X151990000Y-82000000D02*
X150990000Y-82000000D01*
X151990000Y-82250000D02*
X150990000Y-82250000D01*
X151990000Y-94450000D02*
X150990000Y-94450000D01*
X151990000Y-96080000D02*
X145970000Y-96080000D01*
%TO.C,J1*%
X158790000Y-59000000D02*
X158790000Y-55000000D01*
X159080000Y-54010000D02*
X164380000Y-54010000D01*
X159080000Y-60030000D02*
X159080000Y-54010000D01*
X159660000Y-59430000D02*
X161260000Y-59430000D01*
X159660000Y-60030000D02*
X159660000Y-59430000D01*
X160460000Y-54010000D02*
X160460000Y-55010000D01*
X160460000Y-55010000D02*
X160710000Y-55540000D01*
X160460000Y-55010000D02*
X163000000Y-55010000D01*
X160710000Y-54010000D02*
X160710000Y-55010000D01*
X160710000Y-55540000D02*
X162750000Y-55540000D01*
X161260000Y-59430000D02*
X161260000Y-60030000D01*
X162200000Y-59430000D02*
X163800000Y-59430000D01*
X162200000Y-60030000D02*
X162200000Y-59430000D01*
X162750000Y-54010000D02*
X162750000Y-55010000D01*
X162750000Y-55540000D02*
X163000000Y-55010000D01*
X163000000Y-55010000D02*
X163000000Y-54010000D01*
X163800000Y-59430000D02*
X163800000Y-60030000D01*
X164380000Y-54010000D02*
X164380000Y-60030000D01*
X164380000Y-60030000D02*
X159080000Y-60030000D01*
%TO.C,D1*%
X137630000Y-51730000D02*
X137960000Y-51730000D01*
X137630000Y-58270000D02*
X137630000Y-51730000D01*
X137960000Y-58270000D02*
X137630000Y-58270000D01*
X140040000Y-58270000D02*
X140370000Y-58270000D01*
X140370000Y-51730000D02*
X140040000Y-51730000D01*
X140370000Y-58270000D02*
X140370000Y-51730000D01*
%TO.C,J8*%
X138630000Y-130000000D02*
X138630000Y-126000000D01*
X138920000Y-125010000D02*
X154380000Y-125010000D01*
X138920000Y-131030000D02*
X138920000Y-125010000D01*
X139500000Y-130430000D02*
X141100000Y-130430000D01*
X139500000Y-131030000D02*
X139500000Y-130430000D01*
X140300000Y-125010000D02*
X140300000Y-126010000D01*
X140300000Y-126010000D02*
X140550000Y-126540000D01*
X140300000Y-126010000D02*
X153000000Y-126010000D01*
X140550000Y-125010000D02*
X140550000Y-126010000D01*
X140550000Y-126540000D02*
X152750000Y-126540000D01*
X141100000Y-130430000D02*
X141100000Y-131030000D01*
X142040000Y-130430000D02*
X143640000Y-130430000D01*
X142040000Y-131030000D02*
X142040000Y-130430000D01*
X143640000Y-130430000D02*
X143640000Y-131030000D01*
X144580000Y-130430000D02*
X146180000Y-130430000D01*
X144580000Y-131030000D02*
X144580000Y-130430000D01*
X146180000Y-130430000D02*
X146180000Y-131030000D01*
X147120000Y-130430000D02*
X148720000Y-130430000D01*
X147120000Y-131030000D02*
X147120000Y-130430000D01*
X148720000Y-130430000D02*
X148720000Y-131030000D01*
X149660000Y-130430000D02*
X151260000Y-130430000D01*
X149660000Y-131030000D02*
X149660000Y-130430000D01*
X151260000Y-130430000D02*
X151260000Y-131030000D01*
X152200000Y-130430000D02*
X153800000Y-130430000D01*
X152200000Y-131030000D02*
X152200000Y-130430000D01*
X152750000Y-125010000D02*
X152750000Y-126010000D01*
X152750000Y-126540000D02*
X153000000Y-126010000D01*
X153000000Y-126010000D02*
X153000000Y-125010000D01*
X153800000Y-130430000D02*
X153800000Y-131030000D01*
X154380000Y-125010000D02*
X154380000Y-131030000D01*
X154380000Y-131030000D02*
X138920000Y-131030000D01*
%TD*%
%LPC*%
D14*
%TO.C,LED1*%
X154540000Y-45000000D03*
D15*
X152000000Y-45000000D03*
%TD*%
D16*
%TO.C,SW2*%
X162000000Y-42460000D03*
X162000000Y-45000000D03*
D17*
X162000000Y-47540000D03*
%TD*%
D18*
%TO.C,GameTrak1*%
X106650000Y-113075000D03*
D19*
X113150000Y-111995000D03*
D20*
X106650000Y-110535000D03*
D21*
X113150000Y-109995000D03*
D20*
X106650000Y-107995000D03*
D21*
X113150000Y-107995000D03*
X113150000Y-105995000D03*
D20*
X106650000Y-105455000D03*
D21*
X113150000Y-103995000D03*
D20*
X106650000Y-102915000D03*
%TD*%
D22*
%TO.C,BT4*%
X141750000Y-102000000D03*
D23*
X154250000Y-102000000D03*
X141750000Y-107000000D03*
X154250000Y-107000000D03*
%TD*%
D24*
%TO.C,BT1*%
X106750000Y-48750000D03*
X113250000Y-48750000D03*
X106750000Y-53250000D03*
X113250000Y-53250000D03*
%TD*%
D22*
%TO.C,BT2*%
X141750000Y-69500000D03*
D23*
X154250000Y-69500000D03*
X141750000Y-74500000D03*
X154250000Y-74500000D03*
%TD*%
D17*
%TO.C,SW3*%
X113000000Y-127540000D03*
D16*
X113000000Y-125000000D03*
X113000000Y-122460000D03*
%TD*%
D17*
%TO.C,SW1*%
X113000000Y-90540000D03*
D16*
X113000000Y-88000000D03*
X113000000Y-85460000D03*
%TD*%
D24*
%TO.C,BT3*%
X126750000Y-48750000D03*
X133250000Y-48750000D03*
X126750000Y-53250000D03*
X133250000Y-53250000D03*
%TD*%
D25*
%TO.C,C2*%
X107500000Y-62000000D03*
X112500000Y-62000000D03*
%TD*%
D26*
%TO.C,J10*%
X118920000Y-128000000D03*
D27*
X126540000Y-128000000D03*
X121460000Y-128000000D03*
X129080000Y-128000000D03*
X124000000Y-128000000D03*
X131620000Y-128000000D03*
%TD*%
D25*
%TO.C,R1*%
X148000000Y-51190000D03*
X148000000Y-58810000D03*
%TD*%
D18*
%TO.C,A1*%
X134240000Y-64740000D03*
D28*
X134240000Y-67280000D03*
X134240000Y-69820000D03*
X134240000Y-72360000D03*
X134240000Y-74900000D03*
X134240000Y-77440000D03*
X134240000Y-79980000D03*
X134240000Y-82520000D03*
X134240000Y-85060000D03*
X134240000Y-87600000D03*
X134240000Y-90140000D03*
X134240000Y-92680000D03*
X134240000Y-95220000D03*
X134240000Y-97760000D03*
X134240000Y-100300000D03*
X134240000Y-102840000D03*
X134240000Y-105380000D03*
X134240000Y-107920000D03*
X134240000Y-110460000D03*
X134240000Y-113000000D03*
X119000000Y-113000000D03*
X119000000Y-110460000D03*
X119000000Y-107920000D03*
X119000000Y-105380000D03*
X119000000Y-102840000D03*
X119000000Y-100300000D03*
X119000000Y-97760000D03*
X119000000Y-95220000D03*
X119000000Y-92680000D03*
X119000000Y-90140000D03*
X119000000Y-87600000D03*
X119000000Y-85060000D03*
X119000000Y-82520000D03*
X119000000Y-79980000D03*
X119000000Y-77440000D03*
X119000000Y-74900000D03*
X119000000Y-72360000D03*
X119000000Y-69820000D03*
X119000000Y-67280000D03*
X119000000Y-64740000D03*
%TD*%
D29*
%TO.C,C1*%
X109000000Y-70000000D03*
D25*
X109000000Y-68000000D03*
%TD*%
D30*
%TO.C,J9*%
X149000000Y-82000000D03*
D31*
X149000000Y-89620000D03*
X149000000Y-84540000D03*
X149000000Y-92160000D03*
X149000000Y-87080000D03*
X149000000Y-94700000D03*
%TD*%
D26*
%TO.C,J1*%
X160460000Y-57000000D03*
D27*
X163000000Y-57000000D03*
%TD*%
D25*
%TO.C,D1*%
X139000000Y-58810000D03*
X139000000Y-51190000D03*
%TD*%
D26*
%TO.C,J8*%
X140300000Y-128000000D03*
D27*
X147920000Y-128000000D03*
X142840000Y-128000000D03*
X150460000Y-128000000D03*
X145380000Y-128000000D03*
X153000000Y-128000000D03*
%TD*%
%LPD*%
M02*
