%TF.GenerationSoftware,KiCad,Pcbnew,9.0.6*%
%TF.CreationDate,2026-01-05T15:37:48+01:00*%
%TF.ProjectId,STR500_v1.1,53545235-3030-45f7-9631-2e312e6b6963,rev?*%
%TF.SameCoordinates,Original*%
%TF.FileFunction,Copper,L3,Inr*%
%TF.FilePolarity,Positive*%
%FSLAX46Y46*%
G04 Gerber Fmt 4.6, Leading zero omitted, Abs format (unit mm)*
G04 Created by KiCad (PCBNEW 9.0.6) date 2026-01-05 15:37:48*
%MOMM*%
%LPD*%
G01*
G04 APERTURE LIST*
G04 Aperture macros list*
%AMRoundRect*
0 Rectangle with rounded corners*
0 $1 Rounding radius*
0 $2 $3 $4 $5 $6 $7 $8 $9 X,Y pos of 4 corners*
0 Add a 4 corners polygon primitive as box body*
4,1,4,$2,$3,$4,$5,$6,$7,$8,$9,$2,$3,0*
0 Add four circle primitives for the rounded corners*
1,1,$1+$1,$2,$3*
1,1,$1+$1,$4,$5*
1,1,$1+$1,$6,$7*
1,1,$1+$1,$8,$9*
0 Add four rect primitives between the rounded corners*
20,1,$1+$1,$2,$3,$4,$5,0*
20,1,$1+$1,$4,$5,$6,$7,0*
20,1,$1+$1,$6,$7,$8,$9,0*
20,1,$1+$1,$8,$9,$2,$3,0*%
G04 Aperture macros list end*
%TA.AperFunction,ComponentPad*%
%ADD10C,1.800000*%
%TD*%
%TA.AperFunction,ComponentPad*%
%ADD11R,1.800000X1.800000*%
%TD*%
%TA.AperFunction,ComponentPad*%
%ADD12C,1.635000*%
%TD*%
%TA.AperFunction,ComponentPad*%
%ADD13R,1.635000X1.635000*%
%TD*%
%TA.AperFunction,ComponentPad*%
%ADD14R,1.700000X1.700000*%
%TD*%
%TA.AperFunction,ComponentPad*%
%ADD15RoundRect,0.250000X0.650000X-0.350000X0.650000X0.350000X-0.650000X0.350000X-0.650000X-0.350000X0*%
%TD*%
%TA.AperFunction,ComponentPad*%
%ADD16O,1.700000X1.700000*%
%TD*%
%TA.AperFunction,ComponentPad*%
%ADD17O,1.800000X1.200000*%
%TD*%
%TA.AperFunction,ComponentPad*%
%ADD18R,1.950000X1.950000*%
%TD*%
%TA.AperFunction,ComponentPad*%
%ADD19C,1.950000*%
%TD*%
%TA.AperFunction,ComponentPad*%
%ADD20C,2.000000*%
%TD*%
%TA.AperFunction,ComponentPad*%
%ADD21C,1.600000*%
%TD*%
%TA.AperFunction,ComponentPad*%
%ADD22RoundRect,0.250000X-0.620000X-0.845000X0.620000X-0.845000X0.620000X0.845000X-0.620000X0.845000X0*%
%TD*%
%TA.AperFunction,ComponentPad*%
%ADD23O,1.740000X2.190000*%
%TD*%
%TA.AperFunction,ComponentPad*%
%ADD24C,1.700000*%
%TD*%
%TA.AperFunction,ComponentPad*%
%ADD25RoundRect,0.250000X0.550000X-0.550000X0.550000X0.550000X-0.550000X0.550000X-0.550000X-0.550000X0*%
%TD*%
%TA.AperFunction,ComponentPad*%
%ADD26RoundRect,0.250000X-0.845000X0.620000X-0.845000X-0.620000X0.845000X-0.620000X0.845000X0.620000X0*%
%TD*%
%TA.AperFunction,ComponentPad*%
%ADD27O,2.190000X1.740000*%
%TD*%
G04 APERTURE END LIST*
D10*
%TO.N,Net-(LED1-A)*%
%TO.C,LED1*%
X154540000Y-45000000D03*
D11*
%TO.N,GND*%
X152000000Y-45000000D03*
%TD*%
D12*
%TO.N,N/C*%
%TO.C,SW2*%
X162000000Y-42460000D03*
%TO.N,Net-(D1-A)*%
X162000000Y-45000000D03*
D13*
%TO.N,Net-(SW2-A)*%
X162000000Y-47540000D03*
%TD*%
D14*
%TO.N,GND*%
%TO.C,GameTrak1*%
X106650000Y-113075000D03*
D15*
X113150000Y-111995000D03*
D16*
%TO.N,/Pot0*%
X106650000Y-110535000D03*
D17*
X113150000Y-109995000D03*
D16*
%TO.N,/Pot1*%
X106650000Y-107995000D03*
D17*
X113150000Y-107995000D03*
%TO.N,/Pot2*%
X113150000Y-105995000D03*
D16*
X106650000Y-105455000D03*
D17*
%TO.N,+3.3V*%
X113150000Y-103995000D03*
D16*
X106650000Y-102915000D03*
%TD*%
D18*
%TO.N,GND*%
%TO.C,BT4*%
X141750000Y-102000000D03*
D19*
X154250000Y-102000000D03*
%TO.N,Net-(BT4-B)*%
X141750000Y-107000000D03*
X154250000Y-107000000D03*
%TD*%
D20*
%TO.N,GND*%
%TO.C,BT1*%
X106750000Y-48750000D03*
X113250000Y-48750000D03*
%TO.N,/BT1*%
X106750000Y-53250000D03*
X113250000Y-53250000D03*
%TD*%
D18*
%TO.N,GND*%
%TO.C,BT2*%
X141750000Y-69500000D03*
D19*
X154250000Y-69500000D03*
%TO.N,Net-(BT2-B)*%
X141750000Y-74500000D03*
X154250000Y-74500000D03*
%TD*%
D13*
%TO.N,GND*%
%TO.C,SW3*%
X113000000Y-127540000D03*
D12*
%TO.N,/Sw2*%
X113000000Y-125000000D03*
%TO.N,N/C*%
X113000000Y-122460000D03*
%TD*%
D13*
%TO.N,GND*%
%TO.C,SW1*%
X113000000Y-90540000D03*
D12*
%TO.N,/Sw1*%
X113000000Y-88000000D03*
%TO.N,N/C*%
X113000000Y-85460000D03*
%TD*%
D20*
%TO.N,GND*%
%TO.C,BT3*%
X126750000Y-48750000D03*
X133250000Y-48750000D03*
%TO.N,/BT2*%
X126750000Y-53250000D03*
X133250000Y-53250000D03*
%TD*%
D21*
%TO.N,+5V*%
%TO.C,C2*%
X107500000Y-62000000D03*
%TO.N,GND*%
X112500000Y-62000000D03*
%TD*%
D22*
%TO.N,GND*%
%TO.C,J10*%
X118920000Y-128000000D03*
D23*
X126540000Y-128000000D03*
%TO.N,/outL*%
X121460000Y-128000000D03*
%TO.N,/outR*%
X129080000Y-128000000D03*
%TO.N,unconnected-(J10-PadTN1)*%
X124000000Y-128000000D03*
%TO.N,/outL*%
X131620000Y-128000000D03*
%TD*%
D21*
%TO.N,Net-(LED1-A)*%
%TO.C,R1*%
X148000000Y-51190000D03*
%TO.N,/LED*%
X148000000Y-58810000D03*
%TD*%
D14*
%TO.N,unconnected-(A1-USB_ID-Pad1)*%
%TO.C,A1*%
X134240000Y-64740000D03*
D24*
%TO.N,/Sw1*%
X134240000Y-67280000D03*
%TO.N,/Sw2*%
X134240000Y-69820000D03*
%TO.N,/BT1*%
X134240000Y-72360000D03*
%TO.N,/BT2*%
X134240000Y-74900000D03*
%TO.N,/BT3*%
X134240000Y-77440000D03*
%TO.N,/BT4*%
X134240000Y-79980000D03*
%TO.N,unconnected-(A1-SPI1_CS-Pad8)*%
X134240000Y-82520000D03*
%TO.N,unconnected-(A1-SPI1_SCK-Pad9)*%
X134240000Y-85060000D03*
%TO.N,unconnected-(A1-SPI1_POCI-Pad10)*%
X134240000Y-87600000D03*
%TO.N,unconnected-(A1-SPI1_PICO-Pad11)*%
X134240000Y-90140000D03*
%TO.N,/LED*%
X134240000Y-92680000D03*
%TO.N,unconnected-(A1-I2C1_SDA-Pad13)*%
X134240000Y-95220000D03*
%TO.N,unconnected-(A1-USART1_TX-Pad14)*%
X134240000Y-97760000D03*
%TO.N,unconnected-(A1-USART1_RX-Pad15)*%
X134240000Y-100300000D03*
%TO.N,/inL*%
X134240000Y-102840000D03*
%TO.N,/inR*%
X134240000Y-105380000D03*
%TO.N,/outL*%
X134240000Y-107920000D03*
%TO.N,/outR*%
X134240000Y-110460000D03*
%TO.N,GND*%
X134240000Y-113000000D03*
%TO.N,+3.3V*%
X119000000Y-113000000D03*
%TO.N,/Pot0*%
X119000000Y-110460000D03*
%TO.N,/Pot1*%
X119000000Y-107920000D03*
%TO.N,/Pot2*%
X119000000Y-105380000D03*
%TO.N,unconnected-(A1-ADC_3-Pad25)*%
X119000000Y-102840000D03*
%TO.N,unconnected-(A1-ADC_4-Pad26)*%
X119000000Y-100300000D03*
%TO.N,unconnected-(A1-ADC_5-Pad27)*%
X119000000Y-97760000D03*
%TO.N,unconnected-(A1-ADC_6-Pad28)*%
X119000000Y-95220000D03*
%TO.N,unconnected-(A1-DAC_OUT2-Pad29)*%
X119000000Y-92680000D03*
%TO.N,unconnected-(A1-DAC_OUT1-Pad30)*%
X119000000Y-90140000D03*
%TO.N,unconnected-(A1-SAI2_MCLK-Pad31)*%
X119000000Y-87600000D03*
%TO.N,unconnected-(A1-SAI2_SD_B-Pad32)*%
X119000000Y-85060000D03*
%TO.N,unconnected-(A1-SAI2_SD_A-Pad33)*%
X119000000Y-82520000D03*
%TO.N,unconnected-(A1-SAI2_FS-Pad34)*%
X119000000Y-79980000D03*
%TO.N,unconnected-(A1-SAI2_SCK-Pad35)*%
X119000000Y-77440000D03*
%TO.N,unconnected-(A1-USB_D_--Pad36)*%
X119000000Y-74900000D03*
%TO.N,unconnected-(A1-USB_D_+-Pad37)*%
X119000000Y-72360000D03*
%TO.N,unconnected-(A1-3V3_D-Pad38)*%
X119000000Y-69820000D03*
%TO.N,+5V*%
X119000000Y-67280000D03*
%TO.N,GND*%
X119000000Y-64740000D03*
%TD*%
D25*
%TO.N,+5V*%
%TO.C,C1*%
X109000000Y-70000000D03*
D21*
%TO.N,GND*%
X109000000Y-68000000D03*
%TD*%
D26*
%TO.N,GND*%
%TO.C,J9*%
X149000000Y-82000000D03*
D27*
X149000000Y-89620000D03*
%TO.N,/BT3*%
X149000000Y-84540000D03*
%TO.N,/BT4*%
X149000000Y-92160000D03*
%TO.N,Net-(BT2-B)*%
X149000000Y-87080000D03*
%TO.N,Net-(BT4-B)*%
X149000000Y-94700000D03*
%TD*%
D22*
%TO.N,Net-(SW2-A)*%
%TO.C,J1*%
X160460000Y-57000000D03*
D23*
%TO.N,GND*%
X163000000Y-57000000D03*
%TD*%
D21*
%TO.N,+5V*%
%TO.C,D1*%
X139000000Y-58810000D03*
%TO.N,Net-(D1-A)*%
X139000000Y-51190000D03*
%TD*%
D22*
%TO.N,GND*%
%TO.C,J8*%
X140300000Y-128000000D03*
D23*
X147920000Y-128000000D03*
%TO.N,/inL*%
X142840000Y-128000000D03*
%TO.N,/inR*%
X150460000Y-128000000D03*
%TO.N,unconnected-(J8-PadTN1)*%
X145380000Y-128000000D03*
%TO.N,/inL*%
X153000000Y-128000000D03*
%TD*%
%TA.AperFunction,Conductor*%
%TO.N,GND*%
G36*
X166442539Y-38520185D02*
G01*
X166488294Y-38572989D01*
X166499500Y-38624500D01*
X166499500Y-137375500D01*
X166479815Y-137442539D01*
X166427011Y-137488294D01*
X166375500Y-137499500D01*
X102624500Y-137499500D01*
X102557461Y-137479815D01*
X102511706Y-137427011D01*
X102500500Y-137375500D01*
X102500500Y-131868872D01*
X158999500Y-131868872D01*
X158999500Y-132131127D01*
X159020436Y-132290140D01*
X159033730Y-132391116D01*
X159055178Y-132471161D01*
X159101602Y-132644418D01*
X159101605Y-132644428D01*
X159201953Y-132886690D01*
X159201958Y-132886700D01*
X159333075Y-133113803D01*
X159492718Y-133321851D01*
X159492726Y-133321860D01*
X159678140Y-133507274D01*
X159678148Y-133507281D01*
X159886196Y-133666924D01*
X160113299Y-133798041D01*
X160113309Y-133798046D01*
X160355571Y-133898394D01*
X160355581Y-133898398D01*
X160608884Y-133966270D01*
X160868880Y-134000500D01*
X160868887Y-134000500D01*
X161131113Y-134000500D01*
X161131120Y-134000500D01*
X161391116Y-133966270D01*
X161644419Y-133898398D01*
X161886697Y-133798043D01*
X162113803Y-133666924D01*
X162321851Y-133507282D01*
X162321855Y-133507277D01*
X162321860Y-133507274D01*
X162507274Y-133321860D01*
X162507277Y-133321855D01*
X162507282Y-133321851D01*
X162666924Y-133113803D01*
X162798043Y-132886697D01*
X162898398Y-132644419D01*
X162966270Y-132391116D01*
X163000500Y-132131120D01*
X163000500Y-131868880D01*
X162966270Y-131608884D01*
X162898398Y-131355581D01*
X162800204Y-131118520D01*
X162798046Y-131113309D01*
X162798041Y-131113299D01*
X162666924Y-130886196D01*
X162507281Y-130678148D01*
X162507274Y-130678140D01*
X162321860Y-130492726D01*
X162321851Y-130492718D01*
X162113803Y-130333075D01*
X161886700Y-130201958D01*
X161886690Y-130201953D01*
X161644428Y-130101605D01*
X161644421Y-130101603D01*
X161644419Y-130101602D01*
X161391116Y-130033730D01*
X161333339Y-130026123D01*
X161131127Y-129999500D01*
X161131120Y-129999500D01*
X160868880Y-129999500D01*
X160868872Y-129999500D01*
X160637772Y-130029926D01*
X160608884Y-130033730D01*
X160355581Y-130101602D01*
X160355571Y-130101605D01*
X160113309Y-130201953D01*
X160113299Y-130201958D01*
X159886196Y-130333075D01*
X159678148Y-130492718D01*
X159492718Y-130678148D01*
X159333075Y-130886196D01*
X159201958Y-131113299D01*
X159201953Y-131113309D01*
X159101605Y-131355571D01*
X159101602Y-131355581D01*
X159033730Y-131608885D01*
X158999500Y-131868872D01*
X102500500Y-131868872D01*
X102500500Y-122356265D01*
X111682000Y-122356265D01*
X111682000Y-122563734D01*
X111714452Y-122768633D01*
X111778562Y-122965941D01*
X111872745Y-123150783D01*
X111994686Y-123318620D01*
X112141380Y-123465314D01*
X112267257Y-123556769D01*
X112309218Y-123587256D01*
X112372531Y-123619516D01*
X112423326Y-123667490D01*
X112440121Y-123735311D01*
X112417583Y-123801446D01*
X112372531Y-123840484D01*
X112309218Y-123872743D01*
X112191803Y-123958050D01*
X112141380Y-123994686D01*
X112141378Y-123994688D01*
X112141377Y-123994688D01*
X111994688Y-124141377D01*
X111994688Y-124141378D01*
X111994686Y-124141380D01*
X111942317Y-124213459D01*
X111872745Y-124309216D01*
X111778562Y-124494058D01*
X111714452Y-124691366D01*
X111682000Y-124896265D01*
X111682000Y-125103734D01*
X111714452Y-125308633D01*
X111778562Y-125505941D01*
X111872745Y-125690783D01*
X111994686Y-125858620D01*
X112141380Y-126005314D01*
X112141383Y-126005316D01*
X112145085Y-126008478D01*
X112144217Y-126009494D01*
X112183167Y-126060003D01*
X112189148Y-126129616D01*
X112156544Y-126191412D01*
X112095706Y-126225771D01*
X112080880Y-126228283D01*
X112075124Y-126228902D01*
X112075120Y-126228903D01*
X111940413Y-126279145D01*
X111940406Y-126279149D01*
X111825312Y-126365309D01*
X111825309Y-126365312D01*
X111739149Y-126480406D01*
X111739145Y-126480413D01*
X111688903Y-126615120D01*
X111688901Y-126615127D01*
X111682500Y-126674655D01*
X111682500Y-127290000D01*
X112515026Y-127290000D01*
X112492141Y-127329638D01*
X112455000Y-127468249D01*
X112455000Y-127611751D01*
X112492141Y-127750362D01*
X112515026Y-127790000D01*
X111682500Y-127790000D01*
X111682500Y-128405344D01*
X111688901Y-128464872D01*
X111688903Y-128464879D01*
X111739145Y-128599586D01*
X111739149Y-128599593D01*
X111825309Y-128714687D01*
X111825312Y-128714690D01*
X111940406Y-128800850D01*
X111940413Y-128800854D01*
X112075120Y-128851096D01*
X112075127Y-128851098D01*
X112134655Y-128857499D01*
X112134672Y-128857500D01*
X112750000Y-128857500D01*
X112750000Y-128024974D01*
X112789638Y-128047859D01*
X112928249Y-128085000D01*
X113071751Y-128085000D01*
X113210362Y-128047859D01*
X113250000Y-128024974D01*
X113250000Y-128857500D01*
X113865328Y-128857500D01*
X113865344Y-128857499D01*
X113924872Y-128851098D01*
X113924879Y-128851096D01*
X114059586Y-128800854D01*
X114059593Y-128800850D01*
X114174687Y-128714690D01*
X114174690Y-128714687D01*
X114260850Y-128599593D01*
X114260854Y-128599586D01*
X114311096Y-128464879D01*
X114311098Y-128464872D01*
X114317499Y-128405344D01*
X114317500Y-128405327D01*
X114317500Y-127790000D01*
X113484974Y-127790000D01*
X113507859Y-127750362D01*
X113545000Y-127611751D01*
X113545000Y-127468249D01*
X113507859Y-127329638D01*
X113484974Y-127290000D01*
X114317500Y-127290000D01*
X114317500Y-127105013D01*
X117550000Y-127105013D01*
X117550000Y-127750000D01*
X118377291Y-127750000D01*
X118365548Y-127770339D01*
X118325000Y-127921667D01*
X118325000Y-128078333D01*
X118365548Y-128229661D01*
X118377291Y-128250000D01*
X117550001Y-128250000D01*
X117550001Y-128894986D01*
X117560494Y-128997697D01*
X117615641Y-129164119D01*
X117615643Y-129164124D01*
X117707684Y-129313345D01*
X117831654Y-129437315D01*
X117980875Y-129529356D01*
X117980880Y-129529358D01*
X118147302Y-129584505D01*
X118147309Y-129584506D01*
X118250019Y-129594999D01*
X118669999Y-129594999D01*
X118670000Y-129594998D01*
X118670000Y-128542709D01*
X118690339Y-128554452D01*
X118841667Y-128595000D01*
X118998333Y-128595000D01*
X119149661Y-128554452D01*
X119170000Y-128542709D01*
X119170000Y-129594999D01*
X119589972Y-129594999D01*
X119589986Y-129594998D01*
X119692697Y-129584505D01*
X119859119Y-129529358D01*
X119859124Y-129529356D01*
X120008345Y-129437315D01*
X120132315Y-129313345D01*
X120224354Y-129164127D01*
X120224745Y-129163289D01*
X120225167Y-129162809D01*
X120228149Y-129157975D01*
X120228974Y-129158484D01*
X120270910Y-129110843D01*
X120338100Y-129091681D01*
X120404984Y-129111887D01*
X120424816Y-129127996D01*
X120567179Y-129270359D01*
X120741701Y-129397157D01*
X120933911Y-129495092D01*
X121139074Y-129561754D01*
X121206796Y-129572480D01*
X121352134Y-129595500D01*
X121352139Y-129595500D01*
X121567866Y-129595500D01*
X121686230Y-129576752D01*
X121780926Y-129561754D01*
X121986089Y-129495092D01*
X122178299Y-129397157D01*
X122352821Y-129270359D01*
X122505359Y-129117821D01*
X122629682Y-128946704D01*
X122685012Y-128904040D01*
X122754626Y-128898061D01*
X122816420Y-128930667D01*
X122830315Y-128946702D01*
X122954641Y-129117821D01*
X123107179Y-129270359D01*
X123281701Y-129397157D01*
X123473911Y-129495092D01*
X123679074Y-129561754D01*
X123746796Y-129572480D01*
X123892134Y-129595500D01*
X123892139Y-129595500D01*
X124107866Y-129595500D01*
X124226230Y-129576752D01*
X124320926Y-129561754D01*
X124526089Y-129495092D01*
X124718299Y-129397157D01*
X124892821Y-129270359D01*
X125045359Y-129117821D01*
X125169991Y-128946279D01*
X125225321Y-128903614D01*
X125294934Y-128897635D01*
X125356729Y-128930241D01*
X125370627Y-128946279D01*
X125495025Y-129117496D01*
X125495025Y-129117497D01*
X125647502Y-129269974D01*
X125821963Y-129396728D01*
X126014098Y-129494627D01*
X126219190Y-129561266D01*
X126290000Y-129572481D01*
X126290000Y-128542709D01*
X126310339Y-128554452D01*
X126461667Y-128595000D01*
X126618333Y-128595000D01*
X126769661Y-128554452D01*
X126790000Y-128542709D01*
X126790000Y-129572480D01*
X126860809Y-129561266D01*
X127065901Y-129494627D01*
X127258036Y-129396728D01*
X127432496Y-129269974D01*
X127432497Y-129269974D01*
X127584974Y-129117497D01*
X127584979Y-129117491D01*
X127709372Y-128946280D01*
X127764702Y-128903614D01*
X127834315Y-128897635D01*
X127896110Y-128930241D01*
X127910008Y-128946279D01*
X128034641Y-129117821D01*
X128187179Y-129270359D01*
X128361701Y-129397157D01*
X128553911Y-129495092D01*
X128759074Y-129561754D01*
X128826796Y-129572480D01*
X128972134Y-129595500D01*
X128972139Y-129595500D01*
X129187866Y-129595500D01*
X129306230Y-129576752D01*
X129400926Y-129561754D01*
X129606089Y-129495092D01*
X129798299Y-129397157D01*
X129972821Y-129270359D01*
X130125359Y-129117821D01*
X130249682Y-128946704D01*
X130305012Y-128904040D01*
X130374626Y-128898061D01*
X130436420Y-128930667D01*
X130450315Y-128946702D01*
X130574641Y-129117821D01*
X130727179Y-129270359D01*
X130901701Y-129397157D01*
X131093911Y-129495092D01*
X131299074Y-129561754D01*
X131366796Y-129572480D01*
X131512134Y-129595500D01*
X131512139Y-129595500D01*
X131727866Y-129595500D01*
X131846230Y-129576752D01*
X131940926Y-129561754D01*
X132146089Y-129495092D01*
X132338299Y-129397157D01*
X132512821Y-129270359D01*
X132665359Y-129117821D01*
X132792157Y-128943299D01*
X132890092Y-128751089D01*
X132956754Y-128545926D01*
X132979023Y-128405327D01*
X132990500Y-128332866D01*
X132990500Y-127667133D01*
X132956754Y-127454077D01*
X132956754Y-127454074D01*
X132890092Y-127248911D01*
X132816773Y-127105013D01*
X138930000Y-127105013D01*
X138930000Y-127750000D01*
X139757291Y-127750000D01*
X139745548Y-127770339D01*
X139705000Y-127921667D01*
X139705000Y-128078333D01*
X139745548Y-128229661D01*
X139757291Y-128250000D01*
X138930001Y-128250000D01*
X138930001Y-128894986D01*
X138940494Y-128997697D01*
X138995641Y-129164119D01*
X138995643Y-129164124D01*
X139087684Y-129313345D01*
X139211654Y-129437315D01*
X139360875Y-129529356D01*
X139360880Y-129529358D01*
X139527302Y-129584505D01*
X139527309Y-129584506D01*
X139630019Y-129594999D01*
X140049999Y-129594999D01*
X140050000Y-129594998D01*
X140050000Y-128542709D01*
X140070339Y-128554452D01*
X140221667Y-128595000D01*
X140378333Y-128595000D01*
X140529661Y-128554452D01*
X140550000Y-128542709D01*
X140550000Y-129594999D01*
X140969972Y-129594999D01*
X140969986Y-129594998D01*
X141072697Y-129584505D01*
X141239119Y-129529358D01*
X141239124Y-129529356D01*
X141388345Y-129437315D01*
X141512315Y-129313345D01*
X141604354Y-129164127D01*
X141604745Y-129163289D01*
X141605167Y-129162809D01*
X141608149Y-129157975D01*
X141608974Y-129158484D01*
X141650910Y-129110843D01*
X141718100Y-129091681D01*
X141784984Y-129111887D01*
X141804816Y-129127996D01*
X141947179Y-129270359D01*
X142121701Y-129397157D01*
X142313911Y-129495092D01*
X142519074Y-129561754D01*
X142586796Y-129572480D01*
X142732134Y-129595500D01*
X142732139Y-129595500D01*
X142947866Y-129595500D01*
X143066230Y-129576752D01*
X143160926Y-129561754D01*
X143366089Y-129495092D01*
X143558299Y-129397157D01*
X143732821Y-129270359D01*
X143885359Y-129117821D01*
X144009682Y-128946704D01*
X144065012Y-128904040D01*
X144134626Y-128898061D01*
X144196420Y-128930667D01*
X144210315Y-128946702D01*
X144334641Y-129117821D01*
X144487179Y-129270359D01*
X144661701Y-129397157D01*
X144853911Y-129495092D01*
X145059074Y-129561754D01*
X145126796Y-129572480D01*
X145272134Y-129595500D01*
X145272139Y-129595500D01*
X145487866Y-129595500D01*
X145606230Y-129576752D01*
X145700926Y-129561754D01*
X145906089Y-129495092D01*
X146098299Y-129397157D01*
X146272821Y-129270359D01*
X146425359Y-129117821D01*
X146549991Y-128946279D01*
X146605321Y-128903614D01*
X146674934Y-128897635D01*
X146736729Y-128930241D01*
X146750627Y-128946279D01*
X146875025Y-129117496D01*
X146875025Y-129117497D01*
X147027502Y-129269974D01*
X147201963Y-129396728D01*
X147394098Y-129494627D01*
X147599190Y-129561266D01*
X147670000Y-129572481D01*
X147670000Y-128542709D01*
X147690339Y-128554452D01*
X147841667Y-128595000D01*
X147998333Y-128595000D01*
X148149661Y-128554452D01*
X148170000Y-128542709D01*
X148170000Y-129572480D01*
X148240809Y-129561266D01*
X148445901Y-129494627D01*
X148638036Y-129396728D01*
X148812496Y-129269974D01*
X148812497Y-129269974D01*
X148964974Y-129117497D01*
X148964979Y-129117491D01*
X149089372Y-128946280D01*
X149144702Y-128903614D01*
X149214315Y-128897635D01*
X149276110Y-128930241D01*
X149290008Y-128946279D01*
X149414641Y-129117821D01*
X149567179Y-129270359D01*
X149741701Y-129397157D01*
X149933911Y-129495092D01*
X150139074Y-129561754D01*
X150206796Y-129572480D01*
X150352134Y-129595500D01*
X150352139Y-129595500D01*
X150567866Y-129595500D01*
X150686230Y-129576752D01*
X150780926Y-129561754D01*
X150986089Y-129495092D01*
X151178299Y-129397157D01*
X151352821Y-129270359D01*
X151505359Y-129117821D01*
X151629682Y-128946704D01*
X151685012Y-128904040D01*
X151754626Y-128898061D01*
X151816420Y-128930667D01*
X151830315Y-128946702D01*
X151954641Y-129117821D01*
X152107179Y-129270359D01*
X152281701Y-129397157D01*
X152473911Y-129495092D01*
X152679074Y-129561754D01*
X152746796Y-129572480D01*
X152892134Y-129595500D01*
X152892139Y-129595500D01*
X153107866Y-129595500D01*
X153226230Y-129576752D01*
X153320926Y-129561754D01*
X153526089Y-129495092D01*
X153718299Y-129397157D01*
X153892821Y-129270359D01*
X154045359Y-129117821D01*
X154172157Y-128943299D01*
X154270092Y-128751089D01*
X154336754Y-128545926D01*
X154359023Y-128405327D01*
X154370500Y-128332866D01*
X154370500Y-127667133D01*
X154336754Y-127454077D01*
X154336754Y-127454074D01*
X154270092Y-127248911D01*
X154172157Y-127056701D01*
X154045359Y-126882179D01*
X153892821Y-126729641D01*
X153718299Y-126602843D01*
X153526089Y-126504908D01*
X153320926Y-126438246D01*
X153320924Y-126438245D01*
X153320922Y-126438245D01*
X153107866Y-126404500D01*
X153107861Y-126404500D01*
X152892139Y-126404500D01*
X152892134Y-126404500D01*
X152679077Y-126438245D01*
X152473908Y-126504909D01*
X152281700Y-126602843D01*
X152182861Y-126674655D01*
X152107179Y-126729641D01*
X152107177Y-126729643D01*
X152107176Y-126729643D01*
X151954643Y-126882176D01*
X151954643Y-126882177D01*
X151954641Y-126882179D01*
X151937706Y-126905488D01*
X151830318Y-127053294D01*
X151774988Y-127095959D01*
X151705374Y-127101938D01*
X151643579Y-127069332D01*
X151629682Y-127053294D01*
X151592639Y-127002309D01*
X151505359Y-126882179D01*
X151352821Y-126729641D01*
X151178299Y-126602843D01*
X150986089Y-126504908D01*
X150780926Y-126438246D01*
X150780924Y-126438245D01*
X150780922Y-126438245D01*
X150567866Y-126404500D01*
X150567861Y-126404500D01*
X150352139Y-126404500D01*
X150352134Y-126404500D01*
X150139077Y-126438245D01*
X149933908Y-126504909D01*
X149741700Y-126602843D01*
X149642861Y-126674655D01*
X149567179Y-126729641D01*
X149567177Y-126729643D01*
X149567176Y-126729643D01*
X149414642Y-126882177D01*
X149290008Y-127053720D01*
X149234677Y-127096385D01*
X149165064Y-127102364D01*
X149103269Y-127069758D01*
X149089372Y-127053720D01*
X148964974Y-126882503D01*
X148964974Y-126882502D01*
X148812497Y-126730025D01*
X148638036Y-126603271D01*
X148445899Y-126505372D01*
X148240805Y-126438733D01*
X148170000Y-126427518D01*
X148170000Y-127457290D01*
X148149661Y-127445548D01*
X147998333Y-127405000D01*
X147841667Y-127405000D01*
X147690339Y-127445548D01*
X147670000Y-127457290D01*
X147670000Y-126427518D01*
X147669999Y-126427518D01*
X147599194Y-126438733D01*
X147394100Y-126505372D01*
X147201963Y-126603271D01*
X147027503Y-126730025D01*
X147027502Y-126730025D01*
X146875024Y-126882503D01*
X146750627Y-127053720D01*
X146695296Y-127096385D01*
X146625683Y-127102364D01*
X146563888Y-127069758D01*
X146549991Y-127053720D01*
X146425359Y-126882179D01*
X146272821Y-126729641D01*
X146098299Y-126602843D01*
X145906089Y-126504908D01*
X145700926Y-126438246D01*
X145700924Y-126438245D01*
X145700922Y-126438245D01*
X145487866Y-126404500D01*
X145487861Y-126404500D01*
X145272139Y-126404500D01*
X145272134Y-126404500D01*
X145059077Y-126438245D01*
X144853908Y-126504909D01*
X144661700Y-126602843D01*
X144562861Y-126674655D01*
X144487179Y-126729641D01*
X144487177Y-126729643D01*
X144487176Y-126729643D01*
X144334643Y-126882176D01*
X144334643Y-126882177D01*
X144334641Y-126882179D01*
X144317706Y-126905488D01*
X144210318Y-127053294D01*
X144154988Y-127095959D01*
X144085374Y-127101938D01*
X144023579Y-127069332D01*
X144009682Y-127053294D01*
X143972639Y-127002309D01*
X143885359Y-126882179D01*
X143732821Y-126729641D01*
X143558299Y-126602843D01*
X143366089Y-126504908D01*
X143160926Y-126438246D01*
X143160924Y-126438245D01*
X143160922Y-126438245D01*
X142947866Y-126404500D01*
X142947861Y-126404500D01*
X142732139Y-126404500D01*
X142732134Y-126404500D01*
X142519077Y-126438245D01*
X142313908Y-126504909D01*
X142121700Y-126602843D01*
X141947180Y-126729640D01*
X141804816Y-126872004D01*
X141743493Y-126905488D01*
X141673801Y-126900504D01*
X141617868Y-126858632D01*
X141604748Y-126836716D01*
X141604356Y-126835876D01*
X141512315Y-126686654D01*
X141388345Y-126562684D01*
X141239124Y-126470643D01*
X141239119Y-126470641D01*
X141072697Y-126415494D01*
X141072690Y-126415493D01*
X140969986Y-126405000D01*
X140550000Y-126405000D01*
X140550000Y-127457290D01*
X140529661Y-127445548D01*
X140378333Y-127405000D01*
X140221667Y-127405000D01*
X140070339Y-127445548D01*
X140050000Y-127457290D01*
X140050000Y-126405000D01*
X139630028Y-126405000D01*
X139630012Y-126405001D01*
X139527302Y-126415494D01*
X139360880Y-126470641D01*
X139360875Y-126470643D01*
X139211654Y-126562684D01*
X139087684Y-126686654D01*
X138995643Y-126835875D01*
X138995641Y-126835880D01*
X138940494Y-127002302D01*
X138940493Y-127002309D01*
X138930000Y-127105013D01*
X132816773Y-127105013D01*
X132792157Y-127056701D01*
X132665359Y-126882179D01*
X132512821Y-126729641D01*
X132338299Y-126602843D01*
X132146089Y-126504908D01*
X131940926Y-126438246D01*
X131940924Y-126438245D01*
X131940922Y-126438245D01*
X131727866Y-126404500D01*
X131727861Y-126404500D01*
X131512139Y-126404500D01*
X131512134Y-126404500D01*
X131299077Y-126438245D01*
X131093908Y-126504909D01*
X130901700Y-126602843D01*
X130802861Y-126674655D01*
X130727179Y-126729641D01*
X130727177Y-126729643D01*
X130727176Y-126729643D01*
X130574643Y-126882176D01*
X130574643Y-126882177D01*
X130574641Y-126882179D01*
X130557706Y-126905488D01*
X130450318Y-127053294D01*
X130394988Y-127095959D01*
X130325374Y-127101938D01*
X130263579Y-127069332D01*
X130249682Y-127053294D01*
X130212639Y-127002309D01*
X130125359Y-126882179D01*
X129972821Y-126729641D01*
X129798299Y-126602843D01*
X129606089Y-126504908D01*
X129400926Y-126438246D01*
X129400924Y-126438245D01*
X129400922Y-126438245D01*
X129187866Y-126404500D01*
X129187861Y-126404500D01*
X128972139Y-126404500D01*
X128972134Y-126404500D01*
X128759077Y-126438245D01*
X128553908Y-126504909D01*
X128361700Y-126602843D01*
X128262861Y-126674655D01*
X128187179Y-126729641D01*
X128187177Y-126729643D01*
X128187176Y-126729643D01*
X128034642Y-126882177D01*
X127910008Y-127053720D01*
X127854677Y-127096385D01*
X127785064Y-127102364D01*
X127723269Y-127069758D01*
X127709372Y-127053720D01*
X127584974Y-126882503D01*
X127584974Y-126882502D01*
X127432497Y-126730025D01*
X127258036Y-126603271D01*
X127065899Y-126505372D01*
X126860805Y-126438733D01*
X126790000Y-126427518D01*
X126790000Y-127457290D01*
X126769661Y-127445548D01*
X126618333Y-127405000D01*
X126461667Y-127405000D01*
X126310339Y-127445548D01*
X126290000Y-127457290D01*
X126290000Y-126427518D01*
X126289999Y-126427518D01*
X126219194Y-126438733D01*
X126014100Y-126505372D01*
X125821963Y-126603271D01*
X125647503Y-126730025D01*
X125647502Y-126730025D01*
X125495024Y-126882503D01*
X125370627Y-127053720D01*
X125315296Y-127096385D01*
X125245683Y-127102364D01*
X125183888Y-127069758D01*
X125169991Y-127053720D01*
X125045359Y-126882179D01*
X124892821Y-126729641D01*
X124718299Y-126602843D01*
X124526089Y-126504908D01*
X124320926Y-126438246D01*
X124320924Y-126438245D01*
X124320922Y-126438245D01*
X124107866Y-126404500D01*
X124107861Y-126404500D01*
X123892139Y-126404500D01*
X123892134Y-126404500D01*
X123679077Y-126438245D01*
X123473908Y-126504909D01*
X123281700Y-126602843D01*
X123182861Y-126674655D01*
X123107179Y-126729641D01*
X123107177Y-126729643D01*
X123107176Y-126729643D01*
X122954643Y-126882176D01*
X122954643Y-126882177D01*
X122954641Y-126882179D01*
X122937706Y-126905488D01*
X122830318Y-127053294D01*
X122774988Y-127095959D01*
X122705374Y-127101938D01*
X122643579Y-127069332D01*
X122629682Y-127053294D01*
X122592639Y-127002309D01*
X122505359Y-126882179D01*
X122352821Y-126729641D01*
X122178299Y-126602843D01*
X121986089Y-126504908D01*
X121780926Y-126438246D01*
X121780924Y-126438245D01*
X121780922Y-126438245D01*
X121567866Y-126404500D01*
X121567861Y-126404500D01*
X121352139Y-126404500D01*
X121352134Y-126404500D01*
X121139077Y-126438245D01*
X120933908Y-126504909D01*
X120741700Y-126602843D01*
X120567180Y-126729640D01*
X120424816Y-126872004D01*
X120363493Y-126905488D01*
X120293801Y-126900504D01*
X120237868Y-126858632D01*
X120224748Y-126836716D01*
X120224356Y-126835876D01*
X120132315Y-126686654D01*
X120008345Y-126562684D01*
X119859124Y-126470643D01*
X119859119Y-126470641D01*
X119692697Y-126415494D01*
X119692690Y-126415493D01*
X119589986Y-126405000D01*
X119170000Y-126405000D01*
X119170000Y-127457290D01*
X119149661Y-127445548D01*
X118998333Y-127405000D01*
X118841667Y-127405000D01*
X118690339Y-127445548D01*
X118670000Y-127457290D01*
X118670000Y-126405000D01*
X118250028Y-126405000D01*
X118250012Y-126405001D01*
X118147302Y-126415494D01*
X117980880Y-126470641D01*
X117980875Y-126470643D01*
X117831654Y-126562684D01*
X117707684Y-126686654D01*
X117615643Y-126835875D01*
X117615641Y-126835880D01*
X117560494Y-127002302D01*
X117560493Y-127002309D01*
X117550000Y-127105013D01*
X114317500Y-127105013D01*
X114317500Y-126674672D01*
X114317499Y-126674655D01*
X114311098Y-126615127D01*
X114311096Y-126615120D01*
X114260854Y-126480413D01*
X114260850Y-126480406D01*
X114174690Y-126365312D01*
X114174687Y-126365309D01*
X114059593Y-126279149D01*
X114059586Y-126279145D01*
X113924879Y-126228903D01*
X113924874Y-126228902D01*
X113919120Y-126228283D01*
X113854570Y-126201541D01*
X113814725Y-126144146D01*
X113812236Y-126074321D01*
X113847891Y-126014234D01*
X113855808Y-126007714D01*
X113858609Y-126005321D01*
X113858620Y-126005314D01*
X114005314Y-125858620D01*
X114127255Y-125690783D01*
X114221439Y-125505937D01*
X114285547Y-125308633D01*
X114318000Y-125103734D01*
X114318000Y-124896265D01*
X114285547Y-124691366D01*
X114221437Y-124494058D01*
X114127254Y-124309216D01*
X114005314Y-124141380D01*
X113858620Y-123994686D01*
X113690783Y-123872745D01*
X113627468Y-123840484D01*
X113576673Y-123792510D01*
X113559878Y-123724689D01*
X113582415Y-123658554D01*
X113627469Y-123619515D01*
X113690783Y-123587255D01*
X113858620Y-123465314D01*
X114005314Y-123318620D01*
X114127255Y-123150783D01*
X114221439Y-122965937D01*
X114285547Y-122768633D01*
X114318000Y-122563734D01*
X114318000Y-122356265D01*
X114285547Y-122151366D01*
X114221437Y-121954058D01*
X114127254Y-121769216D01*
X114005314Y-121601380D01*
X113858620Y-121454686D01*
X113690783Y-121332745D01*
X113505941Y-121238562D01*
X113308633Y-121174452D01*
X113103734Y-121142000D01*
X113103729Y-121142000D01*
X112896271Y-121142000D01*
X112896266Y-121142000D01*
X112691366Y-121174452D01*
X112494058Y-121238562D01*
X112309216Y-121332745D01*
X112213459Y-121402317D01*
X112141380Y-121454686D01*
X112141378Y-121454688D01*
X112141377Y-121454688D01*
X111994688Y-121601377D01*
X111994688Y-121601378D01*
X111994686Y-121601380D01*
X111942317Y-121673459D01*
X111872745Y-121769216D01*
X111778562Y-121954058D01*
X111714452Y-122151366D01*
X111682000Y-122356265D01*
X102500500Y-122356265D01*
X102500500Y-102808713D01*
X105299500Y-102808713D01*
X105299500Y-103021286D01*
X105330511Y-103217086D01*
X105332754Y-103231243D01*
X105393550Y-103418354D01*
X105398444Y-103433414D01*
X105494951Y-103622820D01*
X105619890Y-103794786D01*
X105770213Y-103945109D01*
X105942182Y-104070050D01*
X105950946Y-104074516D01*
X106001742Y-104122491D01*
X106018536Y-104190312D01*
X105995998Y-104256447D01*
X105950946Y-104295484D01*
X105942182Y-104299949D01*
X105770213Y-104424890D01*
X105619890Y-104575213D01*
X105494951Y-104747179D01*
X105398444Y-104936585D01*
X105332753Y-105138760D01*
X105299500Y-105348713D01*
X105299500Y-105561286D01*
X105332753Y-105771239D01*
X105398444Y-105973414D01*
X105494951Y-106162820D01*
X105619890Y-106334786D01*
X105770213Y-106485109D01*
X105942182Y-106610050D01*
X105950946Y-106614516D01*
X106001742Y-106662491D01*
X106018536Y-106730312D01*
X105995998Y-106796447D01*
X105950946Y-106835484D01*
X105942182Y-106839949D01*
X105770213Y-106964890D01*
X105619890Y-107115213D01*
X105494951Y-107287179D01*
X105398444Y-107476585D01*
X105332753Y-107678760D01*
X105323481Y-107737302D01*
X105299500Y-107888713D01*
X105299500Y-108101287D01*
X105332754Y-108311243D01*
X105367261Y-108417445D01*
X105398444Y-108513414D01*
X105494951Y-108702820D01*
X105619890Y-108874786D01*
X105770213Y-109025109D01*
X105942182Y-109150050D01*
X105950946Y-109154516D01*
X106001742Y-109202491D01*
X106018536Y-109270312D01*
X105995998Y-109336447D01*
X105950946Y-109375484D01*
X105942182Y-109379949D01*
X105770213Y-109504890D01*
X105619890Y-109655213D01*
X105494951Y-109827179D01*
X105398444Y-110016585D01*
X105332753Y-110218760D01*
X105299500Y-110428713D01*
X105299500Y-110641286D01*
X105330088Y-110834414D01*
X105332754Y-110851243D01*
X105398206Y-111052684D01*
X105398444Y-111053414D01*
X105494951Y-111242820D01*
X105619890Y-111414786D01*
X105733818Y-111528714D01*
X105767303Y-111590037D01*
X105762319Y-111659729D01*
X105720447Y-111715662D01*
X105689471Y-111732577D01*
X105557912Y-111781646D01*
X105557906Y-111781649D01*
X105442812Y-111867809D01*
X105442809Y-111867812D01*
X105356649Y-111982906D01*
X105356645Y-111982913D01*
X105306403Y-112117620D01*
X105306401Y-112117627D01*
X105300000Y-112177155D01*
X105300000Y-112825000D01*
X106216988Y-112825000D01*
X106184075Y-112882007D01*
X106150000Y-113009174D01*
X106150000Y-113140826D01*
X106184075Y-113267993D01*
X106216988Y-113325000D01*
X105300000Y-113325000D01*
X105300000Y-113972844D01*
X105306401Y-114032372D01*
X105306403Y-114032379D01*
X105356645Y-114167086D01*
X105356649Y-114167093D01*
X105442809Y-114282187D01*
X105442812Y-114282190D01*
X105557906Y-114368350D01*
X105557913Y-114368354D01*
X105692620Y-114418596D01*
X105692627Y-114418598D01*
X105752155Y-114424999D01*
X105752172Y-114425000D01*
X106400000Y-114425000D01*
X106400000Y-113508012D01*
X106457007Y-113540925D01*
X106584174Y-113575000D01*
X106715826Y-113575000D01*
X106842993Y-113540925D01*
X106900000Y-113508012D01*
X106900000Y-114425000D01*
X107547828Y-114425000D01*
X107547844Y-114424999D01*
X107607372Y-114418598D01*
X107607379Y-114418596D01*
X107742086Y-114368354D01*
X107742093Y-114368350D01*
X107857187Y-114282190D01*
X107857190Y-114282187D01*
X107943350Y-114167093D01*
X107943354Y-114167086D01*
X107993596Y-114032379D01*
X107993598Y-114032372D01*
X107999999Y-113972844D01*
X108000000Y-113972827D01*
X108000000Y-113325000D01*
X107083012Y-113325000D01*
X107115925Y-113267993D01*
X107150000Y-113140826D01*
X107150000Y-113009174D01*
X107115925Y-112882007D01*
X107083012Y-112825000D01*
X108000000Y-112825000D01*
X108000000Y-112177172D01*
X107999999Y-112177155D01*
X107993598Y-112117627D01*
X107993596Y-112117620D01*
X107943354Y-111982913D01*
X107943350Y-111982906D01*
X107857190Y-111867812D01*
X107857187Y-111867809D01*
X107742093Y-111781649D01*
X107742088Y-111781646D01*
X107610528Y-111732577D01*
X107554595Y-111690705D01*
X107530178Y-111625241D01*
X107545030Y-111556968D01*
X107566175Y-111528720D01*
X107680104Y-111414792D01*
X107805051Y-111242816D01*
X107901557Y-111053412D01*
X107967246Y-110851243D01*
X108000500Y-110641287D01*
X108000500Y-110428713D01*
X107967246Y-110218757D01*
X107901557Y-110016588D01*
X107805051Y-109827184D01*
X107805049Y-109827181D01*
X107805048Y-109827179D01*
X107680109Y-109655213D01*
X107529786Y-109504890D01*
X107357820Y-109379951D01*
X107357115Y-109379591D01*
X107349054Y-109375485D01*
X107298259Y-109327512D01*
X107281463Y-109259692D01*
X107303999Y-109193556D01*
X107349054Y-109154515D01*
X107357816Y-109150051D01*
X107388867Y-109127491D01*
X107529786Y-109025109D01*
X107529788Y-109025106D01*
X107529792Y-109025104D01*
X107680104Y-108874792D01*
X107680106Y-108874788D01*
X107680109Y-108874786D01*
X107805048Y-108702820D01*
X107805047Y-108702820D01*
X107805051Y-108702816D01*
X107901557Y-108513412D01*
X107967246Y-108311243D01*
X108000500Y-108101287D01*
X108000500Y-107888713D01*
X107967246Y-107678757D01*
X107901557Y-107476588D01*
X107805051Y-107287184D01*
X107805049Y-107287181D01*
X107805048Y-107287179D01*
X107680109Y-107115213D01*
X107529786Y-106964890D01*
X107357820Y-106839951D01*
X107357115Y-106839591D01*
X107349054Y-106835485D01*
X107298259Y-106787512D01*
X107281463Y-106719692D01*
X107303999Y-106653556D01*
X107349054Y-106614515D01*
X107357816Y-106610051D01*
X107388867Y-106587491D01*
X107529786Y-106485109D01*
X107529788Y-106485106D01*
X107529792Y-106485104D01*
X107680104Y-106334792D01*
X107680106Y-106334788D01*
X107680109Y-106334786D01*
X107805048Y-106162820D01*
X107805047Y-106162820D01*
X107805051Y-106162816D01*
X107901557Y-105973412D01*
X107967246Y-105771243D01*
X108000500Y-105561287D01*
X108000500Y-105348713D01*
X107967246Y-105138757D01*
X107901557Y-104936588D01*
X107805051Y-104747184D01*
X107805049Y-104747181D01*
X107805048Y-104747179D01*
X107680109Y-104575213D01*
X107529786Y-104424890D01*
X107357820Y-104299951D01*
X107357115Y-104299591D01*
X107349054Y-104295485D01*
X107298259Y-104247512D01*
X107281463Y-104179692D01*
X107303999Y-104113556D01*
X107349054Y-104074515D01*
X107357816Y-104070051D01*
X107388867Y-104047491D01*
X107529786Y-103945109D01*
X107529788Y-103945106D01*
X107529792Y-103945104D01*
X107566507Y-103908389D01*
X111749500Y-103908389D01*
X111749500Y-104081610D01*
X111772202Y-104224949D01*
X111776598Y-104252701D01*
X111830127Y-104417445D01*
X111908768Y-104571788D01*
X112010586Y-104711928D01*
X112133072Y-104834414D01*
X112133078Y-104834418D01*
X112216023Y-104894683D01*
X112258689Y-104950013D01*
X112264667Y-105019626D01*
X112232061Y-105081421D01*
X112216023Y-105095317D01*
X112133078Y-105155581D01*
X112133069Y-105155588D01*
X112010588Y-105278069D01*
X112010588Y-105278070D01*
X112010586Y-105278072D01*
X111966859Y-105338256D01*
X111908768Y-105418211D01*
X111830128Y-105572552D01*
X111776597Y-105737302D01*
X111754859Y-105874551D01*
X111749500Y-105908389D01*
X111749500Y-106081611D01*
X111757677Y-106133239D01*
X111772474Y-106226668D01*
X111776598Y-106252701D01*
X111830127Y-106417445D01*
X111908768Y-106571788D01*
X112010586Y-106711928D01*
X112133072Y-106834414D01*
X112140693Y-106839951D01*
X112216023Y-106894683D01*
X112258689Y-106950013D01*
X112264667Y-107019626D01*
X112232061Y-107081421D01*
X112216023Y-107095317D01*
X112133078Y-107155581D01*
X112133069Y-107155588D01*
X112010588Y-107278069D01*
X112010588Y-107278070D01*
X112010586Y-107278072D01*
X112003966Y-107287184D01*
X111908768Y-107418211D01*
X111830128Y-107572552D01*
X111776597Y-107737302D01*
X111749500Y-107908389D01*
X111749500Y-108081610D01*
X111773990Y-108236239D01*
X111776598Y-108252701D01*
X111830127Y-108417445D01*
X111908768Y-108571788D01*
X112010586Y-108711928D01*
X112133072Y-108834414D01*
X112133078Y-108834418D01*
X112216023Y-108894683D01*
X112258689Y-108950013D01*
X112264667Y-109019626D01*
X112232061Y-109081421D01*
X112216023Y-109095317D01*
X112133078Y-109155581D01*
X112133069Y-109155588D01*
X112010588Y-109278069D01*
X112010588Y-109278070D01*
X112010586Y-109278072D01*
X111974666Y-109327512D01*
X111908768Y-109418211D01*
X111830128Y-109572552D01*
X111776597Y-109737302D01*
X111749500Y-109908389D01*
X111749500Y-110081611D01*
X111776598Y-110252701D01*
X111830127Y-110417445D01*
X111908768Y-110571788D01*
X112010586Y-110711928D01*
X112010588Y-110711930D01*
X112118491Y-110819833D01*
X112151976Y-110881156D01*
X112146992Y-110950848D01*
X112105120Y-111006781D01*
X112095907Y-111013053D01*
X112031654Y-111052684D01*
X111907684Y-111176654D01*
X111815643Y-111325875D01*
X111815641Y-111325880D01*
X111760494Y-111492302D01*
X111760493Y-111492309D01*
X111750000Y-111595013D01*
X111750000Y-111745000D01*
X112834314Y-111745000D01*
X112829920Y-111749394D01*
X112777259Y-111840606D01*
X112750000Y-111942339D01*
X112750000Y-112047661D01*
X112777259Y-112149394D01*
X112829920Y-112240606D01*
X112834314Y-112245000D01*
X111750001Y-112245000D01*
X111750001Y-112394986D01*
X111760494Y-112497697D01*
X111815641Y-112664119D01*
X111815643Y-112664124D01*
X111907684Y-112813345D01*
X112031654Y-112937315D01*
X112180875Y-113029356D01*
X112180880Y-113029358D01*
X112347302Y-113084505D01*
X112347309Y-113084506D01*
X112450019Y-113094999D01*
X112899999Y-113094999D01*
X112900000Y-113094998D01*
X112900000Y-112310686D01*
X112904394Y-112315080D01*
X112995606Y-112367741D01*
X113097339Y-112395000D01*
X113202661Y-112395000D01*
X113304394Y-112367741D01*
X113395606Y-112315080D01*
X113400000Y-112310686D01*
X113400000Y-113094999D01*
X113849972Y-113094999D01*
X113849986Y-113094998D01*
X113952697Y-113084505D01*
X114119119Y-113029358D01*
X114119124Y-113029356D01*
X114268345Y-112937315D01*
X114392315Y-112813345D01*
X114484356Y-112664124D01*
X114484358Y-112664119D01*
X114539505Y-112497697D01*
X114539506Y-112497690D01*
X114549999Y-112394986D01*
X114550000Y-112394973D01*
X114550000Y-112245000D01*
X113465686Y-112245000D01*
X113470080Y-112240606D01*
X113522741Y-112149394D01*
X113550000Y-112047661D01*
X113550000Y-111942339D01*
X113522741Y-111840606D01*
X113470080Y-111749394D01*
X113465686Y-111745000D01*
X114549999Y-111745000D01*
X114549999Y-111595028D01*
X114549998Y-111595013D01*
X114539505Y-111492302D01*
X114484358Y-111325880D01*
X114484356Y-111325875D01*
X114392315Y-111176654D01*
X114268343Y-111052682D01*
X114204093Y-111013053D01*
X114157368Y-110961105D01*
X114146145Y-110892143D01*
X114173988Y-110828061D01*
X114181486Y-110819855D01*
X114289414Y-110711928D01*
X114391232Y-110571788D01*
X114469873Y-110417445D01*
X114523402Y-110252701D01*
X114550500Y-110081611D01*
X114550500Y-109908389D01*
X114523402Y-109737299D01*
X114469873Y-109572555D01*
X114391232Y-109418212D01*
X114289414Y-109278072D01*
X114166928Y-109155586D01*
X114083975Y-109095317D01*
X114041311Y-109039988D01*
X114035332Y-108970374D01*
X114067938Y-108908579D01*
X114083976Y-108894682D01*
X114166928Y-108834414D01*
X114289414Y-108711928D01*
X114391232Y-108571788D01*
X114469873Y-108417445D01*
X114523402Y-108252701D01*
X114550500Y-108081611D01*
X114550500Y-107908389D01*
X114523402Y-107737299D01*
X114469873Y-107572555D01*
X114391232Y-107418212D01*
X114289414Y-107278072D01*
X114166928Y-107155586D01*
X114083975Y-107095317D01*
X114041311Y-107039988D01*
X114035332Y-106970374D01*
X114067938Y-106908579D01*
X114083976Y-106894682D01*
X114166928Y-106834414D01*
X114289414Y-106711928D01*
X114391232Y-106571788D01*
X114469873Y-106417445D01*
X114523402Y-106252701D01*
X114550500Y-106081611D01*
X114550500Y-105908389D01*
X114523402Y-105737299D01*
X114469873Y-105572555D01*
X114391232Y-105418212D01*
X114289414Y-105278072D01*
X114166928Y-105155586D01*
X114083975Y-105095317D01*
X114041311Y-105039988D01*
X114035332Y-104970374D01*
X114067938Y-104908579D01*
X114083976Y-104894682D01*
X114166928Y-104834414D01*
X114289414Y-104711928D01*
X114391232Y-104571788D01*
X114469873Y-104417445D01*
X114523402Y-104252701D01*
X114550500Y-104081611D01*
X114550500Y-103908389D01*
X114523402Y-103737299D01*
X114469873Y-103572555D01*
X114391232Y-103418212D01*
X114289414Y-103278072D01*
X114166928Y-103155586D01*
X114026788Y-103053768D01*
X113872445Y-102975127D01*
X113707701Y-102921598D01*
X113707699Y-102921597D01*
X113707698Y-102921597D01*
X113576271Y-102900781D01*
X113536611Y-102894500D01*
X112763389Y-102894500D01*
X112723728Y-102900781D01*
X112592302Y-102921597D01*
X112427552Y-102975128D01*
X112273211Y-103053768D01*
X112193256Y-103111859D01*
X112133072Y-103155586D01*
X112133070Y-103155588D01*
X112133069Y-103155588D01*
X112010588Y-103278069D01*
X112010588Y-103278070D01*
X112010586Y-103278072D01*
X111971269Y-103332187D01*
X111908768Y-103418211D01*
X111830128Y-103572552D01*
X111776597Y-103737302D01*
X111749500Y-103908389D01*
X107566507Y-103908389D01*
X107680104Y-103794792D01*
X107680106Y-103794788D01*
X107680109Y-103794786D01*
X107805048Y-103622820D01*
X107805047Y-103622820D01*
X107805051Y-103622816D01*
X107901557Y-103433412D01*
X107967246Y-103231243D01*
X108000500Y-103021287D01*
X108000500Y-102808713D01*
X107967246Y-102598757D01*
X107901557Y-102396588D01*
X107805051Y-102207184D01*
X107805049Y-102207181D01*
X107805048Y-102207179D01*
X107680109Y-102035213D01*
X107529786Y-101884890D01*
X107357820Y-101759951D01*
X107168414Y-101663444D01*
X107168413Y-101663443D01*
X107168412Y-101663443D01*
X106966243Y-101597754D01*
X106966241Y-101597753D01*
X106966240Y-101597753D01*
X106791012Y-101570000D01*
X106756287Y-101564500D01*
X106543713Y-101564500D01*
X106508988Y-101570000D01*
X106333760Y-101597753D01*
X106131585Y-101663444D01*
X105942179Y-101759951D01*
X105770213Y-101884890D01*
X105619890Y-102035213D01*
X105494951Y-102207179D01*
X105398444Y-102396585D01*
X105332753Y-102598760D01*
X105299500Y-102808713D01*
X102500500Y-102808713D01*
X102500500Y-85356265D01*
X111682000Y-85356265D01*
X111682000Y-85563734D01*
X111714452Y-85768633D01*
X111778562Y-85965941D01*
X111841827Y-86090104D01*
X111872745Y-86150783D01*
X111994686Y-86318620D01*
X112141380Y-86465314D01*
X112263319Y-86553908D01*
X112309218Y-86587256D01*
X112372531Y-86619516D01*
X112423326Y-86667490D01*
X112440121Y-86735311D01*
X112417583Y-86801446D01*
X112372531Y-86840484D01*
X112309218Y-86872743D01*
X112191803Y-86958050D01*
X112141380Y-86994686D01*
X112141378Y-86994688D01*
X112141377Y-86994688D01*
X111994688Y-87141377D01*
X111994688Y-87141378D01*
X111994686Y-87141380D01*
X111960912Y-87187866D01*
X111872745Y-87309216D01*
X111778562Y-87494058D01*
X111714452Y-87691366D01*
X111682000Y-87896265D01*
X111682000Y-88103734D01*
X111714452Y-88308633D01*
X111778562Y-88505941D01*
X111813763Y-88575025D01*
X111872745Y-88690783D01*
X111994686Y-88858620D01*
X112141380Y-89005314D01*
X112141383Y-89005316D01*
X112145085Y-89008478D01*
X112144217Y-89009494D01*
X112183167Y-89060003D01*
X112189148Y-89129616D01*
X112156544Y-89191412D01*
X112095706Y-89225771D01*
X112080880Y-89228283D01*
X112075124Y-89228902D01*
X112075120Y-89228903D01*
X111940413Y-89279145D01*
X111940406Y-89279149D01*
X111825312Y-89365309D01*
X111825309Y-89365312D01*
X111739149Y-89480406D01*
X111739145Y-89480413D01*
X111688903Y-89615120D01*
X111688901Y-89615127D01*
X111682500Y-89674655D01*
X111682500Y-90290000D01*
X112515026Y-90290000D01*
X112492141Y-90329638D01*
X112455000Y-90468249D01*
X112455000Y-90611751D01*
X112492141Y-90750362D01*
X112515026Y-90790000D01*
X111682500Y-90790000D01*
X111682500Y-91405344D01*
X111688901Y-91464872D01*
X111688903Y-91464879D01*
X111739145Y-91599586D01*
X111739149Y-91599593D01*
X111825309Y-91714687D01*
X111825312Y-91714690D01*
X111940406Y-91800850D01*
X111940413Y-91800854D01*
X112075120Y-91851096D01*
X112075127Y-91851098D01*
X112134655Y-91857499D01*
X112134672Y-91857500D01*
X112750000Y-91857500D01*
X112750000Y-91024974D01*
X112789638Y-91047859D01*
X112928249Y-91085000D01*
X113071751Y-91085000D01*
X113210362Y-91047859D01*
X113250000Y-91024974D01*
X113250000Y-91857500D01*
X113865328Y-91857500D01*
X113865344Y-91857499D01*
X113924872Y-91851098D01*
X113924879Y-91851096D01*
X114059586Y-91800854D01*
X114059593Y-91800850D01*
X114174687Y-91714690D01*
X114174690Y-91714687D01*
X114260850Y-91599593D01*
X114260854Y-91599586D01*
X114311096Y-91464879D01*
X114311098Y-91464872D01*
X114317499Y-91405344D01*
X114317500Y-91405327D01*
X114317500Y-90790000D01*
X113484974Y-90790000D01*
X113507859Y-90750362D01*
X113545000Y-90611751D01*
X113545000Y-90468249D01*
X113507859Y-90329638D01*
X113484974Y-90290000D01*
X114317500Y-90290000D01*
X114317500Y-89674672D01*
X114317499Y-89674655D01*
X114311098Y-89615127D01*
X114311096Y-89615120D01*
X114260854Y-89480413D01*
X114260850Y-89480406D01*
X114174690Y-89365312D01*
X114174687Y-89365309D01*
X114059593Y-89279149D01*
X114059586Y-89279145D01*
X113924879Y-89228903D01*
X113924874Y-89228902D01*
X113919120Y-89228283D01*
X113854570Y-89201541D01*
X113814725Y-89144146D01*
X113812236Y-89074321D01*
X113847891Y-89014234D01*
X113855808Y-89007714D01*
X113858609Y-89005321D01*
X113858620Y-89005314D01*
X114005314Y-88858620D01*
X114127255Y-88690783D01*
X114221439Y-88505937D01*
X114285547Y-88308633D01*
X114294835Y-88249991D01*
X114318000Y-88103734D01*
X114318000Y-87896265D01*
X114285547Y-87691366D01*
X114221437Y-87494058D01*
X114127254Y-87309216D01*
X114108757Y-87283757D01*
X114005314Y-87141380D01*
X113858620Y-86994686D01*
X113690783Y-86872745D01*
X113627468Y-86840484D01*
X113576673Y-86792510D01*
X113559878Y-86724689D01*
X113582415Y-86658554D01*
X113627469Y-86619515D01*
X113690783Y-86587255D01*
X113858620Y-86465314D01*
X114005314Y-86318620D01*
X114127255Y-86150783D01*
X114221439Y-85965937D01*
X114285547Y-85768633D01*
X114285676Y-85767816D01*
X114318000Y-85563734D01*
X114318000Y-85356265D01*
X114285547Y-85151366D01*
X114221437Y-84954058D01*
X114127254Y-84769216D01*
X114108757Y-84743757D01*
X114005314Y-84601380D01*
X113858620Y-84454686D01*
X113690783Y-84332745D01*
X113505941Y-84238562D01*
X113308633Y-84174452D01*
X113103734Y-84142000D01*
X113103729Y-84142000D01*
X112896271Y-84142000D01*
X112896266Y-84142000D01*
X112691366Y-84174452D01*
X112494058Y-84238562D01*
X112309216Y-84332745D01*
X112213459Y-84402317D01*
X112141380Y-84454686D01*
X112141378Y-84454688D01*
X112141377Y-84454688D01*
X111994688Y-84601377D01*
X111994688Y-84601378D01*
X111994686Y-84601380D01*
X111960912Y-84647866D01*
X111872745Y-84769216D01*
X111778562Y-84954058D01*
X111714452Y-85151366D01*
X111682000Y-85356265D01*
X102500500Y-85356265D01*
X102500500Y-69399983D01*
X107699500Y-69399983D01*
X107699500Y-70600001D01*
X107699501Y-70600018D01*
X107710000Y-70702796D01*
X107710001Y-70702799D01*
X107752877Y-70832187D01*
X107765186Y-70869334D01*
X107857288Y-71018656D01*
X107981344Y-71142712D01*
X108130666Y-71234814D01*
X108297203Y-71289999D01*
X108399991Y-71300500D01*
X109600008Y-71300499D01*
X109702797Y-71289999D01*
X109869334Y-71234814D01*
X110018656Y-71142712D01*
X110142712Y-71018656D01*
X110234814Y-70869334D01*
X110289999Y-70702797D01*
X110300500Y-70600009D01*
X110300499Y-69399992D01*
X110289999Y-69297203D01*
X110234814Y-69130666D01*
X110142712Y-68981344D01*
X110073488Y-68912120D01*
X110040003Y-68850797D01*
X110044987Y-68781105D01*
X110060852Y-68751552D01*
X110111858Y-68681349D01*
X110111863Y-68681341D01*
X110204755Y-68499031D01*
X110267990Y-68304417D01*
X110300000Y-68102317D01*
X110300000Y-67897682D01*
X110267990Y-67695582D01*
X110204755Y-67500968D01*
X110111859Y-67318650D01*
X110079474Y-67274077D01*
X110079474Y-67274076D01*
X109400000Y-67953551D01*
X109400000Y-67947339D01*
X109372741Y-67845606D01*
X109320080Y-67754394D01*
X109245606Y-67679920D01*
X109154394Y-67627259D01*
X109052661Y-67600000D01*
X109046446Y-67600000D01*
X109472733Y-67173713D01*
X117649500Y-67173713D01*
X117649500Y-67386287D01*
X117682754Y-67596243D01*
X117715031Y-67695582D01*
X117748444Y-67798414D01*
X117844951Y-67987820D01*
X117969890Y-68159786D01*
X118120213Y-68310109D01*
X118292182Y-68435050D01*
X118300946Y-68439516D01*
X118351742Y-68487491D01*
X118368536Y-68555312D01*
X118345998Y-68621447D01*
X118300946Y-68660484D01*
X118292182Y-68664949D01*
X118120213Y-68789890D01*
X117969890Y-68940213D01*
X117844951Y-69112179D01*
X117748444Y-69301585D01*
X117682753Y-69503760D01*
X117649500Y-69713713D01*
X117649500Y-69926286D01*
X117680976Y-70125021D01*
X117682754Y-70136243D01*
X117727212Y-70273071D01*
X117748444Y-70338414D01*
X117844951Y-70527820D01*
X117969890Y-70699786D01*
X118120213Y-70850109D01*
X118292182Y-70975050D01*
X118300946Y-70979516D01*
X118351742Y-71027491D01*
X118368536Y-71095312D01*
X118345998Y-71161447D01*
X118300946Y-71200484D01*
X118292182Y-71204949D01*
X118120213Y-71329890D01*
X117969890Y-71480213D01*
X117844951Y-71652179D01*
X117748444Y-71841585D01*
X117682753Y-72043760D01*
X117649500Y-72253713D01*
X117649500Y-72466286D01*
X117682753Y-72676239D01*
X117748444Y-72878414D01*
X117844951Y-73067820D01*
X117969890Y-73239786D01*
X118120213Y-73390109D01*
X118292182Y-73515050D01*
X118300946Y-73519516D01*
X118351742Y-73567491D01*
X118368536Y-73635312D01*
X118345998Y-73701447D01*
X118300946Y-73740484D01*
X118292182Y-73744949D01*
X118120213Y-73869890D01*
X117969890Y-74020213D01*
X117844951Y-74192179D01*
X117748444Y-74381585D01*
X117682753Y-74583760D01*
X117649500Y-74793713D01*
X117649500Y-75006286D01*
X117682753Y-75216239D01*
X117748444Y-75418414D01*
X117844951Y-75607820D01*
X117969890Y-75779786D01*
X118120213Y-75930109D01*
X118292182Y-76055050D01*
X118300946Y-76059516D01*
X118351742Y-76107491D01*
X118368536Y-76175312D01*
X118345998Y-76241447D01*
X118300946Y-76280484D01*
X118292182Y-76284949D01*
X118120213Y-76409890D01*
X117969890Y-76560213D01*
X117844951Y-76732179D01*
X117748444Y-76921585D01*
X117682753Y-77123760D01*
X117649500Y-77333713D01*
X117649500Y-77546286D01*
X117682753Y-77756239D01*
X117748444Y-77958414D01*
X117844951Y-78147820D01*
X117969890Y-78319786D01*
X118120213Y-78470109D01*
X118292182Y-78595050D01*
X118300946Y-78599516D01*
X118351742Y-78647491D01*
X118368536Y-78715312D01*
X118345998Y-78781447D01*
X118300946Y-78820484D01*
X118292182Y-78824949D01*
X118120213Y-78949890D01*
X117969890Y-79100213D01*
X117844951Y-79272179D01*
X117748444Y-79461585D01*
X117682753Y-79663760D01*
X117649500Y-79873713D01*
X117649500Y-80086286D01*
X117682753Y-80296239D01*
X117748444Y-80498414D01*
X117844951Y-80687820D01*
X117969890Y-80859786D01*
X118120213Y-81010109D01*
X118292182Y-81135050D01*
X118300946Y-81139516D01*
X118351742Y-81187491D01*
X118368536Y-81255312D01*
X118345998Y-81321447D01*
X118300946Y-81360484D01*
X118292182Y-81364949D01*
X118120213Y-81489890D01*
X117969890Y-81640213D01*
X117844951Y-81812179D01*
X117748444Y-82001585D01*
X117682753Y-82203760D01*
X117657162Y-82365338D01*
X117649500Y-82413713D01*
X117649500Y-82626287D01*
X117682754Y-82836243D01*
X117716182Y-82939124D01*
X117748444Y-83038414D01*
X117844951Y-83227820D01*
X117969890Y-83399786D01*
X118120213Y-83550109D01*
X118292182Y-83675050D01*
X118300946Y-83679516D01*
X118351742Y-83727491D01*
X118368536Y-83795312D01*
X118345998Y-83861447D01*
X118300946Y-83900484D01*
X118292182Y-83904949D01*
X118120213Y-84029890D01*
X117969890Y-84180213D01*
X117844951Y-84352179D01*
X117748444Y-84541585D01*
X117682753Y-84743760D01*
X117649500Y-84953713D01*
X117649500Y-85166286D01*
X117679590Y-85356271D01*
X117682754Y-85376243D01*
X117743672Y-85563729D01*
X117748444Y-85578414D01*
X117844951Y-85767820D01*
X117969890Y-85939786D01*
X118120213Y-86090109D01*
X118292182Y-86215050D01*
X118300946Y-86219516D01*
X118351742Y-86267491D01*
X118368536Y-86335312D01*
X118345998Y-86401447D01*
X118300946Y-86440484D01*
X118292182Y-86444949D01*
X118120213Y-86569890D01*
X117969890Y-86720213D01*
X117844951Y-86892179D01*
X117748444Y-87081585D01*
X117682753Y-87283760D01*
X117649500Y-87493713D01*
X117649500Y-87706286D01*
X117679590Y-87896271D01*
X117682754Y-87916243D01*
X117743672Y-88103729D01*
X117748444Y-88118414D01*
X117844951Y-88307820D01*
X117969890Y-88479786D01*
X118120213Y-88630109D01*
X118292182Y-88755050D01*
X118300946Y-88759516D01*
X118351742Y-88807491D01*
X118368536Y-88875312D01*
X118345998Y-88941447D01*
X118300946Y-88980484D01*
X118292182Y-88984949D01*
X118120213Y-89109890D01*
X117969890Y-89260213D01*
X117844951Y-89432179D01*
X117748444Y-89621585D01*
X117682753Y-89823760D01*
X117649500Y-90033713D01*
X117649500Y-90246286D01*
X117682753Y-90456239D01*
X117748444Y-90658414D01*
X117844951Y-90847820D01*
X117969890Y-91019786D01*
X118120213Y-91170109D01*
X118292182Y-91295050D01*
X118300946Y-91299516D01*
X118351742Y-91347491D01*
X118368536Y-91415312D01*
X118345998Y-91481447D01*
X118300946Y-91520484D01*
X118292182Y-91524949D01*
X118120213Y-91649890D01*
X117969890Y-91800213D01*
X117844951Y-91972179D01*
X117748444Y-92161585D01*
X117682753Y-92363760D01*
X117664197Y-92480922D01*
X117649500Y-92573713D01*
X117649500Y-92786287D01*
X117682754Y-92996243D01*
X117701137Y-93052821D01*
X117748444Y-93198414D01*
X117844951Y-93387820D01*
X117969890Y-93559786D01*
X118120213Y-93710109D01*
X118292182Y-93835050D01*
X118300946Y-93839516D01*
X118351742Y-93887491D01*
X118368536Y-93955312D01*
X118345998Y-94021447D01*
X118300946Y-94060484D01*
X118292182Y-94064949D01*
X118120213Y-94189890D01*
X117969890Y-94340213D01*
X117844951Y-94512179D01*
X117748444Y-94701585D01*
X117682753Y-94903760D01*
X117664197Y-95020922D01*
X117649500Y-95113713D01*
X117649500Y-95326287D01*
X117682754Y-95536243D01*
X117701137Y-95592821D01*
X117748444Y-95738414D01*
X117844951Y-95927820D01*
X117969890Y-96099786D01*
X118120213Y-96250109D01*
X118292182Y-96375050D01*
X118300946Y-96379516D01*
X118351742Y-96427491D01*
X118368536Y-96495312D01*
X118345998Y-96561447D01*
X118300946Y-96600484D01*
X118292182Y-96604949D01*
X118120213Y-96729890D01*
X117969890Y-96880213D01*
X117844951Y-97052179D01*
X117748444Y-97241585D01*
X117682753Y-97443760D01*
X117649500Y-97653713D01*
X117649500Y-97866286D01*
X117682753Y-98076239D01*
X117748444Y-98278414D01*
X117844951Y-98467820D01*
X117969890Y-98639786D01*
X118120213Y-98790109D01*
X118292182Y-98915050D01*
X118300946Y-98919516D01*
X118351742Y-98967491D01*
X118368536Y-99035312D01*
X118345998Y-99101447D01*
X118300946Y-99140484D01*
X118292182Y-99144949D01*
X118120213Y-99269890D01*
X117969890Y-99420213D01*
X117844951Y-99592179D01*
X117748444Y-99781585D01*
X117682753Y-99983760D01*
X117649500Y-100193713D01*
X117649500Y-100406286D01*
X117674054Y-100561318D01*
X117682754Y-100616243D01*
X117740913Y-100795238D01*
X117748444Y-100818414D01*
X117844951Y-101007820D01*
X117969890Y-101179786D01*
X118120213Y-101330109D01*
X118292182Y-101455050D01*
X118300946Y-101459516D01*
X118351742Y-101507491D01*
X118368536Y-101575312D01*
X118345998Y-101641447D01*
X118300946Y-101680484D01*
X118292182Y-101684949D01*
X118120213Y-101809890D01*
X117969890Y-101960213D01*
X117844951Y-102132179D01*
X117748444Y-102321585D01*
X117682753Y-102523760D01*
X117649500Y-102733713D01*
X117649500Y-102946286D01*
X117671055Y-103082383D01*
X117682754Y-103156243D01*
X117722338Y-103278070D01*
X117748444Y-103358414D01*
X117844951Y-103547820D01*
X117969890Y-103719786D01*
X118120213Y-103870109D01*
X118292182Y-103995050D01*
X118300946Y-103999516D01*
X118351742Y-104047491D01*
X118368536Y-104115312D01*
X118345998Y-104181447D01*
X118300946Y-104220484D01*
X118292182Y-104224949D01*
X118120213Y-104349890D01*
X117969890Y-104500213D01*
X117844951Y-104672179D01*
X117748444Y-104861585D01*
X117682753Y-105063760D01*
X117668209Y-105155588D01*
X117649500Y-105273713D01*
X117649500Y-105486287D01*
X117682754Y-105696243D01*
X117696334Y-105738039D01*
X117748444Y-105898414D01*
X117844951Y-106087820D01*
X117969890Y-106259786D01*
X118120213Y-106410109D01*
X118292182Y-106535050D01*
X118300946Y-106539516D01*
X118351742Y-106587491D01*
X118368536Y-106655312D01*
X118345998Y-106721447D01*
X118300946Y-106760484D01*
X118292182Y-106764949D01*
X118120213Y-106889890D01*
X117969890Y-107040213D01*
X117844951Y-107212179D01*
X117748444Y-107401585D01*
X117682753Y-107603760D01*
X117661603Y-107737299D01*
X117649500Y-107813713D01*
X117649500Y-108026287D01*
X117682754Y-108236243D01*
X117741630Y-108417445D01*
X117748444Y-108438414D01*
X117844951Y-108627820D01*
X117969890Y-108799786D01*
X118120213Y-108950109D01*
X118292182Y-109075050D01*
X118300946Y-109079516D01*
X118351742Y-109127491D01*
X118368536Y-109195312D01*
X118345998Y-109261447D01*
X118300946Y-109300484D01*
X118292182Y-109304949D01*
X118120213Y-109429890D01*
X117969890Y-109580213D01*
X117844951Y-109752179D01*
X117748444Y-109941585D01*
X117682753Y-110143760D01*
X117649500Y-110353713D01*
X117649500Y-110566286D01*
X117672567Y-110711929D01*
X117682754Y-110776243D01*
X117720412Y-110892143D01*
X117748444Y-110978414D01*
X117844951Y-111167820D01*
X117969890Y-111339786D01*
X118120213Y-111490109D01*
X118292182Y-111615050D01*
X118300946Y-111619516D01*
X118351742Y-111667491D01*
X118368536Y-111735312D01*
X118345998Y-111801447D01*
X118300946Y-111840484D01*
X118292182Y-111844949D01*
X118120213Y-111969890D01*
X117969890Y-112120213D01*
X117844951Y-112292179D01*
X117748444Y-112481585D01*
X117682753Y-112683760D01*
X117662229Y-112813345D01*
X117649500Y-112893713D01*
X117649500Y-113106287D01*
X117659534Y-113169644D01*
X117682735Y-113316127D01*
X117682754Y-113316243D01*
X117689728Y-113337708D01*
X117748444Y-113518414D01*
X117844951Y-113707820D01*
X117969890Y-113879786D01*
X118120213Y-114030109D01*
X118292179Y-114155048D01*
X118292181Y-114155049D01*
X118292184Y-114155051D01*
X118481588Y-114251557D01*
X118683757Y-114317246D01*
X118893713Y-114350500D01*
X118893714Y-114350500D01*
X119106286Y-114350500D01*
X119106287Y-114350500D01*
X119316243Y-114317246D01*
X119518412Y-114251557D01*
X119707816Y-114155051D01*
X119762572Y-114115269D01*
X119879786Y-114030109D01*
X119879788Y-114030106D01*
X119879792Y-114030104D01*
X120030104Y-113879792D01*
X120030106Y-113879788D01*
X120030109Y-113879786D01*
X120155048Y-113707820D01*
X120155047Y-113707820D01*
X120155051Y-113707816D01*
X120251557Y-113518412D01*
X120317246Y-113316243D01*
X120350500Y-113106287D01*
X120350500Y-112893713D01*
X120317246Y-112683757D01*
X120251557Y-112481588D01*
X120155051Y-112292184D01*
X120155049Y-112292181D01*
X120155048Y-112292179D01*
X120030109Y-112120213D01*
X119879786Y-111969890D01*
X119707820Y-111844951D01*
X119699600Y-111840763D01*
X119699054Y-111840485D01*
X119648259Y-111792512D01*
X119631463Y-111724692D01*
X119653999Y-111658556D01*
X119699054Y-111619515D01*
X119707816Y-111615051D01*
X119729789Y-111599086D01*
X119879786Y-111490109D01*
X119879788Y-111490106D01*
X119879792Y-111490104D01*
X120030104Y-111339792D01*
X120030106Y-111339788D01*
X120030109Y-111339786D01*
X120155048Y-111167820D01*
X120155047Y-111167820D01*
X120155051Y-111167816D01*
X120251557Y-110978412D01*
X120317246Y-110776243D01*
X120350500Y-110566287D01*
X120350500Y-110353713D01*
X120317246Y-110143757D01*
X120251557Y-109941588D01*
X120155051Y-109752184D01*
X120155049Y-109752181D01*
X120155048Y-109752179D01*
X120030109Y-109580213D01*
X119879786Y-109429890D01*
X119707820Y-109304951D01*
X119707115Y-109304591D01*
X119699054Y-109300485D01*
X119648259Y-109252512D01*
X119631463Y-109184692D01*
X119653999Y-109118556D01*
X119699054Y-109079515D01*
X119707816Y-109075051D01*
X119737110Y-109053768D01*
X119879786Y-108950109D01*
X119879788Y-108950106D01*
X119879792Y-108950104D01*
X120030104Y-108799792D01*
X120030106Y-108799788D01*
X120030109Y-108799786D01*
X120155048Y-108627820D01*
X120155047Y-108627820D01*
X120155051Y-108627816D01*
X120251557Y-108438412D01*
X120317246Y-108236243D01*
X120350500Y-108026287D01*
X120350500Y-107813713D01*
X120317246Y-107603757D01*
X120251557Y-107401588D01*
X120155051Y-107212184D01*
X120155049Y-107212181D01*
X120155048Y-107212179D01*
X120030109Y-107040213D01*
X119879786Y-106889890D01*
X119707820Y-106764951D01*
X119707115Y-106764591D01*
X119699054Y-106760485D01*
X119648259Y-106712512D01*
X119631463Y-106644692D01*
X119653999Y-106578556D01*
X119699054Y-106539515D01*
X119707816Y-106535051D01*
X119847454Y-106433599D01*
X119879786Y-106410109D01*
X119879788Y-106410106D01*
X119879792Y-106410104D01*
X120030104Y-106259792D01*
X120030106Y-106259788D01*
X120030109Y-106259786D01*
X120155048Y-106087820D01*
X120155047Y-106087820D01*
X120155051Y-106087816D01*
X120251557Y-105898412D01*
X120317246Y-105696243D01*
X120350500Y-105486287D01*
X120350500Y-105273713D01*
X120317246Y-105063757D01*
X120251557Y-104861588D01*
X120155051Y-104672184D01*
X120155049Y-104672181D01*
X120155048Y-104672179D01*
X120030109Y-104500213D01*
X119879786Y-104349890D01*
X119707820Y-104224951D01*
X119707115Y-104224591D01*
X119699054Y-104220485D01*
X119648259Y-104172512D01*
X119631463Y-104104692D01*
X119653999Y-104038556D01*
X119699054Y-103999515D01*
X119707816Y-103995051D01*
X119776556Y-103945109D01*
X119879786Y-103870109D01*
X119879788Y-103870106D01*
X119879792Y-103870104D01*
X120030104Y-103719792D01*
X120030106Y-103719788D01*
X120030109Y-103719786D01*
X120155048Y-103547820D01*
X120155047Y-103547820D01*
X120155051Y-103547816D01*
X120251557Y-103358412D01*
X120317246Y-103156243D01*
X120350500Y-102946287D01*
X120350500Y-102733713D01*
X120317246Y-102523757D01*
X120251557Y-102321588D01*
X120155051Y-102132184D01*
X120155049Y-102132181D01*
X120155048Y-102132179D01*
X120030109Y-101960213D01*
X119879786Y-101809890D01*
X119707820Y-101684951D01*
X119707115Y-101684591D01*
X119699054Y-101680485D01*
X119648259Y-101632512D01*
X119631463Y-101564692D01*
X119653999Y-101498556D01*
X119699054Y-101459515D01*
X119707816Y-101455051D01*
X119750585Y-101423978D01*
X119879786Y-101330109D01*
X119879788Y-101330106D01*
X119879792Y-101330104D01*
X120030104Y-101179792D01*
X120030106Y-101179788D01*
X120030109Y-101179786D01*
X120155048Y-101007820D01*
X120155049Y-101007819D01*
X120155051Y-101007816D01*
X120251557Y-100818412D01*
X120317246Y-100616243D01*
X120350500Y-100406287D01*
X120350500Y-100193713D01*
X120317246Y-99983757D01*
X120251557Y-99781588D01*
X120155051Y-99592184D01*
X120155049Y-99592181D01*
X120155048Y-99592179D01*
X120030109Y-99420213D01*
X119879786Y-99269890D01*
X119707820Y-99144951D01*
X119707115Y-99144591D01*
X119699054Y-99140485D01*
X119648259Y-99092512D01*
X119631463Y-99024692D01*
X119653999Y-98958556D01*
X119699054Y-98919515D01*
X119707816Y-98915051D01*
X119729789Y-98899086D01*
X119879786Y-98790109D01*
X119879788Y-98790106D01*
X119879792Y-98790104D01*
X120030104Y-98639792D01*
X120030106Y-98639788D01*
X120030109Y-98639786D01*
X120155048Y-98467820D01*
X120155047Y-98467820D01*
X120155051Y-98467816D01*
X120251557Y-98278412D01*
X120317246Y-98076243D01*
X120350500Y-97866287D01*
X120350500Y-97653713D01*
X120317246Y-97443757D01*
X120251557Y-97241588D01*
X120155051Y-97052184D01*
X120155049Y-97052181D01*
X120155048Y-97052179D01*
X120030109Y-96880213D01*
X119879786Y-96729890D01*
X119707820Y-96604951D01*
X119707115Y-96604591D01*
X119699054Y-96600485D01*
X119648259Y-96552512D01*
X119631463Y-96484692D01*
X119653999Y-96418556D01*
X119699054Y-96379515D01*
X119707816Y-96375051D01*
X119729789Y-96359086D01*
X119879786Y-96250109D01*
X119879788Y-96250106D01*
X119879792Y-96250104D01*
X120030104Y-96099792D01*
X120030106Y-96099788D01*
X120030109Y-96099786D01*
X120155048Y-95927820D01*
X120155047Y-95927820D01*
X120155051Y-95927816D01*
X120251557Y-95738412D01*
X120317246Y-95536243D01*
X120350500Y-95326287D01*
X120350500Y-95113713D01*
X120317246Y-94903757D01*
X120251557Y-94701588D01*
X120155051Y-94512184D01*
X120155049Y-94512181D01*
X120155048Y-94512179D01*
X120030109Y-94340213D01*
X119879786Y-94189890D01*
X119707820Y-94064951D01*
X119707115Y-94064591D01*
X119699054Y-94060485D01*
X119648259Y-94012512D01*
X119631463Y-93944692D01*
X119653999Y-93878556D01*
X119699054Y-93839515D01*
X119707816Y-93835051D01*
X119746183Y-93807176D01*
X119879786Y-93710109D01*
X119879788Y-93710106D01*
X119879792Y-93710104D01*
X120030104Y-93559792D01*
X120030106Y-93559788D01*
X120030109Y-93559786D01*
X120155048Y-93387820D01*
X120155047Y-93387820D01*
X120155051Y-93387816D01*
X120251557Y-93198412D01*
X120317246Y-92996243D01*
X120350500Y-92786287D01*
X120350500Y-92573713D01*
X120317246Y-92363757D01*
X120251557Y-92161588D01*
X120155051Y-91972184D01*
X120155049Y-91972181D01*
X120155048Y-91972179D01*
X120030109Y-91800213D01*
X119879786Y-91649890D01*
X119707820Y-91524951D01*
X119707115Y-91524591D01*
X119699054Y-91520485D01*
X119648259Y-91472512D01*
X119631463Y-91404692D01*
X119653999Y-91338556D01*
X119699054Y-91299515D01*
X119707816Y-91295051D01*
X119746183Y-91267176D01*
X119879786Y-91170109D01*
X119879788Y-91170106D01*
X119879792Y-91170104D01*
X120030104Y-91019792D01*
X120030106Y-91019788D01*
X120030109Y-91019786D01*
X120155048Y-90847820D01*
X120155047Y-90847820D01*
X120155051Y-90847816D01*
X120251557Y-90658412D01*
X120317246Y-90456243D01*
X120350500Y-90246287D01*
X120350500Y-90033713D01*
X120317246Y-89823757D01*
X120251557Y-89621588D01*
X120155051Y-89432184D01*
X120155049Y-89432181D01*
X120155048Y-89432179D01*
X120030109Y-89260213D01*
X119879786Y-89109890D01*
X119707820Y-88984951D01*
X119707115Y-88984591D01*
X119699054Y-88980485D01*
X119648259Y-88932512D01*
X119631463Y-88864692D01*
X119653999Y-88798556D01*
X119699054Y-88759515D01*
X119707816Y-88755051D01*
X119796274Y-88690783D01*
X119879786Y-88630109D01*
X119879788Y-88630106D01*
X119879792Y-88630104D01*
X120030104Y-88479792D01*
X120030106Y-88479788D01*
X120030109Y-88479786D01*
X120155048Y-88307820D01*
X120155047Y-88307820D01*
X120155051Y-88307816D01*
X120251557Y-88118412D01*
X120317246Y-87916243D01*
X120350500Y-87706287D01*
X120350500Y-87493713D01*
X120317246Y-87283757D01*
X120251557Y-87081588D01*
X120155051Y-86892184D01*
X120155049Y-86892181D01*
X120155048Y-86892179D01*
X120030109Y-86720213D01*
X119879786Y-86569890D01*
X119707820Y-86444951D01*
X119707115Y-86444591D01*
X119699054Y-86440485D01*
X119648259Y-86392512D01*
X119631463Y-86324692D01*
X119653999Y-86258556D01*
X119699054Y-86219515D01*
X119707816Y-86215051D01*
X119796274Y-86150783D01*
X119879786Y-86090109D01*
X119879788Y-86090106D01*
X119879792Y-86090104D01*
X120030104Y-85939792D01*
X120030106Y-85939788D01*
X120030109Y-85939786D01*
X120155048Y-85767820D01*
X120155047Y-85767820D01*
X120155051Y-85767816D01*
X120251557Y-85578412D01*
X120317246Y-85376243D01*
X120350500Y-85166287D01*
X120350500Y-84953713D01*
X120317246Y-84743757D01*
X120251557Y-84541588D01*
X120155051Y-84352184D01*
X120155049Y-84352181D01*
X120155048Y-84352179D01*
X120030109Y-84180213D01*
X119879786Y-84029890D01*
X119707820Y-83904951D01*
X119707115Y-83904591D01*
X119699054Y-83900485D01*
X119648259Y-83852512D01*
X119631463Y-83784692D01*
X119653999Y-83718556D01*
X119699054Y-83679515D01*
X119707816Y-83675051D01*
X119729789Y-83659086D01*
X119879786Y-83550109D01*
X119879788Y-83550106D01*
X119879792Y-83550104D01*
X120030104Y-83399792D01*
X120030106Y-83399788D01*
X120030109Y-83399786D01*
X120155048Y-83227820D01*
X120155047Y-83227820D01*
X120155051Y-83227816D01*
X120251557Y-83038412D01*
X120317246Y-82836243D01*
X120350500Y-82626287D01*
X120350500Y-82413713D01*
X120317246Y-82203757D01*
X120251557Y-82001588D01*
X120155051Y-81812184D01*
X120155049Y-81812181D01*
X120155048Y-81812179D01*
X120030109Y-81640213D01*
X119879786Y-81489890D01*
X119707820Y-81364951D01*
X119707115Y-81364591D01*
X119699054Y-81360485D01*
X119648259Y-81312512D01*
X119631463Y-81244692D01*
X119653999Y-81178556D01*
X119699054Y-81139515D01*
X119707816Y-81135051D01*
X119729789Y-81119086D01*
X119879786Y-81010109D01*
X119879788Y-81010106D01*
X119879792Y-81010104D01*
X120030104Y-80859792D01*
X120030106Y-80859788D01*
X120030109Y-80859786D01*
X120155048Y-80687820D01*
X120155047Y-80687820D01*
X120155051Y-80687816D01*
X120251557Y-80498412D01*
X120317246Y-80296243D01*
X120350500Y-80086287D01*
X120350500Y-79873713D01*
X120317246Y-79663757D01*
X120251557Y-79461588D01*
X120155051Y-79272184D01*
X120155049Y-79272181D01*
X120155048Y-79272179D01*
X120030109Y-79100213D01*
X119879786Y-78949890D01*
X119707820Y-78824951D01*
X119707115Y-78824591D01*
X119699054Y-78820485D01*
X119648259Y-78772512D01*
X119631463Y-78704692D01*
X119653999Y-78638556D01*
X119699054Y-78599515D01*
X119707816Y-78595051D01*
X119729789Y-78579086D01*
X119879786Y-78470109D01*
X119879788Y-78470106D01*
X119879792Y-78470104D01*
X120030104Y-78319792D01*
X120030106Y-78319788D01*
X120030109Y-78319786D01*
X120155048Y-78147820D01*
X120155047Y-78147820D01*
X120155051Y-78147816D01*
X120251557Y-77958412D01*
X120317246Y-77756243D01*
X120350500Y-77546287D01*
X120350500Y-77333713D01*
X120317246Y-77123757D01*
X120251557Y-76921588D01*
X120155051Y-76732184D01*
X120155049Y-76732181D01*
X120155048Y-76732179D01*
X120030109Y-76560213D01*
X119879786Y-76409890D01*
X119707820Y-76284951D01*
X119707115Y-76284591D01*
X119699054Y-76280485D01*
X119648259Y-76232512D01*
X119631463Y-76164692D01*
X119653999Y-76098556D01*
X119699054Y-76059515D01*
X119707816Y-76055051D01*
X119729789Y-76039086D01*
X119879786Y-75930109D01*
X119879788Y-75930106D01*
X119879792Y-75930104D01*
X120030104Y-75779792D01*
X120030106Y-75779788D01*
X120030109Y-75779786D01*
X120155048Y-75607820D01*
X120155047Y-75607820D01*
X120155051Y-75607816D01*
X120251557Y-75418412D01*
X120317246Y-75216243D01*
X120350500Y-75006287D01*
X120350500Y-74793713D01*
X120317246Y-74583757D01*
X120251557Y-74381588D01*
X120155051Y-74192184D01*
X120155049Y-74192181D01*
X120155048Y-74192179D01*
X120030109Y-74020213D01*
X119879786Y-73869890D01*
X119707820Y-73744951D01*
X119707115Y-73744591D01*
X119699054Y-73740485D01*
X119648259Y-73692512D01*
X119631463Y-73624692D01*
X119653999Y-73558556D01*
X119699054Y-73519515D01*
X119707816Y-73515051D01*
X119729789Y-73499086D01*
X119879786Y-73390109D01*
X119879788Y-73390106D01*
X119879792Y-73390104D01*
X120030104Y-73239792D01*
X120030106Y-73239788D01*
X120030109Y-73239786D01*
X120155048Y-73067820D01*
X120155047Y-73067820D01*
X120155051Y-73067816D01*
X120251557Y-72878412D01*
X120317246Y-72676243D01*
X120350500Y-72466287D01*
X120350500Y-72253713D01*
X120317246Y-72043757D01*
X120251557Y-71841588D01*
X120155051Y-71652184D01*
X120155049Y-71652181D01*
X120155048Y-71652179D01*
X120030109Y-71480213D01*
X119879786Y-71329890D01*
X119707820Y-71204951D01*
X119707115Y-71204591D01*
X119699054Y-71200485D01*
X119648259Y-71152512D01*
X119631463Y-71084692D01*
X119653999Y-71018556D01*
X119699054Y-70979515D01*
X119707816Y-70975051D01*
X119729789Y-70959086D01*
X119879786Y-70850109D01*
X119879788Y-70850106D01*
X119879792Y-70850104D01*
X120030104Y-70699792D01*
X120030106Y-70699788D01*
X120030109Y-70699786D01*
X120155048Y-70527820D01*
X120155047Y-70527820D01*
X120155051Y-70527816D01*
X120251557Y-70338412D01*
X120317246Y-70136243D01*
X120350500Y-69926287D01*
X120350500Y-69713713D01*
X120317246Y-69503757D01*
X120251557Y-69301588D01*
X120155051Y-69112184D01*
X120155049Y-69112181D01*
X120155048Y-69112179D01*
X120030109Y-68940213D01*
X119879786Y-68789890D01*
X119707820Y-68664951D01*
X119707115Y-68664591D01*
X119699054Y-68660485D01*
X119648259Y-68612512D01*
X119631463Y-68544692D01*
X119653999Y-68478556D01*
X119699054Y-68439515D01*
X119707816Y-68435051D01*
X119756060Y-68400000D01*
X119879786Y-68310109D01*
X119879788Y-68310106D01*
X119879792Y-68310104D01*
X120030104Y-68159792D01*
X120030106Y-68159788D01*
X120030109Y-68159786D01*
X120155048Y-67987820D01*
X120155047Y-67987820D01*
X120155051Y-67987816D01*
X120251557Y-67798412D01*
X120317246Y-67596243D01*
X120350500Y-67386287D01*
X120350500Y-67173713D01*
X120317246Y-66963757D01*
X120251557Y-66761588D01*
X120155051Y-66572184D01*
X120155049Y-66572181D01*
X120155048Y-66572179D01*
X120030109Y-66400213D01*
X119879786Y-66249890D01*
X119707817Y-66124949D01*
X119698504Y-66120204D01*
X119647707Y-66072230D01*
X119630912Y-66004409D01*
X119653449Y-65938274D01*
X119698507Y-65899232D01*
X119707555Y-65894622D01*
X119761716Y-65855270D01*
X119761717Y-65855270D01*
X119170233Y-65263787D01*
X119212292Y-65252518D01*
X119337708Y-65180110D01*
X119440110Y-65077708D01*
X119512518Y-64952292D01*
X119523787Y-64910234D01*
X120115270Y-65501717D01*
X120115270Y-65501716D01*
X120154622Y-65447554D01*
X120251095Y-65258217D01*
X120316757Y-65056130D01*
X120316757Y-65056127D01*
X120350000Y-64846246D01*
X120350000Y-64633753D01*
X120316757Y-64423872D01*
X120316757Y-64423869D01*
X120251095Y-64221782D01*
X120154624Y-64032449D01*
X120115270Y-63978282D01*
X120115269Y-63978282D01*
X119523787Y-64569765D01*
X119512518Y-64527708D01*
X119440110Y-64402292D01*
X119337708Y-64299890D01*
X119212292Y-64227482D01*
X119170234Y-64216212D01*
X119544310Y-63842135D01*
X132889500Y-63842135D01*
X132889500Y-65637870D01*
X132889501Y-65637876D01*
X132895908Y-65697483D01*
X132946202Y-65832328D01*
X132946206Y-65832335D01*
X133032452Y-65947544D01*
X133032455Y-65947547D01*
X133147664Y-66033793D01*
X133147671Y-66033797D01*
X133279082Y-66082810D01*
X133335016Y-66124681D01*
X133359433Y-66190145D01*
X133344582Y-66258418D01*
X133323431Y-66286673D01*
X133209889Y-66400215D01*
X133084951Y-66572179D01*
X132988444Y-66761585D01*
X132922753Y-66963760D01*
X132889500Y-67173713D01*
X132889500Y-67386287D01*
X132922754Y-67596243D01*
X132955031Y-67695582D01*
X132988444Y-67798414D01*
X133084951Y-67987820D01*
X133209890Y-68159786D01*
X133360213Y-68310109D01*
X133532182Y-68435050D01*
X133540946Y-68439516D01*
X133591742Y-68487491D01*
X133608536Y-68555312D01*
X133585998Y-68621447D01*
X133540946Y-68660484D01*
X133532182Y-68664949D01*
X133360213Y-68789890D01*
X133209890Y-68940213D01*
X133084951Y-69112179D01*
X132988444Y-69301585D01*
X132922753Y-69503760D01*
X132889500Y-69713713D01*
X132889500Y-69926286D01*
X132920976Y-70125021D01*
X132922754Y-70136243D01*
X132967212Y-70273071D01*
X132988444Y-70338414D01*
X133084951Y-70527820D01*
X133209890Y-70699786D01*
X133360213Y-70850109D01*
X133532182Y-70975050D01*
X133540946Y-70979516D01*
X133591742Y-71027491D01*
X133608536Y-71095312D01*
X133585998Y-71161447D01*
X133540946Y-71200484D01*
X133532182Y-71204949D01*
X133360213Y-71329890D01*
X133209890Y-71480213D01*
X133084951Y-71652179D01*
X132988444Y-71841585D01*
X132922753Y-72043760D01*
X132889500Y-72253713D01*
X132889500Y-72466286D01*
X132922753Y-72676239D01*
X132988444Y-72878414D01*
X133084951Y-73067820D01*
X133209890Y-73239786D01*
X133360213Y-73390109D01*
X133532182Y-73515050D01*
X133540946Y-73519516D01*
X133591742Y-73567491D01*
X133608536Y-73635312D01*
X133585998Y-73701447D01*
X133540946Y-73740484D01*
X133532182Y-73744949D01*
X133360213Y-73869890D01*
X133209890Y-74020213D01*
X133084951Y-74192179D01*
X132988444Y-74381585D01*
X132922753Y-74583760D01*
X132889500Y-74793713D01*
X132889500Y-75006286D01*
X132922753Y-75216239D01*
X132988444Y-75418414D01*
X133084951Y-75607820D01*
X133209890Y-75779786D01*
X133360213Y-75930109D01*
X133532182Y-76055050D01*
X133540946Y-76059516D01*
X133591742Y-76107491D01*
X133608536Y-76175312D01*
X133585998Y-76241447D01*
X133540946Y-76280484D01*
X133532182Y-76284949D01*
X133360213Y-76409890D01*
X133209890Y-76560213D01*
X133084951Y-76732179D01*
X132988444Y-76921585D01*
X132922753Y-77123760D01*
X132889500Y-77333713D01*
X132889500Y-77546286D01*
X132922753Y-77756239D01*
X132988444Y-77958414D01*
X133084951Y-78147820D01*
X133209890Y-78319786D01*
X133360213Y-78470109D01*
X133532182Y-78595050D01*
X133540946Y-78599516D01*
X133591742Y-78647491D01*
X133608536Y-78715312D01*
X133585998Y-78781447D01*
X133540946Y-78820484D01*
X133532182Y-78824949D01*
X133360213Y-78949890D01*
X133209890Y-79100213D01*
X133084951Y-79272179D01*
X132988444Y-79461585D01*
X132922753Y-79663760D01*
X132889500Y-79873713D01*
X132889500Y-80086286D01*
X132922753Y-80296239D01*
X132988444Y-80498414D01*
X133084951Y-80687820D01*
X133209890Y-80859786D01*
X133360213Y-81010109D01*
X133532182Y-81135050D01*
X133540946Y-81139516D01*
X133591742Y-81187491D01*
X133608536Y-81255312D01*
X133585998Y-81321447D01*
X133540946Y-81360484D01*
X133532182Y-81364949D01*
X133360213Y-81489890D01*
X133209890Y-81640213D01*
X133084951Y-81812179D01*
X132988444Y-82001585D01*
X132922753Y-82203760D01*
X132897162Y-82365338D01*
X132889500Y-82413713D01*
X132889500Y-82626287D01*
X132922754Y-82836243D01*
X132956182Y-82939124D01*
X132988444Y-83038414D01*
X133084951Y-83227820D01*
X133209890Y-83399786D01*
X133360213Y-83550109D01*
X133532182Y-83675050D01*
X133540946Y-83679516D01*
X133591742Y-83727491D01*
X133608536Y-83795312D01*
X133585998Y-83861447D01*
X133540946Y-83900484D01*
X133532182Y-83904949D01*
X133360213Y-84029890D01*
X133209890Y-84180213D01*
X133084951Y-84352179D01*
X132988444Y-84541585D01*
X132922753Y-84743760D01*
X132889500Y-84953713D01*
X132889500Y-85166286D01*
X132919590Y-85356271D01*
X132922754Y-85376243D01*
X132983672Y-85563729D01*
X132988444Y-85578414D01*
X133084951Y-85767820D01*
X133209890Y-85939786D01*
X133360213Y-86090109D01*
X133532182Y-86215050D01*
X133540946Y-86219516D01*
X133591742Y-86267491D01*
X133608536Y-86335312D01*
X133585998Y-86401447D01*
X133540946Y-86440484D01*
X133532182Y-86444949D01*
X133360213Y-86569890D01*
X133209890Y-86720213D01*
X133084951Y-86892179D01*
X132988444Y-87081585D01*
X132922753Y-87283760D01*
X132889500Y-87493713D01*
X132889500Y-87706286D01*
X132919590Y-87896271D01*
X132922754Y-87916243D01*
X132983672Y-88103729D01*
X132988444Y-88118414D01*
X133084951Y-88307820D01*
X133209890Y-88479786D01*
X133360213Y-88630109D01*
X133532182Y-88755050D01*
X133540946Y-88759516D01*
X133591742Y-88807491D01*
X133608536Y-88875312D01*
X133585998Y-88941447D01*
X133540946Y-88980484D01*
X133532182Y-88984949D01*
X133360213Y-89109890D01*
X133209890Y-89260213D01*
X133084951Y-89432179D01*
X132988444Y-89621585D01*
X132922753Y-89823760D01*
X132889500Y-90033713D01*
X132889500Y-90246286D01*
X132922753Y-90456239D01*
X132988444Y-90658414D01*
X133084951Y-90847820D01*
X133209890Y-91019786D01*
X133360213Y-91170109D01*
X133532182Y-91295050D01*
X133540946Y-91299516D01*
X133591742Y-91347491D01*
X133608536Y-91415312D01*
X133585998Y-91481447D01*
X133540946Y-91520484D01*
X133532182Y-91524949D01*
X133360213Y-91649890D01*
X133209890Y-91800213D01*
X133084951Y-91972179D01*
X132988444Y-92161585D01*
X132922753Y-92363760D01*
X132904197Y-92480922D01*
X132889500Y-92573713D01*
X132889500Y-92786287D01*
X132922754Y-92996243D01*
X132941137Y-93052821D01*
X132988444Y-93198414D01*
X133084951Y-93387820D01*
X133209890Y-93559786D01*
X133360213Y-93710109D01*
X133532182Y-93835050D01*
X133540946Y-93839516D01*
X133591742Y-93887491D01*
X133608536Y-93955312D01*
X133585998Y-94021447D01*
X133540946Y-94060484D01*
X133532182Y-94064949D01*
X133360213Y-94189890D01*
X133209890Y-94340213D01*
X133084951Y-94512179D01*
X132988444Y-94701585D01*
X132922753Y-94903760D01*
X132904197Y-95020922D01*
X132889500Y-95113713D01*
X132889500Y-95326287D01*
X132922754Y-95536243D01*
X132941137Y-95592821D01*
X132988444Y-95738414D01*
X133084951Y-95927820D01*
X133209890Y-96099786D01*
X133360213Y-96250109D01*
X133532182Y-96375050D01*
X133540946Y-96379516D01*
X133591742Y-96427491D01*
X133608536Y-96495312D01*
X133585998Y-96561447D01*
X133540946Y-96600484D01*
X133532182Y-96604949D01*
X133360213Y-96729890D01*
X133209890Y-96880213D01*
X133084951Y-97052179D01*
X132988444Y-97241585D01*
X132922753Y-97443760D01*
X132889500Y-97653713D01*
X132889500Y-97866286D01*
X132922753Y-98076239D01*
X132988444Y-98278414D01*
X133084951Y-98467820D01*
X133209890Y-98639786D01*
X133360213Y-98790109D01*
X133532182Y-98915050D01*
X133540946Y-98919516D01*
X133591742Y-98967491D01*
X133608536Y-99035312D01*
X133585998Y-99101447D01*
X133540946Y-99140484D01*
X133532182Y-99144949D01*
X133360213Y-99269890D01*
X133209890Y-99420213D01*
X133084951Y-99592179D01*
X132988444Y-99781585D01*
X132922753Y-99983760D01*
X132889500Y-100193713D01*
X132889500Y-100406286D01*
X132914054Y-100561318D01*
X132922754Y-100616243D01*
X132980913Y-100795238D01*
X132988444Y-100818414D01*
X133084951Y-101007820D01*
X133209890Y-101179786D01*
X133360213Y-101330109D01*
X133532182Y-101455050D01*
X133540946Y-101459516D01*
X133591742Y-101507491D01*
X133608536Y-101575312D01*
X133585998Y-101641447D01*
X133540946Y-101680484D01*
X133532182Y-101684949D01*
X133360213Y-101809890D01*
X133209890Y-101960213D01*
X133084951Y-102132179D01*
X132988444Y-102321585D01*
X132922753Y-102523760D01*
X132889500Y-102733713D01*
X132889500Y-102946286D01*
X132911055Y-103082383D01*
X132922754Y-103156243D01*
X132962338Y-103278070D01*
X132988444Y-103358414D01*
X133084951Y-103547820D01*
X133209890Y-103719786D01*
X133360213Y-103870109D01*
X133532182Y-103995050D01*
X133540946Y-103999516D01*
X133591742Y-104047491D01*
X133608536Y-104115312D01*
X133585998Y-104181447D01*
X133540946Y-104220484D01*
X133532182Y-104224949D01*
X133360213Y-104349890D01*
X133209890Y-104500213D01*
X133084951Y-104672179D01*
X132988444Y-104861585D01*
X132922753Y-105063760D01*
X132908209Y-105155588D01*
X132889500Y-105273713D01*
X132889500Y-105486287D01*
X132922754Y-105696243D01*
X132936334Y-105738039D01*
X132988444Y-105898414D01*
X133084951Y-106087820D01*
X133209890Y-106259786D01*
X133360213Y-106410109D01*
X133532182Y-106535050D01*
X133540946Y-106539516D01*
X133591742Y-106587491D01*
X133608536Y-106655312D01*
X133585998Y-106721447D01*
X133540946Y-106760484D01*
X133532182Y-106764949D01*
X133360213Y-106889890D01*
X133209890Y-107040213D01*
X133084951Y-107212179D01*
X132988444Y-107401585D01*
X132922753Y-107603760D01*
X132901603Y-107737299D01*
X132889500Y-107813713D01*
X132889500Y-108026287D01*
X132922754Y-108236243D01*
X132981630Y-108417445D01*
X132988444Y-108438414D01*
X133084951Y-108627820D01*
X133209890Y-108799786D01*
X133360213Y-108950109D01*
X133532182Y-109075050D01*
X133540946Y-109079516D01*
X133591742Y-109127491D01*
X133608536Y-109195312D01*
X133585998Y-109261447D01*
X133540946Y-109300484D01*
X133532182Y-109304949D01*
X133360213Y-109429890D01*
X133209890Y-109580213D01*
X133084951Y-109752179D01*
X132988444Y-109941585D01*
X132922753Y-110143760D01*
X132889500Y-110353713D01*
X132889500Y-110566286D01*
X132912567Y-110711929D01*
X132922754Y-110776243D01*
X132960412Y-110892143D01*
X132988444Y-110978414D01*
X133084951Y-111167820D01*
X133209890Y-111339786D01*
X133360213Y-111490109D01*
X133532179Y-111615048D01*
X133532181Y-111615049D01*
X133532184Y-111615051D01*
X133541493Y-111619794D01*
X133592290Y-111667766D01*
X133609087Y-111735587D01*
X133586552Y-111801722D01*
X133541505Y-111840760D01*
X133532446Y-111845376D01*
X133532440Y-111845380D01*
X133478282Y-111884727D01*
X133478282Y-111884728D01*
X134069766Y-112476212D01*
X134027708Y-112487482D01*
X133902292Y-112559890D01*
X133799890Y-112662292D01*
X133727482Y-112787708D01*
X133716212Y-112829766D01*
X133124728Y-112238282D01*
X133124727Y-112238282D01*
X133085380Y-112292439D01*
X132988904Y-112481782D01*
X132923242Y-112683869D01*
X132923242Y-112683872D01*
X132890000Y-112893753D01*
X132890000Y-113106246D01*
X132923242Y-113316127D01*
X132923242Y-113316130D01*
X132988904Y-113518217D01*
X133085375Y-113707550D01*
X133124728Y-113761716D01*
X133716212Y-113170233D01*
X133727482Y-113212292D01*
X133799890Y-113337708D01*
X133902292Y-113440110D01*
X134027708Y-113512518D01*
X134069765Y-113523787D01*
X133478282Y-114115269D01*
X133478282Y-114115270D01*
X133532449Y-114154624D01*
X133721782Y-114251095D01*
X133923870Y-114316757D01*
X134133754Y-114350000D01*
X134346246Y-114350000D01*
X134556127Y-114316757D01*
X134556130Y-114316757D01*
X134758217Y-114251095D01*
X134947554Y-114154622D01*
X135001716Y-114115270D01*
X135001717Y-114115270D01*
X134410233Y-113523787D01*
X134452292Y-113512518D01*
X134577708Y-113440110D01*
X134680110Y-113337708D01*
X134752518Y-113212292D01*
X134763787Y-113170233D01*
X135355270Y-113761717D01*
X135355270Y-113761716D01*
X135394622Y-113707554D01*
X135491095Y-113518217D01*
X135556757Y-113316130D01*
X135556757Y-113316127D01*
X135590000Y-113106246D01*
X135590000Y-112893753D01*
X135556757Y-112683872D01*
X135556757Y-112683869D01*
X135491095Y-112481782D01*
X135394624Y-112292449D01*
X135355270Y-112238282D01*
X135355269Y-112238282D01*
X134763787Y-112829765D01*
X134752518Y-112787708D01*
X134680110Y-112662292D01*
X134577708Y-112559890D01*
X134452292Y-112487482D01*
X134410233Y-112476212D01*
X135001716Y-111884728D01*
X134947547Y-111845373D01*
X134947547Y-111845372D01*
X134938500Y-111840763D01*
X134887706Y-111792788D01*
X134870912Y-111724966D01*
X134893451Y-111658832D01*
X134938508Y-111619793D01*
X134947816Y-111615051D01*
X135066651Y-111528713D01*
X135119786Y-111490109D01*
X135119788Y-111490106D01*
X135119792Y-111490104D01*
X135270104Y-111339792D01*
X135270106Y-111339788D01*
X135270109Y-111339786D01*
X135395048Y-111167820D01*
X135395047Y-111167820D01*
X135395051Y-111167816D01*
X135491557Y-110978412D01*
X135557246Y-110776243D01*
X135590500Y-110566287D01*
X135590500Y-110353713D01*
X135557246Y-110143757D01*
X135491557Y-109941588D01*
X135395051Y-109752184D01*
X135395049Y-109752181D01*
X135395048Y-109752179D01*
X135270109Y-109580213D01*
X135119786Y-109429890D01*
X134947820Y-109304951D01*
X134947115Y-109304591D01*
X134939054Y-109300485D01*
X134888259Y-109252512D01*
X134871463Y-109184692D01*
X134893999Y-109118556D01*
X134939054Y-109079515D01*
X134947816Y-109075051D01*
X134977110Y-109053768D01*
X135119786Y-108950109D01*
X135119788Y-108950106D01*
X135119792Y-108950104D01*
X135270104Y-108799792D01*
X135270106Y-108799788D01*
X135270109Y-108799786D01*
X135395048Y-108627820D01*
X135395047Y-108627820D01*
X135395051Y-108627816D01*
X135491557Y-108438412D01*
X135557246Y-108236243D01*
X135590500Y-108026287D01*
X135590500Y-107813713D01*
X135557246Y-107603757D01*
X135491557Y-107401588D01*
X135395051Y-107212184D01*
X135395049Y-107212181D01*
X135395048Y-107212179D01*
X135270109Y-107040213D01*
X135119786Y-106889890D01*
X135111500Y-106883870D01*
X140274500Y-106883870D01*
X140274500Y-107116129D01*
X140310831Y-107345514D01*
X140382601Y-107566400D01*
X140469680Y-107737299D01*
X140488039Y-107773331D01*
X140624551Y-107961224D01*
X140788776Y-108125449D01*
X140976669Y-108261961D01*
X141073382Y-108311239D01*
X141183599Y-108367398D01*
X141183601Y-108367398D01*
X141183604Y-108367400D01*
X141404486Y-108439169D01*
X141522668Y-108457886D01*
X141633871Y-108475500D01*
X141633876Y-108475500D01*
X141866129Y-108475500D01*
X141967502Y-108459443D01*
X142095514Y-108439169D01*
X142316396Y-108367400D01*
X142523331Y-108261961D01*
X142711224Y-108125449D01*
X142875449Y-107961224D01*
X143011961Y-107773331D01*
X143117400Y-107566396D01*
X143189169Y-107345514D01*
X143219251Y-107155581D01*
X143225500Y-107116129D01*
X143225500Y-106883870D01*
X152774500Y-106883870D01*
X152774500Y-107116129D01*
X152810831Y-107345514D01*
X152882601Y-107566400D01*
X152969680Y-107737299D01*
X152988039Y-107773331D01*
X153124551Y-107961224D01*
X153288776Y-108125449D01*
X153476669Y-108261961D01*
X153573382Y-108311239D01*
X153683599Y-108367398D01*
X153683601Y-108367398D01*
X153683604Y-108367400D01*
X153904486Y-108439169D01*
X154022668Y-108457886D01*
X154133871Y-108475500D01*
X154133876Y-108475500D01*
X154366129Y-108475500D01*
X154467502Y-108459443D01*
X154595514Y-108439169D01*
X154816396Y-108367400D01*
X155023331Y-108261961D01*
X155211224Y-108125449D01*
X155375449Y-107961224D01*
X155511961Y-107773331D01*
X155617400Y-107566396D01*
X155689169Y-107345514D01*
X155719251Y-107155581D01*
X155725500Y-107116129D01*
X155725500Y-106883870D01*
X155698267Y-106711930D01*
X155689169Y-106654486D01*
X155617400Y-106433604D01*
X155617398Y-106433601D01*
X155617398Y-106433599D01*
X155511960Y-106226668D01*
X155411081Y-106087820D01*
X155375449Y-106038776D01*
X155211224Y-105874551D01*
X155023331Y-105738039D01*
X155021879Y-105737299D01*
X154816400Y-105632601D01*
X154595514Y-105560831D01*
X154366129Y-105524500D01*
X154366124Y-105524500D01*
X154133876Y-105524500D01*
X154133871Y-105524500D01*
X153904485Y-105560831D01*
X153683599Y-105632601D01*
X153476668Y-105738039D01*
X153288773Y-105874553D01*
X153124553Y-106038773D01*
X152988039Y-106226668D01*
X152882601Y-106433599D01*
X152810831Y-106654485D01*
X152774500Y-106883870D01*
X143225500Y-106883870D01*
X143198267Y-106711930D01*
X143189169Y-106654486D01*
X143117400Y-106433604D01*
X143117398Y-106433601D01*
X143117398Y-106433599D01*
X143011960Y-106226668D01*
X142911081Y-106087820D01*
X142875449Y-106038776D01*
X142711224Y-105874551D01*
X142523331Y-105738039D01*
X142521879Y-105737299D01*
X142316400Y-105632601D01*
X142095514Y-105560831D01*
X141866129Y-105524500D01*
X141866124Y-105524500D01*
X141633876Y-105524500D01*
X141633871Y-105524500D01*
X141404485Y-105560831D01*
X141183599Y-105632601D01*
X140976668Y-105738039D01*
X140788773Y-105874553D01*
X140624553Y-106038773D01*
X140488039Y-106226668D01*
X140382601Y-106433599D01*
X140310831Y-106654485D01*
X140274500Y-106883870D01*
X135111500Y-106883870D01*
X134947820Y-106764951D01*
X134947115Y-106764591D01*
X134939054Y-106760485D01*
X134888259Y-106712512D01*
X134871463Y-106644692D01*
X134893999Y-106578556D01*
X134939054Y-106539515D01*
X134947816Y-106535051D01*
X135087454Y-106433599D01*
X135119786Y-106410109D01*
X135119788Y-106410106D01*
X135119792Y-106410104D01*
X135270104Y-106259792D01*
X135270106Y-106259788D01*
X135270109Y-106259786D01*
X135395048Y-106087820D01*
X135395047Y-106087820D01*
X135395051Y-106087816D01*
X135491557Y-105898412D01*
X135557246Y-105696243D01*
X135590500Y-105486287D01*
X135590500Y-105273713D01*
X135557246Y-105063757D01*
X135491557Y-104861588D01*
X135395051Y-104672184D01*
X135395049Y-104672181D01*
X135395048Y-104672179D01*
X135270109Y-104500213D01*
X135119786Y-104349890D01*
X134947820Y-104224951D01*
X134947115Y-104224591D01*
X134939054Y-104220485D01*
X134888259Y-104172512D01*
X134871463Y-104104692D01*
X134893999Y-104038556D01*
X134939054Y-103999515D01*
X134947816Y-103995051D01*
X135016556Y-103945109D01*
X135119786Y-103870109D01*
X135119788Y-103870106D01*
X135119792Y-103870104D01*
X135270104Y-103719792D01*
X135270106Y-103719788D01*
X135270109Y-103719786D01*
X135395048Y-103547820D01*
X135395047Y-103547820D01*
X135395051Y-103547816D01*
X135491557Y-103358412D01*
X135557246Y-103156243D01*
X135590500Y-102946287D01*
X135590500Y-102733713D01*
X135557246Y-102523757D01*
X135491557Y-102321588D01*
X135484578Y-102307890D01*
X135457596Y-102254934D01*
X135457595Y-102254933D01*
X135424305Y-102189598D01*
X135395051Y-102132184D01*
X135324598Y-102035213D01*
X135270113Y-101960219D01*
X135270106Y-101960211D01*
X135270104Y-101960208D01*
X135119792Y-101809896D01*
X135119786Y-101809890D01*
X134947820Y-101684951D01*
X134947115Y-101684591D01*
X134939054Y-101680485D01*
X134888259Y-101632512D01*
X134871463Y-101564692D01*
X134893999Y-101498556D01*
X134939054Y-101459515D01*
X134947816Y-101455051D01*
X134990585Y-101423978D01*
X135119786Y-101330109D01*
X135119788Y-101330106D01*
X135119792Y-101330104D01*
X135270104Y-101179792D01*
X135270106Y-101179788D01*
X135270109Y-101179786D01*
X135324899Y-101104371D01*
X135395051Y-101007816D01*
X135410674Y-100977155D01*
X140275000Y-100977155D01*
X140275000Y-101750000D01*
X141149999Y-101750000D01*
X141124979Y-101810402D01*
X141100000Y-101935981D01*
X141100000Y-102064019D01*
X141124979Y-102189598D01*
X141149999Y-102250000D01*
X140275000Y-102250000D01*
X140275000Y-103022844D01*
X140281401Y-103082372D01*
X140281403Y-103082379D01*
X140331645Y-103217086D01*
X140331649Y-103217093D01*
X140417809Y-103332187D01*
X140417812Y-103332190D01*
X140532906Y-103418350D01*
X140532913Y-103418354D01*
X140667620Y-103468596D01*
X140667627Y-103468598D01*
X140727155Y-103474999D01*
X140727172Y-103475000D01*
X141500000Y-103475000D01*
X141500000Y-102600001D01*
X141560402Y-102625021D01*
X141685981Y-102650000D01*
X141814019Y-102650000D01*
X141939598Y-102625021D01*
X142000000Y-102600001D01*
X142000000Y-103475000D01*
X142772828Y-103475000D01*
X142772844Y-103474999D01*
X142832372Y-103468598D01*
X142832379Y-103468596D01*
X142967086Y-103418354D01*
X142967093Y-103418350D01*
X143082187Y-103332190D01*
X143082190Y-103332187D01*
X143168350Y-103217093D01*
X143168353Y-103217088D01*
X143206741Y-103114167D01*
X143206742Y-103114165D01*
X143218595Y-103082383D01*
X143218598Y-103082372D01*
X143224999Y-103022844D01*
X143225000Y-103022827D01*
X143225000Y-102250000D01*
X142350001Y-102250000D01*
X142375021Y-102189598D01*
X142400000Y-102064019D01*
X142400000Y-101935981D01*
X142389642Y-101883909D01*
X152775000Y-101883909D01*
X152775000Y-102116090D01*
X152811318Y-102345393D01*
X152883065Y-102566205D01*
X152988465Y-102773064D01*
X153045238Y-102851207D01*
X153648958Y-102247487D01*
X153673978Y-102307890D01*
X153745112Y-102414351D01*
X153835649Y-102504888D01*
X153942110Y-102576022D01*
X154002510Y-102601041D01*
X153398791Y-103204759D01*
X153398791Y-103204760D01*
X153476935Y-103261534D01*
X153683794Y-103366934D01*
X153904606Y-103438681D01*
X154133910Y-103475000D01*
X154366090Y-103475000D01*
X154595393Y-103438681D01*
X154816205Y-103366934D01*
X155023071Y-103261530D01*
X155101207Y-103204762D01*
X155101208Y-103204760D01*
X154497488Y-102601041D01*
X154557890Y-102576022D01*
X154664351Y-102504888D01*
X154754888Y-102414351D01*
X154826022Y-102307890D01*
X154851041Y-102247489D01*
X155454760Y-102851208D01*
X155454762Y-102851207D01*
X155511530Y-102773071D01*
X155616934Y-102566205D01*
X155688681Y-102345393D01*
X155725000Y-102116090D01*
X155725000Y-101883909D01*
X155688681Y-101654606D01*
X155616934Y-101433794D01*
X155511534Y-101226935D01*
X155454760Y-101148791D01*
X155454759Y-101148791D01*
X154851041Y-101752510D01*
X154826022Y-101692110D01*
X154754888Y-101585649D01*
X154664351Y-101495112D01*
X154557890Y-101423978D01*
X154497487Y-101398957D01*
X155101207Y-100795238D01*
X155023064Y-100738465D01*
X154816205Y-100633065D01*
X154595393Y-100561318D01*
X154366090Y-100525000D01*
X154133910Y-100525000D01*
X153904606Y-100561318D01*
X153683794Y-100633065D01*
X153476925Y-100738470D01*
X153398791Y-100795237D01*
X153398791Y-100795238D01*
X154002511Y-101398958D01*
X153942110Y-101423978D01*
X153835649Y-101495112D01*
X153745112Y-101585649D01*
X153673978Y-101692110D01*
X153648958Y-101752511D01*
X153045238Y-101148791D01*
X153045237Y-101148791D01*
X152988470Y-101226925D01*
X152883065Y-101433794D01*
X152811318Y-101654606D01*
X152775000Y-101883909D01*
X142389642Y-101883909D01*
X142375021Y-101810402D01*
X142350001Y-101750000D01*
X143225000Y-101750000D01*
X143225000Y-100977172D01*
X143224999Y-100977155D01*
X143218598Y-100917627D01*
X143218596Y-100917619D01*
X143206740Y-100885830D01*
X143168354Y-100782913D01*
X143168350Y-100782906D01*
X143082190Y-100667812D01*
X143082187Y-100667809D01*
X142967093Y-100581649D01*
X142967086Y-100581645D01*
X142832379Y-100531403D01*
X142832372Y-100531401D01*
X142772844Y-100525000D01*
X142000000Y-100525000D01*
X142000000Y-101399998D01*
X141939598Y-101374979D01*
X141814019Y-101350000D01*
X141685981Y-101350000D01*
X141560402Y-101374979D01*
X141500000Y-101399998D01*
X141500000Y-100525000D01*
X140727155Y-100525000D01*
X140667627Y-100531401D01*
X140667620Y-100531403D01*
X140532913Y-100581645D01*
X140532906Y-100581649D01*
X140417812Y-100667809D01*
X140417809Y-100667812D01*
X140331649Y-100782906D01*
X140331645Y-100782913D01*
X140281403Y-100917620D01*
X140281401Y-100917627D01*
X140275000Y-100977155D01*
X135410674Y-100977155D01*
X135491557Y-100818412D01*
X135557246Y-100616243D01*
X135590500Y-100406287D01*
X135590500Y-100193713D01*
X135557246Y-99983757D01*
X135491557Y-99781588D01*
X135395051Y-99592184D01*
X135395049Y-99592181D01*
X135395048Y-99592179D01*
X135270109Y-99420213D01*
X135119786Y-99269890D01*
X134947820Y-99144951D01*
X134947115Y-99144591D01*
X134939054Y-99140485D01*
X134888259Y-99092512D01*
X134871463Y-99024692D01*
X134893999Y-98958556D01*
X134939054Y-98919515D01*
X134947816Y-98915051D01*
X134969789Y-98899086D01*
X135119786Y-98790109D01*
X135119788Y-98790106D01*
X135119792Y-98790104D01*
X135270104Y-98639792D01*
X135270106Y-98639788D01*
X135270109Y-98639786D01*
X135395048Y-98467820D01*
X135395047Y-98467820D01*
X135395051Y-98467816D01*
X135491557Y-98278412D01*
X135557246Y-98076243D01*
X135590500Y-97866287D01*
X135590500Y-97653713D01*
X135557246Y-97443757D01*
X135491557Y-97241588D01*
X135395051Y-97052184D01*
X135395049Y-97052181D01*
X135395048Y-97052179D01*
X135270109Y-96880213D01*
X135119786Y-96729890D01*
X134947820Y-96604951D01*
X134947115Y-96604591D01*
X134939054Y-96600485D01*
X134888259Y-96552512D01*
X134871463Y-96484692D01*
X134893999Y-96418556D01*
X134939054Y-96379515D01*
X134947816Y-96375051D01*
X134969789Y-96359086D01*
X135119786Y-96250109D01*
X135119788Y-96250106D01*
X135119792Y-96250104D01*
X135270104Y-96099792D01*
X135270106Y-96099788D01*
X135270109Y-96099786D01*
X135395048Y-95927820D01*
X135395047Y-95927820D01*
X135395051Y-95927816D01*
X135491557Y-95738412D01*
X135557246Y-95536243D01*
X135590500Y-95326287D01*
X135590500Y-95113713D01*
X135557246Y-94903757D01*
X135491557Y-94701588D01*
X135395051Y-94512184D01*
X135395049Y-94512181D01*
X135395048Y-94512179D01*
X135270109Y-94340213D01*
X135119786Y-94189890D01*
X134947820Y-94064951D01*
X134947115Y-94064591D01*
X134939054Y-94060485D01*
X134888259Y-94012512D01*
X134871463Y-93944692D01*
X134893999Y-93878556D01*
X134939054Y-93839515D01*
X134947816Y-93835051D01*
X134986183Y-93807176D01*
X135119786Y-93710109D01*
X135119788Y-93710106D01*
X135119792Y-93710104D01*
X135270104Y-93559792D01*
X135270106Y-93559788D01*
X135270109Y-93559786D01*
X135395048Y-93387820D01*
X135395047Y-93387820D01*
X135395051Y-93387816D01*
X135491557Y-93198412D01*
X135557246Y-92996243D01*
X135590500Y-92786287D01*
X135590500Y-92573713D01*
X135557246Y-92363757D01*
X135491557Y-92161588D01*
X135395051Y-91972184D01*
X135395049Y-91972181D01*
X135395048Y-91972179D01*
X135270109Y-91800213D01*
X135119786Y-91649890D01*
X134947820Y-91524951D01*
X134947115Y-91524591D01*
X134939054Y-91520485D01*
X134888259Y-91472512D01*
X134871463Y-91404692D01*
X134893999Y-91338556D01*
X134939054Y-91299515D01*
X134947816Y-91295051D01*
X134986183Y-91267176D01*
X135119786Y-91170109D01*
X135119788Y-91170106D01*
X135119792Y-91170104D01*
X135270104Y-91019792D01*
X135270106Y-91019788D01*
X135270109Y-91019786D01*
X135395048Y-90847820D01*
X135395047Y-90847820D01*
X135395051Y-90847816D01*
X135491557Y-90658412D01*
X135557246Y-90456243D01*
X135590500Y-90246287D01*
X135590500Y-90033713D01*
X135557246Y-89823757D01*
X135491557Y-89621588D01*
X135395051Y-89432184D01*
X135395049Y-89432181D01*
X135395048Y-89432179D01*
X135270109Y-89260213D01*
X135119786Y-89109890D01*
X134947820Y-88984951D01*
X134947115Y-88984591D01*
X134939054Y-88980485D01*
X134888259Y-88932512D01*
X134871463Y-88864692D01*
X134893999Y-88798556D01*
X134939054Y-88759515D01*
X134947816Y-88755051D01*
X135036274Y-88690783D01*
X135119786Y-88630109D01*
X135119788Y-88630106D01*
X135119792Y-88630104D01*
X135270104Y-88479792D01*
X135270106Y-88479788D01*
X135270109Y-88479786D01*
X135395048Y-88307820D01*
X135395047Y-88307820D01*
X135395051Y-88307816D01*
X135491557Y-88118412D01*
X135557246Y-87916243D01*
X135590500Y-87706287D01*
X135590500Y-87493713D01*
X135557246Y-87283757D01*
X135491557Y-87081588D01*
X135395051Y-86892184D01*
X135395049Y-86892181D01*
X135395048Y-86892179D01*
X135270109Y-86720213D01*
X135119786Y-86569890D01*
X134947820Y-86444951D01*
X134947115Y-86444591D01*
X134939054Y-86440485D01*
X134888259Y-86392512D01*
X134871463Y-86324692D01*
X134893999Y-86258556D01*
X134939054Y-86219515D01*
X134947816Y-86215051D01*
X135036274Y-86150783D01*
X135119786Y-86090109D01*
X135119788Y-86090106D01*
X135119792Y-86090104D01*
X135270104Y-85939792D01*
X135270106Y-85939788D01*
X135270109Y-85939786D01*
X135395048Y-85767820D01*
X135395047Y-85767820D01*
X135395051Y-85767816D01*
X135491557Y-85578412D01*
X135557246Y-85376243D01*
X135590500Y-85166287D01*
X135590500Y-84953713D01*
X135557246Y-84743757D01*
X135491557Y-84541588D01*
X135435787Y-84432133D01*
X147404500Y-84432133D01*
X147404500Y-84647866D01*
X147438245Y-84860922D01*
X147438246Y-84860926D01*
X147504908Y-85066089D01*
X147602843Y-85258299D01*
X147729641Y-85432821D01*
X147882179Y-85585359D01*
X148003454Y-85673471D01*
X148053294Y-85709682D01*
X148095959Y-85765012D01*
X148101938Y-85834626D01*
X148069332Y-85896421D01*
X148053294Y-85910318D01*
X147882179Y-86034641D01*
X147882177Y-86034643D01*
X147882176Y-86034643D01*
X147729643Y-86187176D01*
X147729643Y-86187177D01*
X147729641Y-86187179D01*
X147709391Y-86215051D01*
X147602843Y-86361700D01*
X147504909Y-86553908D01*
X147438245Y-86759077D01*
X147404500Y-86972133D01*
X147404500Y-87187866D01*
X147438245Y-87400922D01*
X147438246Y-87400926D01*
X147504908Y-87606089D01*
X147602843Y-87798299D01*
X147729641Y-87972821D01*
X147882179Y-88125359D01*
X148053720Y-88249991D01*
X148096385Y-88305321D01*
X148102364Y-88374935D01*
X148069758Y-88436730D01*
X148053720Y-88450627D01*
X147882503Y-88575024D01*
X147730025Y-88727502D01*
X147730025Y-88727503D01*
X147603271Y-88901963D01*
X147505372Y-89094098D01*
X147438733Y-89299190D01*
X147427519Y-89370000D01*
X148457291Y-89370000D01*
X148445548Y-89390339D01*
X148405000Y-89541667D01*
X148405000Y-89698333D01*
X148445548Y-89849661D01*
X148457291Y-89870000D01*
X147427519Y-89870000D01*
X147438733Y-89940809D01*
X147505372Y-90145901D01*
X147603271Y-90338036D01*
X147730025Y-90512496D01*
X147730025Y-90512497D01*
X147882502Y-90664974D01*
X148053720Y-90789372D01*
X148096385Y-90844702D01*
X148102364Y-90914316D01*
X148069758Y-90976110D01*
X148053720Y-90990008D01*
X147882177Y-91114642D01*
X147729643Y-91267176D01*
X147729643Y-91267177D01*
X147729641Y-91267179D01*
X147709391Y-91295051D01*
X147602843Y-91441700D01*
X147504909Y-91633908D01*
X147438245Y-91839077D01*
X147404500Y-92052133D01*
X147404500Y-92267866D01*
X147438245Y-92480922D01*
X147438246Y-92480926D01*
X147504908Y-92686089D01*
X147602843Y-92878299D01*
X147729641Y-93052821D01*
X147882179Y-93205359D01*
X148003454Y-93293471D01*
X148053294Y-93329682D01*
X148095959Y-93385012D01*
X148101938Y-93454626D01*
X148069332Y-93516421D01*
X148053294Y-93530318D01*
X147882179Y-93654641D01*
X147882177Y-93654643D01*
X147882176Y-93654643D01*
X147729643Y-93807176D01*
X147729643Y-93807177D01*
X147729641Y-93807179D01*
X147709391Y-93835051D01*
X147602843Y-93981700D01*
X147504909Y-94173908D01*
X147438245Y-94379077D01*
X147404500Y-94592133D01*
X147404500Y-94807866D01*
X147438245Y-95020922D01*
X147438246Y-95020926D01*
X147504908Y-95226089D01*
X147602843Y-95418299D01*
X147729641Y-95592821D01*
X147882179Y-95745359D01*
X148056701Y-95872157D01*
X148248911Y-95970092D01*
X148454074Y-96036754D01*
X148533973Y-96049408D01*
X148667134Y-96070500D01*
X148667139Y-96070500D01*
X149332866Y-96070500D01*
X149451230Y-96051752D01*
X149545926Y-96036754D01*
X149751089Y-95970092D01*
X149943299Y-95872157D01*
X150117821Y-95745359D01*
X150270359Y-95592821D01*
X150397157Y-95418299D01*
X150495092Y-95226089D01*
X150561754Y-95020926D01*
X150580312Y-94903757D01*
X150595500Y-94807866D01*
X150595500Y-94592133D01*
X150561754Y-94379077D01*
X150561754Y-94379074D01*
X150495092Y-94173911D01*
X150397157Y-93981701D01*
X150270359Y-93807179D01*
X150117821Y-93654641D01*
X149946704Y-93530317D01*
X149904040Y-93474988D01*
X149898061Y-93405374D01*
X149930667Y-93343580D01*
X149946702Y-93329684D01*
X150117821Y-93205359D01*
X150270359Y-93052821D01*
X150397157Y-92878299D01*
X150495092Y-92686089D01*
X150561754Y-92480926D01*
X150580312Y-92363757D01*
X150595500Y-92267866D01*
X150595500Y-92052133D01*
X150561754Y-91839077D01*
X150561754Y-91839074D01*
X150495092Y-91633911D01*
X150397157Y-91441701D01*
X150270359Y-91267179D01*
X150117821Y-91114641D01*
X149946279Y-90990008D01*
X149903614Y-90934678D01*
X149897635Y-90865064D01*
X149930241Y-90803269D01*
X149946280Y-90789372D01*
X150117491Y-90664979D01*
X150117497Y-90664974D01*
X150269974Y-90512497D01*
X150269974Y-90512496D01*
X150396728Y-90338036D01*
X150494627Y-90145901D01*
X150561266Y-89940809D01*
X150572481Y-89870000D01*
X149542709Y-89870000D01*
X149554452Y-89849661D01*
X149595000Y-89698333D01*
X149595000Y-89541667D01*
X149554452Y-89390339D01*
X149542709Y-89370000D01*
X150572481Y-89370000D01*
X150561266Y-89299190D01*
X150494627Y-89094098D01*
X150396728Y-88901963D01*
X150269974Y-88727503D01*
X150269974Y-88727502D01*
X150117497Y-88575025D01*
X149946279Y-88450627D01*
X149903614Y-88395297D01*
X149897635Y-88325683D01*
X149930241Y-88263888D01*
X149946280Y-88249991D01*
X150117821Y-88125359D01*
X150270359Y-87972821D01*
X150397157Y-87798299D01*
X150495092Y-87606089D01*
X150561754Y-87400926D01*
X150580312Y-87283757D01*
X150595500Y-87187866D01*
X150595500Y-86972133D01*
X150568465Y-86801446D01*
X150561754Y-86759074D01*
X150495092Y-86553911D01*
X150397157Y-86361701D01*
X150270359Y-86187179D01*
X150117821Y-86034641D01*
X149946704Y-85910317D01*
X149904040Y-85854988D01*
X149898061Y-85785374D01*
X149930667Y-85723580D01*
X149946702Y-85709684D01*
X150117821Y-85585359D01*
X150270359Y-85432821D01*
X150397157Y-85258299D01*
X150495092Y-85066089D01*
X150561754Y-84860926D01*
X150580312Y-84743757D01*
X150595500Y-84647866D01*
X150595500Y-84432133D01*
X150573002Y-84290095D01*
X150561754Y-84219074D01*
X150495092Y-84013911D01*
X150397157Y-83821701D01*
X150270359Y-83647179D01*
X150127996Y-83504816D01*
X150094511Y-83443493D01*
X150099495Y-83373801D01*
X150141367Y-83317868D01*
X150163289Y-83304745D01*
X150164127Y-83304354D01*
X150313345Y-83212315D01*
X150437315Y-83088345D01*
X150529356Y-82939124D01*
X150529358Y-82939119D01*
X150584505Y-82772697D01*
X150584506Y-82772690D01*
X150594999Y-82669986D01*
X150595000Y-82669973D01*
X150595000Y-82250000D01*
X149542709Y-82250000D01*
X149554452Y-82229661D01*
X149595000Y-82078333D01*
X149595000Y-81921667D01*
X149554452Y-81770339D01*
X149542709Y-81750000D01*
X150594999Y-81750000D01*
X150594999Y-81330028D01*
X150594998Y-81330013D01*
X150584505Y-81227302D01*
X150529358Y-81060880D01*
X150529356Y-81060875D01*
X150437315Y-80911654D01*
X150313345Y-80787684D01*
X150164124Y-80695643D01*
X150164119Y-80695641D01*
X149997697Y-80640494D01*
X149997690Y-80640493D01*
X149894986Y-80630000D01*
X149250000Y-80630000D01*
X149250000Y-81457290D01*
X149229661Y-81445548D01*
X149078333Y-81405000D01*
X148921667Y-81405000D01*
X148770339Y-81445548D01*
X148750000Y-81457290D01*
X148750000Y-80630000D01*
X148105028Y-80630000D01*
X148105012Y-80630001D01*
X148002302Y-80640494D01*
X147835880Y-80695641D01*
X147835875Y-80695643D01*
X147686654Y-80787684D01*
X147562684Y-80911654D01*
X147470643Y-81060875D01*
X147470641Y-81060880D01*
X147415494Y-81227302D01*
X147415493Y-81227309D01*
X147405000Y-81330013D01*
X147405000Y-81750000D01*
X148457291Y-81750000D01*
X148445548Y-81770339D01*
X148405000Y-81921667D01*
X148405000Y-82078333D01*
X148445548Y-82229661D01*
X148457291Y-82250000D01*
X147405001Y-82250000D01*
X147405001Y-82669986D01*
X147415494Y-82772697D01*
X147470641Y-82939119D01*
X147470643Y-82939124D01*
X147562684Y-83088345D01*
X147686654Y-83212315D01*
X147835876Y-83304356D01*
X147836716Y-83304748D01*
X147837195Y-83305170D01*
X147842025Y-83308149D01*
X147841516Y-83308973D01*
X147889160Y-83350915D01*
X147908318Y-83418107D01*
X147888109Y-83484990D01*
X147872004Y-83504816D01*
X147729640Y-83647180D01*
X147602843Y-83821700D01*
X147504909Y-84013908D01*
X147438245Y-84219077D01*
X147404500Y-84432133D01*
X135435787Y-84432133D01*
X135395051Y-84352184D01*
X135395049Y-84352181D01*
X135395048Y-84352179D01*
X135270109Y-84180213D01*
X135119786Y-84029890D01*
X134947820Y-83904951D01*
X134947115Y-83904591D01*
X134939054Y-83900485D01*
X134888259Y-83852512D01*
X134871463Y-83784692D01*
X134893999Y-83718556D01*
X134939054Y-83679515D01*
X134947816Y-83675051D01*
X134969789Y-83659086D01*
X135119786Y-83550109D01*
X135119788Y-83550106D01*
X135119792Y-83550104D01*
X135270104Y-83399792D01*
X135270106Y-83399788D01*
X135270109Y-83399786D01*
X135395048Y-83227820D01*
X135395047Y-83227820D01*
X135395051Y-83227816D01*
X135491557Y-83038412D01*
X135557246Y-82836243D01*
X135590500Y-82626287D01*
X135590500Y-82413713D01*
X135557246Y-82203757D01*
X135491557Y-82001588D01*
X135395051Y-81812184D01*
X135395049Y-81812181D01*
X135395048Y-81812179D01*
X135270109Y-81640213D01*
X135119786Y-81489890D01*
X135034623Y-81428017D01*
X135034607Y-81428006D01*
X134947816Y-81364949D01*
X134931619Y-81356696D01*
X134924760Y-81351947D01*
X134907836Y-81331001D01*
X134888259Y-81312512D01*
X134886208Y-81304233D01*
X134880849Y-81297600D01*
X134877935Y-81270829D01*
X134871463Y-81244692D01*
X134874213Y-81236619D01*
X134873291Y-81228141D01*
X134885313Y-81204045D01*
X134893999Y-81178556D01*
X134901102Y-81172401D01*
X134904485Y-81165621D01*
X134918664Y-81157182D01*
X134939054Y-81139515D01*
X134947816Y-81135051D01*
X134969789Y-81119086D01*
X135119786Y-81010109D01*
X135119788Y-81010106D01*
X135119792Y-81010104D01*
X135270104Y-80859792D01*
X135270106Y-80859788D01*
X135270109Y-80859786D01*
X135395048Y-80687820D01*
X135395047Y-80687820D01*
X135395051Y-80687816D01*
X135491557Y-80498412D01*
X135557246Y-80296243D01*
X135590500Y-80086287D01*
X135590500Y-79873713D01*
X135557246Y-79663757D01*
X135491557Y-79461588D01*
X135395051Y-79272184D01*
X135395049Y-79272181D01*
X135395048Y-79272179D01*
X135270109Y-79100213D01*
X135119786Y-78949890D01*
X134947820Y-78824951D01*
X134947115Y-78824591D01*
X134939054Y-78820485D01*
X134888259Y-78772512D01*
X134871463Y-78704692D01*
X134893999Y-78638556D01*
X134939054Y-78599515D01*
X134947816Y-78595051D01*
X134969789Y-78579086D01*
X135119786Y-78470109D01*
X135119788Y-78470106D01*
X135119792Y-78470104D01*
X135270104Y-78319792D01*
X135270106Y-78319788D01*
X135270109Y-78319786D01*
X135395048Y-78147820D01*
X135395047Y-78147820D01*
X135395051Y-78147816D01*
X135491557Y-77958412D01*
X135557246Y-77756243D01*
X135590500Y-77546287D01*
X135590500Y-77333713D01*
X135557246Y-77123757D01*
X135491557Y-76921588D01*
X135395051Y-76732184D01*
X135395049Y-76732181D01*
X135395048Y-76732179D01*
X135270109Y-76560213D01*
X135119786Y-76409890D01*
X134947820Y-76284951D01*
X134947115Y-76284591D01*
X134939054Y-76280485D01*
X134888259Y-76232512D01*
X134871463Y-76164692D01*
X134893999Y-76098556D01*
X134939054Y-76059515D01*
X134947816Y-76055051D01*
X134969789Y-76039086D01*
X135119786Y-75930109D01*
X135119788Y-75930106D01*
X135119792Y-75930104D01*
X135270104Y-75779792D01*
X135270106Y-75779788D01*
X135270109Y-75779786D01*
X135395048Y-75607820D01*
X135395047Y-75607820D01*
X135395051Y-75607816D01*
X135491557Y-75418412D01*
X135557246Y-75216243D01*
X135590500Y-75006287D01*
X135590500Y-74793713D01*
X135557246Y-74583757D01*
X135492298Y-74383870D01*
X140274500Y-74383870D01*
X140274500Y-74616129D01*
X140310831Y-74845514D01*
X140382601Y-75066400D01*
X140458949Y-75216239D01*
X140488039Y-75273331D01*
X140624551Y-75461224D01*
X140788776Y-75625449D01*
X140976669Y-75761961D01*
X141074436Y-75811776D01*
X141183599Y-75867398D01*
X141183601Y-75867398D01*
X141183604Y-75867400D01*
X141404486Y-75939169D01*
X141522668Y-75957886D01*
X141633871Y-75975500D01*
X141633876Y-75975500D01*
X141866129Y-75975500D01*
X141967502Y-75959443D01*
X142095514Y-75939169D01*
X142316396Y-75867400D01*
X142523331Y-75761961D01*
X142711224Y-75625449D01*
X142875449Y-75461224D01*
X143011961Y-75273331D01*
X143117400Y-75066396D01*
X143189169Y-74845514D01*
X143209443Y-74717502D01*
X143225500Y-74616129D01*
X143225500Y-74383870D01*
X152774500Y-74383870D01*
X152774500Y-74616129D01*
X152810831Y-74845514D01*
X152882601Y-75066400D01*
X152958949Y-75216239D01*
X152988039Y-75273331D01*
X153124551Y-75461224D01*
X153288776Y-75625449D01*
X153476669Y-75761961D01*
X153574436Y-75811776D01*
X153683599Y-75867398D01*
X153683601Y-75867398D01*
X153683604Y-75867400D01*
X153904486Y-75939169D01*
X154022668Y-75957886D01*
X154133871Y-75975500D01*
X154133876Y-75975500D01*
X154366129Y-75975500D01*
X154467502Y-75959443D01*
X154595514Y-75939169D01*
X154816396Y-75867400D01*
X155023331Y-75761961D01*
X155211224Y-75625449D01*
X155375449Y-75461224D01*
X155511961Y-75273331D01*
X155617400Y-75066396D01*
X155689169Y-74845514D01*
X155709443Y-74717502D01*
X155725500Y-74616129D01*
X155725500Y-74383870D01*
X155706232Y-74262222D01*
X155689169Y-74154486D01*
X155617400Y-73933604D01*
X155617398Y-73933601D01*
X155617398Y-73933599D01*
X155511960Y-73726668D01*
X155493636Y-73701447D01*
X155375449Y-73538776D01*
X155211224Y-73374551D01*
X155023331Y-73238039D01*
X154816400Y-73132601D01*
X154595514Y-73060831D01*
X154366129Y-73024500D01*
X154366124Y-73024500D01*
X154133876Y-73024500D01*
X154133871Y-73024500D01*
X153904485Y-73060831D01*
X153683599Y-73132601D01*
X153476668Y-73238039D01*
X153288773Y-73374553D01*
X153124553Y-73538773D01*
X152988039Y-73726668D01*
X152882601Y-73933599D01*
X152810831Y-74154485D01*
X152774500Y-74383870D01*
X143225500Y-74383870D01*
X143206232Y-74262222D01*
X143189169Y-74154486D01*
X143117400Y-73933604D01*
X143117398Y-73933601D01*
X143117398Y-73933599D01*
X143011960Y-73726668D01*
X142993636Y-73701447D01*
X142875449Y-73538776D01*
X142711224Y-73374551D01*
X142523331Y-73238039D01*
X142316400Y-73132601D01*
X142095514Y-73060831D01*
X141866129Y-73024500D01*
X141866124Y-73024500D01*
X141633876Y-73024500D01*
X141633871Y-73024500D01*
X141404485Y-73060831D01*
X141183599Y-73132601D01*
X140976668Y-73238039D01*
X140788773Y-73374553D01*
X140624553Y-73538773D01*
X140488039Y-73726668D01*
X140382601Y-73933599D01*
X140310831Y-74154485D01*
X140274500Y-74383870D01*
X135492298Y-74383870D01*
X135491557Y-74381588D01*
X135395051Y-74192184D01*
X135395049Y-74192181D01*
X135395048Y-74192179D01*
X135270109Y-74020213D01*
X135119786Y-73869890D01*
X134947820Y-73744951D01*
X134947115Y-73744591D01*
X134939054Y-73740485D01*
X134888259Y-73692512D01*
X134871463Y-73624692D01*
X134893999Y-73558556D01*
X134939054Y-73519515D01*
X134947816Y-73515051D01*
X134969789Y-73499086D01*
X135119786Y-73390109D01*
X135119788Y-73390106D01*
X135119792Y-73390104D01*
X135270104Y-73239792D01*
X135270106Y-73239788D01*
X135270109Y-73239786D01*
X135395048Y-73067820D01*
X135395047Y-73067820D01*
X135395051Y-73067816D01*
X135491557Y-72878412D01*
X135557246Y-72676243D01*
X135590500Y-72466287D01*
X135590500Y-72253713D01*
X135557246Y-72043757D01*
X135491557Y-71841588D01*
X135395051Y-71652184D01*
X135395049Y-71652181D01*
X135395048Y-71652179D01*
X135270109Y-71480213D01*
X135119786Y-71329890D01*
X134947820Y-71204951D01*
X134947115Y-71204591D01*
X134939054Y-71200485D01*
X134888259Y-71152512D01*
X134871463Y-71084692D01*
X134893999Y-71018556D01*
X134939054Y-70979515D01*
X134947816Y-70975051D01*
X134969789Y-70959086D01*
X135119786Y-70850109D01*
X135119788Y-70850106D01*
X135119792Y-70850104D01*
X135270104Y-70699792D01*
X135270106Y-70699788D01*
X135270109Y-70699786D01*
X135395048Y-70527820D01*
X135395047Y-70527820D01*
X135395051Y-70527816D01*
X135491557Y-70338412D01*
X135557246Y-70136243D01*
X135590500Y-69926287D01*
X135590500Y-69713713D01*
X135557246Y-69503757D01*
X135491557Y-69301588D01*
X135395051Y-69112184D01*
X135395049Y-69112181D01*
X135395048Y-69112179D01*
X135270109Y-68940213D01*
X135119786Y-68789890D01*
X134947820Y-68664951D01*
X134947115Y-68664591D01*
X134939054Y-68660485D01*
X134935994Y-68657594D01*
X134931916Y-68656547D01*
X134910810Y-68633810D01*
X134888259Y-68612512D01*
X134887246Y-68608425D01*
X134884382Y-68605339D01*
X134878918Y-68574796D01*
X134871463Y-68544692D01*
X134872820Y-68540707D01*
X134872079Y-68536561D01*
X134883994Y-68507917D01*
X134893999Y-68478556D01*
X134895412Y-68477155D01*
X140275000Y-68477155D01*
X140275000Y-69250000D01*
X141149999Y-69250000D01*
X141124979Y-69310402D01*
X141100000Y-69435981D01*
X141100000Y-69564019D01*
X141124979Y-69689598D01*
X141149999Y-69750000D01*
X140275000Y-69750000D01*
X140275000Y-70522844D01*
X140281401Y-70582372D01*
X140281403Y-70582379D01*
X140331645Y-70717086D01*
X140331649Y-70717093D01*
X140417809Y-70832187D01*
X140417812Y-70832190D01*
X140532906Y-70918350D01*
X140532913Y-70918354D01*
X140667620Y-70968596D01*
X140667627Y-70968598D01*
X140727155Y-70974999D01*
X140727172Y-70975000D01*
X141500000Y-70975000D01*
X141500000Y-70100001D01*
X141560402Y-70125021D01*
X141685981Y-70150000D01*
X141814019Y-70150000D01*
X141939598Y-70125021D01*
X142000000Y-70100001D01*
X142000000Y-70975000D01*
X142772828Y-70975000D01*
X142772844Y-70974999D01*
X142832372Y-70968598D01*
X142832379Y-70968596D01*
X142967086Y-70918354D01*
X142967093Y-70918350D01*
X143082187Y-70832190D01*
X143082190Y-70832187D01*
X143168350Y-70717093D01*
X143168353Y-70717088D01*
X143206741Y-70614167D01*
X143206742Y-70614165D01*
X143218595Y-70582383D01*
X143218598Y-70582372D01*
X143224999Y-70522844D01*
X143225000Y-70522827D01*
X143225000Y-69750000D01*
X142350001Y-69750000D01*
X142375021Y-69689598D01*
X142400000Y-69564019D01*
X142400000Y-69435981D01*
X142389642Y-69383909D01*
X152775000Y-69383909D01*
X152775000Y-69616090D01*
X152811318Y-69845393D01*
X152883065Y-70066205D01*
X152988465Y-70273064D01*
X153045238Y-70351207D01*
X153648958Y-69747487D01*
X153673978Y-69807890D01*
X153745112Y-69914351D01*
X153835649Y-70004888D01*
X153942110Y-70076022D01*
X154002510Y-70101041D01*
X153398791Y-70704759D01*
X153398791Y-70704760D01*
X153476935Y-70761534D01*
X153683794Y-70866934D01*
X153904606Y-70938681D01*
X154133910Y-70975000D01*
X154366090Y-70975000D01*
X154595393Y-70938681D01*
X154816205Y-70866934D01*
X155023071Y-70761530D01*
X155101207Y-70704762D01*
X155101208Y-70704760D01*
X154497488Y-70101041D01*
X154557890Y-70076022D01*
X154664351Y-70004888D01*
X154754888Y-69914351D01*
X154826022Y-69807890D01*
X154851041Y-69747489D01*
X155454760Y-70351208D01*
X155454762Y-70351207D01*
X155511530Y-70273071D01*
X155616934Y-70066205D01*
X155688681Y-69845393D01*
X155725000Y-69616090D01*
X155725000Y-69383909D01*
X155688681Y-69154606D01*
X155616934Y-68933794D01*
X155511534Y-68726935D01*
X155454760Y-68648791D01*
X155454759Y-68648791D01*
X154851041Y-69252510D01*
X154826022Y-69192110D01*
X154754888Y-69085649D01*
X154664351Y-68995112D01*
X154557890Y-68923978D01*
X154497487Y-68898957D01*
X155101207Y-68295238D01*
X155023064Y-68238465D01*
X154816205Y-68133065D01*
X154595393Y-68061318D01*
X154366090Y-68025000D01*
X154133910Y-68025000D01*
X153904606Y-68061318D01*
X153683794Y-68133065D01*
X153476925Y-68238470D01*
X153398791Y-68295237D01*
X153398791Y-68295238D01*
X154002511Y-68898958D01*
X153942110Y-68923978D01*
X153835649Y-68995112D01*
X153745112Y-69085649D01*
X153673978Y-69192110D01*
X153648958Y-69252511D01*
X153045238Y-68648791D01*
X153045237Y-68648791D01*
X152988470Y-68726925D01*
X152883065Y-68933794D01*
X152811318Y-69154606D01*
X152775000Y-69383909D01*
X142389642Y-69383909D01*
X142375021Y-69310402D01*
X142350001Y-69250000D01*
X143225000Y-69250000D01*
X143225000Y-68477172D01*
X143224999Y-68477155D01*
X143218598Y-68417627D01*
X143218596Y-68417619D01*
X143206740Y-68385830D01*
X143168354Y-68282913D01*
X143168350Y-68282906D01*
X143082190Y-68167812D01*
X143082187Y-68167809D01*
X142967093Y-68081649D01*
X142967086Y-68081645D01*
X142832379Y-68031403D01*
X142832372Y-68031401D01*
X142772844Y-68025000D01*
X142000000Y-68025000D01*
X142000000Y-68899998D01*
X141939598Y-68874979D01*
X141814019Y-68850000D01*
X141685981Y-68850000D01*
X141560402Y-68874979D01*
X141500000Y-68899998D01*
X141500000Y-68025000D01*
X140727155Y-68025000D01*
X140667627Y-68031401D01*
X140667620Y-68031403D01*
X140532913Y-68081645D01*
X140532906Y-68081649D01*
X140417812Y-68167809D01*
X140417809Y-68167812D01*
X140331649Y-68282906D01*
X140331645Y-68282913D01*
X140281403Y-68417620D01*
X140281401Y-68417627D01*
X140275000Y-68477155D01*
X134895412Y-68477155D01*
X134897757Y-68474829D01*
X134898914Y-68472050D01*
X134907941Y-68464732D01*
X134924781Y-68448038D01*
X134931627Y-68443299D01*
X134947816Y-68435051D01*
X135033663Y-68372680D01*
X135119786Y-68310109D01*
X135119788Y-68310106D01*
X135119792Y-68310104D01*
X135270104Y-68159792D01*
X135270106Y-68159788D01*
X135270109Y-68159786D01*
X135395048Y-67987820D01*
X135395047Y-67987820D01*
X135395051Y-67987816D01*
X135491557Y-67798412D01*
X135557246Y-67596243D01*
X135590500Y-67386287D01*
X135590500Y-67173713D01*
X135557246Y-66963757D01*
X135491557Y-66761588D01*
X135395051Y-66572184D01*
X135395049Y-66572181D01*
X135395048Y-66572179D01*
X135270109Y-66400213D01*
X135156569Y-66286673D01*
X135123084Y-66225350D01*
X135128068Y-66155658D01*
X135169940Y-66099725D01*
X135200915Y-66082810D01*
X135332331Y-66033796D01*
X135447546Y-65947546D01*
X135533796Y-65832331D01*
X135584091Y-65697483D01*
X135590500Y-65637873D01*
X135590499Y-63842128D01*
X135584091Y-63782517D01*
X135533796Y-63647669D01*
X135533795Y-63647668D01*
X135533793Y-63647664D01*
X135447547Y-63532455D01*
X135447544Y-63532452D01*
X135332335Y-63446206D01*
X135332328Y-63446202D01*
X135197482Y-63395908D01*
X135197483Y-63395908D01*
X135137883Y-63389501D01*
X135137881Y-63389500D01*
X135137873Y-63389500D01*
X135137864Y-63389500D01*
X133342129Y-63389500D01*
X133342123Y-63389501D01*
X133282516Y-63395908D01*
X133147671Y-63446202D01*
X133147664Y-63446206D01*
X133032455Y-63532452D01*
X133032452Y-63532455D01*
X132946206Y-63647664D01*
X132946202Y-63647671D01*
X132895908Y-63782517D01*
X132889501Y-63842116D01*
X132889501Y-63842123D01*
X132889500Y-63842135D01*
X119544310Y-63842135D01*
X119635320Y-63751125D01*
X119761716Y-63624728D01*
X119707550Y-63585375D01*
X119518217Y-63488904D01*
X119316129Y-63423242D01*
X119106246Y-63390000D01*
X118893754Y-63390000D01*
X118683872Y-63423242D01*
X118683869Y-63423242D01*
X118481782Y-63488904D01*
X118292439Y-63585380D01*
X118238282Y-63624727D01*
X118238282Y-63624728D01*
X118829766Y-64216212D01*
X118787708Y-64227482D01*
X118662292Y-64299890D01*
X118559890Y-64402292D01*
X118487482Y-64527708D01*
X118476212Y-64569766D01*
X117884728Y-63978282D01*
X117884727Y-63978282D01*
X117845380Y-64032439D01*
X117748904Y-64221782D01*
X117683242Y-64423869D01*
X117683242Y-64423872D01*
X117650000Y-64633753D01*
X117650000Y-64846246D01*
X117683242Y-65056127D01*
X117683242Y-65056130D01*
X117748904Y-65258217D01*
X117845375Y-65447550D01*
X117884728Y-65501716D01*
X118476212Y-64910233D01*
X118487482Y-64952292D01*
X118559890Y-65077708D01*
X118662292Y-65180110D01*
X118787708Y-65252518D01*
X118829765Y-65263787D01*
X118238282Y-65855269D01*
X118238282Y-65855270D01*
X118292452Y-65894626D01*
X118292451Y-65894626D01*
X118301495Y-65899234D01*
X118352292Y-65947208D01*
X118369087Y-66015029D01*
X118346550Y-66081164D01*
X118301499Y-66120202D01*
X118292182Y-66124949D01*
X118120213Y-66249890D01*
X117969890Y-66400213D01*
X117844951Y-66572179D01*
X117748444Y-66761585D01*
X117682753Y-66963760D01*
X117649500Y-67173713D01*
X109472733Y-67173713D01*
X109725922Y-66920524D01*
X109725921Y-66920523D01*
X109681359Y-66888147D01*
X109681350Y-66888141D01*
X109499031Y-66795244D01*
X109304417Y-66732009D01*
X109102317Y-66700000D01*
X108897683Y-66700000D01*
X108695582Y-66732009D01*
X108500968Y-66795244D01*
X108318644Y-66888143D01*
X108274077Y-66920523D01*
X108274077Y-66920524D01*
X108953554Y-67600000D01*
X108947339Y-67600000D01*
X108845606Y-67627259D01*
X108754394Y-67679920D01*
X108679920Y-67754394D01*
X108627259Y-67845606D01*
X108600000Y-67947339D01*
X108600000Y-67953553D01*
X107920524Y-67274077D01*
X107920523Y-67274077D01*
X107888143Y-67318644D01*
X107795244Y-67500968D01*
X107732009Y-67695582D01*
X107700000Y-67897682D01*
X107700000Y-68102317D01*
X107732009Y-68304417D01*
X107795244Y-68499031D01*
X107888142Y-68681352D01*
X107939147Y-68751555D01*
X107962627Y-68817361D01*
X107946802Y-68885415D01*
X107926511Y-68912121D01*
X107857287Y-68981345D01*
X107765187Y-69130663D01*
X107765186Y-69130666D01*
X107710001Y-69297203D01*
X107710001Y-69297204D01*
X107710000Y-69297204D01*
X107699500Y-69399983D01*
X102500500Y-69399983D01*
X102500500Y-61897648D01*
X106199500Y-61897648D01*
X106199500Y-62102351D01*
X106231522Y-62304534D01*
X106294781Y-62499223D01*
X106358691Y-62624653D01*
X106387585Y-62681359D01*
X106387715Y-62681613D01*
X106508028Y-62847213D01*
X106652786Y-62991971D01*
X106773226Y-63079474D01*
X106818390Y-63112287D01*
X106934607Y-63171503D01*
X107000776Y-63205218D01*
X107000778Y-63205218D01*
X107000781Y-63205220D01*
X107105137Y-63239127D01*
X107195465Y-63268477D01*
X107296557Y-63284488D01*
X107397648Y-63300500D01*
X107397649Y-63300500D01*
X107602351Y-63300500D01*
X107602352Y-63300500D01*
X107804534Y-63268477D01*
X107999219Y-63205220D01*
X108181610Y-63112287D01*
X108274590Y-63044732D01*
X108347213Y-62991971D01*
X108347215Y-62991968D01*
X108347219Y-62991966D01*
X108491966Y-62847219D01*
X108491968Y-62847215D01*
X108491971Y-62847213D01*
X108544732Y-62774590D01*
X108612287Y-62681610D01*
X108705220Y-62499219D01*
X108768477Y-62304534D01*
X108800500Y-62102352D01*
X108800500Y-61897682D01*
X111200000Y-61897682D01*
X111200000Y-62102317D01*
X111232009Y-62304417D01*
X111295244Y-62499031D01*
X111388141Y-62681350D01*
X111388147Y-62681359D01*
X111420523Y-62725921D01*
X111420524Y-62725922D01*
X112100000Y-62046446D01*
X112100000Y-62052661D01*
X112127259Y-62154394D01*
X112179920Y-62245606D01*
X112254394Y-62320080D01*
X112345606Y-62372741D01*
X112447339Y-62400000D01*
X112453553Y-62400000D01*
X111774076Y-63079474D01*
X111818650Y-63111859D01*
X112000968Y-63204755D01*
X112195582Y-63267990D01*
X112397683Y-63300000D01*
X112602317Y-63300000D01*
X112804417Y-63267990D01*
X112999031Y-63204755D01*
X113181349Y-63111859D01*
X113225921Y-63079474D01*
X112546447Y-62400000D01*
X112552661Y-62400000D01*
X112654394Y-62372741D01*
X112745606Y-62320080D01*
X112820080Y-62245606D01*
X112872741Y-62154394D01*
X112900000Y-62052661D01*
X112900000Y-62046447D01*
X113579474Y-62725921D01*
X113611859Y-62681349D01*
X113704755Y-62499031D01*
X113767990Y-62304417D01*
X113800000Y-62102317D01*
X113800000Y-61897682D01*
X113767990Y-61695582D01*
X113704755Y-61500968D01*
X113611859Y-61318650D01*
X113579474Y-61274077D01*
X113579474Y-61274076D01*
X112900000Y-61953551D01*
X112900000Y-61947339D01*
X112872741Y-61845606D01*
X112820080Y-61754394D01*
X112745606Y-61679920D01*
X112654394Y-61627259D01*
X112552661Y-61600000D01*
X112546446Y-61600000D01*
X113225922Y-60920524D01*
X113225921Y-60920523D01*
X113181359Y-60888147D01*
X113181350Y-60888141D01*
X112999031Y-60795244D01*
X112804417Y-60732009D01*
X112602317Y-60700000D01*
X112397683Y-60700000D01*
X112195582Y-60732009D01*
X112000968Y-60795244D01*
X111818644Y-60888143D01*
X111774077Y-60920523D01*
X111774077Y-60920524D01*
X112453554Y-61600000D01*
X112447339Y-61600000D01*
X112345606Y-61627259D01*
X112254394Y-61679920D01*
X112179920Y-61754394D01*
X112127259Y-61845606D01*
X112100000Y-61947339D01*
X112100000Y-61953553D01*
X111420524Y-61274077D01*
X111420523Y-61274077D01*
X111388143Y-61318644D01*
X111295244Y-61500968D01*
X111232009Y-61695582D01*
X111200000Y-61897682D01*
X108800500Y-61897682D01*
X108800500Y-61897648D01*
X108792257Y-61845606D01*
X108768477Y-61695465D01*
X108737458Y-61600000D01*
X108705220Y-61500781D01*
X108705218Y-61500778D01*
X108705218Y-61500776D01*
X108612419Y-61318650D01*
X108612287Y-61318390D01*
X108580092Y-61274077D01*
X108491971Y-61152786D01*
X108347213Y-61008028D01*
X108181613Y-60887715D01*
X108181612Y-60887714D01*
X108181610Y-60887713D01*
X108124653Y-60858691D01*
X107999223Y-60794781D01*
X107804534Y-60731522D01*
X107629995Y-60703878D01*
X107602352Y-60699500D01*
X107397648Y-60699500D01*
X107373329Y-60703351D01*
X107195465Y-60731522D01*
X107000776Y-60794781D01*
X106818386Y-60887715D01*
X106652786Y-61008028D01*
X106508028Y-61152786D01*
X106387715Y-61318386D01*
X106294781Y-61500776D01*
X106231522Y-61695465D01*
X106199500Y-61897648D01*
X102500500Y-61897648D01*
X102500500Y-58707648D01*
X137699500Y-58707648D01*
X137699500Y-58912351D01*
X137731522Y-59114534D01*
X137794781Y-59309223D01*
X137887715Y-59491613D01*
X138008028Y-59657213D01*
X138152786Y-59801971D01*
X138307749Y-59914556D01*
X138318390Y-59922287D01*
X138434607Y-59981503D01*
X138500776Y-60015218D01*
X138500778Y-60015218D01*
X138500781Y-60015220D01*
X138605137Y-60049127D01*
X138695465Y-60078477D01*
X138796557Y-60094488D01*
X138897648Y-60110500D01*
X138897649Y-60110500D01*
X139102351Y-60110500D01*
X139102352Y-60110500D01*
X139304534Y-60078477D01*
X139499219Y-60015220D01*
X139681610Y-59922287D01*
X139774590Y-59854732D01*
X139847213Y-59801971D01*
X139847215Y-59801968D01*
X139847219Y-59801966D01*
X139991966Y-59657219D01*
X139991968Y-59657215D01*
X139991971Y-59657213D01*
X140044732Y-59584590D01*
X140112287Y-59491610D01*
X140205220Y-59309219D01*
X140268477Y-59114534D01*
X140300500Y-58912352D01*
X140300500Y-58707648D01*
X146699500Y-58707648D01*
X146699500Y-58912351D01*
X146731522Y-59114534D01*
X146794781Y-59309223D01*
X146887715Y-59491613D01*
X147008028Y-59657213D01*
X147152786Y-59801971D01*
X147307749Y-59914556D01*
X147318390Y-59922287D01*
X147434607Y-59981503D01*
X147500776Y-60015218D01*
X147500778Y-60015218D01*
X147500781Y-60015220D01*
X147605137Y-60049127D01*
X147695465Y-60078477D01*
X147796557Y-60094488D01*
X147897648Y-60110500D01*
X147897649Y-60110500D01*
X148102351Y-60110500D01*
X148102352Y-60110500D01*
X148304534Y-60078477D01*
X148499219Y-60015220D01*
X148681610Y-59922287D01*
X148774590Y-59854732D01*
X148847213Y-59801971D01*
X148847215Y-59801968D01*
X148847219Y-59801966D01*
X148991966Y-59657219D01*
X148991968Y-59657215D01*
X148991971Y-59657213D01*
X149044732Y-59584590D01*
X149112287Y-59491610D01*
X149205220Y-59309219D01*
X149268477Y-59114534D01*
X149300500Y-58912352D01*
X149300500Y-58707648D01*
X149277315Y-58561266D01*
X149268477Y-58505465D01*
X149205218Y-58310776D01*
X149130601Y-58164334D01*
X149112287Y-58128390D01*
X149085541Y-58091577D01*
X148991971Y-57962786D01*
X148847213Y-57818028D01*
X148681613Y-57697715D01*
X148681612Y-57697714D01*
X148681610Y-57697713D01*
X148624653Y-57668691D01*
X148499223Y-57604781D01*
X148304534Y-57541522D01*
X148129995Y-57513878D01*
X148102352Y-57509500D01*
X147897648Y-57509500D01*
X147873329Y-57513351D01*
X147695465Y-57541522D01*
X147500776Y-57604781D01*
X147318386Y-57697715D01*
X147152786Y-57818028D01*
X147008028Y-57962786D01*
X146887715Y-58128386D01*
X146794781Y-58310776D01*
X146731522Y-58505465D01*
X146699500Y-58707648D01*
X140300500Y-58707648D01*
X140277315Y-58561266D01*
X140268477Y-58505465D01*
X140205218Y-58310776D01*
X140130601Y-58164334D01*
X140112287Y-58128390D01*
X140085541Y-58091577D01*
X139991971Y-57962786D01*
X139847213Y-57818028D01*
X139681613Y-57697715D01*
X139681612Y-57697714D01*
X139681610Y-57697713D01*
X139624653Y-57668691D01*
X139499223Y-57604781D01*
X139304534Y-57541522D01*
X139129995Y-57513878D01*
X139102352Y-57509500D01*
X138897648Y-57509500D01*
X138873329Y-57513351D01*
X138695465Y-57541522D01*
X138500776Y-57604781D01*
X138318386Y-57697715D01*
X138152786Y-57818028D01*
X138008028Y-57962786D01*
X137887715Y-58128386D01*
X137794781Y-58310776D01*
X137731522Y-58505465D01*
X137699500Y-58707648D01*
X102500500Y-58707648D01*
X102500500Y-56104983D01*
X159089500Y-56104983D01*
X159089500Y-57895001D01*
X159089501Y-57895018D01*
X159100000Y-57997796D01*
X159100001Y-57997799D01*
X159137774Y-58111788D01*
X159155186Y-58164334D01*
X159247288Y-58313656D01*
X159371344Y-58437712D01*
X159520666Y-58529814D01*
X159687203Y-58584999D01*
X159789991Y-58595500D01*
X161130008Y-58595499D01*
X161232797Y-58584999D01*
X161399334Y-58529814D01*
X161548656Y-58437712D01*
X161672712Y-58313656D01*
X161764814Y-58164334D01*
X161764817Y-58164323D01*
X161765353Y-58163177D01*
X161765934Y-58162516D01*
X161768605Y-58158187D01*
X161769344Y-58158643D01*
X161811521Y-58110734D01*
X161878713Y-58091577D01*
X161945596Y-58111788D01*
X161965420Y-58127892D01*
X162107502Y-58269974D01*
X162281963Y-58396728D01*
X162474098Y-58494627D01*
X162679190Y-58561266D01*
X162750000Y-58572481D01*
X162750000Y-57542709D01*
X162770339Y-57554452D01*
X162921667Y-57595000D01*
X163078333Y-57595000D01*
X163229661Y-57554452D01*
X163250000Y-57542709D01*
X163250000Y-58572480D01*
X163320809Y-58561266D01*
X163525901Y-58494627D01*
X163718036Y-58396728D01*
X163892496Y-58269974D01*
X163892497Y-58269974D01*
X164044974Y-58117497D01*
X164044974Y-58117496D01*
X164171728Y-57943036D01*
X164269627Y-57750901D01*
X164336265Y-57545809D01*
X164370000Y-57332820D01*
X164370000Y-57250000D01*
X163542709Y-57250000D01*
X163554452Y-57229661D01*
X163595000Y-57078333D01*
X163595000Y-56921667D01*
X163554452Y-56770339D01*
X163542709Y-56750000D01*
X164370000Y-56750000D01*
X164370000Y-56667179D01*
X164336265Y-56454190D01*
X164269627Y-56249098D01*
X164171728Y-56056963D01*
X164044974Y-55882503D01*
X164044974Y-55882502D01*
X163892497Y-55730025D01*
X163718036Y-55603271D01*
X163525899Y-55505372D01*
X163320805Y-55438733D01*
X163250000Y-55427518D01*
X163250000Y-56457290D01*
X163229661Y-56445548D01*
X163078333Y-56405000D01*
X162921667Y-56405000D01*
X162770339Y-56445548D01*
X162750000Y-56457290D01*
X162750000Y-55427518D01*
X162749999Y-55427518D01*
X162679194Y-55438733D01*
X162474100Y-55505372D01*
X162281963Y-55603271D01*
X162107506Y-55730022D01*
X161965420Y-55872108D01*
X161904097Y-55905592D01*
X161834405Y-55900608D01*
X161778472Y-55858736D01*
X161765356Y-55836828D01*
X161764816Y-55835670D01*
X161699654Y-55730025D01*
X161672712Y-55686344D01*
X161548656Y-55562288D01*
X161399334Y-55470186D01*
X161232797Y-55415001D01*
X161232795Y-55415000D01*
X161130010Y-55404500D01*
X159789998Y-55404500D01*
X159789981Y-55404501D01*
X159687203Y-55415000D01*
X159687200Y-55415001D01*
X159520668Y-55470185D01*
X159520663Y-55470187D01*
X159371342Y-55562289D01*
X159247289Y-55686342D01*
X159155187Y-55835663D01*
X159155185Y-55835668D01*
X159154801Y-55836828D01*
X159100001Y-56002203D01*
X159100001Y-56002204D01*
X159100000Y-56002204D01*
X159089500Y-56104983D01*
X102500500Y-56104983D01*
X102500500Y-53131902D01*
X105249500Y-53131902D01*
X105249500Y-53368097D01*
X105286446Y-53601368D01*
X105359433Y-53825996D01*
X105466657Y-54036433D01*
X105605483Y-54227510D01*
X105772490Y-54394517D01*
X105963567Y-54533343D01*
X106062991Y-54584002D01*
X106174003Y-54640566D01*
X106174005Y-54640566D01*
X106174008Y-54640568D01*
X106294412Y-54679689D01*
X106398631Y-54713553D01*
X106631903Y-54750500D01*
X106631908Y-54750500D01*
X106868097Y-54750500D01*
X107101368Y-54713553D01*
X107325992Y-54640568D01*
X107536433Y-54533343D01*
X107727510Y-54394517D01*
X107894517Y-54227510D01*
X108033343Y-54036433D01*
X108140568Y-53825992D01*
X108213553Y-53601368D01*
X108250500Y-53368097D01*
X108250500Y-53131902D01*
X111749500Y-53131902D01*
X111749500Y-53368097D01*
X111786446Y-53601368D01*
X111859433Y-53825996D01*
X111966657Y-54036433D01*
X112105483Y-54227510D01*
X112272490Y-54394517D01*
X112463567Y-54533343D01*
X112562991Y-54584002D01*
X112674003Y-54640566D01*
X112674005Y-54640566D01*
X112674008Y-54640568D01*
X112794412Y-54679689D01*
X112898631Y-54713553D01*
X113131903Y-54750500D01*
X113131908Y-54750500D01*
X113368097Y-54750500D01*
X113601368Y-54713553D01*
X113825992Y-54640568D01*
X114036433Y-54533343D01*
X114227510Y-54394517D01*
X114394517Y-54227510D01*
X114533343Y-54036433D01*
X114640568Y-53825992D01*
X114713553Y-53601368D01*
X114750500Y-53368097D01*
X114750500Y-53131902D01*
X125249500Y-53131902D01*
X125249500Y-53368097D01*
X125286446Y-53601368D01*
X125359433Y-53825996D01*
X125466657Y-54036433D01*
X125605483Y-54227510D01*
X125772490Y-54394517D01*
X125963567Y-54533343D01*
X126062991Y-54584002D01*
X126174003Y-54640566D01*
X126174005Y-54640566D01*
X126174008Y-54640568D01*
X126294412Y-54679689D01*
X126398631Y-54713553D01*
X126631903Y-54750500D01*
X126631908Y-54750500D01*
X126868097Y-54750500D01*
X127101368Y-54713553D01*
X127325992Y-54640568D01*
X127536433Y-54533343D01*
X127727510Y-54394517D01*
X127894517Y-54227510D01*
X128033343Y-54036433D01*
X128140568Y-53825992D01*
X128213553Y-53601368D01*
X128250500Y-53368097D01*
X128250500Y-53131902D01*
X131749500Y-53131902D01*
X131749500Y-53368097D01*
X131786446Y-53601368D01*
X131859433Y-53825996D01*
X131966657Y-54036433D01*
X132105483Y-54227510D01*
X132272490Y-54394517D01*
X132463567Y-54533343D01*
X132562991Y-54584002D01*
X132674003Y-54640566D01*
X132674005Y-54640566D01*
X132674008Y-54640568D01*
X132794412Y-54679689D01*
X132898631Y-54713553D01*
X133131903Y-54750500D01*
X133131908Y-54750500D01*
X133368097Y-54750500D01*
X133601368Y-54713553D01*
X133825992Y-54640568D01*
X134036433Y-54533343D01*
X134227510Y-54394517D01*
X134394517Y-54227510D01*
X134533343Y-54036433D01*
X134640568Y-53825992D01*
X134713553Y-53601368D01*
X134750500Y-53368097D01*
X134750500Y-53131902D01*
X134713553Y-52898631D01*
X134640566Y-52674003D01*
X134533342Y-52463566D01*
X134529645Y-52458477D01*
X134394517Y-52272490D01*
X134227510Y-52105483D01*
X134036433Y-51966657D01*
X133825996Y-51859433D01*
X133601368Y-51786446D01*
X133368097Y-51749500D01*
X133368092Y-51749500D01*
X133131908Y-51749500D01*
X133131903Y-51749500D01*
X132898631Y-51786446D01*
X132674003Y-51859433D01*
X132463566Y-51966657D01*
X132366455Y-52037213D01*
X132272490Y-52105483D01*
X132272488Y-52105485D01*
X132272487Y-52105485D01*
X132105485Y-52272487D01*
X132105485Y-52272488D01*
X132105483Y-52272490D01*
X132083834Y-52302287D01*
X131966657Y-52463566D01*
X131859433Y-52674003D01*
X131786446Y-52898631D01*
X131749500Y-53131902D01*
X128250500Y-53131902D01*
X128213553Y-52898631D01*
X128140566Y-52674003D01*
X128033342Y-52463566D01*
X128029645Y-52458477D01*
X127894517Y-52272490D01*
X127727510Y-52105483D01*
X127536433Y-51966657D01*
X127325996Y-51859433D01*
X127101368Y-51786446D01*
X126868097Y-51749500D01*
X126868092Y-51749500D01*
X126631908Y-51749500D01*
X126631903Y-51749500D01*
X126398631Y-51786446D01*
X126174003Y-51859433D01*
X125963566Y-51966657D01*
X125866455Y-52037213D01*
X125772490Y-52105483D01*
X125772488Y-52105485D01*
X125772487Y-52105485D01*
X125605485Y-52272487D01*
X125605485Y-52272488D01*
X125605483Y-52272490D01*
X125583834Y-52302287D01*
X125466657Y-52463566D01*
X125359433Y-52674003D01*
X125286446Y-52898631D01*
X125249500Y-53131902D01*
X114750500Y-53131902D01*
X114713553Y-52898631D01*
X114640566Y-52674003D01*
X114533342Y-52463566D01*
X114529645Y-52458477D01*
X114394517Y-52272490D01*
X114227510Y-52105483D01*
X114036433Y-51966657D01*
X113825996Y-51859433D01*
X113601368Y-51786446D01*
X113368097Y-51749500D01*
X113368092Y-51749500D01*
X113131908Y-51749500D01*
X113131903Y-51749500D01*
X112898631Y-51786446D01*
X112674003Y-51859433D01*
X112463566Y-51966657D01*
X112366455Y-52037213D01*
X112272490Y-52105483D01*
X112272488Y-52105485D01*
X112272487Y-52105485D01*
X112105485Y-52272487D01*
X112105485Y-52272488D01*
X112105483Y-52272490D01*
X112083834Y-52302287D01*
X111966657Y-52463566D01*
X111859433Y-52674003D01*
X111786446Y-52898631D01*
X111749500Y-53131902D01*
X108250500Y-53131902D01*
X108213553Y-52898631D01*
X108140566Y-52674003D01*
X108033342Y-52463566D01*
X108029645Y-52458477D01*
X107894517Y-52272490D01*
X107727510Y-52105483D01*
X107536433Y-51966657D01*
X107325996Y-51859433D01*
X107101368Y-51786446D01*
X106868097Y-51749500D01*
X106868092Y-51749500D01*
X106631908Y-51749500D01*
X106631903Y-51749500D01*
X106398631Y-51786446D01*
X106174003Y-51859433D01*
X105963566Y-51966657D01*
X105866455Y-52037213D01*
X105772490Y-52105483D01*
X105772488Y-52105485D01*
X105772487Y-52105485D01*
X105605485Y-52272487D01*
X105605485Y-52272488D01*
X105605483Y-52272490D01*
X105583834Y-52302287D01*
X105466657Y-52463566D01*
X105359433Y-52674003D01*
X105286446Y-52898631D01*
X105249500Y-53131902D01*
X102500500Y-53131902D01*
X102500500Y-51087648D01*
X137699500Y-51087648D01*
X137699500Y-51292351D01*
X137731522Y-51494534D01*
X137794781Y-51689223D01*
X137844320Y-51786447D01*
X137881508Y-51859433D01*
X137887715Y-51871613D01*
X138008028Y-52037213D01*
X138152786Y-52181971D01*
X138307749Y-52294556D01*
X138318390Y-52302287D01*
X138434607Y-52361503D01*
X138500776Y-52395218D01*
X138500778Y-52395218D01*
X138500781Y-52395220D01*
X138605137Y-52429127D01*
X138695465Y-52458477D01*
X138727602Y-52463567D01*
X138897648Y-52490500D01*
X138897649Y-52490500D01*
X139102351Y-52490500D01*
X139102352Y-52490500D01*
X139304534Y-52458477D01*
X139499219Y-52395220D01*
X139681610Y-52302287D01*
X139774590Y-52234732D01*
X139847213Y-52181971D01*
X139847215Y-52181968D01*
X139847219Y-52181966D01*
X139991966Y-52037219D01*
X139991968Y-52037215D01*
X139991971Y-52037213D01*
X140044732Y-51964590D01*
X140112287Y-51871610D01*
X140205220Y-51689219D01*
X140268477Y-51494534D01*
X140300500Y-51292352D01*
X140300500Y-51087648D01*
X146699500Y-51087648D01*
X146699500Y-51292351D01*
X146731522Y-51494534D01*
X146794781Y-51689223D01*
X146844320Y-51786447D01*
X146881508Y-51859433D01*
X146887715Y-51871613D01*
X147008028Y-52037213D01*
X147152786Y-52181971D01*
X147307749Y-52294556D01*
X147318390Y-52302287D01*
X147434607Y-52361503D01*
X147500776Y-52395218D01*
X147500778Y-52395218D01*
X147500781Y-52395220D01*
X147605137Y-52429127D01*
X147695465Y-52458477D01*
X147727602Y-52463567D01*
X147897648Y-52490500D01*
X147897649Y-52490500D01*
X148102351Y-52490500D01*
X148102352Y-52490500D01*
X148304534Y-52458477D01*
X148499219Y-52395220D01*
X148681610Y-52302287D01*
X148774590Y-52234732D01*
X148847213Y-52181971D01*
X148847215Y-52181968D01*
X148847219Y-52181966D01*
X148991966Y-52037219D01*
X148991968Y-52037215D01*
X148991971Y-52037213D01*
X149044732Y-51964590D01*
X149112287Y-51871610D01*
X149205220Y-51689219D01*
X149268477Y-51494534D01*
X149300500Y-51292352D01*
X149300500Y-51087648D01*
X149268477Y-50885466D01*
X149205220Y-50690781D01*
X149205218Y-50690778D01*
X149205218Y-50690776D01*
X149171503Y-50624607D01*
X149112287Y-50508390D01*
X149104556Y-50497749D01*
X148991971Y-50342786D01*
X148847213Y-50198028D01*
X148681613Y-50077715D01*
X148681612Y-50077714D01*
X148681610Y-50077713D01*
X148624653Y-50048691D01*
X148499223Y-49984781D01*
X148304534Y-49921522D01*
X148129995Y-49893878D01*
X148102352Y-49889500D01*
X147897648Y-49889500D01*
X147873329Y-49893351D01*
X147695465Y-49921522D01*
X147500776Y-49984781D01*
X147318386Y-50077715D01*
X147152786Y-50198028D01*
X147008028Y-50342786D01*
X146887715Y-50508386D01*
X146794781Y-50690776D01*
X146731522Y-50885465D01*
X146699500Y-51087648D01*
X140300500Y-51087648D01*
X140268477Y-50885466D01*
X140205220Y-50690781D01*
X140205218Y-50690778D01*
X140205218Y-50690776D01*
X140171503Y-50624607D01*
X140112287Y-50508390D01*
X140104556Y-50497749D01*
X139991971Y-50342786D01*
X139847213Y-50198028D01*
X139681613Y-50077715D01*
X139681612Y-50077714D01*
X139681610Y-50077713D01*
X139624653Y-50048691D01*
X139499223Y-49984781D01*
X139304534Y-49921522D01*
X139129995Y-49893878D01*
X139102352Y-49889500D01*
X138897648Y-49889500D01*
X138873329Y-49893351D01*
X138695465Y-49921522D01*
X138500776Y-49984781D01*
X138318386Y-50077715D01*
X138152786Y-50198028D01*
X138008028Y-50342786D01*
X137887715Y-50508386D01*
X137794781Y-50690776D01*
X137731522Y-50885465D01*
X137699500Y-51087648D01*
X102500500Y-51087648D01*
X102500500Y-48631947D01*
X105250000Y-48631947D01*
X105250000Y-48868052D01*
X105286934Y-49101247D01*
X105359897Y-49325802D01*
X105467087Y-49536174D01*
X105527338Y-49619104D01*
X105527340Y-49619105D01*
X106226212Y-48920233D01*
X106237482Y-48962292D01*
X106309890Y-49087708D01*
X106412292Y-49190110D01*
X106537708Y-49262518D01*
X106579765Y-49273787D01*
X105880893Y-49972658D01*
X105963828Y-50032914D01*
X106174197Y-50140102D01*
X106398752Y-50213065D01*
X106398751Y-50213065D01*
X106631948Y-50250000D01*
X106868052Y-50250000D01*
X107101247Y-50213065D01*
X107325802Y-50140102D01*
X107536163Y-50032918D01*
X107536169Y-50032914D01*
X107619104Y-49972658D01*
X107619105Y-49972658D01*
X106920233Y-49273787D01*
X106962292Y-49262518D01*
X107087708Y-49190110D01*
X107190110Y-49087708D01*
X107262518Y-48962292D01*
X107273787Y-48920234D01*
X107972658Y-49619105D01*
X107972658Y-49619104D01*
X108032914Y-49536169D01*
X108032918Y-49536163D01*
X108140102Y-49325802D01*
X108213065Y-49101247D01*
X108250000Y-48868052D01*
X108250000Y-48631947D01*
X111750000Y-48631947D01*
X111750000Y-48868052D01*
X111786934Y-49101247D01*
X111859897Y-49325802D01*
X111967087Y-49536174D01*
X112027338Y-49619104D01*
X112027340Y-49619105D01*
X112726212Y-48920233D01*
X112737482Y-48962292D01*
X112809890Y-49087708D01*
X112912292Y-49190110D01*
X113037708Y-49262518D01*
X113079765Y-49273787D01*
X112380893Y-49972658D01*
X112463828Y-50032914D01*
X112674197Y-50140102D01*
X112898752Y-50213065D01*
X112898751Y-50213065D01*
X113131948Y-50250000D01*
X113368052Y-50250000D01*
X113601247Y-50213065D01*
X113825802Y-50140102D01*
X114036163Y-50032918D01*
X114036169Y-50032914D01*
X114119104Y-49972658D01*
X114119105Y-49972658D01*
X113420233Y-49273787D01*
X113462292Y-49262518D01*
X113587708Y-49190110D01*
X113690110Y-49087708D01*
X113762518Y-48962292D01*
X113773787Y-48920234D01*
X114472658Y-49619105D01*
X114472658Y-49619104D01*
X114532914Y-49536169D01*
X114532918Y-49536163D01*
X114640102Y-49325802D01*
X114713065Y-49101247D01*
X114750000Y-48868052D01*
X114750000Y-48631947D01*
X125250000Y-48631947D01*
X125250000Y-48868052D01*
X125286934Y-49101247D01*
X125359897Y-49325802D01*
X125467087Y-49536174D01*
X125527338Y-49619104D01*
X125527340Y-49619105D01*
X126226212Y-48920233D01*
X126237482Y-48962292D01*
X126309890Y-49087708D01*
X126412292Y-49190110D01*
X126537708Y-49262518D01*
X126579765Y-49273787D01*
X125880893Y-49972658D01*
X125963828Y-50032914D01*
X126174197Y-50140102D01*
X126398752Y-50213065D01*
X126398751Y-50213065D01*
X126631948Y-50250000D01*
X126868052Y-50250000D01*
X127101247Y-50213065D01*
X127325802Y-50140102D01*
X127536163Y-50032918D01*
X127536169Y-50032914D01*
X127619104Y-49972658D01*
X127619105Y-49972658D01*
X126920233Y-49273787D01*
X126962292Y-49262518D01*
X127087708Y-49190110D01*
X127190110Y-49087708D01*
X127262518Y-48962292D01*
X127273787Y-48920233D01*
X127972658Y-49619105D01*
X127972658Y-49619104D01*
X128032914Y-49536169D01*
X128032918Y-49536163D01*
X128140102Y-49325802D01*
X128213065Y-49101247D01*
X128250000Y-48868052D01*
X128250000Y-48631947D01*
X131750000Y-48631947D01*
X131750000Y-48868052D01*
X131786934Y-49101247D01*
X131859897Y-49325802D01*
X131967087Y-49536174D01*
X132027338Y-49619104D01*
X132027340Y-49619105D01*
X132726212Y-48920233D01*
X132737482Y-48962292D01*
X132809890Y-49087708D01*
X132912292Y-49190110D01*
X133037708Y-49262518D01*
X133079765Y-49273787D01*
X132380893Y-49972658D01*
X132463828Y-50032914D01*
X132674197Y-50140102D01*
X132898752Y-50213065D01*
X132898751Y-50213065D01*
X133131948Y-50250000D01*
X133368052Y-50250000D01*
X133601247Y-50213065D01*
X133825802Y-50140102D01*
X134036163Y-50032918D01*
X134036169Y-50032914D01*
X134119104Y-49972658D01*
X134119105Y-49972658D01*
X133420233Y-49273787D01*
X133462292Y-49262518D01*
X133587708Y-49190110D01*
X133690110Y-49087708D01*
X133762518Y-48962292D01*
X133773787Y-48920234D01*
X134472658Y-49619105D01*
X134472658Y-49619104D01*
X134532914Y-49536169D01*
X134532918Y-49536163D01*
X134640102Y-49325802D01*
X134713065Y-49101247D01*
X134750000Y-48868052D01*
X134750000Y-48631947D01*
X134713065Y-48398752D01*
X134640102Y-48174197D01*
X134532914Y-47963828D01*
X134472658Y-47880894D01*
X134472658Y-47880893D01*
X133773787Y-48579765D01*
X133762518Y-48537708D01*
X133690110Y-48412292D01*
X133587708Y-48309890D01*
X133462292Y-48237482D01*
X133420234Y-48226212D01*
X134119105Y-47527340D01*
X134119104Y-47527338D01*
X134036174Y-47467087D01*
X133825802Y-47359897D01*
X133601247Y-47286934D01*
X133601248Y-47286934D01*
X133368052Y-47250000D01*
X133131948Y-47250000D01*
X132898752Y-47286934D01*
X132674197Y-47359897D01*
X132463830Y-47467084D01*
X132380894Y-47527340D01*
X133079766Y-48226212D01*
X133037708Y-48237482D01*
X132912292Y-48309890D01*
X132809890Y-48412292D01*
X132737482Y-48537708D01*
X132726212Y-48579765D01*
X132027340Y-47880894D01*
X131967084Y-47963830D01*
X131859897Y-48174197D01*
X131786934Y-48398752D01*
X131750000Y-48631947D01*
X128250000Y-48631947D01*
X128213065Y-48398752D01*
X128140102Y-48174197D01*
X128032914Y-47963828D01*
X127972658Y-47880894D01*
X127972658Y-47880893D01*
X127273787Y-48579765D01*
X127262518Y-48537708D01*
X127190110Y-48412292D01*
X127087708Y-48309890D01*
X126962292Y-48237482D01*
X126920234Y-48226212D01*
X127619105Y-47527340D01*
X127619104Y-47527339D01*
X127536174Y-47467087D01*
X127325802Y-47359897D01*
X127101247Y-47286934D01*
X127101248Y-47286934D01*
X126868052Y-47250000D01*
X126631948Y-47250000D01*
X126398752Y-47286934D01*
X126174197Y-47359897D01*
X125963830Y-47467084D01*
X125880894Y-47527340D01*
X126579766Y-48226212D01*
X126537708Y-48237482D01*
X126412292Y-48309890D01*
X126309890Y-48412292D01*
X126237482Y-48537708D01*
X126226212Y-48579766D01*
X125527340Y-47880894D01*
X125467084Y-47963830D01*
X125359897Y-48174197D01*
X125286934Y-48398752D01*
X125250000Y-48631947D01*
X114750000Y-48631947D01*
X114713065Y-48398752D01*
X114640102Y-48174197D01*
X114532914Y-47963828D01*
X114472658Y-47880894D01*
X114472658Y-47880893D01*
X113773787Y-48579765D01*
X113762518Y-48537708D01*
X113690110Y-48412292D01*
X113587708Y-48309890D01*
X113462292Y-48237482D01*
X113420234Y-48226212D01*
X114119105Y-47527340D01*
X114119104Y-47527339D01*
X114036174Y-47467087D01*
X113825802Y-47359897D01*
X113601247Y-47286934D01*
X113601248Y-47286934D01*
X113368052Y-47250000D01*
X113131948Y-47250000D01*
X112898752Y-47286934D01*
X112674197Y-47359897D01*
X112463830Y-47467084D01*
X112380894Y-47527340D01*
X113079766Y-48226212D01*
X113037708Y-48237482D01*
X112912292Y-48309890D01*
X112809890Y-48412292D01*
X112737482Y-48537708D01*
X112726212Y-48579765D01*
X112027340Y-47880894D01*
X111967084Y-47963830D01*
X111859897Y-48174197D01*
X111786934Y-48398752D01*
X111750000Y-48631947D01*
X108250000Y-48631947D01*
X108213065Y-48398752D01*
X108140102Y-48174197D01*
X108032914Y-47963828D01*
X107972658Y-47880894D01*
X107972658Y-47880893D01*
X107273787Y-48579765D01*
X107262518Y-48537708D01*
X107190110Y-48412292D01*
X107087708Y-48309890D01*
X106962292Y-48237482D01*
X106920234Y-48226212D01*
X107619105Y-47527340D01*
X107619104Y-47527339D01*
X107536174Y-47467087D01*
X107325802Y-47359897D01*
X107101247Y-47286934D01*
X107101248Y-47286934D01*
X106868052Y-47250000D01*
X106631948Y-47250000D01*
X106398752Y-47286934D01*
X106174197Y-47359897D01*
X105963830Y-47467084D01*
X105880894Y-47527340D01*
X106579766Y-48226212D01*
X106537708Y-48237482D01*
X106412292Y-48309890D01*
X106309890Y-48412292D01*
X106237482Y-48537708D01*
X106226212Y-48579766D01*
X105527340Y-47880894D01*
X105467084Y-47963830D01*
X105359897Y-48174197D01*
X105286934Y-48398752D01*
X105250000Y-48631947D01*
X102500500Y-48631947D01*
X102500500Y-43868872D01*
X102999500Y-43868872D01*
X102999500Y-44131127D01*
X103026123Y-44333339D01*
X103033730Y-44391116D01*
X103076303Y-44550000D01*
X103101602Y-44644418D01*
X103101605Y-44644428D01*
X103201953Y-44886690D01*
X103201958Y-44886700D01*
X103333075Y-45113803D01*
X103492718Y-45321851D01*
X103492726Y-45321860D01*
X103678140Y-45507274D01*
X103678148Y-45507281D01*
X103886196Y-45666924D01*
X104113299Y-45798041D01*
X104113309Y-45798046D01*
X104259553Y-45858622D01*
X104355581Y-45898398D01*
X104608884Y-45966270D01*
X104868880Y-46000500D01*
X104868887Y-46000500D01*
X105131113Y-46000500D01*
X105131120Y-46000500D01*
X105391116Y-45966270D01*
X105644419Y-45898398D01*
X105886697Y-45798043D01*
X106113803Y-45666924D01*
X106321851Y-45507282D01*
X106321855Y-45507277D01*
X106321860Y-45507274D01*
X106507273Y-45321860D01*
X106507282Y-45321851D01*
X106666924Y-45113803D01*
X106798043Y-44886697D01*
X106898398Y-44644419D01*
X106966270Y-44391116D01*
X107000500Y-44131120D01*
X107000500Y-44052155D01*
X150600000Y-44052155D01*
X150600000Y-44750000D01*
X151624722Y-44750000D01*
X151580667Y-44826306D01*
X151550000Y-44940756D01*
X151550000Y-45059244D01*
X151580667Y-45173694D01*
X151624722Y-45250000D01*
X150600000Y-45250000D01*
X150600000Y-45947844D01*
X150606401Y-46007372D01*
X150606403Y-46007379D01*
X150656645Y-46142086D01*
X150656649Y-46142093D01*
X150742809Y-46257187D01*
X150742812Y-46257190D01*
X150857906Y-46343350D01*
X150857913Y-46343354D01*
X150992620Y-46393596D01*
X150992627Y-46393598D01*
X151052155Y-46399999D01*
X151052172Y-46400000D01*
X151750000Y-46400000D01*
X151750000Y-45375277D01*
X151826306Y-45419333D01*
X151940756Y-45450000D01*
X152059244Y-45450000D01*
X152173694Y-45419333D01*
X152250000Y-45375277D01*
X152250000Y-46400000D01*
X152947828Y-46400000D01*
X152947844Y-46399999D01*
X153007372Y-46393598D01*
X153007379Y-46393596D01*
X153142086Y-46343354D01*
X153142093Y-46343350D01*
X153257187Y-46257190D01*
X153257190Y-46257187D01*
X153343350Y-46142093D01*
X153343354Y-46142086D01*
X153373213Y-46062031D01*
X153415084Y-46006097D01*
X153480548Y-45981680D01*
X153548821Y-45996531D01*
X153577076Y-46017683D01*
X153627636Y-46068243D01*
X153627641Y-46068247D01*
X153731511Y-46143712D01*
X153805978Y-46197815D01*
X153922501Y-46257187D01*
X154002393Y-46297895D01*
X154002396Y-46297896D01*
X154107221Y-46331955D01*
X154212049Y-46366015D01*
X154429778Y-46400500D01*
X154429779Y-46400500D01*
X154650221Y-46400500D01*
X154650222Y-46400500D01*
X154867951Y-46366015D01*
X155077606Y-46297895D01*
X155274022Y-46197815D01*
X155452365Y-46068242D01*
X155608242Y-45912365D01*
X155737815Y-45734022D01*
X155837895Y-45537606D01*
X155906015Y-45327951D01*
X155940500Y-45110222D01*
X155940500Y-44889778D01*
X155906015Y-44672049D01*
X155871955Y-44567221D01*
X155837896Y-44462396D01*
X155837895Y-44462393D01*
X155801576Y-44391114D01*
X155737815Y-44265978D01*
X155647290Y-44141380D01*
X155608247Y-44087641D01*
X155608243Y-44087636D01*
X155452363Y-43931756D01*
X155452358Y-43931752D01*
X155274025Y-43802187D01*
X155274024Y-43802186D01*
X155274022Y-43802185D01*
X155211096Y-43770122D01*
X155077606Y-43702104D01*
X155077603Y-43702103D01*
X154867952Y-43633985D01*
X154709470Y-43608884D01*
X154650222Y-43599500D01*
X154429778Y-43599500D01*
X154370530Y-43608884D01*
X154212047Y-43633985D01*
X154002396Y-43702103D01*
X154002393Y-43702104D01*
X153805974Y-43802187D01*
X153627641Y-43931752D01*
X153627636Y-43931756D01*
X153577075Y-43982317D01*
X153515752Y-44015801D01*
X153446060Y-44010816D01*
X153390127Y-43968945D01*
X153373213Y-43937968D01*
X153343354Y-43857913D01*
X153343350Y-43857906D01*
X153257190Y-43742812D01*
X153257187Y-43742809D01*
X153142093Y-43656649D01*
X153142086Y-43656645D01*
X153007379Y-43606403D01*
X153007372Y-43606401D01*
X152947844Y-43600000D01*
X152250000Y-43600000D01*
X152250000Y-44624722D01*
X152173694Y-44580667D01*
X152059244Y-44550000D01*
X151940756Y-44550000D01*
X151826306Y-44580667D01*
X151750000Y-44624722D01*
X151750000Y-43600000D01*
X151052155Y-43600000D01*
X150992627Y-43606401D01*
X150992620Y-43606403D01*
X150857913Y-43656645D01*
X150857906Y-43656649D01*
X150742812Y-43742809D01*
X150742809Y-43742812D01*
X150656649Y-43857906D01*
X150656645Y-43857913D01*
X150606403Y-43992620D01*
X150606401Y-43992627D01*
X150600000Y-44052155D01*
X107000500Y-44052155D01*
X107000500Y-43868880D01*
X106966270Y-43608884D01*
X106898398Y-43355581D01*
X106800204Y-43118520D01*
X106798046Y-43113309D01*
X106798041Y-43113299D01*
X106666924Y-42886196D01*
X106507281Y-42678148D01*
X106507274Y-42678140D01*
X106321860Y-42492726D01*
X106321851Y-42492718D01*
X106265886Y-42449774D01*
X106144024Y-42356265D01*
X160682000Y-42356265D01*
X160682000Y-42563734D01*
X160714452Y-42768633D01*
X160778562Y-42965941D01*
X160853646Y-43113299D01*
X160872745Y-43150783D01*
X160994686Y-43318620D01*
X161141380Y-43465314D01*
X161267257Y-43556769D01*
X161309218Y-43587256D01*
X161372531Y-43619516D01*
X161423326Y-43667490D01*
X161440121Y-43735311D01*
X161417583Y-43801446D01*
X161372531Y-43840484D01*
X161309218Y-43872743D01*
X161219445Y-43937968D01*
X161141380Y-43994686D01*
X161141378Y-43994688D01*
X161141377Y-43994688D01*
X160994688Y-44141377D01*
X160994688Y-44141378D01*
X160994686Y-44141380D01*
X160942317Y-44213459D01*
X160872745Y-44309216D01*
X160778562Y-44494058D01*
X160714452Y-44691366D01*
X160682000Y-44896265D01*
X160682000Y-45103734D01*
X160714452Y-45308633D01*
X160778562Y-45505941D01*
X160860588Y-45666924D01*
X160872745Y-45690783D01*
X160994686Y-45858620D01*
X161141380Y-46005314D01*
X161141383Y-46005316D01*
X161145085Y-46008478D01*
X161144074Y-46009660D01*
X161182556Y-46059548D01*
X161188546Y-46129161D01*
X161155949Y-46190961D01*
X161095116Y-46225327D01*
X161080272Y-46227843D01*
X161075019Y-46228407D01*
X160940171Y-46278702D01*
X160940164Y-46278706D01*
X160824955Y-46364952D01*
X160824952Y-46364955D01*
X160738706Y-46480164D01*
X160738702Y-46480171D01*
X160688408Y-46615017D01*
X160682001Y-46674616D01*
X160682001Y-46674623D01*
X160682000Y-46674635D01*
X160682000Y-48405370D01*
X160682001Y-48405376D01*
X160688408Y-48464983D01*
X160738702Y-48599828D01*
X160738706Y-48599835D01*
X160824952Y-48715044D01*
X160824955Y-48715047D01*
X160940164Y-48801293D01*
X160940171Y-48801297D01*
X161075017Y-48851591D01*
X161075016Y-48851591D01*
X161081944Y-48852335D01*
X161134627Y-48858000D01*
X162865372Y-48857999D01*
X162924983Y-48851591D01*
X163059831Y-48801296D01*
X163175046Y-48715046D01*
X163261296Y-48599831D01*
X163311591Y-48464983D01*
X163318000Y-48405373D01*
X163317999Y-46674628D01*
X163311591Y-46615017D01*
X163261296Y-46480169D01*
X163261295Y-46480168D01*
X163261293Y-46480164D01*
X163175047Y-46364955D01*
X163175044Y-46364952D01*
X163059835Y-46278706D01*
X163059828Y-46278702D01*
X162924982Y-46228408D01*
X162924984Y-46228408D01*
X162919730Y-46227844D01*
X162855179Y-46201105D01*
X162815332Y-46143712D01*
X162812839Y-46073887D01*
X162848493Y-46013799D01*
X162854930Y-46008496D01*
X162854915Y-46008478D01*
X162858609Y-46005321D01*
X162858620Y-46005314D01*
X163005314Y-45858620D01*
X163127255Y-45690783D01*
X163221439Y-45505937D01*
X163285547Y-45308633D01*
X163290667Y-45276306D01*
X163318000Y-45103734D01*
X163318000Y-44896265D01*
X163285547Y-44691366D01*
X163221437Y-44494058D01*
X163127254Y-44309216D01*
X163005314Y-44141380D01*
X162858620Y-43994686D01*
X162690783Y-43872745D01*
X162627468Y-43840484D01*
X162576673Y-43792510D01*
X162559878Y-43724689D01*
X162582415Y-43658554D01*
X162627469Y-43619515D01*
X162690783Y-43587255D01*
X162858620Y-43465314D01*
X163005314Y-43318620D01*
X163127255Y-43150783D01*
X163221439Y-42965937D01*
X163285547Y-42768633D01*
X163299878Y-42678148D01*
X163318000Y-42563734D01*
X163318000Y-42356265D01*
X163285547Y-42151366D01*
X163221437Y-41954058D01*
X163127254Y-41769216D01*
X163005314Y-41601380D01*
X162858620Y-41454686D01*
X162690783Y-41332745D01*
X162505941Y-41238562D01*
X162308633Y-41174452D01*
X162103734Y-41142000D01*
X162103729Y-41142000D01*
X161896271Y-41142000D01*
X161896266Y-41142000D01*
X161691366Y-41174452D01*
X161494058Y-41238562D01*
X161309216Y-41332745D01*
X161213459Y-41402317D01*
X161141380Y-41454686D01*
X161141378Y-41454688D01*
X161141377Y-41454688D01*
X160994688Y-41601377D01*
X160994688Y-41601378D01*
X160994686Y-41601380D01*
X160942317Y-41673459D01*
X160872745Y-41769216D01*
X160778562Y-41954058D01*
X160714452Y-42151366D01*
X160682000Y-42356265D01*
X106144024Y-42356265D01*
X106113803Y-42333075D01*
X105886700Y-42201958D01*
X105886690Y-42201953D01*
X105644428Y-42101605D01*
X105644421Y-42101603D01*
X105644419Y-42101602D01*
X105391116Y-42033730D01*
X105333339Y-42026123D01*
X105131127Y-41999500D01*
X105131120Y-41999500D01*
X104868880Y-41999500D01*
X104868872Y-41999500D01*
X104637772Y-42029926D01*
X104608884Y-42033730D01*
X104355581Y-42101602D01*
X104355571Y-42101605D01*
X104113309Y-42201953D01*
X104113299Y-42201958D01*
X103886196Y-42333075D01*
X103678148Y-42492718D01*
X103492718Y-42678148D01*
X103333075Y-42886196D01*
X103201958Y-43113299D01*
X103201953Y-43113309D01*
X103101605Y-43355571D01*
X103101602Y-43355581D01*
X103034396Y-43606401D01*
X103033730Y-43608885D01*
X102999500Y-43868872D01*
X102500500Y-43868872D01*
X102500500Y-38624500D01*
X102520185Y-38557461D01*
X102572989Y-38511706D01*
X102624500Y-38500500D01*
X166375500Y-38500500D01*
X166442539Y-38520185D01*
G37*
%TD.AperFunction*%
%TD*%
M02*
