%TF.GenerationSoftware,KiCad,Pcbnew,9.0.6*%
%TF.CreationDate,2026-01-05T15:37:48+01:00*%
%TF.ProjectId,STR500_v1.1,53545235-3030-45f7-9631-2e312e6b6963,rev?*%
%TF.SameCoordinates,Original*%
%TF.FileFunction,Soldermask,Top*%
%TF.FilePolarity,Negative*%
%FSLAX46Y46*%
G04 Gerber Fmt 4.6, Leading zero omitted, Abs format (unit mm)*
G04 Created by KiCad (PCBNEW 9.0.6) date 2026-01-05 15:37:48*
%MOMM*%
%LPD*%
G01*
G04 APERTURE LIST*
G04 Aperture macros list*
%AMRoundRect*
0 Rectangle with rounded corners*
0 $1 Rounding radius*
0 $2 $3 $4 $5 $6 $7 $8 $9 X,Y pos of 4 corners*
0 Add a 4 corners polygon primitive as box body*
4,1,4,$2,$3,$4,$5,$6,$7,$8,$9,$2,$3,0*
0 Add four circle primitives for the rounded corners*
1,1,$1+$1,$2,$3*
1,1,$1+$1,$4,$5*
1,1,$1+$1,$6,$7*
1,1,$1+$1,$8,$9*
0 Add four rect primitives between the rounded corners*
20,1,$1+$1,$2,$3,$4,$5,0*
20,1,$1+$1,$4,$5,$6,$7,0*
20,1,$1+$1,$6,$7,$8,$9,0*
20,1,$1+$1,$8,$9,$2,$3,0*%
G04 Aperture macros list end*
%ADD10C,1.800000*%
%ADD11R,1.800000X1.800000*%
%ADD12C,1.839000*%
%ADD13RoundRect,0.102000X0.817500X-0.817500X0.817500X0.817500X-0.817500X0.817500X-0.817500X-0.817500X0*%
%ADD14R,1.700000X1.700000*%
%ADD15RoundRect,0.250000X0.650000X-0.350000X0.650000X0.350000X-0.650000X0.350000X-0.650000X-0.350000X0*%
%ADD16O,1.700000X1.700000*%
%ADD17O,1.800000X1.200000*%
%ADD18RoundRect,0.102000X-0.975000X-0.975000X0.975000X-0.975000X0.975000X0.975000X-0.975000X0.975000X0*%
%ADD19C,2.154000*%
%ADD20C,2.000000*%
%ADD21C,1.600000*%
%ADD22RoundRect,0.250000X-0.620000X-0.845000X0.620000X-0.845000X0.620000X0.845000X-0.620000X0.845000X0*%
%ADD23O,1.740000X2.190000*%
%ADD24C,1.700000*%
%ADD25RoundRect,0.250000X0.550000X-0.550000X0.550000X0.550000X-0.550000X0.550000X-0.550000X-0.550000X0*%
%ADD26RoundRect,0.250000X-0.845000X0.620000X-0.845000X-0.620000X0.845000X-0.620000X0.845000X0.620000X0*%
%ADD27O,2.190000X1.740000*%
G04 APERTURE END LIST*
D10*
%TO.C,LED1*%
X154540000Y-45000000D03*
D11*
X152000000Y-45000000D03*
%TD*%
D12*
%TO.C,SW2*%
X162000000Y-42460000D03*
X162000000Y-45000000D03*
D13*
X162000000Y-47540000D03*
%TD*%
D14*
%TO.C,GameTrak1*%
X106650000Y-113075000D03*
D15*
X113150000Y-111995000D03*
D16*
X106650000Y-110535000D03*
D17*
X113150000Y-109995000D03*
D16*
X106650000Y-107995000D03*
D17*
X113150000Y-107995000D03*
X113150000Y-105995000D03*
D16*
X106650000Y-105455000D03*
D17*
X113150000Y-103995000D03*
D16*
X106650000Y-102915000D03*
%TD*%
D18*
%TO.C,BT4*%
X141750000Y-102000000D03*
D19*
X154250000Y-102000000D03*
X141750000Y-107000000D03*
X154250000Y-107000000D03*
%TD*%
D20*
%TO.C,BT1*%
X106750000Y-48750000D03*
X113250000Y-48750000D03*
X106750000Y-53250000D03*
X113250000Y-53250000D03*
%TD*%
D18*
%TO.C,BT2*%
X141750000Y-69500000D03*
D19*
X154250000Y-69500000D03*
X141750000Y-74500000D03*
X154250000Y-74500000D03*
%TD*%
D13*
%TO.C,SW3*%
X113000000Y-127540000D03*
D12*
X113000000Y-125000000D03*
X113000000Y-122460000D03*
%TD*%
D13*
%TO.C,SW1*%
X113000000Y-90540000D03*
D12*
X113000000Y-88000000D03*
X113000000Y-85460000D03*
%TD*%
D20*
%TO.C,BT3*%
X126750000Y-48750000D03*
X133250000Y-48750000D03*
X126750000Y-53250000D03*
X133250000Y-53250000D03*
%TD*%
D21*
%TO.C,C2*%
X107500000Y-62000000D03*
X112500000Y-62000000D03*
%TD*%
D22*
%TO.C,J10*%
X118920000Y-128000000D03*
D23*
X126540000Y-128000000D03*
X121460000Y-128000000D03*
X129080000Y-128000000D03*
X124000000Y-128000000D03*
X131620000Y-128000000D03*
%TD*%
D21*
%TO.C,R1*%
X148000000Y-51190000D03*
X148000000Y-58810000D03*
%TD*%
D14*
%TO.C,A1*%
X134240000Y-64740000D03*
D24*
X134240000Y-67280000D03*
X134240000Y-69820000D03*
X134240000Y-72360000D03*
X134240000Y-74900000D03*
X134240000Y-77440000D03*
X134240000Y-79980000D03*
X134240000Y-82520000D03*
X134240000Y-85060000D03*
X134240000Y-87600000D03*
X134240000Y-90140000D03*
X134240000Y-92680000D03*
X134240000Y-95220000D03*
X134240000Y-97760000D03*
X134240000Y-100300000D03*
X134240000Y-102840000D03*
X134240000Y-105380000D03*
X134240000Y-107920000D03*
X134240000Y-110460000D03*
X134240000Y-113000000D03*
X119000000Y-113000000D03*
X119000000Y-110460000D03*
X119000000Y-107920000D03*
X119000000Y-105380000D03*
X119000000Y-102840000D03*
X119000000Y-100300000D03*
X119000000Y-97760000D03*
X119000000Y-95220000D03*
X119000000Y-92680000D03*
X119000000Y-90140000D03*
X119000000Y-87600000D03*
X119000000Y-85060000D03*
X119000000Y-82520000D03*
X119000000Y-79980000D03*
X119000000Y-77440000D03*
X119000000Y-74900000D03*
X119000000Y-72360000D03*
X119000000Y-69820000D03*
X119000000Y-67280000D03*
X119000000Y-64740000D03*
%TD*%
D25*
%TO.C,C1*%
X109000000Y-70000000D03*
D21*
X109000000Y-68000000D03*
%TD*%
D26*
%TO.C,J9*%
X149000000Y-82000000D03*
D27*
X149000000Y-89620000D03*
X149000000Y-84540000D03*
X149000000Y-92160000D03*
X149000000Y-87080000D03*
X149000000Y-94700000D03*
%TD*%
D22*
%TO.C,J1*%
X160460000Y-57000000D03*
D23*
X163000000Y-57000000D03*
%TD*%
D21*
%TO.C,D1*%
X139000000Y-58810000D03*
X139000000Y-51190000D03*
%TD*%
D22*
%TO.C,J8*%
X140300000Y-128000000D03*
D23*
X147920000Y-128000000D03*
X142840000Y-128000000D03*
X150460000Y-128000000D03*
X145380000Y-128000000D03*
X153000000Y-128000000D03*
%TD*%
M02*
