%TF.GenerationSoftware,KiCad,Pcbnew,9.0.6*%
%TF.CreationDate,2025-12-09T15:58:13+01:00*%
%TF.ProjectId,STR500_v1,53545235-3030-45f7-9631-2e6b69636164,rev?*%
%TF.SameCoordinates,Original*%
%TF.FileFunction,Legend,Bot*%
%TF.FilePolarity,Positive*%
%FSLAX46Y46*%
G04 Gerber Fmt 4.6, Leading zero omitted, Abs format (unit mm)*
G04 Created by KiCad (PCBNEW 9.0.6) date 2025-12-09 15:58:13*
%MOMM*%
%LPD*%
G01*
G04 APERTURE LIST*
G04 Aperture macros list*
%AMRoundRect*
0 Rectangle with rounded corners*
0 $1 Rounding radius*
0 $2 $3 $4 $5 $6 $7 $8 $9 X,Y pos of 4 corners*
0 Add a 4 corners polygon primitive as box body*
4,1,4,$2,$3,$4,$5,$6,$7,$8,$9,$2,$3,0*
0 Add four circle primitives for the rounded corners*
1,1,$1+$1,$2,$3*
1,1,$1+$1,$4,$5*
1,1,$1+$1,$6,$7*
1,1,$1+$1,$8,$9*
0 Add four rect primitives between the rounded corners*
20,1,$1+$1,$2,$3,$4,$5,0*
20,1,$1+$1,$4,$5,$6,$7,0*
20,1,$1+$1,$6,$7,$8,$9,0*
20,1,$1+$1,$8,$9,$2,$3,0*%
G04 Aperture macros list end*
%ADD10C,0.200000*%
%ADD11C,0.150000*%
%ADD12C,0.100000*%
%ADD13C,0.120000*%
%ADD14C,1.600000*%
%ADD15O,1.740000X2.190000*%
%ADD16RoundRect,0.250000X-0.620000X-0.845000X0.620000X-0.845000X0.620000X0.845000X-0.620000X0.845000X0*%
%ADD17C,1.839000*%
%ADD18RoundRect,0.102000X0.817500X-0.817500X0.817500X0.817500X-0.817500X0.817500X-0.817500X-0.817500X0*%
%ADD19RoundRect,0.102000X-0.975000X-0.975000X0.975000X-0.975000X0.975000X0.975000X-0.975000X0.975000X0*%
%ADD20C,2.154000*%
%ADD21C,2.000000*%
%ADD22C,1.800000*%
%ADD23R,1.800000X1.800000*%
%ADD24R,1.700000X1.700000*%
%ADD25RoundRect,0.250000X0.350000X0.650000X-0.350000X0.650000X-0.350000X-0.650000X0.350000X-0.650000X0*%
%ADD26O,1.700000X1.700000*%
%ADD27O,1.200000X1.800000*%
%ADD28RoundRect,0.250000X0.550000X-0.550000X0.550000X0.550000X-0.550000X0.550000X-0.550000X-0.550000X0*%
%ADD29C,1.700000*%
%ADD30RoundRect,0.250000X-0.845000X0.620000X-0.845000X-0.620000X0.845000X-0.620000X0.845000X0.620000X0*%
%ADD31O,2.190000X1.740000*%
G04 APERTURE END LIST*
D10*
X118000000Y-47000000D02*
X120000000Y-47000000D01*
X120000000Y-49000000D01*
X118000000Y-49000000D01*
X118000000Y-47000000D01*
G36*
X118000000Y-47000000D02*
G01*
X120000000Y-47000000D01*
X120000000Y-49000000D01*
X118000000Y-49000000D01*
X118000000Y-47000000D01*
G37*
D11*
G36*
X143860659Y-44455478D02*
G01*
X143776029Y-44467812D01*
X143684438Y-44497976D01*
X143644642Y-44524665D01*
X143622278Y-44556960D01*
X143610609Y-44595604D01*
X143606524Y-44640614D01*
X143606524Y-46044399D01*
X143611395Y-46091336D01*
X143624965Y-46128785D01*
X143648584Y-46159019D01*
X143684438Y-46181542D01*
X143768457Y-46198761D01*
X143871528Y-46206210D01*
X143871528Y-46300000D01*
X143068213Y-46300000D01*
X142871418Y-46285587D01*
X142681577Y-46242602D01*
X142560159Y-46197507D01*
X142447987Y-46139771D01*
X142344155Y-46069190D01*
X142252007Y-45985482D01*
X142171529Y-45886760D01*
X142102355Y-45771458D01*
X142051975Y-45647099D01*
X142020466Y-45505166D01*
X142009420Y-45342445D01*
X142009460Y-45341835D01*
X142344155Y-45341835D01*
X142354513Y-45533954D01*
X142383112Y-45691591D01*
X142434173Y-45835275D01*
X142506699Y-45957815D01*
X142565458Y-46025098D01*
X142635191Y-46082014D01*
X142717114Y-46129030D01*
X142805655Y-46162403D01*
X142906089Y-46183274D01*
X143020464Y-46190579D01*
X143120222Y-46184133D01*
X143192250Y-46167257D01*
X143243091Y-46142707D01*
X143281492Y-46104927D01*
X143306207Y-46049600D01*
X143315509Y-45970150D01*
X143315509Y-44476605D01*
X143210973Y-44473185D01*
X143084577Y-44471109D01*
X142974012Y-44478529D01*
X142872717Y-44500147D01*
X142779274Y-44535467D01*
X142691954Y-44584075D01*
X142615085Y-44642797D01*
X142547732Y-44712055D01*
X142460627Y-44838613D01*
X142396057Y-44987927D01*
X142357664Y-45151878D01*
X142344155Y-45341835D01*
X142009460Y-45341835D01*
X142020967Y-45167031D01*
X142053900Y-45013830D01*
X142106507Y-44879483D01*
X142180125Y-44755571D01*
X142269083Y-44650037D01*
X142374197Y-44561113D01*
X142508350Y-44480238D01*
X142669364Y-44415666D01*
X142840461Y-44375129D01*
X143013625Y-44361688D01*
X143860659Y-44361688D01*
X143860659Y-44455478D01*
G37*
G36*
X141283001Y-44923459D02*
G01*
X141368845Y-44943415D01*
X141447784Y-44976081D01*
X141554301Y-45045382D01*
X141641102Y-45132763D01*
X141711744Y-45239823D01*
X141763346Y-45360397D01*
X141794612Y-45488346D01*
X141804989Y-45618318D01*
X141795093Y-45761977D01*
X141766032Y-45895900D01*
X141716426Y-46020113D01*
X141647819Y-46125732D01*
X141558737Y-46213290D01*
X141446441Y-46281681D01*
X141363023Y-46312823D01*
X141268674Y-46332277D01*
X141161531Y-46339078D01*
X141041583Y-46328045D01*
X140933590Y-46295882D01*
X140835101Y-46242725D01*
X140747393Y-46171815D01*
X140671959Y-46086131D01*
X140608199Y-45984071D01*
X140703820Y-45924842D01*
X140764079Y-46021640D01*
X140820624Y-46088874D01*
X140873935Y-46132815D01*
X140934980Y-46164365D01*
X141004259Y-46183806D01*
X141083618Y-46190579D01*
X141196913Y-46178549D01*
X141288660Y-46144783D01*
X141366637Y-46090452D01*
X141428000Y-46019609D01*
X141474675Y-45932431D01*
X141507868Y-45829466D01*
X141526534Y-45718007D01*
X141533147Y-45588764D01*
X140641050Y-45588764D01*
X140641050Y-45498272D01*
X140642825Y-45471528D01*
X140910205Y-45471528D01*
X141533147Y-45471528D01*
X141516487Y-45332055D01*
X141481286Y-45222992D01*
X141430076Y-45138136D01*
X141359940Y-45070505D01*
X141281544Y-45031443D01*
X141191573Y-45018213D01*
X141111272Y-45028761D01*
X141051011Y-45057903D01*
X141002321Y-45103162D01*
X140964794Y-45160607D01*
X140940954Y-45223869D01*
X140923272Y-45307274D01*
X140910205Y-45471528D01*
X140642825Y-45471528D01*
X140648968Y-45379001D01*
X140671824Y-45271981D01*
X140711057Y-45173554D01*
X140765369Y-45090875D01*
X140839820Y-45019276D01*
X140936217Y-44963258D01*
X141047949Y-44929025D01*
X141188886Y-44916608D01*
X141283001Y-44923459D01*
G37*
G36*
X139829919Y-46339078D02*
G01*
X139973196Y-46325984D01*
X140094636Y-46288772D01*
X140198475Y-46228775D01*
X140287630Y-46144905D01*
X140357427Y-46043999D01*
X140408856Y-45925794D01*
X140441347Y-45787045D01*
X140452861Y-45623691D01*
X140441567Y-45484864D01*
X140408531Y-45357711D01*
X140354025Y-45239596D01*
X140279326Y-45132763D01*
X140189348Y-45045648D01*
X140077215Y-44976081D01*
X139994351Y-44943242D01*
X139906351Y-44923367D01*
X139812090Y-44916608D01*
X139683069Y-44928042D01*
X139577125Y-44960064D01*
X139489689Y-45010886D01*
X139420590Y-45081396D01*
X139379617Y-45165585D01*
X139365369Y-45267951D01*
X139373778Y-45332654D01*
X139398220Y-45388119D01*
X139423938Y-45416472D01*
X139458871Y-45433922D01*
X139506175Y-45440265D01*
X139580105Y-45429309D01*
X139631228Y-45399598D01*
X139664999Y-45355369D01*
X139675558Y-45308618D01*
X139671552Y-45247360D01*
X139659193Y-45183077D01*
X139640020Y-45088799D01*
X139670386Y-45053786D01*
X139713049Y-45032501D01*
X139817585Y-45018213D01*
X139881615Y-45025230D01*
X139942637Y-45046301D01*
X139998539Y-45083851D01*
X140058042Y-45149860D01*
X140101941Y-45226168D01*
X140140108Y-45334996D01*
X140163027Y-45457456D01*
X140171493Y-45613311D01*
X140157740Y-45780006D01*
X140119332Y-45916829D01*
X140058775Y-46029501D01*
X139996118Y-46101723D01*
X139927050Y-46151078D01*
X139850183Y-46180499D01*
X139762997Y-46190579D01*
X139676718Y-46182910D01*
X139603546Y-46161133D01*
X139540980Y-46126099D01*
X139458041Y-46049325D01*
X139375017Y-45932658D01*
X139287578Y-45989933D01*
X139354834Y-46090804D01*
X139433852Y-46175343D01*
X139525348Y-46245045D01*
X139626853Y-46298154D01*
X139727815Y-46328941D01*
X139829919Y-46339078D01*
G37*
G36*
X138660810Y-44923459D02*
G01*
X138746654Y-44943415D01*
X138825593Y-44976081D01*
X138932110Y-45045382D01*
X139018911Y-45132763D01*
X139089553Y-45239823D01*
X139141154Y-45360397D01*
X139172421Y-45488346D01*
X139182798Y-45618318D01*
X139172902Y-45761977D01*
X139143841Y-45895900D01*
X139094234Y-46020113D01*
X139025628Y-46125732D01*
X138936546Y-46213290D01*
X138824249Y-46281681D01*
X138740831Y-46312823D01*
X138646482Y-46332277D01*
X138539340Y-46339078D01*
X138419392Y-46328045D01*
X138311399Y-46295882D01*
X138212909Y-46242725D01*
X138125201Y-46171815D01*
X138049768Y-46086131D01*
X137986008Y-45984071D01*
X138081629Y-45924842D01*
X138141888Y-46021640D01*
X138198433Y-46088874D01*
X138251744Y-46132815D01*
X138312789Y-46164365D01*
X138382068Y-46183806D01*
X138461427Y-46190579D01*
X138574722Y-46178549D01*
X138666468Y-46144783D01*
X138744446Y-46090452D01*
X138805809Y-46019609D01*
X138852484Y-45932431D01*
X138885676Y-45829466D01*
X138904343Y-45718007D01*
X138910956Y-45588764D01*
X138018859Y-45588764D01*
X138018859Y-45498272D01*
X138020634Y-45471528D01*
X138288014Y-45471528D01*
X138910956Y-45471528D01*
X138894296Y-45332055D01*
X138859095Y-45222992D01*
X138807885Y-45138136D01*
X138737748Y-45070505D01*
X138659353Y-45031443D01*
X138569382Y-45018213D01*
X138489081Y-45028761D01*
X138428820Y-45057903D01*
X138380130Y-45103162D01*
X138342602Y-45160607D01*
X138318763Y-45223869D01*
X138301081Y-45307274D01*
X138288014Y-45471528D01*
X138020634Y-45471528D01*
X138026777Y-45379001D01*
X138049633Y-45271981D01*
X138088866Y-45173554D01*
X138143178Y-45090875D01*
X138217628Y-45019276D01*
X138314026Y-44963258D01*
X138425757Y-44929025D01*
X138566695Y-44916608D01*
X138660810Y-44923459D01*
G37*
G36*
X135523185Y-46300000D02*
G01*
X136180321Y-46300000D01*
X136180321Y-46206210D01*
X136116817Y-46200837D01*
X136060031Y-46189846D01*
X136026327Y-46172731D01*
X136003367Y-46147103D01*
X135989915Y-46113496D01*
X135984926Y-46067602D01*
X135984926Y-45375662D01*
X135993098Y-45283550D01*
X136015393Y-45212383D01*
X136049895Y-45157554D01*
X136097372Y-45114422D01*
X136150583Y-45089288D01*
X136211706Y-45080739D01*
X136277161Y-45085927D01*
X136337491Y-45101133D01*
X136393916Y-45125640D01*
X136445324Y-45158164D01*
X136511636Y-45222766D01*
X136551936Y-45280530D01*
X136551936Y-46053925D01*
X136547504Y-46098899D01*
X136535572Y-46132205D01*
X136514064Y-46158532D01*
X136479518Y-46178977D01*
X136422854Y-46197418D01*
X136356542Y-46206210D01*
X136356542Y-46300000D01*
X137000000Y-46300000D01*
X137000000Y-46206210D01*
X136939305Y-46200837D01*
X136885205Y-46189846D01*
X136851502Y-46172731D01*
X136828541Y-46147103D01*
X136815090Y-46113496D01*
X136810101Y-46067602D01*
X136810101Y-45375662D01*
X136818273Y-45283550D01*
X136840568Y-45212383D01*
X136875069Y-45157554D01*
X136922546Y-45114422D01*
X136975758Y-45089288D01*
X137036880Y-45080739D01*
X137102288Y-45086111D01*
X137162543Y-45101866D01*
X137219002Y-45126863D01*
X137270498Y-45159630D01*
X137337543Y-45226919D01*
X137378454Y-45283217D01*
X137378454Y-46051238D01*
X137373402Y-46094921D01*
X137359403Y-46128785D01*
X137335915Y-46155920D01*
X137302006Y-46176290D01*
X137243265Y-46196685D01*
X137176343Y-46206210D01*
X137176343Y-46300000D01*
X137830669Y-46300000D01*
X137830669Y-46206210D01*
X137765823Y-46200837D01*
X137707693Y-46189968D01*
X137673982Y-46172972D01*
X137651029Y-46147470D01*
X137637579Y-46114101D01*
X137632588Y-46068457D01*
X137632588Y-45240718D01*
X137637639Y-45199278D01*
X137652372Y-45163049D01*
X137675821Y-45131436D01*
X137707693Y-45104309D01*
X137771929Y-45077930D01*
X137851186Y-45065108D01*
X137851186Y-44971318D01*
X137400436Y-44940055D01*
X137381263Y-44958862D01*
X137381263Y-45148761D01*
X137371737Y-45148761D01*
X137288328Y-45068161D01*
X137196859Y-44993056D01*
X137145022Y-44963958D01*
X137077302Y-44938468D01*
X137003616Y-44922213D01*
X136922208Y-44916608D01*
X136837121Y-44924772D01*
X136762694Y-44948325D01*
X136696772Y-44986950D01*
X136615073Y-45065543D01*
X136561461Y-45156943D01*
X136474755Y-45073046D01*
X136375715Y-44995865D01*
X136320414Y-44964317D01*
X136253471Y-44938468D01*
X136180628Y-44922285D01*
X136097034Y-44916608D01*
X135988139Y-44929772D01*
X135899542Y-44967083D01*
X135826535Y-45028349D01*
X135774344Y-45108892D01*
X135739746Y-45220011D01*
X135726762Y-45371388D01*
X135726762Y-46053681D01*
X135722330Y-46098655D01*
X135710397Y-46131960D01*
X135688882Y-46158413D01*
X135654344Y-46178977D01*
X135592184Y-46197418D01*
X135523185Y-46206210D01*
X135523185Y-46300000D01*
G37*
G36*
X135485083Y-44213189D02*
G01*
X135485083Y-44306978D01*
X135387386Y-44318579D01*
X135331482Y-44330796D01*
X135300558Y-44345080D01*
X135271695Y-44370882D01*
X135246702Y-44412002D01*
X135230641Y-44458830D01*
X135225453Y-44504570D01*
X135225453Y-45834717D01*
X135228262Y-46108757D01*
X135237787Y-46351290D01*
X135153035Y-46370341D01*
X135051919Y-46213660D01*
X134954642Y-46265026D01*
X134850418Y-46305006D01*
X134742122Y-46330595D01*
X134632554Y-46339078D01*
X134511172Y-46326462D01*
X134398216Y-46289015D01*
X134291220Y-46225661D01*
X134188520Y-46133182D01*
X134105241Y-46024751D01*
X134046002Y-45905399D01*
X134009785Y-45772939D01*
X133998039Y-45633461D01*
X134282798Y-45633461D01*
X134295831Y-45818579D01*
X134331278Y-45963369D01*
X134385258Y-46075907D01*
X134443138Y-46149259D01*
X134506310Y-46198585D01*
X134575935Y-46227603D01*
X134654413Y-46237473D01*
X134725940Y-46231062D01*
X134781420Y-46213538D01*
X134830707Y-46185838D01*
X134874354Y-46151133D01*
X134911552Y-46109721D01*
X134939200Y-46067602D01*
X134971318Y-45990910D01*
X134971318Y-45204815D01*
X134909854Y-45146752D01*
X134842236Y-45102843D01*
X134766299Y-45074937D01*
X134674930Y-45065108D01*
X134575408Y-45077938D01*
X134494556Y-45114445D01*
X134426786Y-45171031D01*
X134372923Y-45243161D01*
X134333392Y-45326092D01*
X134304658Y-45426709D01*
X134288183Y-45531846D01*
X134282798Y-45633461D01*
X133998039Y-45633461D01*
X133997278Y-45624424D01*
X134008688Y-45467683D01*
X134041140Y-45332419D01*
X134092979Y-45215111D01*
X134163974Y-45112979D01*
X134254209Y-45025677D01*
X134352103Y-44965240D01*
X134459480Y-44929003D01*
X134579187Y-44916608D01*
X134675570Y-44927528D01*
X134776657Y-44961671D01*
X134871790Y-45016931D01*
X134961793Y-45096737D01*
X134971318Y-45093928D01*
X134971318Y-44202442D01*
X134990491Y-44181926D01*
X135485083Y-44213189D01*
G37*
G36*
X133275744Y-44923459D02*
G01*
X133361587Y-44943415D01*
X133440526Y-44976081D01*
X133547044Y-45045382D01*
X133633845Y-45132763D01*
X133704487Y-45239823D01*
X133756088Y-45360397D01*
X133787355Y-45488346D01*
X133797732Y-45618318D01*
X133787836Y-45761977D01*
X133758775Y-45895900D01*
X133709168Y-46020113D01*
X133640561Y-46125732D01*
X133551480Y-46213290D01*
X133439183Y-46281681D01*
X133355765Y-46312823D01*
X133261416Y-46332277D01*
X133154274Y-46339078D01*
X133034325Y-46328045D01*
X132926333Y-46295882D01*
X132827843Y-46242725D01*
X132740135Y-46171815D01*
X132664702Y-46086131D01*
X132600942Y-45984071D01*
X132696563Y-45924842D01*
X132756822Y-46021640D01*
X132813366Y-46088874D01*
X132866678Y-46132815D01*
X132927723Y-46164365D01*
X132997002Y-46183806D01*
X133076360Y-46190579D01*
X133189656Y-46178549D01*
X133281402Y-46144783D01*
X133359380Y-46090452D01*
X133420743Y-46019609D01*
X133467418Y-45932431D01*
X133500610Y-45829466D01*
X133519276Y-45718007D01*
X133525889Y-45588764D01*
X132633792Y-45588764D01*
X132633792Y-45498272D01*
X132635567Y-45471528D01*
X132902948Y-45471528D01*
X133525889Y-45471528D01*
X133509230Y-45332055D01*
X133474029Y-45222992D01*
X133422819Y-45138136D01*
X133352682Y-45070505D01*
X133274286Y-45031443D01*
X133184316Y-45018213D01*
X133104015Y-45028761D01*
X133043754Y-45057903D01*
X132995063Y-45103162D01*
X132957536Y-45160607D01*
X132933697Y-45223869D01*
X132916015Y-45307274D01*
X132902948Y-45471528D01*
X132635567Y-45471528D01*
X132641710Y-45379001D01*
X132664567Y-45271981D01*
X132703800Y-45173554D01*
X132758112Y-45090875D01*
X132832562Y-45019276D01*
X132928960Y-44963258D01*
X133040691Y-44929025D01*
X133181629Y-44916608D01*
X133275744Y-44923459D01*
G37*
G36*
X131414166Y-45122383D02*
G01*
X131422897Y-45188617D01*
X131448360Y-45245725D01*
X131474880Y-45275408D01*
X131509081Y-45293238D01*
X131553506Y-45299581D01*
X131623278Y-45288736D01*
X131670376Y-45259403D01*
X131701014Y-45216107D01*
X131710676Y-45170498D01*
X131705914Y-45115055D01*
X131696999Y-45065108D01*
X131762190Y-45076890D01*
X131847330Y-45118475D01*
X131925648Y-45181763D01*
X131993387Y-45270027D01*
X131993387Y-46053314D01*
X131988406Y-46098262D01*
X131974947Y-46131228D01*
X131951909Y-46156888D01*
X131916939Y-46176168D01*
X131828768Y-46196685D01*
X131735223Y-46206210D01*
X131735223Y-46300000D01*
X132445603Y-46300000D01*
X132445603Y-46206210D01*
X132380757Y-46200837D01*
X132322627Y-46189968D01*
X132288916Y-46172972D01*
X132265963Y-46147470D01*
X132252512Y-46114101D01*
X132247522Y-46068457D01*
X132247522Y-45246092D01*
X132252407Y-45204921D01*
X132267428Y-45163660D01*
X132291310Y-45126989D01*
X132322749Y-45098813D01*
X132384176Y-45075244D01*
X132460746Y-45065108D01*
X132460746Y-44971318D01*
X132012561Y-44940055D01*
X131993387Y-44958618D01*
X131993387Y-45142655D01*
X131986549Y-45142655D01*
X131895215Y-45043317D01*
X131798115Y-44974127D01*
X131694692Y-44929813D01*
X131608094Y-44916608D01*
X131553159Y-44923117D01*
X131507195Y-44941749D01*
X131468143Y-44972540D01*
X131438819Y-45012740D01*
X131420636Y-45061853D01*
X131414166Y-45122383D01*
G37*
G36*
X129292550Y-46300000D02*
G01*
X130572627Y-46300000D01*
X130572627Y-46113886D01*
X130470167Y-46018265D01*
X130314462Y-45903349D01*
X130183304Y-45822138D01*
X130009769Y-45725785D01*
X129843806Y-45623935D01*
X129788897Y-45575361D01*
X129737927Y-45515247D01*
X129710278Y-45468754D01*
X129687369Y-45408513D01*
X129673733Y-45337681D01*
X129668196Y-45226186D01*
X129679805Y-45115346D01*
X129711132Y-45033609D01*
X129759787Y-44973761D01*
X129824884Y-44929810D01*
X129902121Y-44902712D01*
X129994748Y-44893161D01*
X130081408Y-44901915D01*
X130162787Y-44927965D01*
X130233388Y-44970457D01*
X130281612Y-45024197D01*
X130257798Y-45128000D01*
X130243387Y-45245359D01*
X130253807Y-45293587D01*
X130286496Y-45337561D01*
X130336853Y-45366706D01*
X130414113Y-45377739D01*
X130475578Y-45365585D01*
X130519382Y-45330844D01*
X130546363Y-45278215D01*
X130556263Y-45205059D01*
X130546393Y-45132812D01*
X130515352Y-45057658D01*
X130466561Y-44987745D01*
X130397749Y-44921004D01*
X130315967Y-44866806D01*
X130212002Y-44821842D01*
X130098177Y-44793479D01*
X129972889Y-44783740D01*
X129831847Y-44792655D01*
X129712951Y-44817667D01*
X129612682Y-44856877D01*
X129528122Y-44909403D01*
X129455444Y-44978237D01*
X129404816Y-45055747D01*
X129374131Y-45143703D01*
X129363503Y-45244993D01*
X129371110Y-45342334D01*
X129392934Y-45427686D01*
X129431073Y-45504838D01*
X129487822Y-45573133D01*
X129565562Y-45637562D01*
X129657327Y-45693300D01*
X129953715Y-45832519D01*
X130175122Y-45944504D01*
X130271891Y-46004319D01*
X130343161Y-46057711D01*
X129292550Y-46057711D01*
X129292550Y-46300000D01*
G37*
G36*
X128417598Y-44791016D02*
G01*
X128522239Y-44811953D01*
X128616120Y-44845655D01*
X128703833Y-44892748D01*
X128778519Y-44949010D01*
X128841556Y-45014672D01*
X128920935Y-45132581D01*
X128976133Y-45263555D01*
X129008034Y-45405206D01*
X129019120Y-45564584D01*
X129007758Y-45727268D01*
X128974790Y-45874651D01*
X128918317Y-46010261D01*
X128840090Y-46125610D01*
X128778122Y-46188471D01*
X128703981Y-46242490D01*
X128616120Y-46287787D01*
X128522393Y-46319961D01*
X128418202Y-46339951D01*
X128301901Y-46346894D01*
X128145637Y-46333758D01*
X128009420Y-46296092D01*
X127886943Y-46232666D01*
X127782641Y-46144783D01*
X127701123Y-46037005D01*
X127636584Y-45899441D01*
X127597146Y-45745423D01*
X127583217Y-45564584D01*
X127885101Y-45564584D01*
X127898689Y-45769650D01*
X127935953Y-45933633D01*
X127993056Y-46064183D01*
X128055108Y-46149271D01*
X128125929Y-46206916D01*
X128207043Y-46241256D01*
X128301779Y-46253105D01*
X128396573Y-46241243D01*
X128477588Y-46206888D01*
X128548183Y-46149247D01*
X128609891Y-46064183D01*
X128666590Y-45933685D01*
X128703610Y-45769701D01*
X128717114Y-45564584D01*
X128708788Y-45397164D01*
X128685823Y-45259921D01*
X128650709Y-45148097D01*
X128605129Y-45057536D01*
X128541646Y-44976446D01*
X128470697Y-44921440D01*
X128390828Y-44888750D01*
X128299092Y-44877529D01*
X128208779Y-44888697D01*
X128129919Y-44921292D01*
X128059619Y-44976273D01*
X127996475Y-45057536D01*
X127951159Y-45148058D01*
X127916233Y-45259869D01*
X127893386Y-45397124D01*
X127885101Y-45564584D01*
X127583217Y-45564584D01*
X127594108Y-45411724D01*
X127626325Y-45266974D01*
X127681056Y-45132603D01*
X127756751Y-45018824D01*
X127820465Y-44951926D01*
X127894362Y-44894765D01*
X127979501Y-44846999D01*
X128070837Y-44812927D01*
X128176943Y-44791365D01*
X128300436Y-44783740D01*
X128417598Y-44791016D01*
G37*
G36*
X126011880Y-46300000D02*
G01*
X127291957Y-46300000D01*
X127291957Y-46113886D01*
X127189497Y-46018265D01*
X127033792Y-45903349D01*
X126902634Y-45822138D01*
X126729099Y-45725785D01*
X126563136Y-45623935D01*
X126508227Y-45575361D01*
X126457257Y-45515247D01*
X126429608Y-45468754D01*
X126406699Y-45408513D01*
X126393063Y-45337681D01*
X126387526Y-45226186D01*
X126399135Y-45115346D01*
X126430462Y-45033609D01*
X126479117Y-44973761D01*
X126544215Y-44929810D01*
X126621451Y-44902712D01*
X126714078Y-44893161D01*
X126800738Y-44901915D01*
X126882117Y-44927965D01*
X126952718Y-44970457D01*
X127000942Y-45024197D01*
X126977128Y-45128000D01*
X126962718Y-45245359D01*
X126973137Y-45293587D01*
X127005826Y-45337561D01*
X127056183Y-45366706D01*
X127133443Y-45377739D01*
X127194908Y-45365585D01*
X127238712Y-45330844D01*
X127265693Y-45278215D01*
X127275593Y-45205059D01*
X127265723Y-45132812D01*
X127234682Y-45057658D01*
X127185891Y-44987745D01*
X127117079Y-44921004D01*
X127035297Y-44866806D01*
X126931332Y-44821842D01*
X126817507Y-44793479D01*
X126692219Y-44783740D01*
X126551177Y-44792655D01*
X126432281Y-44817667D01*
X126332012Y-44856877D01*
X126247452Y-44909403D01*
X126174774Y-44978237D01*
X126124146Y-45055747D01*
X126093461Y-45143703D01*
X126082833Y-45244993D01*
X126090440Y-45342334D01*
X126112264Y-45427686D01*
X126150403Y-45504838D01*
X126207152Y-45573133D01*
X126284892Y-45637562D01*
X126376657Y-45693300D01*
X126673046Y-45832519D01*
X126894452Y-45944504D01*
X126991221Y-46004319D01*
X127062491Y-46057711D01*
X126011880Y-46057711D01*
X126011880Y-46300000D01*
G37*
G36*
X124727407Y-45658984D02*
G01*
X124645797Y-45739322D01*
X124577808Y-45842411D01*
X124545997Y-45919393D01*
X124525630Y-46011821D01*
X124518335Y-46122801D01*
X124531441Y-46266437D01*
X124569326Y-46393256D01*
X124631413Y-46506542D01*
X124719225Y-46608600D01*
X124825067Y-46691609D01*
X124943508Y-46750978D01*
X125076998Y-46787513D01*
X125228838Y-46800209D01*
X125384808Y-46786836D01*
X125518239Y-46748769D01*
X125633304Y-46687491D01*
X125710153Y-46624344D01*
X125760447Y-46560481D01*
X125789085Y-46494869D01*
X125798534Y-46425540D01*
X125789775Y-46359845D01*
X125764462Y-46304640D01*
X125722037Y-46266479D01*
X125659193Y-46253105D01*
X125584548Y-46264713D01*
X125534263Y-46296092D01*
X125501420Y-46342002D01*
X125491154Y-46389515D01*
X125506175Y-46498569D01*
X125529378Y-46595289D01*
X125493963Y-46621301D01*
X125435101Y-46652564D01*
X125348394Y-46679187D01*
X125228838Y-46690788D01*
X125143570Y-46681859D01*
X125063485Y-46655251D01*
X124991925Y-46611344D01*
X124932327Y-46550104D01*
X124881240Y-46468837D01*
X124844277Y-46375837D01*
X124822982Y-46271425D01*
X124814846Y-46127930D01*
X124827489Y-46003474D01*
X124863502Y-45898501D01*
X124922069Y-45808949D01*
X125000872Y-45738856D01*
X125093432Y-45697064D01*
X125204169Y-45682554D01*
X125310637Y-45692621D01*
X125408478Y-45722243D01*
X125496856Y-45773941D01*
X125578471Y-45854501D01*
X125670062Y-45819085D01*
X125553925Y-44830635D01*
X124575732Y-44830635D01*
X124575732Y-45072923D01*
X125443283Y-45072923D01*
X125514357Y-45653733D01*
X125447149Y-45613027D01*
X125352547Y-45568492D01*
X125248425Y-45537058D01*
X125131751Y-45526238D01*
X125031648Y-45533719D01*
X124924877Y-45557013D01*
X124822174Y-45597719D01*
X124727407Y-45658984D01*
G37*
G36*
X142204815Y-47815478D02*
G01*
X142278576Y-47834040D01*
X142350994Y-47867623D01*
X142423412Y-47918304D01*
X142497173Y-48011482D01*
X142600019Y-48163894D01*
X142693911Y-48317274D01*
X142919347Y-48710750D01*
X142963850Y-48795199D01*
X142986270Y-48851922D01*
X142997882Y-48911436D01*
X143002634Y-49006772D01*
X143002634Y-49378387D01*
X142997469Y-49425427D01*
X142982850Y-49464117D01*
X142957093Y-49495903D01*
X142915195Y-49522369D01*
X142812735Y-49549113D01*
X142693911Y-49566210D01*
X142693911Y-49660000D01*
X143601029Y-49660000D01*
X143601029Y-49566210D01*
X143486357Y-49555952D01*
X143379745Y-49536046D01*
X143336986Y-49510703D01*
X143312090Y-49479870D01*
X143298573Y-49441554D01*
X143293649Y-49392065D01*
X143293649Y-48919089D01*
X143320272Y-48838855D01*
X143383775Y-48709284D01*
X143565491Y-48365268D01*
X143739026Y-48048485D01*
X143819016Y-47930638D01*
X143898883Y-47860662D01*
X143977407Y-47829155D01*
X144060083Y-47815478D01*
X144060083Y-47721688D01*
X143233565Y-47721688D01*
X143233565Y-47815478D01*
X143362637Y-47822769D01*
X143430303Y-47834773D01*
X143476001Y-47857102D01*
X143487578Y-47881545D01*
X143479396Y-47910366D01*
X143456193Y-47962512D01*
X143413939Y-48043967D01*
X143367411Y-48132260D01*
X143236252Y-48375404D01*
X143061374Y-48690966D01*
X142734211Y-48150334D01*
X142638933Y-47972299D01*
X142621493Y-47918060D01*
X142627358Y-47889588D01*
X142644696Y-47867501D01*
X142706123Y-47837337D01*
X142792341Y-47823049D01*
X142878314Y-47815478D01*
X142878314Y-47721688D01*
X142204815Y-47721688D01*
X142204815Y-47815478D01*
G37*
G36*
X141707592Y-48283086D02*
G01*
X141794975Y-48303108D01*
X141878178Y-48333498D01*
X141943841Y-48367711D01*
X142009329Y-48416559D01*
X142059368Y-48469682D01*
X142093018Y-48529182D01*
X142103698Y-48589239D01*
X142095604Y-48646393D01*
X142071580Y-48697316D01*
X142031536Y-48732953D01*
X141971196Y-48745554D01*
X141900879Y-48735068D01*
X141851639Y-48706475D01*
X141818722Y-48664067D01*
X141808531Y-48620013D01*
X141821598Y-48522805D01*
X141834542Y-48443060D01*
X141807637Y-48422378D01*
X141758705Y-48399218D01*
X141703102Y-48383568D01*
X141641957Y-48378213D01*
X141557252Y-48388526D01*
X141500540Y-48415582D01*
X141455833Y-48456528D01*
X141423237Y-48503021D01*
X141402952Y-48549223D01*
X141391242Y-48598032D01*
X141383670Y-48665931D01*
X141383670Y-48800265D01*
X141465267Y-48837043D01*
X141637194Y-48899061D01*
X141886444Y-48985523D01*
X141991713Y-49036936D01*
X142043275Y-49072276D01*
X142081838Y-49110331D01*
X142120121Y-49162921D01*
X142147418Y-49221584D01*
X142163563Y-49285828D01*
X142169277Y-49361535D01*
X142157866Y-49457977D01*
X142125289Y-49538149D01*
X142071580Y-49605778D01*
X142001561Y-49657012D01*
X141919575Y-49688181D01*
X141822208Y-49699078D01*
X141685644Y-49685218D01*
X141576988Y-49646688D01*
X141480124Y-49584082D01*
X141386357Y-49495868D01*
X141378175Y-49495868D01*
X141348043Y-49581801D01*
X141296964Y-49641437D01*
X141225645Y-49677901D01*
X141126849Y-49691263D01*
X141067153Y-49687665D01*
X141016817Y-49677585D01*
X140904099Y-49641803D01*
X140904099Y-49558394D01*
X140994958Y-49557051D01*
X141036069Y-49552280D01*
X141059926Y-49543251D01*
X141093865Y-49518229D01*
X141116591Y-49489640D01*
X141129949Y-49454630D01*
X141135031Y-49404399D01*
X141131001Y-49072229D01*
X141129158Y-48917501D01*
X141380983Y-48917501D01*
X141389166Y-49391332D01*
X141445015Y-49451079D01*
X141513485Y-49503196D01*
X141591975Y-49538433D01*
X141684211Y-49550579D01*
X141769083Y-49536737D01*
X141835275Y-49497090D01*
X141866751Y-49457376D01*
X141887082Y-49403115D01*
X141894626Y-49329539D01*
X141884340Y-49246130D01*
X141855059Y-49177742D01*
X141808853Y-49118821D01*
X141747103Y-49067222D01*
X141669290Y-49022075D01*
X141584560Y-48984790D01*
X141380983Y-48917501D01*
X141129158Y-48917501D01*
X141126849Y-48723572D01*
X141136833Y-48593097D01*
X141163119Y-48498747D01*
X141208233Y-48419745D01*
X141268876Y-48360505D01*
X141342552Y-48317350D01*
X141423970Y-48292484D01*
X141513002Y-48280876D01*
X141624127Y-48276608D01*
X141707592Y-48283086D01*
G37*
G36*
X139281594Y-49660000D02*
G01*
X139941538Y-49660000D01*
X139941538Y-49566210D01*
X139872662Y-49560837D01*
X139810380Y-49549846D01*
X139776676Y-49532731D01*
X139753715Y-49507103D01*
X139740264Y-49473496D01*
X139735275Y-49427602D01*
X139735275Y-48738471D01*
X139743756Y-48645570D01*
X139766934Y-48573730D01*
X139802930Y-48518286D01*
X139852108Y-48474625D01*
X139906292Y-48449302D01*
X139967550Y-48440739D01*
X140037784Y-48446521D01*
X140100052Y-48463210D01*
X140157527Y-48488542D01*
X140206542Y-48518164D01*
X140247915Y-48551486D01*
X140278227Y-48585453D01*
X140317184Y-48643217D01*
X140317184Y-49413925D01*
X140312090Y-49457413D01*
X140298133Y-49490129D01*
X140274759Y-49516174D01*
X140240736Y-49536290D01*
X140178576Y-49556685D01*
X140109577Y-49566210D01*
X140109577Y-49660000D01*
X140769399Y-49660000D01*
X140769399Y-49566210D01*
X140704553Y-49560837D01*
X140646423Y-49549968D01*
X140612712Y-49532972D01*
X140589759Y-49507470D01*
X140576309Y-49474101D01*
X140571318Y-49428457D01*
X140571318Y-48606092D01*
X140576366Y-48561734D01*
X140591224Y-48521706D01*
X140614971Y-48486659D01*
X140646545Y-48458813D01*
X140707972Y-48435244D01*
X140784542Y-48425108D01*
X140784542Y-48331318D01*
X140336357Y-48300055D01*
X140317184Y-48318862D01*
X140317184Y-48506074D01*
X140310345Y-48506074D01*
X140228401Y-48427550D01*
X140135467Y-48353056D01*
X140081620Y-48323717D01*
X140015300Y-48298468D01*
X139942925Y-48282324D01*
X139858129Y-48276608D01*
X139762295Y-48285092D01*
X139684702Y-48308710D01*
X139621675Y-48345967D01*
X139570655Y-48397142D01*
X139520402Y-48482204D01*
X139488479Y-48587390D01*
X139476988Y-48717833D01*
X139476988Y-49416367D01*
X139472513Y-49461267D01*
X139460624Y-49493426D01*
X139439245Y-49518686D01*
X139404570Y-49538977D01*
X139347906Y-49558028D01*
X139281594Y-49566210D01*
X139281594Y-49660000D01*
G37*
G36*
X137628558Y-49660000D02*
G01*
X138288503Y-49660000D01*
X138288503Y-49566210D01*
X138219626Y-49560837D01*
X138157344Y-49549846D01*
X138123640Y-49532731D01*
X138100680Y-49507103D01*
X138087229Y-49473496D01*
X138082240Y-49427602D01*
X138082240Y-48738471D01*
X138090721Y-48645570D01*
X138113899Y-48573730D01*
X138149895Y-48518286D01*
X138199073Y-48474625D01*
X138253256Y-48449302D01*
X138314515Y-48440739D01*
X138384749Y-48446521D01*
X138447016Y-48463210D01*
X138504491Y-48488542D01*
X138553506Y-48518164D01*
X138594879Y-48551486D01*
X138625191Y-48585453D01*
X138664148Y-48643217D01*
X138664148Y-49413925D01*
X138659055Y-49457413D01*
X138645097Y-49490129D01*
X138621724Y-49516174D01*
X138587700Y-49536290D01*
X138525540Y-49556685D01*
X138456542Y-49566210D01*
X138456542Y-49660000D01*
X139116364Y-49660000D01*
X139116364Y-49566210D01*
X139051517Y-49560837D01*
X138993387Y-49549968D01*
X138959676Y-49532972D01*
X138936723Y-49507470D01*
X138923273Y-49474101D01*
X138918283Y-49428457D01*
X138918283Y-48606092D01*
X138923331Y-48561734D01*
X138938189Y-48521706D01*
X138961935Y-48486659D01*
X138993510Y-48458813D01*
X139054937Y-48435244D01*
X139131507Y-48425108D01*
X139131507Y-48331318D01*
X138683321Y-48300055D01*
X138664148Y-48318862D01*
X138664148Y-48506074D01*
X138657309Y-48506074D01*
X138575366Y-48427550D01*
X138482431Y-48353056D01*
X138428584Y-48323717D01*
X138362264Y-48298468D01*
X138289889Y-48282324D01*
X138205094Y-48276608D01*
X138109259Y-48285092D01*
X138031666Y-48308710D01*
X137968639Y-48345967D01*
X137917620Y-48397142D01*
X137867366Y-48482204D01*
X137835444Y-48587390D01*
X137823953Y-48717833D01*
X137823953Y-49416367D01*
X137819477Y-49461267D01*
X137807588Y-49493426D01*
X137786209Y-49518686D01*
X137751535Y-49538977D01*
X137694870Y-49558028D01*
X137628558Y-49566210D01*
X137628558Y-49660000D01*
G37*
G36*
X135547365Y-48773276D02*
G01*
X135493640Y-48845718D01*
X135456629Y-48923607D01*
X135434979Y-49009298D01*
X135427198Y-49113750D01*
X135439428Y-49238948D01*
X135474911Y-49349797D01*
X135533473Y-49449301D01*
X135617096Y-49539466D01*
X135716490Y-49611958D01*
X135826702Y-49663895D01*
X135949799Y-49695827D01*
X136088485Y-49706894D01*
X136217314Y-49695874D01*
X136347993Y-49662198D01*
X136472118Y-49612958D01*
X136572086Y-49560226D01*
X136630826Y-49660000D01*
X136740125Y-49660000D01*
X136759176Y-48995659D01*
X136648534Y-48995659D01*
X136610645Y-49115530D01*
X136568667Y-49218775D01*
X136515842Y-49314532D01*
X136447644Y-49404766D01*
X136370569Y-49477604D01*
X136281681Y-49533848D01*
X136181294Y-49569340D01*
X136061008Y-49581842D01*
X135970242Y-49575265D01*
X135896388Y-49557051D01*
X135831496Y-49526386D01*
X135782327Y-49486953D01*
X135744359Y-49437756D01*
X135717480Y-49380341D01*
X135701826Y-49316276D01*
X135696231Y-49239291D01*
X135703490Y-49163202D01*
X135725147Y-49090919D01*
X135761810Y-49021182D01*
X135811417Y-48960424D01*
X135875739Y-48909381D01*
X135957205Y-48867798D01*
X136160781Y-48790006D01*
X136358862Y-48709406D01*
X136463088Y-48653211D01*
X136547160Y-48588766D01*
X136613729Y-48516088D01*
X136662634Y-48431878D01*
X136693530Y-48329271D01*
X136704588Y-48203702D01*
X136693196Y-48096241D01*
X136659525Y-47997438D01*
X136605342Y-47907445D01*
X136531053Y-47826468D01*
X136445525Y-47763626D01*
X136343841Y-47715094D01*
X136233767Y-47684916D01*
X136118405Y-47674794D01*
X135989172Y-47685876D01*
X135878681Y-47717414D01*
X135776189Y-47763581D01*
X135685362Y-47814623D01*
X135629309Y-47721688D01*
X135520010Y-47721688D01*
X135509141Y-48362581D01*
X135619783Y-48362581D01*
X135687438Y-48152899D01*
X135730946Y-48056897D01*
X135785136Y-47971671D01*
X135850497Y-47901012D01*
X135928628Y-47846496D01*
X136019668Y-47812236D01*
X136136235Y-47799846D01*
X136219569Y-47809320D01*
X136292560Y-47836875D01*
X136357641Y-47882889D01*
X136408944Y-47943085D01*
X136438926Y-48009822D01*
X136449110Y-48085610D01*
X136442050Y-48167317D01*
X136422141Y-48235672D01*
X136390369Y-48293217D01*
X136320484Y-48366476D01*
X136219521Y-48428649D01*
X136023517Y-48511814D01*
X135837037Y-48586552D01*
X135679256Y-48667519D01*
X135607812Y-48717055D01*
X135547365Y-48773276D01*
G37*
G36*
X134698214Y-48283459D02*
G01*
X134784058Y-48303415D01*
X134862997Y-48336081D01*
X134969514Y-48405382D01*
X135056315Y-48492763D01*
X135126957Y-48599823D01*
X135178558Y-48720397D01*
X135209825Y-48848346D01*
X135220202Y-48978318D01*
X135210306Y-49121977D01*
X135181245Y-49255900D01*
X135131638Y-49380113D01*
X135063032Y-49485732D01*
X134973950Y-49573290D01*
X134861653Y-49641681D01*
X134778236Y-49672823D01*
X134683886Y-49692277D01*
X134576744Y-49699078D01*
X134456796Y-49688045D01*
X134348803Y-49655882D01*
X134250314Y-49602725D01*
X134162605Y-49531815D01*
X134087172Y-49446131D01*
X134023412Y-49344071D01*
X134119033Y-49284842D01*
X134179292Y-49381640D01*
X134235837Y-49448874D01*
X134289148Y-49492815D01*
X134350193Y-49524365D01*
X134419472Y-49543806D01*
X134498831Y-49550579D01*
X134612126Y-49538549D01*
X134703872Y-49504783D01*
X134781850Y-49450452D01*
X134843213Y-49379609D01*
X134889888Y-49292431D01*
X134923080Y-49189466D01*
X134941747Y-49078007D01*
X134948360Y-48948764D01*
X134056263Y-48948764D01*
X134056263Y-48858272D01*
X134058038Y-48831528D01*
X134325418Y-48831528D01*
X134948360Y-48831528D01*
X134931700Y-48692055D01*
X134896499Y-48582992D01*
X134845289Y-48498136D01*
X134775152Y-48430505D01*
X134696757Y-48391443D01*
X134606786Y-48378213D01*
X134526485Y-48388761D01*
X134466224Y-48417903D01*
X134417534Y-48463162D01*
X134380006Y-48520607D01*
X134356167Y-48583869D01*
X134338485Y-48667274D01*
X134325418Y-48831528D01*
X134058038Y-48831528D01*
X134064181Y-48739001D01*
X134087037Y-48631981D01*
X134126270Y-48533554D01*
X134180582Y-48450875D01*
X134255032Y-48379276D01*
X134351430Y-48323258D01*
X134463161Y-48289025D01*
X134604099Y-48276608D01*
X134698214Y-48283459D01*
G37*
G36*
X132801099Y-49660000D02*
G01*
X133891399Y-49660000D01*
X133891399Y-49593565D01*
X133128995Y-48417292D01*
X133317550Y-48417292D01*
X133503419Y-48421566D01*
X133568325Y-48430832D01*
X133626273Y-48449654D01*
X133660069Y-48475694D01*
X133698080Y-48538436D01*
X133727753Y-48617786D01*
X133756088Y-48729923D01*
X133839497Y-48729923D01*
X133839497Y-48315687D01*
X132809281Y-48315687D01*
X132809281Y-48367100D01*
X133583897Y-49558394D01*
X133475942Y-49560471D01*
X133348935Y-49561081D01*
X133234874Y-49559738D01*
X133082466Y-49552777D01*
X133033460Y-49541408D01*
X132999912Y-49514919D01*
X132975225Y-49477555D01*
X132956803Y-49434808D01*
X132920655Y-49322334D01*
X132883042Y-49183237D01*
X132801099Y-49183237D01*
X132801099Y-49660000D01*
G37*
G36*
X131137561Y-49660000D02*
G01*
X131797505Y-49660000D01*
X131797505Y-49566210D01*
X131728628Y-49560837D01*
X131666346Y-49549846D01*
X131632643Y-49532731D01*
X131609682Y-49507103D01*
X131596231Y-49473496D01*
X131591242Y-49427602D01*
X131591242Y-48738471D01*
X131599723Y-48645570D01*
X131622901Y-48573730D01*
X131658897Y-48518286D01*
X131708075Y-48474625D01*
X131762258Y-48449302D01*
X131823517Y-48440739D01*
X131893751Y-48446521D01*
X131956018Y-48463210D01*
X132013494Y-48488542D01*
X132062508Y-48518164D01*
X132103881Y-48551486D01*
X132134193Y-48585453D01*
X132173150Y-48643217D01*
X132173150Y-49413925D01*
X132168057Y-49457413D01*
X132154099Y-49490129D01*
X132130726Y-49516174D01*
X132096702Y-49536290D01*
X132034542Y-49556685D01*
X131965544Y-49566210D01*
X131965544Y-49660000D01*
X132625366Y-49660000D01*
X132625366Y-49566210D01*
X132560519Y-49560837D01*
X132502390Y-49549968D01*
X132468678Y-49532972D01*
X132445725Y-49507470D01*
X132432275Y-49474101D01*
X132427285Y-49428457D01*
X132427285Y-48606092D01*
X132432333Y-48561734D01*
X132447191Y-48521706D01*
X132470937Y-48486659D01*
X132502512Y-48458813D01*
X132563939Y-48435244D01*
X132640509Y-48425108D01*
X132640509Y-48331318D01*
X132192323Y-48300055D01*
X132173150Y-48318862D01*
X132173150Y-48506074D01*
X132166311Y-48506074D01*
X132084368Y-48427550D01*
X131991434Y-48353056D01*
X131937586Y-48323717D01*
X131871266Y-48298468D01*
X131798891Y-48282324D01*
X131714096Y-48276608D01*
X131618261Y-48285092D01*
X131540668Y-48308710D01*
X131477641Y-48345967D01*
X131426622Y-48397142D01*
X131376368Y-48482204D01*
X131344446Y-48587390D01*
X131332955Y-48717833D01*
X131332955Y-49416367D01*
X131328479Y-49461267D01*
X131316591Y-49493426D01*
X131295211Y-49518686D01*
X131260537Y-49538977D01*
X131203872Y-49558028D01*
X131137561Y-49566210D01*
X131137561Y-49660000D01*
G37*
G36*
X130450342Y-48283459D02*
G01*
X130536186Y-48303415D01*
X130615125Y-48336081D01*
X130721642Y-48405382D01*
X130808443Y-48492763D01*
X130879086Y-48599823D01*
X130930687Y-48720397D01*
X130961953Y-48848346D01*
X130972330Y-48978318D01*
X130962434Y-49121977D01*
X130933374Y-49255900D01*
X130883767Y-49380113D01*
X130815160Y-49485732D01*
X130726079Y-49573290D01*
X130613782Y-49641681D01*
X130530364Y-49672823D01*
X130436015Y-49692277D01*
X130328872Y-49699078D01*
X130208924Y-49688045D01*
X130100931Y-49655882D01*
X130002442Y-49602725D01*
X129914734Y-49531815D01*
X129839300Y-49446131D01*
X129775540Y-49344071D01*
X129871161Y-49284842D01*
X129931420Y-49381640D01*
X129987965Y-49448874D01*
X130041277Y-49492815D01*
X130102321Y-49524365D01*
X130171601Y-49543806D01*
X130250959Y-49550579D01*
X130364255Y-49538549D01*
X130456001Y-49504783D01*
X130533978Y-49450452D01*
X130595341Y-49379609D01*
X130642016Y-49292431D01*
X130675209Y-49189466D01*
X130693875Y-49078007D01*
X130700488Y-48948764D01*
X129808391Y-48948764D01*
X129808391Y-48858272D01*
X129810166Y-48831528D01*
X130077547Y-48831528D01*
X130700488Y-48831528D01*
X130683829Y-48692055D01*
X130648628Y-48582992D01*
X130597418Y-48498136D01*
X130527281Y-48430505D01*
X130448885Y-48391443D01*
X130358914Y-48378213D01*
X130278614Y-48388761D01*
X130218353Y-48417903D01*
X130169662Y-48463162D01*
X130132135Y-48520607D01*
X130108296Y-48583869D01*
X130090614Y-48667274D01*
X130077547Y-48831528D01*
X129810166Y-48831528D01*
X129816309Y-48739001D01*
X129839166Y-48631981D01*
X129878399Y-48533554D01*
X129932711Y-48450875D01*
X130007161Y-48379276D01*
X130103558Y-48323258D01*
X130215290Y-48289025D01*
X130356228Y-48276608D01*
X130450342Y-48283459D01*
G37*
G36*
X128997260Y-49699078D02*
G01*
X129140537Y-49685984D01*
X129261977Y-49648772D01*
X129365816Y-49588775D01*
X129454972Y-49504905D01*
X129524768Y-49403999D01*
X129576197Y-49285794D01*
X129608688Y-49147045D01*
X129620202Y-48983691D01*
X129608909Y-48844864D01*
X129575872Y-48717711D01*
X129521366Y-48599596D01*
X129446667Y-48492763D01*
X129356690Y-48405648D01*
X129244556Y-48336081D01*
X129161692Y-48303242D01*
X129073693Y-48283367D01*
X128979431Y-48276608D01*
X128850410Y-48288042D01*
X128744466Y-48320064D01*
X128657030Y-48370886D01*
X128587931Y-48441396D01*
X128546958Y-48525585D01*
X128532711Y-48627951D01*
X128541119Y-48692654D01*
X128565561Y-48748119D01*
X128591279Y-48776472D01*
X128626212Y-48793922D01*
X128673517Y-48800265D01*
X128747447Y-48789309D01*
X128798569Y-48759598D01*
X128832341Y-48715369D01*
X128842899Y-48668618D01*
X128838893Y-48607360D01*
X128826535Y-48543077D01*
X128807362Y-48448799D01*
X128837727Y-48413786D01*
X128880390Y-48392501D01*
X128984926Y-48378213D01*
X129048957Y-48385230D01*
X129109979Y-48406301D01*
X129165880Y-48443851D01*
X129225383Y-48509860D01*
X129269282Y-48586168D01*
X129307449Y-48694996D01*
X129330368Y-48817456D01*
X129338834Y-48973311D01*
X129325081Y-49140006D01*
X129286673Y-49276829D01*
X129226116Y-49389501D01*
X129163459Y-49461723D01*
X129094392Y-49511078D01*
X129017524Y-49540499D01*
X128930338Y-49550579D01*
X128844059Y-49542910D01*
X128770887Y-49521133D01*
X128708321Y-49486099D01*
X128625383Y-49409325D01*
X128542358Y-49292658D01*
X128454919Y-49349933D01*
X128522175Y-49450804D01*
X128601193Y-49535343D01*
X128692690Y-49605045D01*
X128794195Y-49658154D01*
X128895156Y-49688941D01*
X128997260Y-49699078D01*
G37*
D10*
G36*
X110639323Y-45572065D02*
G01*
X110899870Y-45554691D01*
X111136296Y-45504288D01*
X111356012Y-45428255D01*
X111526657Y-45346568D01*
X111668073Y-45490000D01*
X111842280Y-45490000D01*
X111868841Y-44434870D01*
X111692620Y-44434870D01*
X111626719Y-44585749D01*
X111541128Y-44751775D01*
X111440836Y-44910877D01*
X111327904Y-45050179D01*
X111194572Y-45175925D01*
X111048185Y-45274577D01*
X110941870Y-45321709D01*
X110822155Y-45350883D01*
X110686400Y-45361039D01*
X110505475Y-45343784D01*
X110366155Y-45296616D01*
X110259036Y-45223103D01*
X110176463Y-45123122D01*
X110127383Y-45008848D01*
X110110476Y-44875607D01*
X110124653Y-44766385D01*
X110166129Y-44671187D01*
X110236505Y-44586362D01*
X110326534Y-44517716D01*
X110453556Y-44450141D01*
X110626866Y-44384678D01*
X110943588Y-44281913D01*
X111215064Y-44185010D01*
X111399670Y-44092682D01*
X111542748Y-43981898D01*
X111650671Y-43852534D01*
X111729610Y-43703103D01*
X111776926Y-43543075D01*
X111793004Y-43369300D01*
X111774681Y-43203721D01*
X111719364Y-43043968D01*
X111629787Y-42897313D01*
X111504125Y-42763517D01*
X111354801Y-42660782D01*
X111157728Y-42573923D01*
X110940390Y-42519304D01*
X110698674Y-42500467D01*
X110462199Y-42518002D01*
X110245847Y-42569160D01*
X110047173Y-42641733D01*
X109913738Y-42705448D01*
X109788808Y-42582533D01*
X109610389Y-42582533D01*
X109594085Y-43579043D01*
X109770307Y-43579043D01*
X109914837Y-43251147D01*
X110003107Y-43092936D01*
X110089959Y-42972527D01*
X110198662Y-42864853D01*
X110321502Y-42782384D01*
X110460714Y-42729965D01*
X110628881Y-42711493D01*
X110771695Y-42726262D01*
X110890601Y-42768143D01*
X110990666Y-42836057D01*
X111069264Y-42926670D01*
X111115297Y-43028104D01*
X111130983Y-43144352D01*
X111117008Y-43254720D01*
X111076679Y-43347991D01*
X111009167Y-43428285D01*
X110922286Y-43492957D01*
X110798714Y-43557908D01*
X110629064Y-43622274D01*
X110319670Y-43725040D01*
X110038668Y-43823592D01*
X109849670Y-43913923D01*
X109701150Y-44019866D01*
X109586941Y-44141046D01*
X109502577Y-44283136D01*
X109450452Y-44448642D01*
X109432152Y-44643332D01*
X109453944Y-44828327D01*
X109520263Y-45009146D01*
X109624303Y-45171565D01*
X109758033Y-45302971D01*
X109932950Y-45416438D01*
X110137220Y-45502090D01*
X110362562Y-45553477D01*
X110639323Y-45572065D01*
G37*
G36*
X106432728Y-43414912D02*
G01*
X106590448Y-43414912D01*
X106669733Y-43230039D01*
X106794330Y-43018323D01*
X106898170Y-42885418D01*
X106982718Y-42816357D01*
X107053532Y-42790444D01*
X107215465Y-42776339D01*
X107381428Y-42770111D01*
X107477782Y-42770111D01*
X107477782Y-45042119D01*
X107470863Y-45112617D01*
X107451221Y-45171812D01*
X107413778Y-45220215D01*
X107346624Y-45260472D01*
X107200078Y-45298391D01*
X107031001Y-45325868D01*
X107031001Y-45490000D01*
X108652163Y-45490000D01*
X108652163Y-45325868D01*
X108485284Y-45308649D01*
X108338555Y-45280989D01*
X108269638Y-45240757D01*
X108232126Y-45193244D01*
X108212429Y-45134716D01*
X108205382Y-45062452D01*
X108205382Y-42770111D01*
X108301735Y-42770111D01*
X108467698Y-42776339D01*
X108629631Y-42790444D01*
X108700446Y-42816357D01*
X108784994Y-42885418D01*
X108888834Y-43018323D01*
X109013431Y-43230039D01*
X109092716Y-43414912D01*
X109250619Y-43414912D01*
X109250619Y-42582533D01*
X106432728Y-42582533D01*
X106432728Y-43414912D01*
G37*
G36*
X106263468Y-42746664D02*
G01*
X106123150Y-42773225D01*
X105968361Y-42818105D01*
X105894225Y-42861188D01*
X105859734Y-42904017D01*
X105843299Y-42956609D01*
X105837203Y-43026383D01*
X105837203Y-45070512D01*
X105844445Y-45143854D01*
X105863948Y-45198190D01*
X105900612Y-45241698D01*
X105968361Y-45280989D01*
X106106847Y-45308649D01*
X106263468Y-45325868D01*
X106263468Y-45490000D01*
X104712098Y-45490000D01*
X104712098Y-45325868D01*
X104854431Y-45302604D01*
X104976430Y-45269265D01*
X105044408Y-45228606D01*
X105081943Y-45184269D01*
X105102269Y-45129964D01*
X105109603Y-45060804D01*
X105109603Y-44188674D01*
X104996946Y-44188674D01*
X104520490Y-44790610D01*
X104040003Y-45490000D01*
X102925157Y-45490000D01*
X102925157Y-45325868D01*
X103028654Y-45313961D01*
X103148456Y-45289781D01*
X103231454Y-45247250D01*
X103342262Y-45150563D01*
X103515369Y-44959321D01*
X103901700Y-44476453D01*
X104226482Y-44060812D01*
X103994195Y-43975560D01*
X103819949Y-43877713D01*
X103692690Y-43769187D01*
X103597333Y-43635268D01*
X103538317Y-43473242D01*
X103523216Y-43330465D01*
X104320638Y-43330465D01*
X104332981Y-43503668D01*
X104366712Y-43640372D01*
X104418350Y-43747716D01*
X104486601Y-43831285D01*
X104606394Y-43916126D01*
X104759015Y-43969890D01*
X104953899Y-43989371D01*
X105109603Y-43989371D01*
X105109603Y-42770111D01*
X104947670Y-42770111D01*
X104751020Y-42787106D01*
X104599675Y-42833341D01*
X104483670Y-42904567D01*
X104396744Y-43005498D01*
X104341176Y-43143358D01*
X104320638Y-43330465D01*
X103523216Y-43330465D01*
X103517384Y-43275327D01*
X103536098Y-43108049D01*
X103589304Y-42969261D01*
X103676307Y-42852637D01*
X103801317Y-42754724D01*
X103943342Y-42685566D01*
X104123614Y-42631489D01*
X104350185Y-42595657D01*
X104632231Y-42582533D01*
X106263468Y-42582533D01*
X106263468Y-42746664D01*
G37*
G36*
X101641599Y-44599002D02*
G01*
X102883574Y-44599002D01*
X102883574Y-44141779D01*
X101641599Y-44141779D01*
X101641599Y-44599002D01*
G37*
G36*
X99490675Y-44520416D02*
G01*
X99350758Y-44639351D01*
X99232571Y-44796838D01*
X99176212Y-44916738D01*
X99140615Y-45058565D01*
X99127974Y-45226950D01*
X99142402Y-45403756D01*
X99184343Y-45563244D01*
X99253127Y-45708563D01*
X99349887Y-45842109D01*
X99477486Y-45965357D01*
X99658772Y-46087799D01*
X99864761Y-46176959D01*
X100099895Y-46232563D01*
X100369766Y-46252037D01*
X100580634Y-46239672D01*
X100765440Y-46204423D01*
X100927803Y-46148319D01*
X101070804Y-46072336D01*
X101201794Y-45970620D01*
X101287077Y-45867292D01*
X101335476Y-45760726D01*
X101351439Y-45647536D01*
X101340764Y-45554618D01*
X101309806Y-45473930D01*
X101258199Y-45402622D01*
X101190314Y-45347670D01*
X101108694Y-45314203D01*
X101009255Y-45302421D01*
X100904431Y-45312765D01*
X100817161Y-45342034D01*
X100743824Y-45389249D01*
X100686567Y-45453234D01*
X100652282Y-45529265D01*
X100640326Y-45621158D01*
X100648613Y-45724856D01*
X100675314Y-45843724D01*
X100732650Y-46027639D01*
X100617794Y-46055300D01*
X100494879Y-46064459D01*
X100379929Y-46051513D01*
X100265352Y-46011885D01*
X100161266Y-45947556D01*
X100072644Y-45858379D01*
X99992699Y-45734214D01*
X99933426Y-45585254D01*
X99898575Y-45421397D01*
X99886165Y-45227500D01*
X99904603Y-45039352D01*
X99956788Y-44882490D01*
X100040954Y-44750493D01*
X100154867Y-44646386D01*
X100286412Y-44584975D01*
X100441573Y-44563831D01*
X100621657Y-44584429D01*
X100761409Y-44641500D01*
X100882792Y-44730224D01*
X100992951Y-44845198D01*
X101152686Y-44791892D01*
X100953934Y-43285952D01*
X99222313Y-43285952D01*
X99222313Y-43848688D01*
X100806472Y-43848688D01*
X100890369Y-44525729D01*
X100770389Y-44460888D01*
X100605521Y-44392922D01*
X100422256Y-44346240D01*
X100195743Y-44329357D01*
X100014499Y-44339395D01*
X99835973Y-44369474D01*
X99663155Y-44426233D01*
X99490675Y-44520416D01*
G37*
G36*
X97686045Y-43227154D02*
G01*
X97868818Y-43260217D01*
X98031446Y-43313063D01*
X98185477Y-43387200D01*
X98316441Y-43473774D01*
X98426936Y-43572632D01*
X98566844Y-43749688D01*
X98663790Y-43943942D01*
X98720918Y-44155192D01*
X98740544Y-44389075D01*
X98719972Y-44625249D01*
X98659577Y-44842451D01*
X98559548Y-45040416D01*
X98422906Y-45209548D01*
X98311436Y-45306088D01*
X98180688Y-45390955D01*
X98028332Y-45463988D01*
X97867798Y-45516194D01*
X97686817Y-45548905D01*
X97482266Y-45560341D01*
X97288080Y-45550571D01*
X97116200Y-45522664D01*
X96963860Y-45478276D01*
X96751257Y-45377191D01*
X96568187Y-45240322D01*
X96468716Y-45134192D01*
X96383762Y-45012735D01*
X96313014Y-44874324D01*
X96262049Y-44727300D01*
X96230619Y-44566296D01*
X96219774Y-44389075D01*
X96219867Y-44387976D01*
X96992437Y-44387976D01*
X96999439Y-44619191D01*
X97018082Y-44795922D01*
X97052855Y-44958386D01*
X97103079Y-45100188D01*
X97169871Y-45214616D01*
X97254754Y-45299490D01*
X97358660Y-45354073D01*
X97482266Y-45372763D01*
X97614152Y-45351831D01*
X97720036Y-45291430D01*
X97803906Y-45198790D01*
X97867498Y-45077657D01*
X97915817Y-44928560D01*
X97946449Y-44772658D01*
X97962039Y-44605545D01*
X97967882Y-44387976D01*
X97961465Y-44176791D01*
X97943335Y-43992302D01*
X97910068Y-43820283D01*
X97865483Y-43688037D01*
X97795189Y-43564413D01*
X97711793Y-43477561D01*
X97608395Y-43422492D01*
X97478053Y-43403189D01*
X97349713Y-43422634D01*
X97246693Y-43478476D01*
X97163642Y-43566610D01*
X97094836Y-43692067D01*
X97048420Y-43832413D01*
X97016067Y-43999446D01*
X96998679Y-44177618D01*
X96992437Y-44387976D01*
X96219867Y-44387976D01*
X96238554Y-44166956D01*
X96294696Y-43953101D01*
X96389486Y-43754658D01*
X96525139Y-43578677D01*
X96634312Y-43479681D01*
X96764568Y-43392120D01*
X96918614Y-43316177D01*
X97081455Y-43261857D01*
X97267382Y-43227637D01*
X97480068Y-43215610D01*
X97686045Y-43227154D01*
G37*
G36*
X94743407Y-43227154D02*
G01*
X94926180Y-43260217D01*
X95088808Y-43313063D01*
X95242839Y-43387200D01*
X95373803Y-43473774D01*
X95484298Y-43572632D01*
X95624207Y-43749688D01*
X95721153Y-43943942D01*
X95778280Y-44155192D01*
X95797906Y-44389075D01*
X95777335Y-44625249D01*
X95716939Y-44842451D01*
X95616910Y-45040416D01*
X95480268Y-45209548D01*
X95368799Y-45306088D01*
X95238050Y-45390955D01*
X95085694Y-45463988D01*
X94925160Y-45516194D01*
X94744179Y-45548905D01*
X94539628Y-45560341D01*
X94345442Y-45550571D01*
X94173562Y-45522664D01*
X94021222Y-45478276D01*
X93808619Y-45377191D01*
X93625549Y-45240322D01*
X93526078Y-45134192D01*
X93441124Y-45012735D01*
X93370376Y-44874324D01*
X93319412Y-44727300D01*
X93287981Y-44566296D01*
X93277137Y-44389075D01*
X93277230Y-44387976D01*
X94049799Y-44387976D01*
X94056801Y-44619191D01*
X94075444Y-44795922D01*
X94110217Y-44958386D01*
X94160441Y-45100188D01*
X94227234Y-45214616D01*
X94312116Y-45299490D01*
X94416022Y-45354073D01*
X94539628Y-45372763D01*
X94671514Y-45351831D01*
X94777398Y-45291430D01*
X94861268Y-45198790D01*
X94924860Y-45077657D01*
X94973179Y-44928560D01*
X95003811Y-44772658D01*
X95019402Y-44605545D01*
X95025244Y-44387976D01*
X95018827Y-44176791D01*
X95000697Y-43992302D01*
X94967430Y-43820283D01*
X94922845Y-43688037D01*
X94852551Y-43564413D01*
X94769155Y-43477561D01*
X94665758Y-43422492D01*
X94535415Y-43403189D01*
X94407075Y-43422634D01*
X94304056Y-43478476D01*
X94221004Y-43566610D01*
X94152198Y-43692067D01*
X94105782Y-43832413D01*
X94073429Y-43999446D01*
X94056041Y-44177618D01*
X94049799Y-44387976D01*
X93277230Y-44387976D01*
X93295916Y-44166956D01*
X93352058Y-43953101D01*
X93446848Y-43754658D01*
X93582501Y-43578677D01*
X93691674Y-43479681D01*
X93821930Y-43392120D01*
X93975976Y-43316177D01*
X94138817Y-43261857D01*
X94324744Y-43227637D01*
X94537430Y-43215610D01*
X94743407Y-43227154D01*
G37*
G36*
X89547182Y-43614214D02*
G01*
X89637119Y-43638334D01*
X89726700Y-43683824D01*
X89804148Y-43751816D01*
X89871048Y-43855648D01*
X90152782Y-44458501D01*
X90424441Y-45046882D01*
X90517681Y-45267983D01*
X90604692Y-45513447D01*
X90981864Y-45513447D01*
X91384682Y-44606878D01*
X91738040Y-43833117D01*
X91793035Y-43747314D01*
X91872313Y-43681809D01*
X91965471Y-43636781D01*
X92057693Y-43614214D01*
X92057693Y-43461807D01*
X90795385Y-43461807D01*
X90795385Y-43614214D01*
X90867410Y-43622220D01*
X90959333Y-43644989D01*
X91035080Y-43682001D01*
X91053489Y-43718628D01*
X91045429Y-43755448D01*
X91024912Y-43810769D01*
X90827259Y-44258100D01*
X90547356Y-44872676D01*
X90351718Y-44436702D01*
X90121092Y-43892468D01*
X90099659Y-43812784D01*
X90096545Y-43771751D01*
X90105029Y-43738120D01*
X90132449Y-43707271D01*
X90217445Y-43659277D01*
X90315814Y-43628503D01*
X90393667Y-43614214D01*
X90393667Y-43461807D01*
X89547182Y-43461807D01*
X89547182Y-43614214D01*
G37*
G36*
X87683853Y-45490000D02*
G01*
X89374441Y-45490000D01*
X89374441Y-45337592D01*
X89178803Y-45316892D01*
X88995437Y-45283920D01*
X88940159Y-45255681D01*
X88899084Y-45213578D01*
X88873816Y-45157820D01*
X88864279Y-45077107D01*
X88864279Y-43766622D01*
X89382684Y-43766622D01*
X89382684Y-43579043D01*
X89270027Y-43579043D01*
X89098211Y-43568532D01*
X88961549Y-43539842D01*
X88838387Y-43494701D01*
X88745394Y-43444771D01*
X88662935Y-43384205D01*
X88600863Y-43325153D01*
X88511653Y-43215610D01*
X88150968Y-43215610D01*
X88163424Y-43528485D01*
X88169469Y-43849603D01*
X88169469Y-45055675D01*
X88161228Y-45126105D01*
X88137779Y-45184269D01*
X88099276Y-45232179D01*
X88046554Y-45267616D01*
X87983855Y-45289116D01*
X87868318Y-45313046D01*
X87683853Y-45337592D01*
X87683853Y-45490000D01*
G37*
G36*
X86473569Y-45157890D02*
G01*
X86486875Y-45261679D01*
X86526231Y-45354935D01*
X86593553Y-45440724D01*
X86679334Y-45507774D01*
X86772886Y-45547044D01*
X86877302Y-45560341D01*
X86983115Y-45547079D01*
X87077380Y-45508035D01*
X87163250Y-45441639D01*
X87230312Y-45356503D01*
X87269683Y-45262983D01*
X87283051Y-45157890D01*
X87269725Y-45052730D01*
X87230381Y-44958508D01*
X87163250Y-44872126D01*
X87077238Y-44804520D01*
X86982983Y-44764861D01*
X86877302Y-44751409D01*
X86773030Y-44764911D01*
X86679490Y-44804850D01*
X86593553Y-44873225D01*
X86526169Y-44960149D01*
X86486837Y-45054039D01*
X86473569Y-45157890D01*
G37*
G36*
X84924845Y-43227154D02*
G01*
X85107618Y-43260217D01*
X85270245Y-43313063D01*
X85424277Y-43387200D01*
X85555241Y-43473774D01*
X85665736Y-43572632D01*
X85805644Y-43749688D01*
X85902590Y-43943942D01*
X85959717Y-44155192D01*
X85979344Y-44389075D01*
X85958772Y-44625249D01*
X85898377Y-44842451D01*
X85798348Y-45040416D01*
X85661706Y-45209548D01*
X85550236Y-45306088D01*
X85419488Y-45390955D01*
X85267131Y-45463988D01*
X85106598Y-45516194D01*
X84925616Y-45548905D01*
X84721065Y-45560341D01*
X84526879Y-45550571D01*
X84354999Y-45522664D01*
X84202660Y-45478276D01*
X83990057Y-45377191D01*
X83806987Y-45240322D01*
X83707515Y-45134192D01*
X83622562Y-45012735D01*
X83551814Y-44874324D01*
X83500849Y-44727300D01*
X83469419Y-44566296D01*
X83458574Y-44389075D01*
X83458667Y-44387976D01*
X84231236Y-44387976D01*
X84238239Y-44619191D01*
X84256882Y-44795922D01*
X84291655Y-44958386D01*
X84341878Y-45100188D01*
X84408671Y-45214616D01*
X84493553Y-45299490D01*
X84597460Y-45354073D01*
X84721065Y-45372763D01*
X84852951Y-45351831D01*
X84958836Y-45291430D01*
X85042706Y-45198790D01*
X85106297Y-45077657D01*
X85154617Y-44928560D01*
X85185249Y-44772658D01*
X85200839Y-44605545D01*
X85206681Y-44387976D01*
X85200264Y-44176791D01*
X85182135Y-43992302D01*
X85148868Y-43820283D01*
X85104282Y-43688037D01*
X85033989Y-43564413D01*
X84950593Y-43477561D01*
X84847195Y-43422492D01*
X84716852Y-43403189D01*
X84588513Y-43422634D01*
X84485493Y-43478476D01*
X84402442Y-43566610D01*
X84333635Y-43692067D01*
X84287220Y-43832413D01*
X84254867Y-43999446D01*
X84237479Y-44177618D01*
X84231236Y-44387976D01*
X83458667Y-44387976D01*
X83477354Y-44166956D01*
X83533496Y-43953101D01*
X83628285Y-43754658D01*
X83763939Y-43578677D01*
X83873112Y-43479681D01*
X84003367Y-43392120D01*
X84157414Y-43316177D01*
X84320255Y-43261857D01*
X84506181Y-43227637D01*
X84718867Y-43215610D01*
X84924845Y-43227154D01*
G37*
D11*
X110166666Y-64859580D02*
X110214285Y-64907200D01*
X110214285Y-64907200D02*
X110357142Y-64954819D01*
X110357142Y-64954819D02*
X110452380Y-64954819D01*
X110452380Y-64954819D02*
X110595237Y-64907200D01*
X110595237Y-64907200D02*
X110690475Y-64811961D01*
X110690475Y-64811961D02*
X110738094Y-64716723D01*
X110738094Y-64716723D02*
X110785713Y-64526247D01*
X110785713Y-64526247D02*
X110785713Y-64383390D01*
X110785713Y-64383390D02*
X110738094Y-64192914D01*
X110738094Y-64192914D02*
X110690475Y-64097676D01*
X110690475Y-64097676D02*
X110595237Y-64002438D01*
X110595237Y-64002438D02*
X110452380Y-63954819D01*
X110452380Y-63954819D02*
X110357142Y-63954819D01*
X110357142Y-63954819D02*
X110214285Y-64002438D01*
X110214285Y-64002438D02*
X110166666Y-64050057D01*
X109785713Y-64050057D02*
X109738094Y-64002438D01*
X109738094Y-64002438D02*
X109642856Y-63954819D01*
X109642856Y-63954819D02*
X109404761Y-63954819D01*
X109404761Y-63954819D02*
X109309523Y-64002438D01*
X109309523Y-64002438D02*
X109261904Y-64050057D01*
X109261904Y-64050057D02*
X109214285Y-64145295D01*
X109214285Y-64145295D02*
X109214285Y-64240533D01*
X109214285Y-64240533D02*
X109261904Y-64383390D01*
X109261904Y-64383390D02*
X109833332Y-64954819D01*
X109833332Y-64954819D02*
X109214285Y-64954819D01*
X111404762Y-59954819D02*
X111976190Y-59954819D01*
X111690476Y-59954819D02*
X111690476Y-58954819D01*
X111690476Y-58954819D02*
X111785714Y-59097676D01*
X111785714Y-59097676D02*
X111880952Y-59192914D01*
X111880952Y-59192914D02*
X111976190Y-59240533D01*
X110785714Y-58954819D02*
X110690476Y-58954819D01*
X110690476Y-58954819D02*
X110595238Y-59002438D01*
X110595238Y-59002438D02*
X110547619Y-59050057D01*
X110547619Y-59050057D02*
X110500000Y-59145295D01*
X110500000Y-59145295D02*
X110452381Y-59335771D01*
X110452381Y-59335771D02*
X110452381Y-59573866D01*
X110452381Y-59573866D02*
X110500000Y-59764342D01*
X110500000Y-59764342D02*
X110547619Y-59859580D01*
X110547619Y-59859580D02*
X110595238Y-59907200D01*
X110595238Y-59907200D02*
X110690476Y-59954819D01*
X110690476Y-59954819D02*
X110785714Y-59954819D01*
X110785714Y-59954819D02*
X110880952Y-59907200D01*
X110880952Y-59907200D02*
X110928571Y-59859580D01*
X110928571Y-59859580D02*
X110976190Y-59764342D01*
X110976190Y-59764342D02*
X111023809Y-59573866D01*
X111023809Y-59573866D02*
X111023809Y-59335771D01*
X111023809Y-59335771D02*
X110976190Y-59145295D01*
X110976190Y-59145295D02*
X110928571Y-59050057D01*
X110928571Y-59050057D02*
X110880952Y-59002438D01*
X110880952Y-59002438D02*
X110785714Y-58954819D01*
X109833333Y-58954819D02*
X109738095Y-58954819D01*
X109738095Y-58954819D02*
X109642857Y-59002438D01*
X109642857Y-59002438D02*
X109595238Y-59050057D01*
X109595238Y-59050057D02*
X109547619Y-59145295D01*
X109547619Y-59145295D02*
X109500000Y-59335771D01*
X109500000Y-59335771D02*
X109500000Y-59573866D01*
X109500000Y-59573866D02*
X109547619Y-59764342D01*
X109547619Y-59764342D02*
X109595238Y-59859580D01*
X109595238Y-59859580D02*
X109642857Y-59907200D01*
X109642857Y-59907200D02*
X109738095Y-59954819D01*
X109738095Y-59954819D02*
X109833333Y-59954819D01*
X109833333Y-59954819D02*
X109928571Y-59907200D01*
X109928571Y-59907200D02*
X109976190Y-59859580D01*
X109976190Y-59859580D02*
X110023809Y-59764342D01*
X110023809Y-59764342D02*
X110071428Y-59573866D01*
X110071428Y-59573866D02*
X110071428Y-59335771D01*
X110071428Y-59335771D02*
X110023809Y-59145295D01*
X110023809Y-59145295D02*
X109976190Y-59050057D01*
X109976190Y-59050057D02*
X109928571Y-59002438D01*
X109928571Y-59002438D02*
X109833333Y-58954819D01*
X109071428Y-59288152D02*
X109071428Y-59954819D01*
X109071428Y-59383390D02*
X109023809Y-59335771D01*
X109023809Y-59335771D02*
X108928571Y-59288152D01*
X108928571Y-59288152D02*
X108785714Y-59288152D01*
X108785714Y-59288152D02*
X108690476Y-59335771D01*
X108690476Y-59335771D02*
X108642857Y-59431009D01*
X108642857Y-59431009D02*
X108642857Y-59954819D01*
X108309523Y-59288152D02*
X107928571Y-59288152D01*
X108166666Y-59954819D02*
X108166666Y-59097676D01*
X108166666Y-59097676D02*
X108119047Y-59002438D01*
X108119047Y-59002438D02*
X108023809Y-58954819D01*
X108023809Y-58954819D02*
X107928571Y-58954819D01*
D12*
X145666666Y-135542580D02*
X145666666Y-134828295D01*
X145666666Y-134828295D02*
X145619047Y-134685438D01*
X145619047Y-134685438D02*
X145523809Y-134590200D01*
X145523809Y-134590200D02*
X145380952Y-134542580D01*
X145380952Y-134542580D02*
X145285714Y-134542580D01*
X146285714Y-135114009D02*
X146190476Y-135161628D01*
X146190476Y-135161628D02*
X146142857Y-135209247D01*
X146142857Y-135209247D02*
X146095238Y-135304485D01*
X146095238Y-135304485D02*
X146095238Y-135352104D01*
X146095238Y-135352104D02*
X146142857Y-135447342D01*
X146142857Y-135447342D02*
X146190476Y-135494961D01*
X146190476Y-135494961D02*
X146285714Y-135542580D01*
X146285714Y-135542580D02*
X146476190Y-135542580D01*
X146476190Y-135542580D02*
X146571428Y-135494961D01*
X146571428Y-135494961D02*
X146619047Y-135447342D01*
X146619047Y-135447342D02*
X146666666Y-135352104D01*
X146666666Y-135352104D02*
X146666666Y-135304485D01*
X146666666Y-135304485D02*
X146619047Y-135209247D01*
X146619047Y-135209247D02*
X146571428Y-135161628D01*
X146571428Y-135161628D02*
X146476190Y-135114009D01*
X146476190Y-135114009D02*
X146285714Y-135114009D01*
X146285714Y-135114009D02*
X146190476Y-135066390D01*
X146190476Y-135066390D02*
X146142857Y-135018771D01*
X146142857Y-135018771D02*
X146095238Y-134923533D01*
X146095238Y-134923533D02*
X146095238Y-134733057D01*
X146095238Y-134733057D02*
X146142857Y-134637819D01*
X146142857Y-134637819D02*
X146190476Y-134590200D01*
X146190476Y-134590200D02*
X146285714Y-134542580D01*
X146285714Y-134542580D02*
X146476190Y-134542580D01*
X146476190Y-134542580D02*
X146571428Y-134590200D01*
X146571428Y-134590200D02*
X146619047Y-134637819D01*
X146619047Y-134637819D02*
X146666666Y-134733057D01*
X146666666Y-134733057D02*
X146666666Y-134923533D01*
X146666666Y-134923533D02*
X146619047Y-135018771D01*
X146619047Y-135018771D02*
X146571428Y-135066390D01*
X146571428Y-135066390D02*
X146476190Y-135114009D01*
D11*
X151833333Y-123169104D02*
X151357143Y-123169104D01*
X151928571Y-123454819D02*
X151595238Y-122454819D01*
X151595238Y-122454819D02*
X151261905Y-123454819D01*
X150500000Y-122788152D02*
X150500000Y-123454819D01*
X150928571Y-122788152D02*
X150928571Y-123311961D01*
X150928571Y-123311961D02*
X150880952Y-123407200D01*
X150880952Y-123407200D02*
X150785714Y-123454819D01*
X150785714Y-123454819D02*
X150642857Y-123454819D01*
X150642857Y-123454819D02*
X150547619Y-123407200D01*
X150547619Y-123407200D02*
X150500000Y-123359580D01*
X149595238Y-123454819D02*
X149595238Y-122454819D01*
X149595238Y-123407200D02*
X149690476Y-123454819D01*
X149690476Y-123454819D02*
X149880952Y-123454819D01*
X149880952Y-123454819D02*
X149976190Y-123407200D01*
X149976190Y-123407200D02*
X150023809Y-123359580D01*
X150023809Y-123359580D02*
X150071428Y-123264342D01*
X150071428Y-123264342D02*
X150071428Y-122978628D01*
X150071428Y-122978628D02*
X150023809Y-122883390D01*
X150023809Y-122883390D02*
X149976190Y-122835771D01*
X149976190Y-122835771D02*
X149880952Y-122788152D01*
X149880952Y-122788152D02*
X149690476Y-122788152D01*
X149690476Y-122788152D02*
X149595238Y-122835771D01*
X149119047Y-123454819D02*
X149119047Y-122788152D01*
X149119047Y-122454819D02*
X149166666Y-122502438D01*
X149166666Y-122502438D02*
X149119047Y-122550057D01*
X149119047Y-122550057D02*
X149071428Y-122502438D01*
X149071428Y-122502438D02*
X149119047Y-122454819D01*
X149119047Y-122454819D02*
X149119047Y-122550057D01*
X148500000Y-123454819D02*
X148595238Y-123407200D01*
X148595238Y-123407200D02*
X148642857Y-123359580D01*
X148642857Y-123359580D02*
X148690476Y-123264342D01*
X148690476Y-123264342D02*
X148690476Y-122978628D01*
X148690476Y-122978628D02*
X148642857Y-122883390D01*
X148642857Y-122883390D02*
X148595238Y-122835771D01*
X148595238Y-122835771D02*
X148500000Y-122788152D01*
X148500000Y-122788152D02*
X148357143Y-122788152D01*
X148357143Y-122788152D02*
X148261905Y-122835771D01*
X148261905Y-122835771D02*
X148214286Y-122883390D01*
X148214286Y-122883390D02*
X148166667Y-122978628D01*
X148166667Y-122978628D02*
X148166667Y-123264342D01*
X148166667Y-123264342D02*
X148214286Y-123359580D01*
X148214286Y-123359580D02*
X148261905Y-123407200D01*
X148261905Y-123407200D02*
X148357143Y-123454819D01*
X148357143Y-123454819D02*
X148500000Y-123454819D01*
X147738095Y-123454819D02*
X147738095Y-122454819D01*
X147261905Y-122788152D02*
X147261905Y-123454819D01*
X147261905Y-122883390D02*
X147214286Y-122835771D01*
X147214286Y-122835771D02*
X147119048Y-122788152D01*
X147119048Y-122788152D02*
X146976191Y-122788152D01*
X146976191Y-122788152D02*
X146880953Y-122835771D01*
X146880953Y-122835771D02*
X146833334Y-122931009D01*
X146833334Y-122931009D02*
X146833334Y-123454819D01*
X146357143Y-122788152D02*
X146357143Y-123788152D01*
X146357143Y-122835771D02*
X146261905Y-122788152D01*
X146261905Y-122788152D02*
X146071429Y-122788152D01*
X146071429Y-122788152D02*
X145976191Y-122835771D01*
X145976191Y-122835771D02*
X145928572Y-122883390D01*
X145928572Y-122883390D02*
X145880953Y-122978628D01*
X145880953Y-122978628D02*
X145880953Y-123264342D01*
X145880953Y-123264342D02*
X145928572Y-123359580D01*
X145928572Y-123359580D02*
X145976191Y-123407200D01*
X145976191Y-123407200D02*
X146071429Y-123454819D01*
X146071429Y-123454819D02*
X146261905Y-123454819D01*
X146261905Y-123454819D02*
X146357143Y-123407200D01*
X145023810Y-122788152D02*
X145023810Y-123454819D01*
X145452381Y-122788152D02*
X145452381Y-123311961D01*
X145452381Y-123311961D02*
X145404762Y-123407200D01*
X145404762Y-123407200D02*
X145309524Y-123454819D01*
X145309524Y-123454819D02*
X145166667Y-123454819D01*
X145166667Y-123454819D02*
X145071429Y-123407200D01*
X145071429Y-123407200D02*
X145023810Y-123359580D01*
X144690476Y-122788152D02*
X144309524Y-122788152D01*
X144547619Y-122454819D02*
X144547619Y-123311961D01*
X144547619Y-123311961D02*
X144500000Y-123407200D01*
X144500000Y-123407200D02*
X144404762Y-123454819D01*
X144404762Y-123454819D02*
X144309524Y-123454819D01*
X143976190Y-123454819D02*
X143976190Y-122454819D01*
X143976190Y-122454819D02*
X143642857Y-123169104D01*
X143642857Y-123169104D02*
X143309524Y-122454819D01*
X143309524Y-122454819D02*
X143309524Y-123454819D01*
X142690476Y-123454819D02*
X142785714Y-123407200D01*
X142785714Y-123407200D02*
X142833333Y-123359580D01*
X142833333Y-123359580D02*
X142880952Y-123264342D01*
X142880952Y-123264342D02*
X142880952Y-122978628D01*
X142880952Y-122978628D02*
X142833333Y-122883390D01*
X142833333Y-122883390D02*
X142785714Y-122835771D01*
X142785714Y-122835771D02*
X142690476Y-122788152D01*
X142690476Y-122788152D02*
X142547619Y-122788152D01*
X142547619Y-122788152D02*
X142452381Y-122835771D01*
X142452381Y-122835771D02*
X142404762Y-122883390D01*
X142404762Y-122883390D02*
X142357143Y-122978628D01*
X142357143Y-122978628D02*
X142357143Y-123264342D01*
X142357143Y-123264342D02*
X142404762Y-123359580D01*
X142404762Y-123359580D02*
X142452381Y-123407200D01*
X142452381Y-123407200D02*
X142547619Y-123454819D01*
X142547619Y-123454819D02*
X142690476Y-123454819D01*
X141785714Y-123454819D02*
X141880952Y-123407200D01*
X141880952Y-123407200D02*
X141928571Y-123311961D01*
X141928571Y-123311961D02*
X141928571Y-122454819D01*
X141023809Y-123407200D02*
X141119047Y-123454819D01*
X141119047Y-123454819D02*
X141309523Y-123454819D01*
X141309523Y-123454819D02*
X141404761Y-123407200D01*
X141404761Y-123407200D02*
X141452380Y-123311961D01*
X141452380Y-123311961D02*
X141452380Y-122931009D01*
X141452380Y-122931009D02*
X141404761Y-122835771D01*
X141404761Y-122835771D02*
X141309523Y-122788152D01*
X141309523Y-122788152D02*
X141119047Y-122788152D01*
X141119047Y-122788152D02*
X141023809Y-122835771D01*
X141023809Y-122835771D02*
X140976190Y-122931009D01*
X140976190Y-122931009D02*
X140976190Y-123026247D01*
X140976190Y-123026247D02*
X141452380Y-123121485D01*
X140642856Y-123454819D02*
X140119047Y-122788152D01*
X140642856Y-122788152D02*
X140119047Y-123454819D01*
D12*
X124650476Y-133542580D02*
X124650476Y-132828295D01*
X124650476Y-132828295D02*
X124602857Y-132685438D01*
X124602857Y-132685438D02*
X124507619Y-132590200D01*
X124507619Y-132590200D02*
X124364762Y-132542580D01*
X124364762Y-132542580D02*
X124269524Y-132542580D01*
X125650476Y-132542580D02*
X125079048Y-132542580D01*
X125364762Y-132542580D02*
X125364762Y-133542580D01*
X125364762Y-133542580D02*
X125269524Y-133399723D01*
X125269524Y-133399723D02*
X125174286Y-133304485D01*
X125174286Y-133304485D02*
X125079048Y-133256866D01*
X126269524Y-133542580D02*
X126364762Y-133542580D01*
X126364762Y-133542580D02*
X126460000Y-133494961D01*
X126460000Y-133494961D02*
X126507619Y-133447342D01*
X126507619Y-133447342D02*
X126555238Y-133352104D01*
X126555238Y-133352104D02*
X126602857Y-133161628D01*
X126602857Y-133161628D02*
X126602857Y-132923533D01*
X126602857Y-132923533D02*
X126555238Y-132733057D01*
X126555238Y-132733057D02*
X126507619Y-132637819D01*
X126507619Y-132637819D02*
X126460000Y-132590200D01*
X126460000Y-132590200D02*
X126364762Y-132542580D01*
X126364762Y-132542580D02*
X126269524Y-132542580D01*
X126269524Y-132542580D02*
X126174286Y-132590200D01*
X126174286Y-132590200D02*
X126126667Y-132637819D01*
X126126667Y-132637819D02*
X126079048Y-132733057D01*
X126079048Y-132733057D02*
X126031429Y-132923533D01*
X126031429Y-132923533D02*
X126031429Y-133161628D01*
X126031429Y-133161628D02*
X126079048Y-133352104D01*
X126079048Y-133352104D02*
X126126667Y-133447342D01*
X126126667Y-133447342D02*
X126174286Y-133494961D01*
X126174286Y-133494961D02*
X126269524Y-133542580D01*
D11*
X131404762Y-123169104D02*
X130928572Y-123169104D01*
X131500000Y-123454819D02*
X131166667Y-122454819D01*
X131166667Y-122454819D02*
X130833334Y-123454819D01*
X130071429Y-122788152D02*
X130071429Y-123454819D01*
X130500000Y-122788152D02*
X130500000Y-123311961D01*
X130500000Y-123311961D02*
X130452381Y-123407200D01*
X130452381Y-123407200D02*
X130357143Y-123454819D01*
X130357143Y-123454819D02*
X130214286Y-123454819D01*
X130214286Y-123454819D02*
X130119048Y-123407200D01*
X130119048Y-123407200D02*
X130071429Y-123359580D01*
X129166667Y-123454819D02*
X129166667Y-122454819D01*
X129166667Y-123407200D02*
X129261905Y-123454819D01*
X129261905Y-123454819D02*
X129452381Y-123454819D01*
X129452381Y-123454819D02*
X129547619Y-123407200D01*
X129547619Y-123407200D02*
X129595238Y-123359580D01*
X129595238Y-123359580D02*
X129642857Y-123264342D01*
X129642857Y-123264342D02*
X129642857Y-122978628D01*
X129642857Y-122978628D02*
X129595238Y-122883390D01*
X129595238Y-122883390D02*
X129547619Y-122835771D01*
X129547619Y-122835771D02*
X129452381Y-122788152D01*
X129452381Y-122788152D02*
X129261905Y-122788152D01*
X129261905Y-122788152D02*
X129166667Y-122835771D01*
X128690476Y-123454819D02*
X128690476Y-122788152D01*
X128690476Y-122454819D02*
X128738095Y-122502438D01*
X128738095Y-122502438D02*
X128690476Y-122550057D01*
X128690476Y-122550057D02*
X128642857Y-122502438D01*
X128642857Y-122502438D02*
X128690476Y-122454819D01*
X128690476Y-122454819D02*
X128690476Y-122550057D01*
X128071429Y-123454819D02*
X128166667Y-123407200D01*
X128166667Y-123407200D02*
X128214286Y-123359580D01*
X128214286Y-123359580D02*
X128261905Y-123264342D01*
X128261905Y-123264342D02*
X128261905Y-122978628D01*
X128261905Y-122978628D02*
X128214286Y-122883390D01*
X128214286Y-122883390D02*
X128166667Y-122835771D01*
X128166667Y-122835771D02*
X128071429Y-122788152D01*
X128071429Y-122788152D02*
X127928572Y-122788152D01*
X127928572Y-122788152D02*
X127833334Y-122835771D01*
X127833334Y-122835771D02*
X127785715Y-122883390D01*
X127785715Y-122883390D02*
X127738096Y-122978628D01*
X127738096Y-122978628D02*
X127738096Y-123264342D01*
X127738096Y-123264342D02*
X127785715Y-123359580D01*
X127785715Y-123359580D02*
X127833334Y-123407200D01*
X127833334Y-123407200D02*
X127928572Y-123454819D01*
X127928572Y-123454819D02*
X128071429Y-123454819D01*
X127119048Y-122454819D02*
X126928572Y-122454819D01*
X126928572Y-122454819D02*
X126833334Y-122502438D01*
X126833334Y-122502438D02*
X126738096Y-122597676D01*
X126738096Y-122597676D02*
X126690477Y-122788152D01*
X126690477Y-122788152D02*
X126690477Y-123121485D01*
X126690477Y-123121485D02*
X126738096Y-123311961D01*
X126738096Y-123311961D02*
X126833334Y-123407200D01*
X126833334Y-123407200D02*
X126928572Y-123454819D01*
X126928572Y-123454819D02*
X127119048Y-123454819D01*
X127119048Y-123454819D02*
X127214286Y-123407200D01*
X127214286Y-123407200D02*
X127309524Y-123311961D01*
X127309524Y-123311961D02*
X127357143Y-123121485D01*
X127357143Y-123121485D02*
X127357143Y-122788152D01*
X127357143Y-122788152D02*
X127309524Y-122597676D01*
X127309524Y-122597676D02*
X127214286Y-122502438D01*
X127214286Y-122502438D02*
X127119048Y-122454819D01*
X125833334Y-122788152D02*
X125833334Y-123454819D01*
X126261905Y-122788152D02*
X126261905Y-123311961D01*
X126261905Y-123311961D02*
X126214286Y-123407200D01*
X126214286Y-123407200D02*
X126119048Y-123454819D01*
X126119048Y-123454819D02*
X125976191Y-123454819D01*
X125976191Y-123454819D02*
X125880953Y-123407200D01*
X125880953Y-123407200D02*
X125833334Y-123359580D01*
X125500000Y-122788152D02*
X125119048Y-122788152D01*
X125357143Y-122454819D02*
X125357143Y-123311961D01*
X125357143Y-123311961D02*
X125309524Y-123407200D01*
X125309524Y-123407200D02*
X125214286Y-123454819D01*
X125214286Y-123454819D02*
X125119048Y-123454819D01*
X124785714Y-122788152D02*
X124785714Y-123788152D01*
X124785714Y-122835771D02*
X124690476Y-122788152D01*
X124690476Y-122788152D02*
X124500000Y-122788152D01*
X124500000Y-122788152D02*
X124404762Y-122835771D01*
X124404762Y-122835771D02*
X124357143Y-122883390D01*
X124357143Y-122883390D02*
X124309524Y-122978628D01*
X124309524Y-122978628D02*
X124309524Y-123264342D01*
X124309524Y-123264342D02*
X124357143Y-123359580D01*
X124357143Y-123359580D02*
X124404762Y-123407200D01*
X124404762Y-123407200D02*
X124500000Y-123454819D01*
X124500000Y-123454819D02*
X124690476Y-123454819D01*
X124690476Y-123454819D02*
X124785714Y-123407200D01*
X123452381Y-122788152D02*
X123452381Y-123454819D01*
X123880952Y-122788152D02*
X123880952Y-123311961D01*
X123880952Y-123311961D02*
X123833333Y-123407200D01*
X123833333Y-123407200D02*
X123738095Y-123454819D01*
X123738095Y-123454819D02*
X123595238Y-123454819D01*
X123595238Y-123454819D02*
X123500000Y-123407200D01*
X123500000Y-123407200D02*
X123452381Y-123359580D01*
X123119047Y-122788152D02*
X122738095Y-122788152D01*
X122976190Y-122454819D02*
X122976190Y-123311961D01*
X122976190Y-123311961D02*
X122928571Y-123407200D01*
X122928571Y-123407200D02*
X122833333Y-123454819D01*
X122833333Y-123454819D02*
X122738095Y-123454819D01*
X122404761Y-123454819D02*
X122404761Y-122454819D01*
X122404761Y-122454819D02*
X122071428Y-123169104D01*
X122071428Y-123169104D02*
X121738095Y-122454819D01*
X121738095Y-122454819D02*
X121738095Y-123454819D01*
X121119047Y-123454819D02*
X121214285Y-123407200D01*
X121214285Y-123407200D02*
X121261904Y-123359580D01*
X121261904Y-123359580D02*
X121309523Y-123264342D01*
X121309523Y-123264342D02*
X121309523Y-122978628D01*
X121309523Y-122978628D02*
X121261904Y-122883390D01*
X121261904Y-122883390D02*
X121214285Y-122835771D01*
X121214285Y-122835771D02*
X121119047Y-122788152D01*
X121119047Y-122788152D02*
X120976190Y-122788152D01*
X120976190Y-122788152D02*
X120880952Y-122835771D01*
X120880952Y-122835771D02*
X120833333Y-122883390D01*
X120833333Y-122883390D02*
X120785714Y-122978628D01*
X120785714Y-122978628D02*
X120785714Y-123264342D01*
X120785714Y-123264342D02*
X120833333Y-123359580D01*
X120833333Y-123359580D02*
X120880952Y-123407200D01*
X120880952Y-123407200D02*
X120976190Y-123454819D01*
X120976190Y-123454819D02*
X121119047Y-123454819D01*
X120214285Y-123454819D02*
X120309523Y-123407200D01*
X120309523Y-123407200D02*
X120357142Y-123311961D01*
X120357142Y-123311961D02*
X120357142Y-122454819D01*
X119452380Y-123407200D02*
X119547618Y-123454819D01*
X119547618Y-123454819D02*
X119738094Y-123454819D01*
X119738094Y-123454819D02*
X119833332Y-123407200D01*
X119833332Y-123407200D02*
X119880951Y-123311961D01*
X119880951Y-123311961D02*
X119880951Y-122931009D01*
X119880951Y-122931009D02*
X119833332Y-122835771D01*
X119833332Y-122835771D02*
X119738094Y-122788152D01*
X119738094Y-122788152D02*
X119547618Y-122788152D01*
X119547618Y-122788152D02*
X119452380Y-122835771D01*
X119452380Y-122835771D02*
X119404761Y-122931009D01*
X119404761Y-122931009D02*
X119404761Y-123026247D01*
X119404761Y-123026247D02*
X119880951Y-123121485D01*
X119071427Y-123454819D02*
X118547618Y-122788152D01*
X119071427Y-122788152D02*
X118547618Y-123454819D01*
X107314524Y-122902438D02*
X107409762Y-122854819D01*
X107409762Y-122854819D02*
X107552619Y-122854819D01*
X107552619Y-122854819D02*
X107695476Y-122902438D01*
X107695476Y-122902438D02*
X107790714Y-122997676D01*
X107790714Y-122997676D02*
X107838333Y-123092914D01*
X107838333Y-123092914D02*
X107885952Y-123283390D01*
X107885952Y-123283390D02*
X107885952Y-123426247D01*
X107885952Y-123426247D02*
X107838333Y-123616723D01*
X107838333Y-123616723D02*
X107790714Y-123711961D01*
X107790714Y-123711961D02*
X107695476Y-123807200D01*
X107695476Y-123807200D02*
X107552619Y-123854819D01*
X107552619Y-123854819D02*
X107457381Y-123854819D01*
X107457381Y-123854819D02*
X107314524Y-123807200D01*
X107314524Y-123807200D02*
X107266905Y-123759580D01*
X107266905Y-123759580D02*
X107266905Y-123426247D01*
X107266905Y-123426247D02*
X107457381Y-123426247D01*
X106409762Y-123854819D02*
X106409762Y-123331009D01*
X106409762Y-123331009D02*
X106457381Y-123235771D01*
X106457381Y-123235771D02*
X106552619Y-123188152D01*
X106552619Y-123188152D02*
X106743095Y-123188152D01*
X106743095Y-123188152D02*
X106838333Y-123235771D01*
X106409762Y-123807200D02*
X106505000Y-123854819D01*
X106505000Y-123854819D02*
X106743095Y-123854819D01*
X106743095Y-123854819D02*
X106838333Y-123807200D01*
X106838333Y-123807200D02*
X106885952Y-123711961D01*
X106885952Y-123711961D02*
X106885952Y-123616723D01*
X106885952Y-123616723D02*
X106838333Y-123521485D01*
X106838333Y-123521485D02*
X106743095Y-123473866D01*
X106743095Y-123473866D02*
X106505000Y-123473866D01*
X106505000Y-123473866D02*
X106409762Y-123426247D01*
X105933571Y-123854819D02*
X105933571Y-123188152D01*
X105933571Y-123283390D02*
X105885952Y-123235771D01*
X105885952Y-123235771D02*
X105790714Y-123188152D01*
X105790714Y-123188152D02*
X105647857Y-123188152D01*
X105647857Y-123188152D02*
X105552619Y-123235771D01*
X105552619Y-123235771D02*
X105505000Y-123331009D01*
X105505000Y-123331009D02*
X105505000Y-123854819D01*
X105505000Y-123331009D02*
X105457381Y-123235771D01*
X105457381Y-123235771D02*
X105362143Y-123188152D01*
X105362143Y-123188152D02*
X105219286Y-123188152D01*
X105219286Y-123188152D02*
X105124047Y-123235771D01*
X105124047Y-123235771D02*
X105076428Y-123331009D01*
X105076428Y-123331009D02*
X105076428Y-123854819D01*
X104219286Y-123807200D02*
X104314524Y-123854819D01*
X104314524Y-123854819D02*
X104505000Y-123854819D01*
X104505000Y-123854819D02*
X104600238Y-123807200D01*
X104600238Y-123807200D02*
X104647857Y-123711961D01*
X104647857Y-123711961D02*
X104647857Y-123331009D01*
X104647857Y-123331009D02*
X104600238Y-123235771D01*
X104600238Y-123235771D02*
X104505000Y-123188152D01*
X104505000Y-123188152D02*
X104314524Y-123188152D01*
X104314524Y-123188152D02*
X104219286Y-123235771D01*
X104219286Y-123235771D02*
X104171667Y-123331009D01*
X104171667Y-123331009D02*
X104171667Y-123426247D01*
X104171667Y-123426247D02*
X104647857Y-123521485D01*
X103885952Y-122854819D02*
X103314524Y-122854819D01*
X103600238Y-123854819D02*
X103600238Y-122854819D01*
X102981190Y-123854819D02*
X102981190Y-123188152D01*
X102981190Y-123378628D02*
X102933571Y-123283390D01*
X102933571Y-123283390D02*
X102885952Y-123235771D01*
X102885952Y-123235771D02*
X102790714Y-123188152D01*
X102790714Y-123188152D02*
X102695476Y-123188152D01*
X101933571Y-123854819D02*
X101933571Y-123331009D01*
X101933571Y-123331009D02*
X101981190Y-123235771D01*
X101981190Y-123235771D02*
X102076428Y-123188152D01*
X102076428Y-123188152D02*
X102266904Y-123188152D01*
X102266904Y-123188152D02*
X102362142Y-123235771D01*
X101933571Y-123807200D02*
X102028809Y-123854819D01*
X102028809Y-123854819D02*
X102266904Y-123854819D01*
X102266904Y-123854819D02*
X102362142Y-123807200D01*
X102362142Y-123807200D02*
X102409761Y-123711961D01*
X102409761Y-123711961D02*
X102409761Y-123616723D01*
X102409761Y-123616723D02*
X102362142Y-123521485D01*
X102362142Y-123521485D02*
X102266904Y-123473866D01*
X102266904Y-123473866D02*
X102028809Y-123473866D01*
X102028809Y-123473866D02*
X101933571Y-123426247D01*
X101457380Y-123854819D02*
X101457380Y-122854819D01*
X101362142Y-123473866D02*
X101076428Y-123854819D01*
X101076428Y-123188152D02*
X101457380Y-123569104D01*
X100124047Y-123854819D02*
X100695475Y-123854819D01*
X100409761Y-123854819D02*
X100409761Y-122854819D01*
X100409761Y-122854819D02*
X100504999Y-122997676D01*
X100504999Y-122997676D02*
X100600237Y-123092914D01*
X100600237Y-123092914D02*
X100695475Y-123140533D01*
X113109580Y-68833333D02*
X113157200Y-68785714D01*
X113157200Y-68785714D02*
X113204819Y-68642857D01*
X113204819Y-68642857D02*
X113204819Y-68547619D01*
X113204819Y-68547619D02*
X113157200Y-68404762D01*
X113157200Y-68404762D02*
X113061961Y-68309524D01*
X113061961Y-68309524D02*
X112966723Y-68261905D01*
X112966723Y-68261905D02*
X112776247Y-68214286D01*
X112776247Y-68214286D02*
X112633390Y-68214286D01*
X112633390Y-68214286D02*
X112442914Y-68261905D01*
X112442914Y-68261905D02*
X112347676Y-68309524D01*
X112347676Y-68309524D02*
X112252438Y-68404762D01*
X112252438Y-68404762D02*
X112204819Y-68547619D01*
X112204819Y-68547619D02*
X112204819Y-68642857D01*
X112204819Y-68642857D02*
X112252438Y-68785714D01*
X112252438Y-68785714D02*
X112300057Y-68833333D01*
X113204819Y-69785714D02*
X113204819Y-69214286D01*
X113204819Y-69500000D02*
X112204819Y-69500000D01*
X112204819Y-69500000D02*
X112347676Y-69404762D01*
X112347676Y-69404762D02*
X112442914Y-69309524D01*
X112442914Y-69309524D02*
X112490533Y-69214286D01*
X114454819Y-67119047D02*
X114454819Y-66547619D01*
X114454819Y-66833333D02*
X113454819Y-66833333D01*
X113454819Y-66833333D02*
X113597676Y-66738095D01*
X113597676Y-66738095D02*
X113692914Y-66642857D01*
X113692914Y-66642857D02*
X113740533Y-66547619D01*
X113454819Y-67738095D02*
X113454819Y-67833333D01*
X113454819Y-67833333D02*
X113502438Y-67928571D01*
X113502438Y-67928571D02*
X113550057Y-67976190D01*
X113550057Y-67976190D02*
X113645295Y-68023809D01*
X113645295Y-68023809D02*
X113835771Y-68071428D01*
X113835771Y-68071428D02*
X114073866Y-68071428D01*
X114073866Y-68071428D02*
X114264342Y-68023809D01*
X114264342Y-68023809D02*
X114359580Y-67976190D01*
X114359580Y-67976190D02*
X114407200Y-67928571D01*
X114407200Y-67928571D02*
X114454819Y-67833333D01*
X114454819Y-67833333D02*
X114454819Y-67738095D01*
X114454819Y-67738095D02*
X114407200Y-67642857D01*
X114407200Y-67642857D02*
X114359580Y-67595238D01*
X114359580Y-67595238D02*
X114264342Y-67547619D01*
X114264342Y-67547619D02*
X114073866Y-67500000D01*
X114073866Y-67500000D02*
X113835771Y-67500000D01*
X113835771Y-67500000D02*
X113645295Y-67547619D01*
X113645295Y-67547619D02*
X113550057Y-67595238D01*
X113550057Y-67595238D02*
X113502438Y-67642857D01*
X113502438Y-67642857D02*
X113454819Y-67738095D01*
X113454819Y-68690476D02*
X113454819Y-68785714D01*
X113454819Y-68785714D02*
X113502438Y-68880952D01*
X113502438Y-68880952D02*
X113550057Y-68928571D01*
X113550057Y-68928571D02*
X113645295Y-68976190D01*
X113645295Y-68976190D02*
X113835771Y-69023809D01*
X113835771Y-69023809D02*
X114073866Y-69023809D01*
X114073866Y-69023809D02*
X114264342Y-68976190D01*
X114264342Y-68976190D02*
X114359580Y-68928571D01*
X114359580Y-68928571D02*
X114407200Y-68880952D01*
X114407200Y-68880952D02*
X114454819Y-68785714D01*
X114454819Y-68785714D02*
X114454819Y-68690476D01*
X114454819Y-68690476D02*
X114407200Y-68595238D01*
X114407200Y-68595238D02*
X114359580Y-68547619D01*
X114359580Y-68547619D02*
X114264342Y-68500000D01*
X114264342Y-68500000D02*
X114073866Y-68452381D01*
X114073866Y-68452381D02*
X113835771Y-68452381D01*
X113835771Y-68452381D02*
X113645295Y-68500000D01*
X113645295Y-68500000D02*
X113550057Y-68547619D01*
X113550057Y-68547619D02*
X113502438Y-68595238D01*
X113502438Y-68595238D02*
X113454819Y-68690476D01*
X113454819Y-69642857D02*
X113454819Y-69738095D01*
X113454819Y-69738095D02*
X113502438Y-69833333D01*
X113502438Y-69833333D02*
X113550057Y-69880952D01*
X113550057Y-69880952D02*
X113645295Y-69928571D01*
X113645295Y-69928571D02*
X113835771Y-69976190D01*
X113835771Y-69976190D02*
X114073866Y-69976190D01*
X114073866Y-69976190D02*
X114264342Y-69928571D01*
X114264342Y-69928571D02*
X114359580Y-69880952D01*
X114359580Y-69880952D02*
X114407200Y-69833333D01*
X114407200Y-69833333D02*
X114454819Y-69738095D01*
X114454819Y-69738095D02*
X114454819Y-69642857D01*
X114454819Y-69642857D02*
X114407200Y-69547619D01*
X114407200Y-69547619D02*
X114359580Y-69500000D01*
X114359580Y-69500000D02*
X114264342Y-69452381D01*
X114264342Y-69452381D02*
X114073866Y-69404762D01*
X114073866Y-69404762D02*
X113835771Y-69404762D01*
X113835771Y-69404762D02*
X113645295Y-69452381D01*
X113645295Y-69452381D02*
X113550057Y-69500000D01*
X113550057Y-69500000D02*
X113502438Y-69547619D01*
X113502438Y-69547619D02*
X113454819Y-69642857D01*
X113788152Y-70833333D02*
X114454819Y-70833333D01*
X113788152Y-70404762D02*
X114311961Y-70404762D01*
X114311961Y-70404762D02*
X114407200Y-70452381D01*
X114407200Y-70452381D02*
X114454819Y-70547619D01*
X114454819Y-70547619D02*
X114454819Y-70690476D01*
X114454819Y-70690476D02*
X114407200Y-70785714D01*
X114407200Y-70785714D02*
X114359580Y-70833333D01*
X113788152Y-71166667D02*
X113788152Y-71547619D01*
X114454819Y-71309524D02*
X113597676Y-71309524D01*
X113597676Y-71309524D02*
X113502438Y-71357143D01*
X113502438Y-71357143D02*
X113454819Y-71452381D01*
X113454819Y-71452381D02*
X113454819Y-71547619D01*
X146084819Y-54833333D02*
X145608628Y-54500000D01*
X146084819Y-54261905D02*
X145084819Y-54261905D01*
X145084819Y-54261905D02*
X145084819Y-54642857D01*
X145084819Y-54642857D02*
X145132438Y-54738095D01*
X145132438Y-54738095D02*
X145180057Y-54785714D01*
X145180057Y-54785714D02*
X145275295Y-54833333D01*
X145275295Y-54833333D02*
X145418152Y-54833333D01*
X145418152Y-54833333D02*
X145513390Y-54785714D01*
X145513390Y-54785714D02*
X145561009Y-54738095D01*
X145561009Y-54738095D02*
X145608628Y-54642857D01*
X145608628Y-54642857D02*
X145608628Y-54261905D01*
X146084819Y-55785714D02*
X146084819Y-55214286D01*
X146084819Y-55500000D02*
X145084819Y-55500000D01*
X145084819Y-55500000D02*
X145227676Y-55404762D01*
X145227676Y-55404762D02*
X145322914Y-55309524D01*
X145322914Y-55309524D02*
X145370533Y-55214286D01*
X149920057Y-53261905D02*
X149872438Y-53309524D01*
X149872438Y-53309524D02*
X149824819Y-53404762D01*
X149824819Y-53404762D02*
X149824819Y-53642857D01*
X149824819Y-53642857D02*
X149872438Y-53738095D01*
X149872438Y-53738095D02*
X149920057Y-53785714D01*
X149920057Y-53785714D02*
X150015295Y-53833333D01*
X150015295Y-53833333D02*
X150110533Y-53833333D01*
X150110533Y-53833333D02*
X150253390Y-53785714D01*
X150253390Y-53785714D02*
X150824819Y-53214286D01*
X150824819Y-53214286D02*
X150824819Y-53833333D01*
X149920057Y-54214286D02*
X149872438Y-54261905D01*
X149872438Y-54261905D02*
X149824819Y-54357143D01*
X149824819Y-54357143D02*
X149824819Y-54595238D01*
X149824819Y-54595238D02*
X149872438Y-54690476D01*
X149872438Y-54690476D02*
X149920057Y-54738095D01*
X149920057Y-54738095D02*
X150015295Y-54785714D01*
X150015295Y-54785714D02*
X150110533Y-54785714D01*
X150110533Y-54785714D02*
X150253390Y-54738095D01*
X150253390Y-54738095D02*
X150824819Y-54166667D01*
X150824819Y-54166667D02*
X150824819Y-54785714D01*
X149824819Y-55404762D02*
X149824819Y-55500000D01*
X149824819Y-55500000D02*
X149872438Y-55595238D01*
X149872438Y-55595238D02*
X149920057Y-55642857D01*
X149920057Y-55642857D02*
X150015295Y-55690476D01*
X150015295Y-55690476D02*
X150205771Y-55738095D01*
X150205771Y-55738095D02*
X150443866Y-55738095D01*
X150443866Y-55738095D02*
X150634342Y-55690476D01*
X150634342Y-55690476D02*
X150729580Y-55642857D01*
X150729580Y-55642857D02*
X150777200Y-55595238D01*
X150777200Y-55595238D02*
X150824819Y-55500000D01*
X150824819Y-55500000D02*
X150824819Y-55404762D01*
X150824819Y-55404762D02*
X150777200Y-55309524D01*
X150777200Y-55309524D02*
X150729580Y-55261905D01*
X150729580Y-55261905D02*
X150634342Y-55214286D01*
X150634342Y-55214286D02*
X150443866Y-55166667D01*
X150443866Y-55166667D02*
X150205771Y-55166667D01*
X150205771Y-55166667D02*
X150015295Y-55214286D01*
X150015295Y-55214286D02*
X149920057Y-55261905D01*
X149920057Y-55261905D02*
X149872438Y-55309524D01*
X149872438Y-55309524D02*
X149824819Y-55404762D01*
X150824819Y-56738095D02*
X150348628Y-56404762D01*
X150824819Y-56166667D02*
X149824819Y-56166667D01*
X149824819Y-56166667D02*
X149824819Y-56547619D01*
X149824819Y-56547619D02*
X149872438Y-56642857D01*
X149872438Y-56642857D02*
X149920057Y-56690476D01*
X149920057Y-56690476D02*
X150015295Y-56738095D01*
X150015295Y-56738095D02*
X150158152Y-56738095D01*
X150158152Y-56738095D02*
X150253390Y-56690476D01*
X150253390Y-56690476D02*
X150301009Y-56642857D01*
X150301009Y-56642857D02*
X150348628Y-56547619D01*
X150348628Y-56547619D02*
X150348628Y-56166667D01*
X148454819Y-54833333D02*
X147978628Y-54500000D01*
X148454819Y-54261905D02*
X147454819Y-54261905D01*
X147454819Y-54261905D02*
X147454819Y-54642857D01*
X147454819Y-54642857D02*
X147502438Y-54738095D01*
X147502438Y-54738095D02*
X147550057Y-54785714D01*
X147550057Y-54785714D02*
X147645295Y-54833333D01*
X147645295Y-54833333D02*
X147788152Y-54833333D01*
X147788152Y-54833333D02*
X147883390Y-54785714D01*
X147883390Y-54785714D02*
X147931009Y-54738095D01*
X147931009Y-54738095D02*
X147978628Y-54642857D01*
X147978628Y-54642857D02*
X147978628Y-54261905D01*
X148454819Y-55785714D02*
X148454819Y-55214286D01*
X148454819Y-55500000D02*
X147454819Y-55500000D01*
X147454819Y-55500000D02*
X147597676Y-55404762D01*
X147597676Y-55404762D02*
X147692914Y-55309524D01*
X147692914Y-55309524D02*
X147740533Y-55214286D01*
X127334285Y-61309104D02*
X126858095Y-61309104D01*
X127429523Y-61594819D02*
X127096190Y-60594819D01*
X127096190Y-60594819D02*
X126762857Y-61594819D01*
X125905714Y-61594819D02*
X126477142Y-61594819D01*
X126191428Y-61594819D02*
X126191428Y-60594819D01*
X126191428Y-60594819D02*
X126286666Y-60737676D01*
X126286666Y-60737676D02*
X126381904Y-60832914D01*
X126381904Y-60832914D02*
X126477142Y-60880533D01*
X162063333Y-60574819D02*
X162063333Y-61289104D01*
X162063333Y-61289104D02*
X162110952Y-61431961D01*
X162110952Y-61431961D02*
X162206190Y-61527200D01*
X162206190Y-61527200D02*
X162349047Y-61574819D01*
X162349047Y-61574819D02*
X162444285Y-61574819D01*
X161063333Y-61574819D02*
X161634761Y-61574819D01*
X161349047Y-61574819D02*
X161349047Y-60574819D01*
X161349047Y-60574819D02*
X161444285Y-60717676D01*
X161444285Y-60717676D02*
X161539523Y-60812914D01*
X161539523Y-60812914D02*
X161634761Y-60860533D01*
X165468096Y-52851009D02*
X165325239Y-52898628D01*
X165325239Y-52898628D02*
X165277620Y-52946247D01*
X165277620Y-52946247D02*
X165230001Y-53041485D01*
X165230001Y-53041485D02*
X165230001Y-53184342D01*
X165230001Y-53184342D02*
X165277620Y-53279580D01*
X165277620Y-53279580D02*
X165325239Y-53327200D01*
X165325239Y-53327200D02*
X165420477Y-53374819D01*
X165420477Y-53374819D02*
X165801429Y-53374819D01*
X165801429Y-53374819D02*
X165801429Y-52374819D01*
X165801429Y-52374819D02*
X165468096Y-52374819D01*
X165468096Y-52374819D02*
X165372858Y-52422438D01*
X165372858Y-52422438D02*
X165325239Y-52470057D01*
X165325239Y-52470057D02*
X165277620Y-52565295D01*
X165277620Y-52565295D02*
X165277620Y-52660533D01*
X165277620Y-52660533D02*
X165325239Y-52755771D01*
X165325239Y-52755771D02*
X165372858Y-52803390D01*
X165372858Y-52803390D02*
X165468096Y-52851009D01*
X165468096Y-52851009D02*
X165801429Y-52851009D01*
X164372858Y-53374819D02*
X164372858Y-52851009D01*
X164372858Y-52851009D02*
X164420477Y-52755771D01*
X164420477Y-52755771D02*
X164515715Y-52708152D01*
X164515715Y-52708152D02*
X164706191Y-52708152D01*
X164706191Y-52708152D02*
X164801429Y-52755771D01*
X164372858Y-53327200D02*
X164468096Y-53374819D01*
X164468096Y-53374819D02*
X164706191Y-53374819D01*
X164706191Y-53374819D02*
X164801429Y-53327200D01*
X164801429Y-53327200D02*
X164849048Y-53231961D01*
X164849048Y-53231961D02*
X164849048Y-53136723D01*
X164849048Y-53136723D02*
X164801429Y-53041485D01*
X164801429Y-53041485D02*
X164706191Y-52993866D01*
X164706191Y-52993866D02*
X164468096Y-52993866D01*
X164468096Y-52993866D02*
X164372858Y-52946247D01*
X163896667Y-53374819D02*
X163896667Y-52708152D01*
X163896667Y-52898628D02*
X163849048Y-52803390D01*
X163849048Y-52803390D02*
X163801429Y-52755771D01*
X163801429Y-52755771D02*
X163706191Y-52708152D01*
X163706191Y-52708152D02*
X163610953Y-52708152D01*
X163277619Y-53374819D02*
X163277619Y-52708152D01*
X163277619Y-52898628D02*
X163230000Y-52803390D01*
X163230000Y-52803390D02*
X163182381Y-52755771D01*
X163182381Y-52755771D02*
X163087143Y-52708152D01*
X163087143Y-52708152D02*
X162991905Y-52708152D01*
X162277619Y-53327200D02*
X162372857Y-53374819D01*
X162372857Y-53374819D02*
X162563333Y-53374819D01*
X162563333Y-53374819D02*
X162658571Y-53327200D01*
X162658571Y-53327200D02*
X162706190Y-53231961D01*
X162706190Y-53231961D02*
X162706190Y-52851009D01*
X162706190Y-52851009D02*
X162658571Y-52755771D01*
X162658571Y-52755771D02*
X162563333Y-52708152D01*
X162563333Y-52708152D02*
X162372857Y-52708152D01*
X162372857Y-52708152D02*
X162277619Y-52755771D01*
X162277619Y-52755771D02*
X162230000Y-52851009D01*
X162230000Y-52851009D02*
X162230000Y-52946247D01*
X162230000Y-52946247D02*
X162706190Y-53041485D01*
X161658571Y-53374819D02*
X161753809Y-53327200D01*
X161753809Y-53327200D02*
X161801428Y-53231961D01*
X161801428Y-53231961D02*
X161801428Y-52374819D01*
X161515714Y-53470057D02*
X160753809Y-53470057D01*
X160229999Y-52374819D02*
X160229999Y-53089104D01*
X160229999Y-53089104D02*
X160277618Y-53231961D01*
X160277618Y-53231961D02*
X160372856Y-53327200D01*
X160372856Y-53327200D02*
X160515713Y-53374819D01*
X160515713Y-53374819D02*
X160610951Y-53374819D01*
X159325237Y-53374819D02*
X159325237Y-52851009D01*
X159325237Y-52851009D02*
X159372856Y-52755771D01*
X159372856Y-52755771D02*
X159468094Y-52708152D01*
X159468094Y-52708152D02*
X159658570Y-52708152D01*
X159658570Y-52708152D02*
X159753808Y-52755771D01*
X159325237Y-53327200D02*
X159420475Y-53374819D01*
X159420475Y-53374819D02*
X159658570Y-53374819D01*
X159658570Y-53374819D02*
X159753808Y-53327200D01*
X159753808Y-53327200D02*
X159801427Y-53231961D01*
X159801427Y-53231961D02*
X159801427Y-53136723D01*
X159801427Y-53136723D02*
X159753808Y-53041485D01*
X159753808Y-53041485D02*
X159658570Y-52993866D01*
X159658570Y-52993866D02*
X159420475Y-52993866D01*
X159420475Y-52993866D02*
X159325237Y-52946247D01*
X158420475Y-53327200D02*
X158515713Y-53374819D01*
X158515713Y-53374819D02*
X158706189Y-53374819D01*
X158706189Y-53374819D02*
X158801427Y-53327200D01*
X158801427Y-53327200D02*
X158849046Y-53279580D01*
X158849046Y-53279580D02*
X158896665Y-53184342D01*
X158896665Y-53184342D02*
X158896665Y-52898628D01*
X158896665Y-52898628D02*
X158849046Y-52803390D01*
X158849046Y-52803390D02*
X158801427Y-52755771D01*
X158801427Y-52755771D02*
X158706189Y-52708152D01*
X158706189Y-52708152D02*
X158515713Y-52708152D01*
X158515713Y-52708152D02*
X158420475Y-52755771D01*
X157991903Y-53374819D02*
X157991903Y-52374819D01*
X157896665Y-52993866D02*
X157610951Y-53374819D01*
X157610951Y-52708152D02*
X157991903Y-53089104D01*
X122426203Y-48557937D02*
X121426203Y-48557937D01*
X121426203Y-48557937D02*
X121426203Y-48796032D01*
X121426203Y-48796032D02*
X121473822Y-48938889D01*
X121473822Y-48938889D02*
X121569060Y-49034127D01*
X121569060Y-49034127D02*
X121664298Y-49081746D01*
X121664298Y-49081746D02*
X121854774Y-49129365D01*
X121854774Y-49129365D02*
X121997631Y-49129365D01*
X121997631Y-49129365D02*
X122188107Y-49081746D01*
X122188107Y-49081746D02*
X122283345Y-49034127D01*
X122283345Y-49034127D02*
X122378584Y-48938889D01*
X122378584Y-48938889D02*
X122426203Y-48796032D01*
X122426203Y-48796032D02*
X122426203Y-48557937D01*
X122426203Y-50081746D02*
X122426203Y-49510318D01*
X122426203Y-49796032D02*
X121426203Y-49796032D01*
X121426203Y-49796032D02*
X121569060Y-49700794D01*
X121569060Y-49700794D02*
X121664298Y-49605556D01*
X121664298Y-49605556D02*
X121711917Y-49510318D01*
D12*
X144457419Y-88666666D02*
X145171704Y-88666666D01*
X145171704Y-88666666D02*
X145314561Y-88619047D01*
X145314561Y-88619047D02*
X145409800Y-88523809D01*
X145409800Y-88523809D02*
X145457419Y-88380952D01*
X145457419Y-88380952D02*
X145457419Y-88285714D01*
X145457419Y-89190476D02*
X145457419Y-89380952D01*
X145457419Y-89380952D02*
X145409800Y-89476190D01*
X145409800Y-89476190D02*
X145362180Y-89523809D01*
X145362180Y-89523809D02*
X145219323Y-89619047D01*
X145219323Y-89619047D02*
X145028847Y-89666666D01*
X145028847Y-89666666D02*
X144647895Y-89666666D01*
X144647895Y-89666666D02*
X144552657Y-89619047D01*
X144552657Y-89619047D02*
X144505038Y-89571428D01*
X144505038Y-89571428D02*
X144457419Y-89476190D01*
X144457419Y-89476190D02*
X144457419Y-89285714D01*
X144457419Y-89285714D02*
X144505038Y-89190476D01*
X144505038Y-89190476D02*
X144552657Y-89142857D01*
X144552657Y-89142857D02*
X144647895Y-89095238D01*
X144647895Y-89095238D02*
X144885990Y-89095238D01*
X144885990Y-89095238D02*
X144981228Y-89142857D01*
X144981228Y-89142857D02*
X145028847Y-89190476D01*
X145028847Y-89190476D02*
X145076466Y-89285714D01*
X145076466Y-89285714D02*
X145076466Y-89476190D01*
X145076466Y-89476190D02*
X145028847Y-89571428D01*
X145028847Y-89571428D02*
X144981228Y-89619047D01*
X144981228Y-89619047D02*
X144885990Y-89666666D01*
D11*
X154068990Y-94040000D02*
X154068990Y-94373333D01*
X153545180Y-94373333D02*
X154545180Y-94373333D01*
X154545180Y-94373333D02*
X154545180Y-93897143D01*
X153545180Y-93373333D02*
X153592800Y-93468571D01*
X153592800Y-93468571D02*
X153640419Y-93516190D01*
X153640419Y-93516190D02*
X153735657Y-93563809D01*
X153735657Y-93563809D02*
X154021371Y-93563809D01*
X154021371Y-93563809D02*
X154116609Y-93516190D01*
X154116609Y-93516190D02*
X154164228Y-93468571D01*
X154164228Y-93468571D02*
X154211847Y-93373333D01*
X154211847Y-93373333D02*
X154211847Y-93230476D01*
X154211847Y-93230476D02*
X154164228Y-93135238D01*
X154164228Y-93135238D02*
X154116609Y-93087619D01*
X154116609Y-93087619D02*
X154021371Y-93040000D01*
X154021371Y-93040000D02*
X153735657Y-93040000D01*
X153735657Y-93040000D02*
X153640419Y-93087619D01*
X153640419Y-93087619D02*
X153592800Y-93135238D01*
X153592800Y-93135238D02*
X153545180Y-93230476D01*
X153545180Y-93230476D02*
X153545180Y-93373333D01*
X153545180Y-92468571D02*
X153592800Y-92563809D01*
X153592800Y-92563809D02*
X153640419Y-92611428D01*
X153640419Y-92611428D02*
X153735657Y-92659047D01*
X153735657Y-92659047D02*
X154021371Y-92659047D01*
X154021371Y-92659047D02*
X154116609Y-92611428D01*
X154116609Y-92611428D02*
X154164228Y-92563809D01*
X154164228Y-92563809D02*
X154211847Y-92468571D01*
X154211847Y-92468571D02*
X154211847Y-92325714D01*
X154211847Y-92325714D02*
X154164228Y-92230476D01*
X154164228Y-92230476D02*
X154116609Y-92182857D01*
X154116609Y-92182857D02*
X154021371Y-92135238D01*
X154021371Y-92135238D02*
X153735657Y-92135238D01*
X153735657Y-92135238D02*
X153640419Y-92182857D01*
X153640419Y-92182857D02*
X153592800Y-92230476D01*
X153592800Y-92230476D02*
X153545180Y-92325714D01*
X153545180Y-92325714D02*
X153545180Y-92468571D01*
X154211847Y-91849523D02*
X154211847Y-91468571D01*
X154545180Y-91706666D02*
X153688038Y-91706666D01*
X153688038Y-91706666D02*
X153592800Y-91659047D01*
X153592800Y-91659047D02*
X153545180Y-91563809D01*
X153545180Y-91563809D02*
X153545180Y-91468571D01*
X153592800Y-91182856D02*
X153545180Y-91087618D01*
X153545180Y-91087618D02*
X153545180Y-90897142D01*
X153545180Y-90897142D02*
X153592800Y-90801904D01*
X153592800Y-90801904D02*
X153688038Y-90754285D01*
X153688038Y-90754285D02*
X153735657Y-90754285D01*
X153735657Y-90754285D02*
X153830895Y-90801904D01*
X153830895Y-90801904D02*
X153878514Y-90897142D01*
X153878514Y-90897142D02*
X153878514Y-91039999D01*
X153878514Y-91039999D02*
X153926133Y-91135237D01*
X153926133Y-91135237D02*
X154021371Y-91182856D01*
X154021371Y-91182856D02*
X154068990Y-91182856D01*
X154068990Y-91182856D02*
X154164228Y-91135237D01*
X154164228Y-91135237D02*
X154211847Y-91039999D01*
X154211847Y-91039999D02*
X154211847Y-90897142D01*
X154211847Y-90897142D02*
X154164228Y-90801904D01*
X154211847Y-90420951D02*
X153545180Y-90230475D01*
X153545180Y-90230475D02*
X154021371Y-90039999D01*
X154021371Y-90039999D02*
X153545180Y-89849523D01*
X153545180Y-89849523D02*
X154211847Y-89659047D01*
X153545180Y-89278094D02*
X154211847Y-89278094D01*
X154545180Y-89278094D02*
X154497561Y-89325713D01*
X154497561Y-89325713D02*
X154449942Y-89278094D01*
X154449942Y-89278094D02*
X154497561Y-89230475D01*
X154497561Y-89230475D02*
X154545180Y-89278094D01*
X154545180Y-89278094D02*
X154449942Y-89278094D01*
X154211847Y-88944761D02*
X154211847Y-88563809D01*
X154545180Y-88801904D02*
X153688038Y-88801904D01*
X153688038Y-88801904D02*
X153592800Y-88754285D01*
X153592800Y-88754285D02*
X153545180Y-88659047D01*
X153545180Y-88659047D02*
X153545180Y-88563809D01*
X153592800Y-87801904D02*
X153545180Y-87897142D01*
X153545180Y-87897142D02*
X153545180Y-88087618D01*
X153545180Y-88087618D02*
X153592800Y-88182856D01*
X153592800Y-88182856D02*
X153640419Y-88230475D01*
X153640419Y-88230475D02*
X153735657Y-88278094D01*
X153735657Y-88278094D02*
X154021371Y-88278094D01*
X154021371Y-88278094D02*
X154116609Y-88230475D01*
X154116609Y-88230475D02*
X154164228Y-88182856D01*
X154164228Y-88182856D02*
X154211847Y-88087618D01*
X154211847Y-88087618D02*
X154211847Y-87897142D01*
X154211847Y-87897142D02*
X154164228Y-87801904D01*
X153545180Y-87373332D02*
X154545180Y-87373332D01*
X153545180Y-86944761D02*
X154068990Y-86944761D01*
X154068990Y-86944761D02*
X154164228Y-86992380D01*
X154164228Y-86992380D02*
X154211847Y-87087618D01*
X154211847Y-87087618D02*
X154211847Y-87230475D01*
X154211847Y-87230475D02*
X154164228Y-87325713D01*
X154164228Y-87325713D02*
X154116609Y-87373332D01*
X153545180Y-86468570D02*
X154545180Y-86468570D01*
X154545180Y-86468570D02*
X153830895Y-86135237D01*
X153830895Y-86135237D02*
X154545180Y-85801904D01*
X154545180Y-85801904D02*
X153545180Y-85801904D01*
X153545180Y-85182856D02*
X153592800Y-85278094D01*
X153592800Y-85278094D02*
X153640419Y-85325713D01*
X153640419Y-85325713D02*
X153735657Y-85373332D01*
X153735657Y-85373332D02*
X154021371Y-85373332D01*
X154021371Y-85373332D02*
X154116609Y-85325713D01*
X154116609Y-85325713D02*
X154164228Y-85278094D01*
X154164228Y-85278094D02*
X154211847Y-85182856D01*
X154211847Y-85182856D02*
X154211847Y-85039999D01*
X154211847Y-85039999D02*
X154164228Y-84944761D01*
X154164228Y-84944761D02*
X154116609Y-84897142D01*
X154116609Y-84897142D02*
X154021371Y-84849523D01*
X154021371Y-84849523D02*
X153735657Y-84849523D01*
X153735657Y-84849523D02*
X153640419Y-84897142D01*
X153640419Y-84897142D02*
X153592800Y-84944761D01*
X153592800Y-84944761D02*
X153545180Y-85039999D01*
X153545180Y-85039999D02*
X153545180Y-85182856D01*
X153545180Y-84278094D02*
X153592800Y-84373332D01*
X153592800Y-84373332D02*
X153688038Y-84420951D01*
X153688038Y-84420951D02*
X154545180Y-84420951D01*
X153592800Y-83516189D02*
X153545180Y-83611427D01*
X153545180Y-83611427D02*
X153545180Y-83801903D01*
X153545180Y-83801903D02*
X153592800Y-83897141D01*
X153592800Y-83897141D02*
X153688038Y-83944760D01*
X153688038Y-83944760D02*
X154068990Y-83944760D01*
X154068990Y-83944760D02*
X154164228Y-83897141D01*
X154164228Y-83897141D02*
X154211847Y-83801903D01*
X154211847Y-83801903D02*
X154211847Y-83611427D01*
X154211847Y-83611427D02*
X154164228Y-83516189D01*
X154164228Y-83516189D02*
X154068990Y-83468570D01*
X154068990Y-83468570D02*
X153973752Y-83468570D01*
X153973752Y-83468570D02*
X153878514Y-83944760D01*
X153545180Y-83135236D02*
X154211847Y-82611427D01*
X154211847Y-83135236D02*
X153545180Y-82611427D01*
D13*
%TO.C,C2*%
X107380000Y-63370000D02*
X112620000Y-63370000D01*
X107380000Y-63033000D02*
X107380000Y-63370000D01*
X107380000Y-60630000D02*
X107380000Y-60967000D01*
X112620000Y-63370000D02*
X112620000Y-63033000D01*
X112620000Y-60967000D02*
X112620000Y-60630000D01*
X112620000Y-60630000D02*
X107380000Y-60630000D01*
%TO.C,J8*%
X154380000Y-131030000D02*
X138920000Y-131030000D01*
X154380000Y-125010000D02*
X154380000Y-131030000D01*
X153800000Y-130430000D02*
X153800000Y-131030000D01*
X153000000Y-126010000D02*
X153000000Y-125010000D01*
X152750000Y-126540000D02*
X153000000Y-126010000D01*
X152750000Y-125010000D02*
X152750000Y-126010000D01*
X152200000Y-131030000D02*
X152200000Y-130430000D01*
X152200000Y-130430000D02*
X153800000Y-130430000D01*
X151260000Y-130430000D02*
X151260000Y-131030000D01*
X149660000Y-131030000D02*
X149660000Y-130430000D01*
X149660000Y-130430000D02*
X151260000Y-130430000D01*
X148720000Y-130430000D02*
X148720000Y-131030000D01*
X147120000Y-131030000D02*
X147120000Y-130430000D01*
X147120000Y-130430000D02*
X148720000Y-130430000D01*
X146180000Y-130430000D02*
X146180000Y-131030000D01*
X144580000Y-131030000D02*
X144580000Y-130430000D01*
X144580000Y-130430000D02*
X146180000Y-130430000D01*
X143640000Y-130430000D02*
X143640000Y-131030000D01*
X142040000Y-131030000D02*
X142040000Y-130430000D01*
X142040000Y-130430000D02*
X143640000Y-130430000D01*
X141100000Y-130430000D02*
X141100000Y-131030000D01*
X140550000Y-126540000D02*
X152750000Y-126540000D01*
X140550000Y-125010000D02*
X140550000Y-126010000D01*
X140300000Y-126010000D02*
X153000000Y-126010000D01*
X140300000Y-126010000D02*
X140550000Y-126540000D01*
X140300000Y-125010000D02*
X140300000Y-126010000D01*
X139500000Y-131030000D02*
X139500000Y-130430000D01*
X139500000Y-130430000D02*
X141100000Y-130430000D01*
X138920000Y-131030000D02*
X138920000Y-125010000D01*
X138920000Y-125010000D02*
X154380000Y-125010000D01*
X138630000Y-130000000D02*
X138630000Y-126000000D01*
%TO.C,J10*%
X133000000Y-131030000D02*
X117540000Y-131030000D01*
X133000000Y-125010000D02*
X133000000Y-131030000D01*
X132420000Y-130430000D02*
X132420000Y-131030000D01*
X131620000Y-126010000D02*
X131620000Y-125010000D01*
X131370000Y-126540000D02*
X131620000Y-126010000D01*
X131370000Y-125010000D02*
X131370000Y-126010000D01*
X130820000Y-131030000D02*
X130820000Y-130430000D01*
X130820000Y-130430000D02*
X132420000Y-130430000D01*
X129880000Y-130430000D02*
X129880000Y-131030000D01*
X128280000Y-131030000D02*
X128280000Y-130430000D01*
X128280000Y-130430000D02*
X129880000Y-130430000D01*
X127340000Y-130430000D02*
X127340000Y-131030000D01*
X125740000Y-131030000D02*
X125740000Y-130430000D01*
X125740000Y-130430000D02*
X127340000Y-130430000D01*
X124800000Y-130430000D02*
X124800000Y-131030000D01*
X123200000Y-131030000D02*
X123200000Y-130430000D01*
X123200000Y-130430000D02*
X124800000Y-130430000D01*
X122260000Y-130430000D02*
X122260000Y-131030000D01*
X120660000Y-131030000D02*
X120660000Y-130430000D01*
X120660000Y-130430000D02*
X122260000Y-130430000D01*
X119720000Y-130430000D02*
X119720000Y-131030000D01*
X119170000Y-126540000D02*
X131370000Y-126540000D01*
X119170000Y-125010000D02*
X119170000Y-126010000D01*
X118920000Y-126010000D02*
X131620000Y-126010000D01*
X118920000Y-126010000D02*
X119170000Y-126540000D01*
X118920000Y-125010000D02*
X118920000Y-126010000D01*
X118120000Y-131030000D02*
X118120000Y-130430000D01*
X118120000Y-130430000D02*
X119720000Y-130430000D01*
X117540000Y-131030000D02*
X117540000Y-125010000D01*
X117540000Y-125010000D02*
X133000000Y-125010000D01*
X117250000Y-130000000D02*
X117250000Y-126000000D01*
%TO.C,GameTrak1*%
X110410000Y-117090000D02*
X110410000Y-119390000D01*
X110410000Y-129330000D02*
X110410000Y-126700000D01*
X110410000Y-129330000D02*
X97590000Y-129330000D01*
X110410000Y-126700000D02*
X97590000Y-126670000D01*
X110110000Y-121260000D02*
X97890000Y-121260000D01*
X110110000Y-119800000D02*
X109710000Y-119800000D01*
X110110000Y-117390000D02*
X110110000Y-121260000D01*
X109710000Y-119400000D02*
X109710000Y-121260000D01*
X109710000Y-119000000D02*
X109310000Y-119000000D01*
X109710000Y-117790000D02*
X109710000Y-119000000D01*
X109310000Y-119400000D02*
X109710000Y-119400000D01*
X109310000Y-119000000D02*
X109310000Y-119400000D01*
X108110000Y-117090000D02*
X110410000Y-117090000D01*
X104000000Y-117790000D02*
X109710000Y-117790000D01*
X104000000Y-117790000D02*
X98290000Y-117790000D01*
X98690000Y-119400000D02*
X98290000Y-119400000D01*
X98690000Y-119000000D02*
X98690000Y-119400000D01*
X98290000Y-119400000D02*
X98290000Y-121260000D01*
X98290000Y-119000000D02*
X98690000Y-119000000D01*
X98290000Y-117790000D02*
X98290000Y-119000000D01*
X97890000Y-121260000D02*
X97890000Y-117390000D01*
X97890000Y-119800000D02*
X98290000Y-119800000D01*
X97890000Y-117390000D02*
X110110000Y-117390000D01*
X97590000Y-129330000D02*
X97590000Y-126670000D01*
%TO.C,*%
X99750000Y-44000000D02*
X100250000Y-44000000D01*
X100000000Y-44250000D02*
X100000000Y-43750000D01*
%TO.C,C1*%
X111620000Y-69000000D02*
G75*
G02*
X106380000Y-69000000I-2620000J0D01*
G01*
X106380000Y-69000000D02*
G75*
G02*
X111620000Y-69000000I2620000J0D01*
G01*
X111580000Y-69000000D02*
X110040000Y-69000000D01*
X111580000Y-68960000D02*
X110040000Y-68960000D01*
X111579000Y-68920000D02*
X110040000Y-68920000D01*
X111577000Y-68880000D02*
X110040000Y-68880000D01*
X111575000Y-68840000D02*
X110040000Y-68840000D01*
X111572000Y-68800000D02*
X110040000Y-68800000D01*
X111569000Y-68760000D02*
X110040000Y-68760000D01*
X111565000Y-68720000D02*
X110040000Y-68720000D01*
X111560000Y-68680000D02*
X110040000Y-68680000D01*
X111555000Y-68640000D02*
X110040000Y-68640000D01*
X111549000Y-68600000D02*
X110040000Y-68600000D01*
X111543000Y-68560000D02*
X110040000Y-68560000D01*
X111536000Y-68520000D02*
X110040000Y-68520000D01*
X111528000Y-68480000D02*
X110040000Y-68480000D01*
X111519000Y-68440000D02*
X110040000Y-68440000D01*
X111510000Y-68400000D02*
X110040000Y-68400000D01*
X111501000Y-68360000D02*
X110040000Y-68360000D01*
X111490000Y-68320000D02*
X110040000Y-68320000D01*
X111479000Y-68280000D02*
X110040000Y-68280000D01*
X111467000Y-68240000D02*
X110040000Y-68240000D01*
X111455000Y-68200000D02*
X110040000Y-68200000D01*
X111442000Y-68160000D02*
X110040000Y-68160000D01*
X111428000Y-68120000D02*
X110040000Y-68120000D01*
X111413000Y-68080000D02*
X110040000Y-68080000D01*
X111398000Y-68040000D02*
X110040000Y-68040000D01*
X111382000Y-68000000D02*
X110040000Y-68000000D01*
X111365000Y-67960000D02*
X110040000Y-67960000D01*
X111347000Y-67920000D02*
X110040000Y-67920000D01*
X111329000Y-67880000D02*
X110040000Y-67880000D01*
X111309000Y-67840000D02*
X110040000Y-67840000D01*
X111289000Y-67800000D02*
X110040000Y-67800000D01*
X111268000Y-67760000D02*
X110040000Y-67760000D01*
X111246000Y-67720000D02*
X110040000Y-67720000D01*
X111223000Y-67680000D02*
X110040000Y-67680000D01*
X111199000Y-67640000D02*
X110040000Y-67640000D01*
X111175000Y-67600000D02*
X110040000Y-67600000D01*
X111149000Y-67560000D02*
X110040000Y-67560000D01*
X111122000Y-67520000D02*
X110040000Y-67520000D01*
X111094000Y-67480000D02*
X110040000Y-67480000D01*
X111065000Y-67440000D02*
X110040000Y-67440000D01*
X111035000Y-67400000D02*
X110040000Y-67400000D01*
X111003000Y-67360000D02*
X110040000Y-67360000D01*
X110970000Y-67320000D02*
X110040000Y-67320000D01*
X110936000Y-67280000D02*
X110040000Y-67280000D01*
X110901000Y-67240000D02*
X110040000Y-67240000D01*
X110864000Y-67200000D02*
X110040000Y-67200000D01*
X110825000Y-67160000D02*
X110040000Y-67160000D01*
X110785000Y-67120000D02*
X110040000Y-67120000D01*
X110743000Y-67080000D02*
X110040000Y-67080000D01*
X110725000Y-71554775D02*
X110225000Y-71554775D01*
X110699000Y-67040000D02*
X110040000Y-67040000D01*
X110652000Y-67000000D02*
X110040000Y-67000000D01*
X110604000Y-66960000D02*
X107396000Y-66960000D01*
X110553000Y-66920000D02*
X107447000Y-66920000D01*
X110499000Y-66880000D02*
X107501000Y-66880000D01*
X110475000Y-71804775D02*
X110475000Y-71304775D01*
X110443000Y-66840000D02*
X107557000Y-66840000D01*
X110383000Y-66800000D02*
X107617000Y-66800000D01*
X110319000Y-66760000D02*
X107681000Y-66760000D01*
X110251000Y-66720000D02*
X107749000Y-66720000D01*
X110177000Y-66680000D02*
X107823000Y-66680000D01*
X110098000Y-66640000D02*
X107902000Y-66640000D01*
X110011000Y-66600000D02*
X107989000Y-66600000D01*
X109914000Y-66560000D02*
X108086000Y-66560000D01*
X109805000Y-66520000D02*
X108195000Y-66520000D01*
X109677000Y-66480000D02*
X108323000Y-66480000D01*
X109517000Y-66440000D02*
X108483000Y-66440000D01*
X109283000Y-66400000D02*
X108717000Y-66400000D01*
X107960000Y-69000000D02*
X106420000Y-69000000D01*
X107960000Y-68960000D02*
X106420000Y-68960000D01*
X107960000Y-68920000D02*
X106421000Y-68920000D01*
X107960000Y-68880000D02*
X106423000Y-68880000D01*
X107960000Y-68840000D02*
X106425000Y-68840000D01*
X107960000Y-68800000D02*
X106428000Y-68800000D01*
X107960000Y-68760000D02*
X106431000Y-68760000D01*
X107960000Y-68720000D02*
X106435000Y-68720000D01*
X107960000Y-68680000D02*
X106440000Y-68680000D01*
X107960000Y-68640000D02*
X106445000Y-68640000D01*
X107960000Y-68600000D02*
X106451000Y-68600000D01*
X107960000Y-68560000D02*
X106457000Y-68560000D01*
X107960000Y-68520000D02*
X106464000Y-68520000D01*
X107960000Y-68480000D02*
X106472000Y-68480000D01*
X107960000Y-68440000D02*
X106481000Y-68440000D01*
X107960000Y-68400000D02*
X106490000Y-68400000D01*
X107960000Y-68360000D02*
X106499000Y-68360000D01*
X107960000Y-68320000D02*
X106510000Y-68320000D01*
X107960000Y-68280000D02*
X106521000Y-68280000D01*
X107960000Y-68240000D02*
X106533000Y-68240000D01*
X107960000Y-68200000D02*
X106545000Y-68200000D01*
X107960000Y-68160000D02*
X106558000Y-68160000D01*
X107960000Y-68120000D02*
X106572000Y-68120000D01*
X107960000Y-68080000D02*
X106587000Y-68080000D01*
X107960000Y-68040000D02*
X106602000Y-68040000D01*
X107960000Y-68000000D02*
X106618000Y-68000000D01*
X107960000Y-67960000D02*
X106635000Y-67960000D01*
X107960000Y-67920000D02*
X106653000Y-67920000D01*
X107960000Y-67880000D02*
X106671000Y-67880000D01*
X107960000Y-67840000D02*
X106691000Y-67840000D01*
X107960000Y-67800000D02*
X106711000Y-67800000D01*
X107960000Y-67760000D02*
X106732000Y-67760000D01*
X107960000Y-67720000D02*
X106754000Y-67720000D01*
X107960000Y-67680000D02*
X106777000Y-67680000D01*
X107960000Y-67640000D02*
X106801000Y-67640000D01*
X107960000Y-67600000D02*
X106825000Y-67600000D01*
X107960000Y-67560000D02*
X106851000Y-67560000D01*
X107960000Y-67520000D02*
X106878000Y-67520000D01*
X107960000Y-67480000D02*
X106906000Y-67480000D01*
X107960000Y-67440000D02*
X106935000Y-67440000D01*
X107960000Y-67400000D02*
X106965000Y-67400000D01*
X107960000Y-67360000D02*
X106997000Y-67360000D01*
X107960000Y-67320000D02*
X107030000Y-67320000D01*
X107960000Y-67280000D02*
X107064000Y-67280000D01*
X107960000Y-67240000D02*
X107099000Y-67240000D01*
X107960000Y-67200000D02*
X107136000Y-67200000D01*
X107960000Y-67160000D02*
X107175000Y-67160000D01*
X107960000Y-67120000D02*
X107215000Y-67120000D01*
X107960000Y-67080000D02*
X107257000Y-67080000D01*
X107960000Y-67040000D02*
X107301000Y-67040000D01*
X107960000Y-67000000D02*
X107348000Y-67000000D01*
%TO.C,R1*%
X146630000Y-51730000D02*
X146630000Y-58270000D01*
X146630000Y-58270000D02*
X146960000Y-58270000D01*
X146960000Y-51730000D02*
X146630000Y-51730000D01*
X149040000Y-51730000D02*
X149370000Y-51730000D01*
X149370000Y-51730000D02*
X149370000Y-58270000D01*
X149370000Y-58270000D02*
X149040000Y-58270000D01*
%TO.C,A1*%
X117720000Y-63340000D02*
X117720000Y-114340000D01*
X117720000Y-114340000D02*
X135520000Y-114340000D01*
X120240000Y-63340000D02*
X120240000Y-114340000D01*
X122620000Y-62140000D02*
X122620000Y-63340000D01*
X130620000Y-62140000D02*
X122620000Y-62140000D01*
X130620000Y-63340000D02*
X130620000Y-62140000D01*
X133040000Y-63340000D02*
X133040000Y-114340000D01*
X133520000Y-63040000D02*
X135820000Y-63040000D01*
X135520000Y-63340000D02*
X117720000Y-63340000D01*
X135520000Y-114340000D02*
X135520000Y-63340000D01*
X135820000Y-63040000D02*
X135820000Y-65440000D01*
%TO.C,J1*%
X158790000Y-59000000D02*
X158790000Y-55000000D01*
X159080000Y-54010000D02*
X164380000Y-54010000D01*
X159080000Y-60030000D02*
X159080000Y-54010000D01*
X159660000Y-59430000D02*
X161260000Y-59430000D01*
X159660000Y-60030000D02*
X159660000Y-59430000D01*
X160460000Y-54010000D02*
X160460000Y-55010000D01*
X160460000Y-55010000D02*
X160710000Y-55540000D01*
X160460000Y-55010000D02*
X163000000Y-55010000D01*
X160710000Y-54010000D02*
X160710000Y-55010000D01*
X160710000Y-55540000D02*
X162750000Y-55540000D01*
X161260000Y-59430000D02*
X161260000Y-60030000D01*
X162200000Y-59430000D02*
X163800000Y-59430000D01*
X162200000Y-60030000D02*
X162200000Y-59430000D01*
X162750000Y-54010000D02*
X162750000Y-55010000D01*
X162750000Y-55540000D02*
X163000000Y-55010000D01*
X163000000Y-55010000D02*
X163000000Y-54010000D01*
X163800000Y-59430000D02*
X163800000Y-60030000D01*
X164380000Y-54010000D02*
X164380000Y-60030000D01*
X164380000Y-60030000D02*
X159080000Y-60030000D01*
%TO.C,D1*%
X117601384Y-46216032D02*
X117931384Y-46216032D01*
X117601384Y-52756032D02*
X117601384Y-46216032D01*
X117931384Y-52756032D02*
X117601384Y-52756032D01*
X120011384Y-52756032D02*
X120341384Y-52756032D01*
X120341384Y-46216032D02*
X120011384Y-46216032D01*
X120341384Y-52756032D02*
X120341384Y-46216032D01*
%TO.C,J9*%
X147000000Y-80330000D02*
X151000000Y-80330000D01*
X151990000Y-80620000D02*
X151990000Y-96080000D01*
X145970000Y-80620000D02*
X151990000Y-80620000D01*
X146570000Y-81200000D02*
X146570000Y-82800000D01*
X145970000Y-81200000D02*
X146570000Y-81200000D01*
X151990000Y-82000000D02*
X150990000Y-82000000D01*
X150990000Y-82000000D02*
X150460000Y-82250000D01*
X150990000Y-82000000D02*
X150990000Y-94700000D01*
X151990000Y-82250000D02*
X150990000Y-82250000D01*
X150460000Y-82250000D02*
X150460000Y-94450000D01*
X146570000Y-82800000D02*
X145970000Y-82800000D01*
X146570000Y-83740000D02*
X146570000Y-85340000D01*
X145970000Y-83740000D02*
X146570000Y-83740000D01*
X146570000Y-85340000D02*
X145970000Y-85340000D01*
X146570000Y-86280000D02*
X146570000Y-87880000D01*
X145970000Y-86280000D02*
X146570000Y-86280000D01*
X146570000Y-87880000D02*
X145970000Y-87880000D01*
X146570000Y-88820000D02*
X146570000Y-90420000D01*
X145970000Y-88820000D02*
X146570000Y-88820000D01*
X146570000Y-90420000D02*
X145970000Y-90420000D01*
X146570000Y-91360000D02*
X146570000Y-92960000D01*
X145970000Y-91360000D02*
X146570000Y-91360000D01*
X146570000Y-92960000D02*
X145970000Y-92960000D01*
X146570000Y-93900000D02*
X146570000Y-95500000D01*
X145970000Y-93900000D02*
X146570000Y-93900000D01*
X151990000Y-94450000D02*
X150990000Y-94450000D01*
X150460000Y-94450000D02*
X150990000Y-94700000D01*
X150990000Y-94700000D02*
X151990000Y-94700000D01*
X146570000Y-95500000D02*
X145970000Y-95500000D01*
X151990000Y-96080000D02*
X145970000Y-96080000D01*
X145970000Y-96080000D02*
X145970000Y-80620000D01*
%TD*%
%LPC*%
D14*
%TO.C,C2*%
X107500000Y-62000000D03*
X112500000Y-62000000D03*
%TD*%
D15*
%TO.C,J8*%
X153000000Y-128000000D03*
X145380000Y-128000000D03*
X150460000Y-128000000D03*
X142840000Y-128000000D03*
X147920000Y-128000000D03*
D16*
X140300000Y-128000000D03*
%TD*%
D15*
%TO.C,J10*%
X131620000Y-128000000D03*
X124000000Y-128000000D03*
X129080000Y-128000000D03*
X121460000Y-128000000D03*
X126540000Y-128000000D03*
D16*
X118920000Y-128000000D03*
%TD*%
D17*
%TO.C,SW1*%
X109000000Y-85460000D03*
X109000000Y-88000000D03*
D18*
X109000000Y-90540000D03*
%TD*%
D17*
%TO.C,SW2*%
X162000000Y-42155000D03*
X162000000Y-44695000D03*
D18*
X162000000Y-47235000D03*
%TD*%
D17*
%TO.C,SW3*%
X85000000Y-116460000D03*
X85000000Y-119000000D03*
D18*
X85000000Y-121540000D03*
%TD*%
D19*
%TO.C,BT4*%
X141750000Y-102000000D03*
D20*
X154250000Y-102000000D03*
X141750000Y-107000000D03*
X154250000Y-107000000D03*
%TD*%
D19*
%TO.C,BT2*%
X141750000Y-69500000D03*
D20*
X154250000Y-69500000D03*
X141750000Y-74500000D03*
X154250000Y-74500000D03*
%TD*%
D21*
%TO.C,BT3*%
X91000000Y-51500000D03*
X97500000Y-51500000D03*
X91000000Y-56000000D03*
X97500000Y-56000000D03*
%TD*%
%TO.C,BT1*%
X71000000Y-51500000D03*
X77500000Y-51500000D03*
X71000000Y-56000000D03*
X77500000Y-56000000D03*
%TD*%
D22*
%TO.C,LED1*%
X154540000Y-45000000D03*
D23*
X152000000Y-45000000D03*
%TD*%
D24*
%TO.C,GameTrak1*%
X109080000Y-128000000D03*
D25*
X108000000Y-119000000D03*
D26*
X106540000Y-128000000D03*
D27*
X106000000Y-119000000D03*
X104000000Y-119000000D03*
D26*
X104000000Y-128000000D03*
D27*
X102000000Y-119000000D03*
D26*
X101460000Y-128000000D03*
D27*
X100000000Y-119000000D03*
D26*
X98920000Y-128000000D03*
%TD*%
D14*
%TO.C,C1*%
X109000000Y-68000000D03*
D28*
X109000000Y-70000000D03*
%TD*%
D14*
%TO.C,R1*%
X148000000Y-51190000D03*
X148000000Y-58810000D03*
%TD*%
D24*
%TO.C,A1*%
X134240000Y-64740000D03*
D29*
X134240000Y-67280000D03*
X134240000Y-69820000D03*
X134240000Y-72360000D03*
X134240000Y-74900000D03*
X134240000Y-77440000D03*
X134240000Y-79980000D03*
X134240000Y-82520000D03*
X134240000Y-85060000D03*
X134240000Y-87600000D03*
X134240000Y-90140000D03*
X134240000Y-92680000D03*
X134240000Y-95220000D03*
X134240000Y-97760000D03*
X134240000Y-100300000D03*
X134240000Y-102840000D03*
X134240000Y-105380000D03*
X134240000Y-107920000D03*
X134240000Y-110460000D03*
X134240000Y-113000000D03*
X119000000Y-113000000D03*
X119000000Y-110460000D03*
X119000000Y-107920000D03*
X119000000Y-105380000D03*
X119000000Y-102840000D03*
X119000000Y-100300000D03*
X119000000Y-97760000D03*
X119000000Y-95220000D03*
X119000000Y-92680000D03*
X119000000Y-90140000D03*
X119000000Y-87600000D03*
X119000000Y-85060000D03*
X119000000Y-82520000D03*
X119000000Y-79980000D03*
X119000000Y-77440000D03*
X119000000Y-74900000D03*
X119000000Y-72360000D03*
X119000000Y-69820000D03*
X119000000Y-67280000D03*
X119000000Y-64740000D03*
%TD*%
D16*
%TO.C,J1*%
X160460000Y-57000000D03*
D15*
X163000000Y-57000000D03*
%TD*%
D14*
%TO.C,D1*%
X118971384Y-53296032D03*
X118971384Y-45676032D03*
%TD*%
D30*
%TO.C,J9*%
X149000000Y-82000000D03*
D31*
X149000000Y-89620000D03*
X149000000Y-84540000D03*
X149000000Y-92160000D03*
X149000000Y-87080000D03*
X149000000Y-94700000D03*
%TD*%
%LPD*%
M02*
