M48
; DRILL file {KiCad 9.0.6} date 2025-12-09T15:58:15+0100
; FORMAT={-:-/ absolute / metric / decimal}
; #@! TF.CreationDate,2025-12-09T15:58:15+01:00
; #@! TF.GenerationSoftware,Kicad,Pcbnew,9.0.6
; #@! TF.FileFunction,Plated,1,4,PTH
FMAT,2
METRIC
; #@! TA.AperFunction,Plated,PTH,ComponentDrill
T1C0.800
; #@! TA.AperFunction,Plated,PTH,ComponentDrill
T2C0.900
; #@! TA.AperFunction,Plated,PTH,ComponentDrill
T3C1.000
; #@! TA.AperFunction,Plated,PTH,ComponentDrill
T4C1.090
; #@! TA.AperFunction,Plated,PTH,ComponentDrill
T5C1.100
; #@! TA.AperFunction,Plated,PTH,ComponentDrill
T6C1.190
; #@! TA.AperFunction,Plated,PTH,ComponentDrill
T7C1.300
%
G90
G05
T1
X100.0Y-119.0
X102.0Y-119.0
X104.0Y-119.0
X106.0Y-119.0
X107.5Y-62.0
X108.0Y-119.0
X109.0Y-68.0
X109.0Y-70.0
X112.5Y-62.0
X118.971Y-45.676
X118.971Y-53.296
X148.0Y-51.19
X148.0Y-58.81
T2
X152.0Y-45.0
X154.54Y-45.0
T3
X98.92Y-128.0
X101.46Y-128.0
X104.0Y-128.0
X106.54Y-128.0
X109.08Y-128.0
T4
X85.0Y-116.46
X85.0Y-119.0
X85.0Y-121.54
X109.0Y-85.46
X109.0Y-88.0
X109.0Y-90.54
X162.0Y-42.155
X162.0Y-44.695
X162.0Y-47.235
T5
X71.0Y-51.5
X71.0Y-56.0
X77.5Y-51.5
X77.5Y-56.0
X91.0Y-51.5
X91.0Y-56.0
X97.5Y-51.5
X97.5Y-56.0
X119.0Y-64.74
X119.0Y-67.28
X119.0Y-69.82
X119.0Y-72.36
X119.0Y-74.9
X119.0Y-77.44
X119.0Y-79.98
X119.0Y-82.52
X119.0Y-85.06
X119.0Y-87.6
X119.0Y-90.14
X119.0Y-92.68
X119.0Y-95.22
X119.0Y-97.76
X119.0Y-100.3
X119.0Y-102.84
X119.0Y-105.38
X119.0Y-107.92
X119.0Y-110.46
X119.0Y-113.0
X134.24Y-64.74
X134.24Y-67.28
X134.24Y-69.82
X134.24Y-72.36
X134.24Y-74.9
X134.24Y-77.44
X134.24Y-79.98
X134.24Y-82.52
X134.24Y-85.06
X134.24Y-87.6
X134.24Y-90.14
X134.24Y-92.68
X134.24Y-95.22
X134.24Y-97.76
X134.24Y-100.3
X134.24Y-102.84
X134.24Y-105.38
X134.24Y-107.92
X134.24Y-110.46
X134.24Y-113.0
T6
X118.92Y-128.0
X121.46Y-128.0
X124.0Y-128.0
X126.54Y-128.0
X129.08Y-128.0
X131.62Y-128.0
X140.3Y-128.0
X142.84Y-128.0
X145.38Y-128.0
X147.92Y-128.0
X149.0Y-82.0
X149.0Y-84.54
X149.0Y-87.08
X149.0Y-89.62
X149.0Y-92.16
X149.0Y-94.7
X150.46Y-128.0
X153.0Y-128.0
X160.46Y-57.0
X163.0Y-57.0
T7
X141.75Y-69.5
X141.75Y-74.5
X141.75Y-102.0
X141.75Y-107.0
X154.25Y-69.5
X154.25Y-74.5
X154.25Y-102.0
X154.25Y-107.0
M30
